<svg xmlns="http://www.w3.org/2000/svg" viewBox="0 0 1000 560.2"><defs><style>.a,.e{fill:none;stroke-miterlimit:10;stroke-width:5px;}.a{stroke:#ff0;}.b{fill:#fff;}.c{fill:#ff0;}.d{fill:lime;}.e{stroke:#fff;}</style></defs><rect width="779" height="560.22"/><rect class="a" x="510.5" y="160.1" width="197" height="161.82" rx="26.2"/><path class="b" d="M172.7,181.5a2.9,2.9,0,0,1-.8-2.1v-2.5a1.1,1.1,0,0,0-.3-.8.8.8,0,0,0-.7-.2v-1.8a.9.9,0,0,0,.7-.3c.2-.1.3-.4.3-.8v-2.4a3.3,3.3,0,0,1,.8-2.2,2.8,2.8,0,0,1,2.1-.7h.6v1.7h-.3a1.1,1.1,0,0,0-.8.3,1.7,1.7,0,0,0-.3,1V173a2.5,2.5,0,0,1-.3,1.3,1.2,1.2,0,0,1-.9.6h0a1.7,1.7,0,0,1,.9.7,2.3,2.3,0,0,1,.3,1.3v2.3a1.2,1.2,0,0,0,.3.9.9.9,0,0,0,.8.4h.3v1.7h-.6A2.5,2.5,0,0,1,172.7,181.5Z"/><path class="b" d="M189.9,193.5h-1.4v-1.8h1.4v-2.4H192v2.4h1.9v1.8H192v3.6a.5.5,0,0,0,.2.4.9.9,0,0,0,.7.3h.7l.6,1.8c-.2.2-.5.2-.8.3h-.9l-1.1-.2-.8-.5a2.8,2.8,0,0,1-.7-2.1Z"/><path class="b" d="M200.1,198.7H200l-.9.8a2.9,2.9,0,0,1-1.4.3l-1.1-.2a1.5,1.5,0,0,1-.9-.6,2.7,2.7,0,0,1-.7-.8,3.1,3.1,0,0,1,0-2.2,2.7,2.7,0,0,1,.7-.8,2.1,2.1,0,0,1,1-.6l1.3-.2,1.3.2.8.2v-.2a1.6,1.6,0,0,0-.5-1.1,2.5,2.5,0,0,0-1.2-.4,2.3,2.3,0,0,0-1.9.9l-1.5-1a4.3,4.3,0,0,1,3.4-1.6,4.1,4.1,0,0,1,2.8.9,3.3,3.3,0,0,1,.9,2.5v4.7h-2Zm0-2.4-.8-.2h-.8a2.1,2.1,0,0,0-1.2.3,1,1,0,0,0,0,1.6l.9.3.8-.2.6-.4c.1-.2.3-.4.3-.6A1.4,1.4,0,0,0,200.1,196.3Z"/><path class="b" d="M203.8,188.1h2.1v4.5h.1a2.4,2.4,0,0,1,.9-.8,3.3,3.3,0,0,1,1.5-.4,3.2,3.2,0,0,1,1.4.3,4.8,4.8,0,0,1,2.1,2.2,5,5,0,0,1,0,3.4,3.8,3.8,0,0,1-.9,1.3,2.7,2.7,0,0,1-1.2.9,3.2,3.2,0,0,1-1.4.3,2.4,2.4,0,0,1-1.5-.4,2.4,2.4,0,0,1-.9-.8h-.1v.9h-2Zm4.1,9.7h.8l.6-.5a1.8,1.8,0,0,0,.5-.7,2,2,0,0,0,.2-.9,2.9,2.9,0,0,0-.2-.9,1.8,1.8,0,0,0-.5-.7l-.6-.5h-1.6a1.8,1.8,0,0,0-.7.5,1.6,1.6,0,0,0-.4.7,1.3,1.3,0,0,0-.2.9,1.6,1.6,0,0,0,.2,1,2.5,2.5,0,0,0,.4.7l.7.4Z"/><path class="b" d="M215.9,199.5V191l-2,.9-.7-1.8,3.2-1.5H218v10.9Z"/><path class="b" d="M221.5,194.3a1.5,1.5,0,0,1-1-.4,1.5,1.5,0,0,1,0-2,1.2,1.2,0,0,1,1-.4,1.1,1.1,0,0,1,.9.4,1.4,1.4,0,0,1,0,2A1.5,1.5,0,0,1,221.5,194.3Zm0,5.2a1.2,1.2,0,0,1-1-.4,1.3,1.3,0,0,1-.4-1,1.1,1.1,0,0,1,.4-.9,1.2,1.2,0,0,1,1-.4,1.4,1.4,0,0,1,1.3,1.3,1.3,1.3,0,0,1-.4,1A1.1,1.1,0,0,1,221.5,199.5Z"/><path class="b" d="M230.6,188.3l-.8,1.3a1,1,0,0,1,.6.5,1.1,1.1,0,0,1,.3.8,1.8,1.8,0,0,1-.4,1,1.4,1.4,0,0,1-2.4-1,1.3,1.3,0,0,1,.1-.6l.3-.5,1.4-2.1Zm3.5,0-.8,1.3a1,1,0,0,1,.6.5,1.1,1.1,0,0,1,.3.8,1.8,1.8,0,0,1-.4,1,1.4,1.4,0,0,1-2.4-1,1.3,1.3,0,0,1,.1-.6l.3-.5,1.4-2.1Z"/><path class="b" d="M236.1,188.1h2.1v4.5h4.9v-4.5h2.1v11.4h-2.1v-4.8h-4.9v4.8h-2.1Z"/><path class="b" d="M254.7,197.6a4.6,4.6,0,0,1-1.5,1.6,3.8,3.8,0,0,1-2.2.6,4.7,4.7,0,0,1-1.7-.3,4.4,4.4,0,0,1-2.2-2.2,4.7,4.7,0,0,1-.3-1.7,4.1,4.1,0,0,1,.3-1.6,3.8,3.8,0,0,1,.9-1.3,3,3,0,0,1,1.3-.9,2.9,2.9,0,0,1,1.6-.4,4.7,4.7,0,0,1,1.7.3,3.8,3.8,0,0,1,1.2.9,5.7,5.7,0,0,1,.8,1.3,8.8,8.8,0,0,1,.2,1.6v.6h-5.9a1.9,1.9,0,0,0,.2.8l.5.6.7.3h.7a2.1,2.1,0,0,0,1.2-.3,1.8,1.8,0,0,0,.7-.8Zm-1.9-3a4.3,4.3,0,0,1-.1-.5l-.4-.4-.6-.4-.8-.2a2.8,2.8,0,0,0-1.2.4,2.1,2.1,0,0,0-.7,1.1Z"/><path class="b" d="M256.2,199.5V188.1h2.1v11.4Z"/><path class="b" d="M260.1,199.5V188.1h2v11.4Z"/><path class="b" d="M267.6,191.4a4.1,4.1,0,0,1,1.6.3,4.8,4.8,0,0,1,1.4.9,5.7,5.7,0,0,1,.8,1.3,5,5,0,0,1,0,3.4,5.7,5.7,0,0,1-.8,1.3,3.4,3.4,0,0,1-1.4.9,4.1,4.1,0,0,1-1.6.3,4.7,4.7,0,0,1-1.7-.3,4.4,4.4,0,0,1-2.2-2.2,5,5,0,0,1,0-3.4,3.8,3.8,0,0,1,.9-1.3,6,6,0,0,1,1.3-.9A4.7,4.7,0,0,1,267.6,191.4Zm0,6.4h.7l.7-.4.5-.7a3.1,3.1,0,0,0,.1-1,2.5,2.5,0,0,0-.1-.9,2.6,2.6,0,0,0-1.2-1.2h-1.5a1.8,1.8,0,0,0-.7.5,1.6,1.6,0,0,0-.4.7,2.4,2.4,0,0,0-.2.9,3,3,0,0,0,.2,1,2.5,2.5,0,0,0,.4.7l.7.4Z"/><path class="b" d="M276.5,191.7l.8-1.2-.6-.5a1.1,1.1,0,0,1-.2-.8,1.3,1.3,0,0,1,.4-1,1.5,1.5,0,0,1,1-.4,1.5,1.5,0,0,1,.9.4,1.3,1.3,0,0,1,.4,1,1.3,1.3,0,0,1-.1.6.9.9,0,0,1-.3.5l-1.4,2Zm3.5,0,.8-1.2-.6-.5a1.9,1.9,0,0,1-.2-.8,1.3,1.3,0,0,1,.4-1,1.8,1.8,0,0,1,1-.4,1.5,1.5,0,0,1,.9.4,1.3,1.3,0,0,1,.4,1,1.3,1.3,0,0,1-.1.6.9.9,0,0,1-.3.5l-1.4,2Z"/><path class="b" d="M284.2,201l1-1.5c-.3-.1-.5-.2-.6-.5a1.1,1.1,0,0,1-.3-.8,1,1,0,0,1,.4-.9,1.4,1.4,0,0,1,2,0,1.3,1.3,0,0,1,.4.9c0,.2-.1.4-.1.6l-.3.5-1.5,2.3Z"/><path class="b" d="M189.9,212.7h-1.4v-1.8h1.4v-2.4H192v2.4h1.9v1.8H192v3.6a.5.5,0,0,0,.2.4.9.9,0,0,0,.7.3h.7l.6,1.8c-.2.2-.5.2-.8.3h-.9l-1.1-.2-.8-.5a2.8,2.8,0,0,1-.7-2.1Z"/><path class="b" d="M200.1,217.9H200l-.9.8a2.9,2.9,0,0,1-1.4.3l-1.1-.2a1.5,1.5,0,0,1-.9-.6,2.7,2.7,0,0,1-.7-.8,3.1,3.1,0,0,1,0-2.2,2.7,2.7,0,0,1,.7-.8,2.1,2.1,0,0,1,1-.6l1.3-.2,1.3.2.8.2v-.2a1.6,1.6,0,0,0-.5-1.1,2.5,2.5,0,0,0-1.2-.4,2.3,2.3,0,0,0-1.9.9l-1.5-1a4.3,4.3,0,0,1,3.4-1.6,4.1,4.1,0,0,1,2.8.9,3.3,3.3,0,0,1,.9,2.5v4.7h-2Zm0-2.4-.8-.2h-.8a2.1,2.1,0,0,0-1.2.3,1,1,0,0,0,0,1.6,1.6,1.6,0,0,0,.9.3l.8-.2.6-.4c.1-.2.3-.4.3-.6A1.4,1.4,0,0,0,200.1,215.5Z"/><path class="b" d="M203.8,207.3h2.1v4.5h.1a2.4,2.4,0,0,1,.9-.8,3.3,3.3,0,0,1,1.5-.4,3.2,3.2,0,0,1,1.4.3,4.8,4.8,0,0,1,2.1,2.2,5,5,0,0,1,0,3.4,3.8,3.8,0,0,1-.9,1.3,2.7,2.7,0,0,1-1.2.9,3.2,3.2,0,0,1-1.4.3,2.4,2.4,0,0,1-1.5-.4,2.4,2.4,0,0,1-.9-.8h-.1v.9h-2Zm4.1,9.7h.8l.6-.5a1.8,1.8,0,0,0,.5-.7,2,2,0,0,0,.2-.9,2.9,2.9,0,0,0-.2-.9,1.8,1.8,0,0,0-.5-.7l-.6-.5h-1.6a1.8,1.8,0,0,0-.7.5,1.6,1.6,0,0,0-.4.7,1.3,1.3,0,0,0-.2.9,1.6,1.6,0,0,0,.2,1,2.5,2.5,0,0,0,.4.7l.7.4Z"/><path class="b" d="M213.3,218.7v-1.9l1.7-1.7.7-.7.6-.6.6-.6.4-.4.4-.5.3-.5c.1-.2.2-.3.2-.5a.7.7,0,0,0,.1-.5,1.8,1.8,0,0,0-.4-.9,1.6,1.6,0,0,0-1.2-.4,1.4,1.4,0,0,0-1.1.4,2,2,0,0,0-.5.9l-1.9-.7a1.8,1.8,0,0,1,.4-.9,2.7,2.7,0,0,1,.7-.8,2.4,2.4,0,0,1,1.1-.6,2.9,2.9,0,0,1,1.4-.3,4,4,0,0,1,1.5.3,2.6,2.6,0,0,1,1.1.7,2.6,2.6,0,0,1,.7,1,2.7,2.7,0,0,1,.3,1.2,4.1,4.1,0,0,1-.5,1.9,10.1,10.1,0,0,1-1.3,1.6l-1.3,1.4-1.3,1.2h4.5v1.8Z"/><path class="b" d="M223.4,213.5a1.8,1.8,0,0,1-1-.4,1.4,1.4,0,0,1,2-2,1.4,1.4,0,0,1-1,2.4Zm0,5.2a1.4,1.4,0,0,1-1.4-1.4,1.1,1.1,0,0,1,.4-.9,1.4,1.4,0,0,1,2,0,1.5,1.5,0,0,1,.4.9,1.8,1.8,0,0,1-.4,1A1.3,1.3,0,0,1,223.4,218.7Z"/><path class="b" d="M232.6,207.5l-.9,1.3a1.8,1.8,0,0,1,.7.5,1.9,1.9,0,0,1,.2.8,1.4,1.4,0,0,1-2.4,1,1.8,1.8,0,0,1-.4-1c0-.2.1-.4.1-.6l.3-.5,1.4-2.1Zm3.5,0-.8,1.3.6.5a1.9,1.9,0,0,1,.2.8,1.4,1.4,0,0,1-2.4,1,1.8,1.8,0,0,1-.4-1c0-.2.1-.4.1-.6l.3-.5,1.4-2.1Z"/><path class="b" d="M236.9,210.9h2.4l1.3,4.9h.1l1.5-4.9h2.2l1.6,4.9h.1l1.3-4.9h2.3l-2.5,7.8h-2.3l-1.6-4.9h-.1l-1.5,4.9h-2.3Z"/><path class="b" d="M254.2,210.6a4.7,4.7,0,0,1,1.7.3,6,6,0,0,1,1.3.9,5.7,5.7,0,0,1,.8,1.3,3.8,3.8,0,0,1,0,3.4,5.7,5.7,0,0,1-.8,1.3,3.8,3.8,0,0,1-1.3.9,5,5,0,0,1-3.4,0,3.8,3.8,0,0,1-1.3-.9,6,6,0,0,1-.9-1.3,5,5,0,0,1,0-3.4,4.4,4.4,0,0,1,2.2-2.2A4.7,4.7,0,0,1,254.2,210.6Zm0,6.4h.8l.6-.4.5-.7a3,3,0,0,0,.2-1,2.4,2.4,0,0,0-.2-.9,1.8,1.8,0,0,0-.5-.7l-.6-.5h-1.6a1.5,1.5,0,0,0-.6.5,1.8,1.8,0,0,0-.5.7,2.4,2.4,0,0,0-.2.9,3,3,0,0,0,.2,1l.5.7.6.4Z"/><path class="b" d="M259.5,210.9h2V212h.1l.4-.6.6-.4.6-.3h1.4l.5.3-.6,1.8h-1l-.7.2a1,1,0,0,0-.6.5,1.6,1.6,0,0,0-.4.7,2,2,0,0,0-.2.9v3.8h-2.1Z"/><path class="b" d="M266.1,218.7V207.3h2.1v11.4Z"/><path class="b" d="M275.8,217.8h-.1a2.4,2.4,0,0,1-.9.8,2.8,2.8,0,0,1-1.5.4,4,4,0,0,1-1.5-.3,4.7,4.7,0,0,1-1.2-.9,5.7,5.7,0,0,1-.8-1.3,5,5,0,0,1,0-3.4,5.7,5.7,0,0,1,.8-1.3,9.4,9.4,0,0,1,1.2-.9,4,4,0,0,1,1.5-.3,4.2,4.2,0,0,1,1.5.4,2.4,2.4,0,0,1,.9.8h.1v-4.5h2v11.4h-1.9Zm-2.1-.8h.8l.6-.4.5-.7a3,3,0,0,0,.2-1,2.4,2.4,0,0,0-.2-.9,1.8,1.8,0,0,0-.5-.7l-.6-.5h-1.6a1.8,1.8,0,0,0-.7.5,1.6,1.6,0,0,0-.4.7,1.5,1.5,0,0,0-.2.9c0,.4,0,.7.2.9a1.6,1.6,0,0,0,.4.7,1.8,1.8,0,0,0,.7.5Z"/><path class="b" d="M279.4,210.9l.9-1.2a1,1,0,0,1-.6-.5,1.1,1.1,0,0,1-.3-.8,1.3,1.3,0,0,1,.4-1,1.4,1.4,0,0,1,2.4,1c0,.2-.1.4-.1.6l-.3.5-1.4,2Zm3.5,0,.9-1.2a1,1,0,0,1-.6-.5,1.1,1.1,0,0,1-.3-.8,1.4,1.4,0,1,1,2.8,0c0,.2-.1.4-.1.6l-.3.5-1.4,2Z"/><path class="b" d="M190.3,237.9a1.2,1.2,0,0,1-1-.4,1,1,0,0,1-.4-.9,1.3,1.3,0,0,1,.4-1,1.5,1.5,0,0,1,1-.3,1.4,1.4,0,0,1,.9.3,1.3,1.3,0,0,1,.4,1,1,1,0,0,1-.4.9A1.1,1.1,0,0,1,190.3,237.9Z"/><path class="b" d="M194.6,237.9a1.3,1.3,0,0,1-1-.4,1,1,0,0,1-.4-.9,1.3,1.3,0,0,1,.4-1,1.7,1.7,0,0,1,1-.3,1.4,1.4,0,0,1,.9.3,1.3,1.3,0,0,1,.4,1,1,1,0,0,1-.4.9A1.1,1.1,0,0,1,194.6,237.9Z"/><path class="b" d="M198.9,237.9a1.3,1.3,0,0,1-1-.4,1,1,0,0,1-.4-.9,1.3,1.3,0,0,1,.4-1,1.7,1.7,0,0,1,1-.3,1.2,1.2,0,0,1,.9.3,1.3,1.3,0,0,1,.4,1,1.4,1.4,0,0,1-1.3,1.3Z"/><path class="b" d="M190.3,257.1a1.2,1.2,0,0,1-1-.4,1,1,0,0,1-.4-.9,1.3,1.3,0,0,1,.4-1,1.5,1.5,0,0,1,1-.3,1.4,1.4,0,0,1,.9.3,1.3,1.3,0,0,1,.4,1,1,1,0,0,1-.4.9A1.1,1.1,0,0,1,190.3,257.1Z"/><path class="b" d="M194.6,257.1a1.3,1.3,0,0,1-1-.4,1,1,0,0,1-.4-.9,1.3,1.3,0,0,1,.4-1,1.7,1.7,0,0,1,1-.3,1.4,1.4,0,0,1,.9.3,1.3,1.3,0,0,1,.4,1,1,1,0,0,1-.4.9A1.1,1.1,0,0,1,194.6,257.1Z"/><path class="b" d="M198.9,257.1a1.3,1.3,0,0,1-1-.4,1,1,0,0,1-.4-.9,1.3,1.3,0,0,1,.4-1,1.7,1.7,0,0,1,1-.3,1.2,1.2,0,0,1,.9.3,1.3,1.3,0,0,1,.4,1,1.4,1.4,0,0,1-1.3,1.3Z"/><path class="b" d="M186.3,270.3H185v-1.8h1.3v-2.4h2.1v2.4h2v1.8h-2v3.1a4.3,4.3,0,0,0,.1.5.5.5,0,0,0,.2.4.9.9,0,0,0,.6.3h.8l.6,1.8-.8.3h-1l-1-.2-.8-.5a2.9,2.9,0,0,1-.8-2.1Z"/><path class="b" d="M196.6,275.5h-.2a2.4,2.4,0,0,1-.9.8,2.3,2.3,0,0,1-1.3.3l-1.1-.2a2.1,2.1,0,0,1-1-.6l-.6-.8a3.1,3.1,0,0,1,0-2.2,2.7,2.7,0,0,1,.7-.8,2.1,2.1,0,0,1,1-.6l1.3-.2,1.2.2.9.2v-.2a1.6,1.6,0,0,0-.5-1.1,2.8,2.8,0,0,0-1.3-.4,2.3,2.3,0,0,0-1.8.9l-1.5-1a4.6,4.6,0,0,1,6.2-.7,3.3,3.3,0,0,1,.9,2.5v4.7h-2Zm0-2.4-.8-.2h-.9a1.8,1.8,0,0,0-1.1.3,1,1,0,0,0,0,1.6,1.2,1.2,0,0,0,.9.3l.7-.2a.9.9,0,0,0,.6-.4l.4-.6A1.4,1.4,0,0,0,196.6,273.1Z"/><path class="b" d="M200.3,264.9h2.1v4.5h.1a2.4,2.4,0,0,1,.9-.8,3.3,3.3,0,0,1,1.5-.4,3.2,3.2,0,0,1,1.4.3,3.8,3.8,0,0,1,1.2.9,3.5,3.5,0,0,1,.8,1.3,5,5,0,0,1,0,3.4,3.5,3.5,0,0,1-.8,1.3,2.7,2.7,0,0,1-1.2.9,3.2,3.2,0,0,1-1.4.3,2.4,2.4,0,0,1-1.5-.4,2.4,2.4,0,0,1-.9-.8h-.1v.9h-2Zm4.1,9.7h.7a2.6,2.6,0,0,0,1.2-1.2,2,2,0,0,0,.2-.9,2.9,2.9,0,0,0-.2-.9,2.6,2.6,0,0,0-1.2-1.2h-1.5a1.8,1.8,0,0,0-.7.5l-.5.7a2.5,2.5,0,0,0-.1.9,3.1,3.1,0,0,0,.1,1l.5.7.7.4Z"/><path class="b" d="M210.1,264.9h2.6l4.6,7.7h.1v-7.7h2.1v11.4h-2.3l-4.8-8.1h-.2l.2,2.2v5.9h-2.2Z"/><path class="b" d="M222.7,271.1a1.4,1.4,0,0,1-1-2.4,1.4,1.4,0,0,1,2,2A1.8,1.8,0,0,1,222.7,271.1Zm0,5.2a1.3,1.3,0,0,1-1-.4,1.8,1.8,0,0,1-.4-1,1.5,1.5,0,0,1,.4-.9,1.5,1.5,0,0,1,2,0,1.1,1.1,0,0,1,.4.9,1.4,1.4,0,0,1-1.4,1.4Z"/><path class="b" d="M231.9,265.1l-.8,1.3.6.5a1.9,1.9,0,0,1,.2.8,1.3,1.3,0,0,1-.4,1,1.2,1.2,0,0,1-1,.4,1.1,1.1,0,0,1-.9-.4,1.3,1.3,0,0,1-.4-1,1.3,1.3,0,0,1,.1-.6.9.9,0,0,1,.3-.5l1.3-2.1Zm3.5,0-.8,1.3.6.5a1.9,1.9,0,0,1,.2.8,1.3,1.3,0,0,1-.4,1,1.1,1.1,0,0,1-.9.4,1.2,1.2,0,0,1-1-.4,1.3,1.3,0,0,1-.4-1,1.3,1.3,0,0,1,.1-.6.9.9,0,0,1,.3-.5l1.4-2.1Z"/><path class="b" d="M237.1,268.5h2v1h.1a2.2,2.2,0,0,1,1-.9,3.3,3.3,0,0,1,1.4-.4,3.3,3.3,0,0,1,1.5.4,3.1,3.1,0,0,1,.9,1.1,1.9,1.9,0,0,1,1-1,2.9,2.9,0,0,1,2.9-.2,1.6,1.6,0,0,1,.8.6,2.1,2.1,0,0,1,.6,1,5.3,5.3,0,0,1,.1,1.3v4.9h-2.1v-4.5c0-1.1-.4-1.6-1.3-1.6a1,1,0,0,0-.7.2,1,1,0,0,0-.5.4,3,3,0,0,0-.4.8,2.8,2.8,0,0,0-.1.9v3.8h-2.1v-4.5c0-1.1-.4-1.6-1.4-1.6a1,1,0,0,0-.7.2l-.5.4-.3.8a2.8,2.8,0,0,0-.1.9v3.8h-2.1Z"/><path class="b" d="M255.9,275.5h-.1a3.4,3.4,0,0,1-.9.8,2.5,2.5,0,0,1-1.3.3l-1.2-.2a2.4,2.4,0,0,1-.9-.6,1.6,1.6,0,0,1-.6-.8,2.2,2.2,0,0,1,0-2.2,1.8,1.8,0,0,1,.7-.8,1.7,1.7,0,0,1,1-.6l1.2-.2,1.3.2.8.2v-.2a1.3,1.3,0,0,0-.5-1.1,2.1,2.1,0,0,0-1.2-.4,2.3,2.3,0,0,0-1.8.9l-1.6-1a4.4,4.4,0,0,1,3.4-1.6,3.8,3.8,0,0,1,2.8.9,3,3,0,0,1,1,2.5v4.7h-2.1Zm0-2.4-.7-.2h-.9a2.1,2.1,0,0,0-1.2.3,1,1,0,0,0,0,1.6,1.6,1.6,0,0,0,.9.3l.8-.2.6-.4.4-.6A1.5,1.5,0,0,0,255.9,273.1Z"/><path class="b" d="M263.2,280a3.4,3.4,0,0,1-1.5-.2l-1.1-.5a6,6,0,0,1-.8-.8l-.5-.8,2-.8a1.8,1.8,0,0,0,.8.9,1.5,1.5,0,0,0,1.1.4,2,2,0,0,0,1.6-.7,2.9,2.9,0,0,0,.5-1.7v-.6h-.1a2,2,0,0,1-1,.8,2.9,2.9,0,0,1-1.4.3,2.8,2.8,0,0,1-1.3-.3,2,2,0,0,1-1.2-.8,5.4,5.4,0,0,1-.9-1.2,5,5,0,0,1,0-3.4,6,6,0,0,1,.9-1.3,3.6,3.6,0,0,1,1.2-.8,2.8,2.8,0,0,1,1.3-.3,2.9,2.9,0,0,1,1.4.3,2.7,2.7,0,0,1,1,.8h.1v-.8h2v7.3a4.4,4.4,0,0,1-1.1,3.1,3.5,3.5,0,0,1-1.3.8A4.7,4.7,0,0,1,263.2,280Zm.1-5.6h.7l.7-.4.5-.7a2.8,2.8,0,0,0,.1-.9,2.2,2.2,0,0,0-.1-.9l-.5-.7-.7-.4-.7-.2-.8.2-.6.4a1.8,1.8,0,0,0-.5.7,2,2,0,0,0-.2.9,2.9,2.9,0,0,0,.2.9,1.8,1.8,0,0,0,.5.7l.6.4Z"/><path class="b" d="M270.3,267.4h-.5c-.2,0-.3-.1-.5-.3a.5.5,0,0,1-.2-.4.7.7,0,0,1,0-1c0-.2.1-.3.2-.5l.5-.3h.5a1.4,1.4,0,0,1,1.4,1.4,1.3,1.3,0,0,1-.4.9A1.3,1.3,0,0,1,270.3,267.4Zm-1,8.9v-7.8h2v7.8Z"/><path class="b" d="M280.6,274.3a4.6,4.6,0,0,1-1.4,1.7,4.1,4.1,0,0,1-2.3.6,4.7,4.7,0,0,1-1.7-.3,3.8,3.8,0,0,1-1.3-.9,3.5,3.5,0,0,1-.8-1.3,3.8,3.8,0,0,1,0-3.4,3.5,3.5,0,0,1,.8-1.3,6,6,0,0,1,1.3-.9,4.7,4.7,0,0,1,1.7-.3,3.5,3.5,0,0,1,2.3.7,2.9,2.9,0,0,1,1.3,1.6l-1.9.8a2.2,2.2,0,0,0-.7-.9l-1-.2h-.8a1.8,1.8,0,0,0-.7.5,1.6,1.6,0,0,0-.4.7,2.9,2.9,0,0,0-.2.9,2,2,0,0,0,.2.9,1.6,1.6,0,0,0,.4.7,1.8,1.8,0,0,0,.7.5h.8a2,2,0,0,0,1.1-.2,2.2,2.2,0,0,0,.7-.9Z"/><path class="b" d="M281.8,268.5l.8-1.2-.6-.5a1.9,1.9,0,0,1-.2-.8,1.3,1.3,0,0,1,.4-1,1.8,1.8,0,0,1,1-.4,1.3,1.3,0,0,1,.9.4,1.3,1.3,0,0,1,.4,1,1.3,1.3,0,0,1-.1.6.9.9,0,0,1-.3.5l-1.3,2Zm3.5,0,.8-1.2-.6-.5a1.9,1.9,0,0,1-.2-.8,1.3,1.3,0,0,1,.4-1,1.4,1.4,0,0,1,2.4,1,1.4,1.4,0,0,1-.2.6l-.2.5-1.4,2Z"/><path class="b" d="M171,297.5v-1.7h.3a.9.9,0,0,0,.8-.4,1.2,1.2,0,0,0,.3-.9v-2.3a2.3,2.3,0,0,1,.3-1.3,2.2,2.2,0,0,1,.9-.7h0a1.5,1.5,0,0,1-.9-.6,2.5,2.5,0,0,1-.3-1.3v-2.3a1.7,1.7,0,0,0-.3-1,1.1,1.1,0,0,0-.8-.3H171v-1.7h.6a2.8,2.8,0,0,1,2.1.7,3.3,3.3,0,0,1,.8,2.2v2.4c0,.4.1.7.3.8a.9.9,0,0,0,.7.3v1.8a.8.8,0,0,0-.7.2,1.1,1.1,0,0,0-.3.8v2.5a2.9,2.9,0,0,1-.8,2.1,2.5,2.5,0,0,1-2.1.8Z"/><path class="c" d="M141.8,413.9H145l6,9.6h.2l-.2-2.8v-6.8h2.8v14.4h-3l-6.3-10.2h-.1v10.2h-2.7Z"/><path class="c" d="M161.3,418.1a4.9,4.9,0,0,1,2.1.4,3.9,3.9,0,0,1,1.7,1.1,3.6,3.6,0,0,1,1.1,1.6,5.2,5.2,0,0,1,.4,2.1,4.6,4.6,0,0,1-.4,2.1,3.9,3.9,0,0,1-1.1,1.7,5,5,0,0,1-1.7,1.1,7.1,7.1,0,0,1-2.1.4,7.2,7.2,0,0,1-2.2-.4,5,5,0,0,1-1.7-1.1,3.9,3.9,0,0,1-1.1-1.7,4.6,4.6,0,0,1-.4-2.1,5.2,5.2,0,0,1,.4-2.1,3.6,3.6,0,0,1,1.1-1.6,3.9,3.9,0,0,1,1.7-1.1A5.1,5.1,0,0,1,161.3,418.1Zm0,8h1l.8-.6a1.5,1.5,0,0,0,.6-.9,2.2,2.2,0,0,0,.2-1.2,2.5,2.5,0,0,0-.2-1.2,3.5,3.5,0,0,0-1.4-1.4l-1-.2-1.1.2a3.5,3.5,0,0,0-1.4,1.4,2.5,2.5,0,0,0-.2,1.2,2.2,2.2,0,0,0,.2,1.2,1.5,1.5,0,0,0,.6.9l.8.6Z"/><path class="c" d="M169.2,420.7h-1.8v-2.3h1.8v-3h2.7v3h2.5v2.3h-2.5v3.9a1.3,1.3,0,0,0,.1.6.9.9,0,0,0,.3.6,1,1,0,0,0,.8.3h.5a.5.5,0,0,0,.4-.2l.8,2.3-1,.4h-1.2a3.2,3.2,0,0,1-1.4-.3,1.7,1.7,0,0,1-1-.6,3.3,3.3,0,0,1-1-2.6Z"/><path class="c" d="M185.9,425.9a5.8,5.8,0,0,1-1.9,1.9,5.5,5.5,0,0,1-2.9.8,7.8,7.8,0,0,1-2.2-.4,6.2,6.2,0,0,1-1.7-1.1,5,5,0,0,1-1.1-1.7,4.6,4.6,0,0,1-.4-2.1,4.8,4.8,0,0,1,.4-2,6.2,6.2,0,0,1,1.1-1.7,7.1,7.1,0,0,1,1.7-1.1,4.6,4.6,0,0,1,2.1-.4,5.4,5.4,0,0,1,2.2.4,4.2,4.2,0,0,1,2.5,2.7,4.6,4.6,0,0,1,.4,2.1v.2c0,.1-.1.1-.1.2v.2h-7.6a2,2,0,0,0,.3,1.1,2.3,2.3,0,0,0,.7.7l.8.4h.9a2.5,2.5,0,0,0,1.6-.4,2.2,2.2,0,0,0,.9-1Zm-2.5-3.8a1.3,1.3,0,0,0-.1-.6l-.5-.6-.7-.5-1.1-.2a2.7,2.7,0,0,0-2.5,1.9Z"/><path class="c" d="M189.4,421.6a1.3,1.3,0,0,1-1.2-.5,1.8,1.8,0,0,1,1.2-3,1.6,1.6,0,0,1,1.3.6,1.7,1.7,0,0,1,0,2.4A1.5,1.5,0,0,1,189.4,421.6Zm0,6.7a1.7,1.7,0,0,1-1.2-3,1.3,1.3,0,0,1,1.2-.5,1.5,1.5,0,0,1,1.3.5,1.7,1.7,0,0,1,0,2.4A1.6,1.6,0,0,1,189.4,428.3Z"/><path class="c" d="M198.3,428.3V413.9h5.2a6.4,6.4,0,0,1,2,.3,5.1,5.1,0,0,1,1.6.9,5.8,5.8,0,0,1,1.1,1.5,4.8,4.8,0,0,1,.4,1.8,5.8,5.8,0,0,1-.4,1.9,7.6,7.6,0,0,1-1.1,1.4,5.1,5.1,0,0,1-1.6.9,4.5,4.5,0,0,1-2,.4h-2.4v5.3Zm5.2-7.9a2.2,2.2,0,0,0,1.7-.6,2,2,0,0,0,.6-1.4,1.9,1.9,0,0,0-.2-.7,1.6,1.6,0,0,0-.4-.7l-.7-.4-1-.2h-2.4v4Z"/><path class="c" d="M216.1,427.2h-.2a4,4,0,0,1-1.2,1,3.9,3.9,0,0,1-1.7.4,4,4,0,0,1-1.5-.3,3.7,3.7,0,0,1-1.2-.7,3.9,3.9,0,0,1-.8-1,3.4,3.4,0,0,1,0-2.8,2.8,2.8,0,0,1,.9-1l1.3-.7a4.7,4.7,0,0,1,1.7-.2H215l1.1.3V422a1.9,1.9,0,0,0-.7-1.3,2.5,2.5,0,0,0-1.6-.5,3.1,3.1,0,0,0-2.4,1.2l-1.9-1.3a5,5,0,0,1,4.4-2,4.9,4.9,0,0,1,3.6,1.1,3.9,3.9,0,0,1,1.2,3.2v5.9h-2.6Zm0-2.9-1-.4H214a2.1,2.1,0,0,0-1.5.4,1.2,1.2,0,0,0-.6,1,1.4,1.4,0,0,0,.5,1,2.7,2.7,0,0,0,1.2.3,1.6,1.6,0,0,0,1-.2l.8-.5a1.8,1.8,0,0,0,.5-.7A2.4,2.4,0,0,0,216.1,424.3Z"/><path class="c" d="M224.8,428.6a5.2,5.2,0,0,1-1.8-.3,3.1,3.1,0,0,1-1.3-.6l-1-.9-.6-1,2.5-1a2.4,2.4,0,0,0,.9,1.1,2.8,2.8,0,0,0,1.3.4,2.1,2.1,0,0,0,1.2-.3.7.7,0,0,0,.4-.6.9.9,0,0,0-.3-.7l-1.3-.4-1.4-.3-1-.3-.9-.6a2.7,2.7,0,0,1-.7-.8,2.6,2.6,0,0,1,0-2.4,4.3,4.3,0,0,1,.9-1,3.1,3.1,0,0,1,1.3-.6l1.7-.2a7.5,7.5,0,0,1,2.6.5,3.5,3.5,0,0,1,1.6,1.8l-2.3.9a1.8,1.8,0,0,0-.9-.8,2,2,0,0,0-1.1-.3,1.7,1.7,0,0,0-1,.3.5.5,0,0,0-.4.5.6.6,0,0,0,.3.6l1,.3,1.6.4a4.6,4.6,0,0,1,2.3,1.2,2.4,2.4,0,0,1,.7,1.8,2.8,2.8,0,0,1-.3,1.3,3.9,3.9,0,0,1-.8,1l-1.4.7A4.8,4.8,0,0,1,224.8,428.6Z"/><path class="c" d="M234.8,428.6a4.7,4.7,0,0,1-1.7-.3,3,3,0,0,1-1.4-.6l-1-.9-.6-1,2.5-1a2.4,2.4,0,0,0,.9,1.1,2.8,2.8,0,0,0,1.3.4,2.1,2.1,0,0,0,1.2-.3.7.7,0,0,0,.4-.6.9.9,0,0,0-.3-.7l-1.3-.4-1.4-.3-1-.3-.9-.6a2.7,2.7,0,0,1-.7-.8,2.4,2.4,0,0,1-.3-1.2,1.7,1.7,0,0,1,.4-1.2,3.9,3.9,0,0,1,.8-1,3,3,0,0,1,1.4-.6l1.6-.2a7.5,7.5,0,0,1,2.6.5,3.5,3.5,0,0,1,1.6,1.8l-2.3.9a2,2,0,0,0-.8-.8,2.7,2.7,0,0,0-1.2-.3,1.9,1.9,0,0,0-1,.3.5.5,0,0,0-.4.5.6.6,0,0,0,.3.6l1,.3,1.6.4a4.6,4.6,0,0,1,2.3,1.2,2.5,2.5,0,0,1,.8,1.8,2,2,0,0,1-.4,1.3,3.9,3.9,0,0,1-.8,1l-1.4.7A4.8,4.8,0,0,1,234.8,428.6Z"/><path class="c" d="M239.7,418.4h3.1l1.7,6.2h.1l2-6.2h2.8l2.1,6.2h.1l1.7-6.2h3l-3.3,9.9h-2.9l-2-6.3h-.2l-2,6.3H243Z"/><path class="c" d="M262.1,418.1a5.4,5.4,0,0,1,2.2.4,4.5,4.5,0,0,1,1.7,1.1,6.4,6.4,0,0,1,1.1,1.6,5.2,5.2,0,0,1,.4,2.1,4.6,4.6,0,0,1-.4,2.1,7.1,7.1,0,0,1-1.1,1.7,6.2,6.2,0,0,1-1.7,1.1,6.2,6.2,0,0,1-4.4,0,6.2,6.2,0,0,1-1.7-1.1,7.1,7.1,0,0,1-1.1-1.7,6.5,6.5,0,0,1-.4-2.1,7.8,7.8,0,0,1,.4-2.1,6.4,6.4,0,0,1,1.1-1.6,4.5,4.5,0,0,1,1.7-1.1A5.4,5.4,0,0,1,262.1,418.1Zm0,8h1l.9-.6.6-.9a3.7,3.7,0,0,0,.2-1.2,5,5,0,0,0-.2-1.2l-.6-.8-.9-.6-1-.2-1,.2a2.4,2.4,0,0,0-.9.6,2.2,2.2,0,0,0-.5.8,2.7,2.7,0,0,0-.3,1.2,2.1,2.1,0,0,0,.3,1.2,1.9,1.9,0,0,0,.5.9l.9.6Z"/><path class="c" d="M269,418.4h2.6v1.4h.1l.5-.7.7-.5.9-.4h1.8l.6.3-.7,2.3h-1.3l-1,.2a1.6,1.6,0,0,0-.8.6,1.9,1.9,0,0,0-.5.9,3.6,3.6,0,0,0-.2,1.1v4.9H269Z"/><path class="c" d="M284.4,427.1h-.2a2.7,2.7,0,0,1-1.1,1,3.9,3.9,0,0,1-2,.5,5.8,5.8,0,0,1-1.8-.4,5.7,5.7,0,0,1-1.6-1.1,4.8,4.8,0,0,1-1-1.7,4.6,4.6,0,0,1-.4-2.1,5.2,5.2,0,0,1,.4-2.1,4.4,4.4,0,0,1,1-1.6,4.2,4.2,0,0,1,1.6-1.1,3.9,3.9,0,0,1,1.8-.4,4,4,0,0,1,2,.4,2.9,2.9,0,0,1,1.1,1.1h.2l-.2-1.4v-4.3H287v14.4h-2.6Zm-2.7-1h1l.9-.6a3.5,3.5,0,0,0,.6-.9,3.7,3.7,0,0,0,.2-1.2,5,5,0,0,0-.2-1.2l-.6-.8a2.4,2.4,0,0,0-.9-.6l-1-.2-1,.2-.9.6a3.5,3.5,0,0,0-.6.9,3.6,3.6,0,0,0-.2,1.1,3.7,3.7,0,0,0,.2,1.2l.6.9a2.6,2.6,0,0,0,.9.5A1.6,1.6,0,0,0,281.7,426.1Z"/><path class="c" d="M289.6,413.9h2.8v5.7h6.3v-5.7h2.8v14.4h-2.8v-6.1h-6.3v6.1h-2.8Z"/><path class="c" d="M310.1,427.2h-.2a4,4,0,0,1-1.2,1,3.9,3.9,0,0,1-1.7.4,4,4,0,0,1-1.5-.3,3.7,3.7,0,0,1-1.2-.7,3.9,3.9,0,0,1-.8-1,3.4,3.4,0,0,1,0-2.8,2.8,2.8,0,0,1,.9-1l1.3-.7a4.7,4.7,0,0,1,1.7-.2H309l1.1.3V422a1.9,1.9,0,0,0-.7-1.3,2.5,2.5,0,0,0-1.6-.5,3.1,3.1,0,0,0-2.4,1.2l-1.9-1.3a5,5,0,0,1,4.4-2,4.9,4.9,0,0,1,3.6,1.1,3.9,3.9,0,0,1,1.2,3.2v5.9h-2.6Zm0-2.9-1-.4H308a2.1,2.1,0,0,0-1.5.4,1.2,1.2,0,0,0-.6,1,1.4,1.4,0,0,0,.5,1,2.7,2.7,0,0,0,1.2.3,1.6,1.6,0,0,0,1-.2l.8-.5a1.8,1.8,0,0,0,.5-.7A2.4,2.4,0,0,0,310.1,424.3Z"/><path class="c" d="M318.8,428.6a5.2,5.2,0,0,1-1.8-.3,3.1,3.1,0,0,1-1.3-.6l-1-.9-.6-1,2.4-1a3.6,3.6,0,0,0,1,1.1,2.8,2.8,0,0,0,1.3.4,2.1,2.1,0,0,0,1.2-.3.7.7,0,0,0,.4-.6.9.9,0,0,0-.3-.7l-1.3-.4-1.4-.3-1-.3-.9-.6a2.7,2.7,0,0,1-.7-.8,2.6,2.6,0,0,1,0-2.4,4.3,4.3,0,0,1,.9-1,3.1,3.1,0,0,1,1.3-.6l1.7-.2a7.5,7.5,0,0,1,2.6.5,3.5,3.5,0,0,1,1.6,1.8l-2.3.9a1.8,1.8,0,0,0-.9-.8,2,2,0,0,0-1.1-.3,1.7,1.7,0,0,0-1,.3.5.5,0,0,0-.4.5.6.6,0,0,0,.3.6l1,.3,1.6.4a4.6,4.6,0,0,1,2.3,1.2,2.4,2.4,0,0,1,.7,1.8,2.8,2.8,0,0,1-.3,1.3,2.8,2.8,0,0,1-.9,1,4,4,0,0,1-1.3.7A5.2,5.2,0,0,1,318.8,428.6Z"/><path class="c" d="M324.8,413.9h2.7v4l-.2,1.8h.2a3,3,0,0,1,1.3-1.2,3.4,3.4,0,0,1,1.8-.4,3.7,3.7,0,0,1,2.9,1.1,5,5,0,0,1,1,3.1v6h-2.8v-5.7a1.7,1.7,0,0,0-.5-1.5,1.6,1.6,0,0,0-1.3-.6,1.7,1.7,0,0,0-1,.3,1.6,1.6,0,0,0-.8.6,3.6,3.6,0,0,0-.4.9,5,5,0,0,0-.2,1.2v4.8h-2.7Z"/><path class="c" d="M343.8,419.7h.2a3,3,0,0,1,1.3-1.2,3.4,3.4,0,0,1,1.8-.4,4.7,4.7,0,0,1,1.7.3,3.6,3.6,0,0,1,1.2.8,6.1,6.1,0,0,1,.7,1.4,8.8,8.8,0,0,1,.2,1.7v6h-2.7v-5.7a2.5,2.5,0,0,0-.5-1.6,2,2,0,0,0-1.4-.5,1.7,1.7,0,0,0-1,.3,1.3,1.3,0,0,0-.7.6,1.9,1.9,0,0,0-.5.9,4.1,4.1,0,0,0-.1,1.1v4.9h-2.7v-9.9h2.5Z"/><path class="c" d="M362.8,425.9a5.8,5.8,0,0,1-1.9,1.9,5.5,5.5,0,0,1-2.9.8,7.8,7.8,0,0,1-2.2-.4,6.2,6.2,0,0,1-1.7-1.1,5,5,0,0,1-1.1-1.7,4.6,4.6,0,0,1-.4-2.1,4.8,4.8,0,0,1,.4-2,4.5,4.5,0,0,1,1.1-1.7,6.4,6.4,0,0,1,1.6-1.1,5.4,5.4,0,0,1,2.2-.4,4.6,4.6,0,0,1,2.1.4,3.1,3.1,0,0,1,1.6,1.1,3.4,3.4,0,0,1,1,1.6,6.6,6.6,0,0,1,.3,2.1v.6h-7.6a2,2,0,0,0,.3,1.1l.6.7.9.4h.9a2.9,2.9,0,0,0,1.6-.4,2.2,2.2,0,0,0,.9-1Zm-2.5-3.8a1.4,1.4,0,0,0-.2-.6l-.4-.6-.8-.5-1-.2a3,3,0,0,0-1.6.5,2.8,2.8,0,0,0-.9,1.4Z"/><path class="c" d="M363.4,418.4h3.1l2.5,6.3h.2l2.5-6.3h3.1l-4.4,9.9h-2.7Z"/><path class="c" d="M385.3,425.9a5,5,0,0,1-1.9,1.9,5.2,5.2,0,0,1-2.9.8,6.5,6.5,0,0,1-2.1-.4,5,5,0,0,1-1.7-1.1,5.2,5.2,0,0,1-1.2-1.7,6.5,6.5,0,0,1-.4-2.1,7.1,7.1,0,0,1,.4-2,9.9,9.9,0,0,1,1.1-1.7l1.7-1.1a4.6,4.6,0,0,1,2.1-.4,5.1,5.1,0,0,1,2.2.4,3.6,3.6,0,0,1,1.6,1.1,6.2,6.2,0,0,1,1,1.6,6.6,6.6,0,0,1,.3,2.1v.6h-7.7l.3,1.1a2.3,2.3,0,0,0,.7.7l.8.4h1a2.4,2.4,0,0,0,1.5-.4,3.2,3.2,0,0,0,1-1Zm-2.4-3.8a1.4,1.4,0,0,0-.2-.6l-.5-.6a1.8,1.8,0,0,0-.7-.5l-1.1-.2a2.5,2.5,0,0,0-1.5.5,1.9,1.9,0,0,0-.9,1.4Z"/><path class="c" d="M387.2,418.4h2.6v1.4h.2a1.2,1.2,0,0,1,.5-.7l.6-.5.9-.4h1.8l.6.3-.7,2.3h-1.3l-1,.2a1.6,1.6,0,0,0-.8.6,1.9,1.9,0,0,0-.5.9,3.7,3.7,0,0,0-.1,1.1v4.9h-2.8Z"/><path class="c" d="M400.2,428.3V413.9H403v14.4Z"/><path class="c" d="M414.8,425.9a5.8,5.8,0,0,1-1.9,1.9,5.5,5.5,0,0,1-2.9.8,7.8,7.8,0,0,1-2.2-.4,6.2,6.2,0,0,1-1.7-1.1,5,5,0,0,1-1.1-1.7,4.6,4.6,0,0,1-.4-2.1,4.8,4.8,0,0,1,.4-2,4.5,4.5,0,0,1,1.1-1.7,7.1,7.1,0,0,1,1.7-1.1,4.6,4.6,0,0,1,2.1-.4,5.4,5.4,0,0,1,2.2.4,4.2,4.2,0,0,1,2.5,2.7,6.5,6.5,0,0,1,.4,2.1v.6h-7.6a2,2,0,0,0,.3,1.1,2.3,2.3,0,0,0,.7.7l.8.4h.9a2.7,2.7,0,0,0,1.6-.4,2.2,2.2,0,0,0,.9-1Zm-2.5-3.8a.7.7,0,0,0-.2-.6l-.4-.6-.8-.5-1-.2a3,3,0,0,0-1.6.5,2.8,2.8,0,0,0-.9,1.4Z"/><path class="c" d="M423.1,427.2h-.2a4,4,0,0,1-1.2,1,3.9,3.9,0,0,1-1.7.4,4,4,0,0,1-1.5-.3,3.7,3.7,0,0,1-1.2-.7,3.9,3.9,0,0,1-.8-1,3.4,3.4,0,0,1,0-2.8,2.8,2.8,0,0,1,.9-1l1.3-.7a4.7,4.7,0,0,1,1.7-.2H422l1.1.3V422a1.9,1.9,0,0,0-.7-1.3,2.5,2.5,0,0,0-1.6-.5,3.1,3.1,0,0,0-2.4,1.2l-1.9-1.3a5,5,0,0,1,4.4-2,4.9,4.9,0,0,1,3.6,1.1,3.9,3.9,0,0,1,1.2,3.2v5.9h-2.6Zm0-2.9-1-.4H421a2.1,2.1,0,0,0-1.5.4,1.2,1.2,0,0,0-.6,1,1.4,1.4,0,0,0,.5,1,2.7,2.7,0,0,0,1.2.3,1.6,1.6,0,0,0,1-.2l.8-.5a1.8,1.8,0,0,0,.5-.7A2.4,2.4,0,0,0,423.1,424.3Z"/><path class="c" d="M426.6,418.4h3.1l2.5,6.3h.2l2.5-6.3H438l-4.4,9.9h-2.7Z"/><path class="c" d="M448.5,425.9a5,5,0,0,1-1.9,1.9,5.2,5.2,0,0,1-2.9.8,7.1,7.1,0,0,1-2.1-.4,5,5,0,0,1-1.7-1.1,5.2,5.2,0,0,1-1.2-1.7,6.5,6.5,0,0,1-.4-2.1,7.1,7.1,0,0,1,.4-2,9.9,9.9,0,0,1,1.1-1.7l1.7-1.1a4.9,4.9,0,0,1,2.1-.4,5.1,5.1,0,0,1,2.2.4,3.6,3.6,0,0,1,1.6,1.1,4.4,4.4,0,0,1,1,1.6,6.6,6.6,0,0,1,.3,2.1v.6H441a3.6,3.6,0,0,0,.4,1.1,1.3,1.3,0,0,0,.6.7l.8.4h1a2.4,2.4,0,0,0,1.5-.4,3.2,3.2,0,0,0,1-1Zm-2.4-3.8a1.4,1.4,0,0,0-.2-.6l-.5-.6a1.8,1.8,0,0,0-.7-.5l-1.1-.2a2.5,2.5,0,0,0-1.5.5,2.3,2.3,0,0,0-.9,1.4Z"/><path class="c" d="M454.6,428.6a4.8,4.8,0,0,1-1.8-.3,2.6,2.6,0,0,1-1.3-.6l-1-.9a2.7,2.7,0,0,1-.6-1l2.4-1a2.7,2.7,0,0,0,1,1.1,2.8,2.8,0,0,0,1.3.4,2.1,2.1,0,0,0,1.2-.3c.2-.2.4-.4.4-.6a.8.8,0,0,0-.4-.7,4,4,0,0,0-1.2-.4l-1.5-.3-.9-.3-1-.6a2.4,2.4,0,0,1-.6-.8,2.6,2.6,0,0,1,0-2.4,2.8,2.8,0,0,1,.9-1,3.1,3.1,0,0,1,1.3-.6l1.6-.2a6.7,6.7,0,0,1,2.6.5,3.7,3.7,0,0,1,1.7,1.8l-2.3.9a1.8,1.8,0,0,0-.9-.8,2.3,2.3,0,0,0-1.1-.3,1.7,1.7,0,0,0-1,.3c-.3.1-.5.3-.5.5a.7.7,0,0,0,.4.6l1,.3,1.5.4a4.9,4.9,0,0,1,2.4,1.2,2.4,2.4,0,0,1,.7,1.8,2.8,2.8,0,0,1-.3,1.3,2.8,2.8,0,0,1-.9,1,4.6,4.6,0,0,1-1.4.7A4.7,4.7,0,0,1,454.6,428.6Z"/><path class="c" d="M466.2,420.7h-1.7v-2.3h1.7v-3H469v3h2.4v2.3H469v4.5l.3.6a1.1,1.1,0,0,0,.8.3h.6l.4-.2.8,2.3-1.1.4h-1.2a3.5,3.5,0,0,1-1.4-.3,2.1,2.1,0,0,1-1-.6,3.6,3.6,0,0,1-1-2.6Z"/><path class="c" d="M473.5,413.9h2.8v4l-.2,1.8h.2a2.8,2.8,0,0,1,1.2-1.2,4.5,4.5,0,0,1,4.8.7,5,5,0,0,1,.9,3.1v6h-2.7v-5.7a2.1,2.1,0,0,0-.5-1.5,1.9,1.9,0,0,0-2.4-.3,1.3,1.3,0,0,0-.7.6,4.1,4.1,0,0,0-.5.9,4.9,4.9,0,0,0-.1,1.2v4.8h-2.8Z"/><path class="c" d="M495.1,425.9a5.8,5.8,0,0,1-1.9,1.9,5.5,5.5,0,0,1-2.9.8,7.8,7.8,0,0,1-2.2-.4,5,5,0,0,1-1.7-1.1,3.9,3.9,0,0,1-1.1-1.7,4.6,4.6,0,0,1-.4-2.1,4.8,4.8,0,0,1,.4-2,4.5,4.5,0,0,1,1.1-1.7,6.4,6.4,0,0,1,1.6-1.1,5.2,5.2,0,0,1,2.1-.4,4.8,4.8,0,0,1,2.2.4,3.1,3.1,0,0,1,1.6,1.1,4.4,4.4,0,0,1,1,1.6,6.6,6.6,0,0,1,.3,2.1v.6h-7.7a3.6,3.6,0,0,0,.4,1.1c.1.3.4.5.6.7l.9.4h.9a2.9,2.9,0,0,0,2.5-1.4Zm-2.5-3.8a1.4,1.4,0,0,0-.2-.6l-.4-.6-.8-.5-1.1-.2a3,3,0,0,0-1.5.5,2.8,2.8,0,0,0-.9,1.4Z"/><path class="c" d="M501.5,413.9h2.7v5.7h.1a4.3,4.3,0,0,1,1.2-1.1,4,4,0,0,1,2-.4,3.9,3.9,0,0,1,1.8.4,4.2,4.2,0,0,1,1.6,1.1,4.4,4.4,0,0,1,1,1.6,5.2,5.2,0,0,1,.4,2.1,4.6,4.6,0,0,1-.4,2.1,4.8,4.8,0,0,1-1,1.7,5.7,5.7,0,0,1-1.6,1.1,5.8,5.8,0,0,1-1.8.4,3.9,3.9,0,0,1-2-.5,4,4,0,0,1-1.2-1h-.1v1.2h-2.6Zm5.3,12.2a1.6,1.6,0,0,0,1-.2l.9-.5.6-.9a3.7,3.7,0,0,0,.2-1.2,3.6,3.6,0,0,0-.2-1.1,3.5,3.5,0,0,0-.6-.9l-.9-.6-1-.2-1,.2a1.8,1.8,0,0,0-.9.6l-.6.8a5,5,0,0,0-.2,1.2,3.7,3.7,0,0,0,.2,1.2,3.5,3.5,0,0,0,.6.9l.9.6Z"/><path class="c" d="M513.8,418.4h2.5v1.4h.2a2.6,2.6,0,0,1,1.2-1.2,2,2,0,0,1,.8-.4h1.8l.7.3-.8,2.3h-1.3l-1,.2a2.8,2.8,0,0,0-1.2,1.5,2,2,0,0,0-.2,1.1v4.9h-2.7Z"/><path class="c" d="M526.4,418.1a5.4,5.4,0,0,1,2.2.4,4.5,4.5,0,0,1,1.7,1.1,6.4,6.4,0,0,1,1.1,1.6,7.8,7.8,0,0,1,.4,2.1,6.5,6.5,0,0,1-.4,2.1,7.1,7.1,0,0,1-1.1,1.7,6.2,6.2,0,0,1-1.7,1.1,6.3,6.3,0,0,1-4.4,0,6.2,6.2,0,0,1-1.7-1.1,5,5,0,0,1-1.1-1.7,4.6,4.6,0,0,1-.4-2.1,5.2,5.2,0,0,1,.4-2.1,4.6,4.6,0,0,1,1.1-1.6,4.5,4.5,0,0,1,1.7-1.1A5.4,5.4,0,0,1,526.4,418.1Zm0,8h1l.9-.6a1.9,1.9,0,0,0,.5-.9,2.1,2.1,0,0,0,.3-1.2,2.7,2.7,0,0,0-.3-1.2,2.2,2.2,0,0,0-.5-.8,2.4,2.4,0,0,0-.9-.6l-1-.2-1,.2a2.4,2.4,0,0,0-.9.6l-.6.8a5,5,0,0,0-.2,1.2,3.7,3.7,0,0,0,.2,1.2,3.5,3.5,0,0,0,.6.9l.9.6Z"/><path class="c" d="M532.2,418.4h3.1l1.7,6.2h.1l2-6.2h2.8l2,6.2h.2l1.6-6.2h3.1l-3.3,9.9h-2.9l-2.1-6.3h-.1l-2,6.3h-2.9Z"/><path class="c" d="M554,428.6a5.7,5.7,0,0,1-1.8-.3,3.1,3.1,0,0,1-1.3-.6l-1-.9-.6-1,2.5-1a2.4,2.4,0,0,0,.9,1.1,2.8,2.8,0,0,0,1.3.4,2.1,2.1,0,0,0,1.2-.3.7.7,0,0,0,.4-.6.9.9,0,0,0-.3-.7l-1.3-.4-1.4-.3-1-.3-.9-.6a2.7,2.7,0,0,1-.7-.8,2.4,2.4,0,0,1-.3-1.2,1.7,1.7,0,0,1,.4-1.2,3.9,3.9,0,0,1,.8-1,3.1,3.1,0,0,1,1.3-.6l1.7-.2a7.5,7.5,0,0,1,2.6.5,3.5,3.5,0,0,1,1.6,1.8l-2.3.9a2,2,0,0,0-.8-.8,2.7,2.7,0,0,0-1.2-.3,1.7,1.7,0,0,0-1,.3.5.5,0,0,0-.4.5.6.6,0,0,0,.3.6l1,.3,1.6.4a4.6,4.6,0,0,1,2.3,1.2,2.5,2.5,0,0,1,.8,1.8,2,2,0,0,1-.4,1.3,3.9,3.9,0,0,1-.8,1l-1.4.7A4.8,4.8,0,0,1,554,428.6Z"/><path class="c" d="M569.7,425.9a5,5,0,0,1-1.9,1.9,5.2,5.2,0,0,1-2.9.8,7.1,7.1,0,0,1-2.1-.4,5,5,0,0,1-1.7-1.1,5.2,5.2,0,0,1-1.2-1.7,6.5,6.5,0,0,1-.4-2.1,7.1,7.1,0,0,1,.4-2,9.9,9.9,0,0,1,1.1-1.7l1.7-1.1a4.6,4.6,0,0,1,2.1-.4,5.1,5.1,0,0,1,2.2.4,3.6,3.6,0,0,1,1.6,1.1,6.2,6.2,0,0,1,1,1.6,6.6,6.6,0,0,1,.3,2.1v.6h-7.7a3.6,3.6,0,0,0,.4,1.1,1.3,1.3,0,0,0,.6.7,2,2,0,0,0,.8.4h1a2.4,2.4,0,0,0,1.5-.4,3.2,3.2,0,0,0,1-1Zm-2.4-3.8a1.4,1.4,0,0,0-.2-.6l-.5-.6a1.8,1.8,0,0,0-.7-.5l-1.1-.2a2.5,2.5,0,0,0-1.5.5,1.9,1.9,0,0,0-.9,1.4Z"/><path class="c" d="M571.6,418.4h2.6v1.4h.2a1.2,1.2,0,0,1,.5-.7l.6-.5.9-.4h1.8l.6.3-.7,2.3h-1.3l-1,.2a1.6,1.6,0,0,0-.8.6,3.6,3.6,0,0,0-.5.9,3.7,3.7,0,0,0-.1,1.1v4.9h-2.8Z"/><path class="c" d="M585.8,420.7H584v-2.3h1.8v-3h2.7v3H591v2.3h-2.5v4.5l.3.6a1.2,1.2,0,0,0,.9.3h.5l.4-.2.8,2.3-1,.4h-1.3a2.8,2.8,0,0,1-1.3-.3,2.4,2.4,0,0,1-1.1-.6,3.6,3.6,0,0,1-.9-2.6Z"/><path class="c" d="M593.1,413.9h2.7v4l-.2,1.8h.2a3.4,3.4,0,0,1,1.2-1.2,4.1,4.1,0,0,1,1.9-.4,3.8,3.8,0,0,1,2.9,1.1,5,5,0,0,1,.9,3.1v6H600v-5.7a2.1,2.1,0,0,0-.5-1.5,1.9,1.9,0,0,0-2.4-.3,1.3,1.3,0,0,0-.7.6,4.1,4.1,0,0,0-.5.9,4.9,4.9,0,0,0-.1,1.2v4.8h-2.7Z"/><path class="c" d="M612,427h-.2a2.4,2.4,0,0,1-1.3,1.1,3.9,3.9,0,0,1-4.7-.7,4.5,4.5,0,0,1-.9-3v-6h2.7v5.7a2.1,2.1,0,0,0,.5,1.5,1.6,1.6,0,0,0,1.4.5,1.6,1.6,0,0,0,1-.2,1.3,1.3,0,0,0,.7-.6,4.1,4.1,0,0,0,.5-.9,4.9,4.9,0,0,0,.1-1.2v-4.8h2.7v9.9H612Z"/><path class="c" d="M620.8,428.6a4.8,4.8,0,0,1-1.8-.3,2.6,2.6,0,0,1-1.3-.6l-1-.9a2.7,2.7,0,0,1-.6-1l2.4-1a2.7,2.7,0,0,0,1,1.1,2.8,2.8,0,0,0,1.3.4,2.1,2.1,0,0,0,1.2-.3c.2-.2.4-.4.4-.6a.8.8,0,0,0-.4-.7,4,4,0,0,0-1.2-.4l-1.5-.3-.9-.3-1-.6a2.4,2.4,0,0,1-.6-.8,2.5,2.5,0,0,1,0-2.4,2.8,2.8,0,0,1,.9-1,3.1,3.1,0,0,1,1.3-.6l1.6-.2a6.7,6.7,0,0,1,2.6.5,3.7,3.7,0,0,1,1.7,1.8l-2.3.9a1.8,1.8,0,0,0-.9-.8,2.3,2.3,0,0,0-1.1-.3,1.7,1.7,0,0,0-1,.3c-.3.1-.5.3-.5.5a.7.7,0,0,0,.4.6l1,.3,1.5.4a4.2,4.2,0,0,1,2.3,1.2,2.2,2.2,0,0,1,.8,1.8,2.8,2.8,0,0,1-.3,1.3,2.8,2.8,0,0,1-.9,1,4.6,4.6,0,0,1-1.4.7A4.7,4.7,0,0,1,620.8,428.6Z"/><path class="c" d="M630.2,418.4h3.1l1.7,6.2h.1l2-6.2h2.8l2.1,6.2h.1l1.7-6.2h3l-3.3,9.9h-2.9l-2-6.3h-.2l-2,6.3h-2.9Z"/><path class="c" d="M657.4,425.9a5,5,0,0,1-1.9,1.9,5.2,5.2,0,0,1-2.9.8,6.5,6.5,0,0,1-2.1-.4,4.2,4.2,0,0,1-1.7-1.1,5.2,5.2,0,0,1-1.2-1.7,6.5,6.5,0,0,1-.4-2.1,7.1,7.1,0,0,1,.4-2,9.9,9.9,0,0,1,1.1-1.7,7.1,7.1,0,0,1,1.7-1.1,4.6,4.6,0,0,1,2.1-.4,5.1,5.1,0,0,1,2.2.4,3.6,3.6,0,0,1,1.6,1.1,6.2,6.2,0,0,1,1,1.6,6.6,6.6,0,0,1,.3,2.1v.6h-7.7l.3,1.1a2.3,2.3,0,0,0,.7.7l.8.4h1a2.4,2.4,0,0,0,1.5-.4,3.2,3.2,0,0,0,1-1Zm-2.4-3.8c-.1-.2-.1-.4-.2-.6l-.5-.6a1.8,1.8,0,0,0-.7-.5l-1.1-.2a2.7,2.7,0,0,0-2.5,1.9Z"/><path class="c" d="M203,451.2h-.2a2.9,2.9,0,0,1-1.1,1.1,5.9,5.9,0,0,1-2,.4,3.7,3.7,0,0,1-1.8-.4,5.7,5.7,0,0,1-1.6-1.1,6.4,6.4,0,0,1-1.1-1.6,6,6,0,0,1,0-4.3,6.4,6.4,0,0,1,1.1-1.6,5.7,5.7,0,0,1,1.6-1.1,3.7,3.7,0,0,1,1.8-.4,5.9,5.9,0,0,1,2,.4,2.9,2.9,0,0,1,1.1,1.1h.2l-.2-1.4V438h2.7v14.4H203Zm-2.7-.9,1-.2a4.7,4.7,0,0,0,.9-.6,3.5,3.5,0,0,0,.6-.9,3.6,3.6,0,0,0,.2-1.1,3.7,3.7,0,0,0-.2-1.2,3.5,3.5,0,0,0-.6-.9l-.9-.6-1-.2-1.1.2-.8.6a1.5,1.5,0,0,0-.6.9,2.2,2.2,0,0,0-.2,1.2,2,2,0,0,0,.2,1.1,1.5,1.5,0,0,0,.6.9l.8.6Z"/><path class="c" d="M212.6,442.2a4.6,4.6,0,0,1,2.1.4,4.2,4.2,0,0,1,1.7,1.1,4.8,4.8,0,0,1,1.2,1.6,6,6,0,0,1,0,4.3,4.8,4.8,0,0,1-1.2,1.6,4.2,4.2,0,0,1-1.7,1.1,4.6,4.6,0,0,1-2.1.4,5.4,5.4,0,0,1-2.2-.4,5,5,0,0,1-1.7-1.1,3.6,3.6,0,0,1-1.1-1.6,5.2,5.2,0,0,1-.4-2.1,5.4,5.4,0,0,1,.4-2.2,3.6,3.6,0,0,1,1.1-1.6,5,5,0,0,1,1.7-1.1A5.4,5.4,0,0,1,212.6,442.2Zm0,8.1,1-.2a2.4,2.4,0,0,0,.8-.6,1.5,1.5,0,0,0,.6-.9,2,2,0,0,0,.2-1.1,2.2,2.2,0,0,0-.2-1.2,1.5,1.5,0,0,0-.6-.9,2.4,2.4,0,0,0-.8-.6l-1-.2-1.1.2a2.4,2.4,0,0,0-.8.6,3.5,3.5,0,0,0-.6.9,3.7,3.7,0,0,0-.2,1.2,3.6,3.6,0,0,0,.2,1.1l.6.9a2.4,2.4,0,0,0,.8.6Z"/><path class="c" d="M226.8,443.8h.2a3,3,0,0,1,1.3-1.2,3.4,3.4,0,0,1,1.8-.4,4.7,4.7,0,0,1,1.7.3,2.7,2.7,0,0,1,1.2.9,4,4,0,0,1,.7,1.3,8.8,8.8,0,0,1,.2,1.7v6h-2.7v-5.7a2.5,2.5,0,0,0-.5-1.6,2,2,0,0,0-1.4-.5,1.7,1.7,0,0,0-1,.3,1.3,1.3,0,0,0-.7.6,4.1,4.1,0,0,0-.5.9,4.5,4.5,0,0,0-.1,1.2v4.8h-2.7v-9.9h2.5Z"/><path class="c" d="M241,442.2a4.6,4.6,0,0,1,2.1.4,4.2,4.2,0,0,1,1.7,1.1,4.8,4.8,0,0,1,1.2,1.6,6,6,0,0,1,0,4.3,4.8,4.8,0,0,1-1.2,1.6,4.2,4.2,0,0,1-1.7,1.1,4.6,4.6,0,0,1-2.1.4,5.4,5.4,0,0,1-2.2-.4,5,5,0,0,1-1.7-1.1,4.6,4.6,0,0,1-1.1-1.6,5.2,5.2,0,0,1-.4-2.1,5.4,5.4,0,0,1,.4-2.2,4.6,4.6,0,0,1,1.1-1.6,5,5,0,0,1,1.7-1.1A5.4,5.4,0,0,1,241,442.2Zm0,8.1,1-.2a2.4,2.4,0,0,0,.8-.6,1.5,1.5,0,0,0,.6-.9,2,2,0,0,0,.2-1.1,2.2,2.2,0,0,0-.2-1.2,1.5,1.5,0,0,0-.6-.9,2.4,2.4,0,0,0-.8-.6l-1-.2-1,.2a2,2,0,0,0-.9.6,3.5,3.5,0,0,0-.6.9,3.7,3.7,0,0,0-.2,1.2,3.6,3.6,0,0,0,.2,1.1,3.5,3.5,0,0,0,.6.9,2,2,0,0,0,.9.6Z"/><path class="c" d="M248.9,444.8h-1.8v-2.3h1.8v-3h2.7v3h2.5v2.3h-2.5v3.9a1.7,1.7,0,0,0,.1.7c0,.2.1.3.3.5a1,1,0,0,0,.8.3h.6l.4-.2.7,2.4-1,.3h-1.2l-1.4-.2-1-.7a3.3,3.3,0,0,1-1-2.6Z"/><path class="c" d="M260.7,438h2.7v4l-.2,1.8h.2a3.2,3.2,0,0,1,1.2-1.1,4.1,4.1,0,0,1,1.9-.5,3.8,3.8,0,0,1,2.9,1.1,5,5,0,0,1,.9,3.1v6h-2.7v-5.7a2.1,2.1,0,0,0-.5-1.5,1.9,1.9,0,0,0-2.4-.3,1.3,1.3,0,0,0-.7.6,4.1,4.1,0,0,0-.5.9,4.9,4.9,0,0,0-.1,1.2v4.8h-2.7Z"/><path class="c" d="M278.7,451.3h-.1l-1.2,1a2.9,2.9,0,0,1-1.7.4,3.7,3.7,0,0,1-1.5-.3,3.4,3.4,0,0,1-1.2-.6,2.8,2.8,0,0,1-.8-1.1,3.2,3.2,0,0,1-.3-1.4,3.5,3.5,0,0,1,.3-1.4,2.8,2.8,0,0,1,.9-1,4,4,0,0,1,1.3-.7l1.6-.2h1.7l1,.3v-.3a1.8,1.8,0,0,0-.6-1.3,3,3,0,0,0-1.6-.5,2.9,2.9,0,0,0-2.4,1.2l-2-1.3a5.6,5.6,0,0,1,4.4-2,5.3,5.3,0,0,1,3.6,1.1,3.8,3.8,0,0,1,1.3,3.2v5.9h-2.7Zm0-2.9-1-.4h-1.1a2.4,2.4,0,0,0-1.5.4,1.3,1.3,0,0,0,0,2,2.1,2.1,0,0,0,1.2.3h1l.7-.5a1.8,1.8,0,0,0,.5-.8A1.1,1.1,0,0,0,278.7,448.4Z"/><path class="c" d="M282.3,442.5h3.1l2.5,6.3h.1l2.6-6.3h3l-4.3,9.9h-2.7Z"/><path class="c" d="M304.2,450a6.1,6.1,0,0,1-1.9,2,6.5,6.5,0,0,1-2.9.7,5.4,5.4,0,0,1-2.2-.4,6.2,6.2,0,0,1-1.7-1.1,5.7,5.7,0,0,1-1.1-1.6,5.2,5.2,0,0,1-.4-2.1,4.9,4.9,0,0,1,.4-2.1,4.6,4.6,0,0,1,1.1-1.6,5.2,5.2,0,0,1,1.7-1.2,4.6,4.6,0,0,1,2.1-.4,5.4,5.4,0,0,1,2.2.4,5.7,5.7,0,0,1,1.6,1.1,4.2,4.2,0,0,1,.9,1.6,4.9,4.9,0,0,1,.4,2.1v.2a.3.3,0,0,0-.1.2v.3h-7.6a1.7,1.7,0,0,0,.3,1,2.3,2.3,0,0,0,.7.7,2,2,0,0,0,.8.4l.9.2a3.8,3.8,0,0,0,1.6-.4,3.1,3.1,0,0,0,.9-1.1Zm-2.5-3.8a1.3,1.3,0,0,0-.1-.6l-.5-.6-.8-.5h-1a2.9,2.9,0,0,0-1.6.4,3.4,3.4,0,0,0-.9,1.4Z"/><path class="c" d="M316.9,451.3h-.1a5.8,5.8,0,0,1-1.2,1,2.9,2.9,0,0,1-1.7.4,4,4,0,0,1-1.5-.3,3.4,3.4,0,0,1-1.2-.6,2.8,2.8,0,0,1-.8-1.1,3.2,3.2,0,0,1-.3-1.4,3.5,3.5,0,0,1,.3-1.4,2.8,2.8,0,0,1,.9-1,4,4,0,0,1,1.3-.7l1.6-.2h1.7l1,.3v-.3a1.8,1.8,0,0,0-.6-1.3,2.8,2.8,0,0,0-1.6-.5,3,3,0,0,0-2.4,1.2l-2-1.3a5.6,5.6,0,0,1,4.4-2,5.8,5.8,0,0,1,3.7,1.1,4.1,4.1,0,0,1,1.2,3.2v5.9h-2.7Zm0-2.9-1-.4h-1.1a2.4,2.4,0,0,0-1.5.4,1.3,1.3,0,0,0,0,2,2.1,2.1,0,0,0,1.2.3h1l.8-.5a3,3,0,0,0,.4-.8A1.1,1.1,0,0,0,316.9,448.4Z"/><path class="c" d="M324.3,443.8h.2a3,3,0,0,1,1.3-1.2,3.4,3.4,0,0,1,1.8-.4,4.7,4.7,0,0,1,1.7.3,2.7,2.7,0,0,1,1.2.9,4,4,0,0,1,.7,1.3,8.8,8.8,0,0,1,.2,1.7v6h-2.7v-5.7a2.5,2.5,0,0,0-.5-1.6,2,2,0,0,0-1.4-.5,1.7,1.7,0,0,0-1,.3,1.3,1.3,0,0,0-.7.6,4.1,4.1,0,0,0-.5.9,4.5,4.5,0,0,0-.1,1.2v4.8h-2.7v-9.9h2.5Z"/><path class="c" d="M336.6,451.9l-4.2-9.4h3.1l2.5,6h.2l2.4-6h3.1l-6.4,14.2h-2.9Z"/><path class="c" d="M348.4,442.5h3l1.7,6.2h.2l2-6.2h2.8l2,6.2h.2l1.6-6.2h3l-3.2,9.9h-3l-2-6.2h-.1l-2.1,6.2h-2.9Z"/><path class="c" d="M372.2,451.3H372a5.2,5.2,0,0,1-1.1,1,3.1,3.1,0,0,1-1.7.4,5.4,5.4,0,0,1-2.7-.9,2.8,2.8,0,0,1-.8-1.1,3.2,3.2,0,0,1-.3-1.4,3.5,3.5,0,0,1,.3-1.4,2.8,2.8,0,0,1,.9-1,4,4,0,0,1,1.3-.7l1.6-.2h1.7l1,.3v-.3a1.8,1.8,0,0,0-.6-1.3,3,3,0,0,0-1.6-.5,2.9,2.9,0,0,0-2.4,1.2l-2-1.3a5.6,5.6,0,0,1,4.4-2,5.3,5.3,0,0,1,3.6,1.1,3.8,3.8,0,0,1,1.3,3.2v5.9h-2.7Zm0-2.9-1-.4h-1.1a2.4,2.4,0,0,0-1.5.4,1.3,1.3,0,0,0,0,2,2.1,2.1,0,0,0,1.2.3h1l.7-.5a1.8,1.8,0,0,0,.5-.8A1.1,1.1,0,0,0,372.2,448.4Z"/><path class="c" d="M380,451.9l-4.2-9.4h3l2.6,6h.2l2.4-6h3.1l-6.4,14.2h-2.9Z"/><path class="c" d="M394,444.8h-1.8v-2.3H394v-3h2.7v3h2.5v2.3h-2.5v3.9a1.7,1.7,0,0,0,.1.7c0,.2.1.3.2.5a1.2,1.2,0,0,0,.9.3h.5a.5.5,0,0,0,.4-.2l.8,2.4-1,.3h-1.2l-1.4-.2a2.6,2.6,0,0,1-1-.7,3.3,3.3,0,0,1-1-2.6Z"/><path class="c" d="M405.9,442.2a4.6,4.6,0,0,1,2.1.4,4.2,4.2,0,0,1,1.7,1.1,4.8,4.8,0,0,1,1.2,1.6,6,6,0,0,1,0,4.3,4.8,4.8,0,0,1-1.2,1.6,4.2,4.2,0,0,1-1.7,1.1,4.6,4.6,0,0,1-2.1.4,5.4,5.4,0,0,1-2.2-.4,6.2,6.2,0,0,1-1.7-1.1,4.6,4.6,0,0,1-1.1-1.6,5.2,5.2,0,0,1-.4-2.1,5.4,5.4,0,0,1,.4-2.2,4.6,4.6,0,0,1,1.1-1.6,6.2,6.2,0,0,1,1.7-1.1A5.4,5.4,0,0,1,405.9,442.2Zm0,8.1,1-.2a2.4,2.4,0,0,0,.8-.6,1.5,1.5,0,0,0,.6-.9,2,2,0,0,0,.3-1.1,2.1,2.1,0,0,0-.3-1.2,1.5,1.5,0,0,0-.6-.9,2.4,2.4,0,0,0-.8-.6l-1-.2-1,.2-.9.6-.6.9a3.7,3.7,0,0,0-.2,1.2,3.6,3.6,0,0,0,.2,1.1l.6.9.9.6Z"/><path class="c" d="M417.6,442.5h2.5v1.4h.2l.5-.7.7-.5.8-.4h1.8l.7.3L424,445l-.5-.2h-.7l-1.1.2a2.8,2.8,0,0,0-1.2,1.5,2,2,0,0,0-.2,1.1v4.9h-2.7Z"/><path class="c" d="M435,450a6.1,6.1,0,0,1-1.9,2,6.5,6.5,0,0,1-2.9.7,4.6,4.6,0,0,1-2.1-.4,5.4,5.4,0,0,1-1.8-1.1,9.1,9.1,0,0,1-1.1-1.6,5.2,5.2,0,0,1-.4-2.1,4.9,4.9,0,0,1,.4-2.1,4.6,4.6,0,0,1,1.1-1.6,5.2,5.2,0,0,1,1.7-1.2,4.6,4.6,0,0,1,2.1-.4,5.4,5.4,0,0,1,2.2.4,5.7,5.7,0,0,1,1.6,1.1,4.2,4.2,0,0,1,.9,1.6,4.9,4.9,0,0,1,.4,2.1v.4a.4.4,0,0,0-.1.3h-7.6a2.9,2.9,0,0,0,.3,1,2.3,2.3,0,0,0,.7.7,2,2,0,0,0,.8.4l.9.2a3.4,3.4,0,0,0,1.6-.4,3.1,3.1,0,0,0,.9-1.1Zm-2.5-3.8a1.3,1.3,0,0,0-.1-.6l-.5-.6-.7-.5h-1.1a2.4,2.4,0,0,0-1.5.4,2.8,2.8,0,0,0-1,1.4Z"/><path class="c" d="M443.3,451.3h-.2a5.2,5.2,0,0,1-1.1,1,3.4,3.4,0,0,1-1.8.4,3.2,3.2,0,0,1-1.4-.3,5.2,5.2,0,0,1-1.3-.6,4.4,4.4,0,0,1-.8-1.1,3.2,3.2,0,0,1-.3-1.4,3.5,3.5,0,0,1,.3-1.4,4.3,4.3,0,0,1,.9-1l1.3-.7,1.7-.2h1.6l1.1.3v-.3a1.6,1.6,0,0,0-.7-1.3,2.5,2.5,0,0,0-1.6-.5,2.8,2.8,0,0,0-2.3,1.2l-2-1.3a5.4,5.4,0,0,1,4.4-2,5.3,5.3,0,0,1,3.6,1.1,4.1,4.1,0,0,1,1.3,3.2v5.9h-2.7Zm0-2.9-1-.4h-1.1a2.1,2.1,0,0,0-1.5.4,1.2,1.2,0,0,0,0,2,2,2,0,0,0,1.1.3h1l.8-.5a3.5,3.5,0,0,0,.5-.8A1.9,1.9,0,0,0,443.3,448.4Z"/><path class="c" d="M455.6,451.2h-.2a2.6,2.6,0,0,1-1.2,1.1,4.9,4.9,0,0,1-1.9.4,4.1,4.1,0,0,1-1.9-.4,5.3,5.3,0,0,1-1.5-1.1,4.6,4.6,0,0,1-1.1-1.6,6,6,0,0,1,0-4.3,4.6,4.6,0,0,1,1.1-1.6,5.3,5.3,0,0,1,1.5-1.1,4.1,4.1,0,0,1,1.9-.4,4.9,4.9,0,0,1,1.9.4,2.6,2.6,0,0,1,1.2,1.1h.2l-.2-1.4V438h2.7v14.4h-2.5Zm-2.7-.9,1-.2a2.4,2.4,0,0,0,.8-.6,1.5,1.5,0,0,0,.6-.9,2,2,0,0,0,.3-1.1,2.1,2.1,0,0,0-.3-1.2,1.5,1.5,0,0,0-.6-.9,2.4,2.4,0,0,0-.8-.6l-1-.2-1.1.2-.8.6a1.5,1.5,0,0,0-.6.9,2.1,2.1,0,0,0-.3,1.2,2,2,0,0,0,.3,1.1,1.5,1.5,0,0,0,.6.9l.8.6Z"/><path class="c" d="M468.2,451.9l-4.3-9.4H467l2.6,6h.1l2.5-6h3l-6.3,14.2h-3Z"/><path class="c" d="M480.9,442.2a4.6,4.6,0,0,1,2.1.4,4.2,4.2,0,0,1,1.7,1.1,3.6,3.6,0,0,1,1.1,1.6,5.4,5.4,0,0,1,.5,2.2,5.4,5.4,0,0,1-.5,2.1,3.6,3.6,0,0,1-1.1,1.6,4.2,4.2,0,0,1-1.7,1.1,4.6,4.6,0,0,1-2.1.4,5.4,5.4,0,0,1-2.2-.4,5,5,0,0,1-1.7-1.1,3.6,3.6,0,0,1-1.1-1.6,5.2,5.2,0,0,1-.4-2.1,5.4,5.4,0,0,1,.4-2.2,3.6,3.6,0,0,1,1.1-1.6,5,5,0,0,1,1.7-1.1A5.4,5.4,0,0,1,480.9,442.2Zm0,8.1,1-.2a2.4,2.4,0,0,0,.8-.6,1.5,1.5,0,0,0,.6-.9,2,2,0,0,0,.2-1.1,2.2,2.2,0,0,0-.2-1.2,1.5,1.5,0,0,0-.6-.9,2.4,2.4,0,0,0-.8-.6l-1-.2-1.1.2a2.4,2.4,0,0,0-.8.6l-.6.9a3.7,3.7,0,0,0-.2,1.2,3.6,3.6,0,0,0,.2,1.1l.6.9a2.4,2.4,0,0,0,.8.6Z"/><path class="c" d="M494.9,451.1h-.1a4.9,4.9,0,0,1-1.3,1.2,4.1,4.1,0,0,1-1.9.4,3.5,3.5,0,0,1-2.8-1.1,4.5,4.5,0,0,1-1-3.1v-6h2.7v5.7a2.5,2.5,0,0,0,.5,1.6,2,2,0,0,0,1.4.5,1.7,1.7,0,0,0,1-.3,1.3,1.3,0,0,0,.7-.6,4.1,4.1,0,0,0,.5-.9,4.3,4.3,0,0,0,.2-1.1v-4.9h2.7v9.9h-2.6Z"/><path class="c" d="M499.8,442.5h2.5v1.4h.2l.5-.7.7-.5.8-.4h1.8l.7.3-.7,2.4-.6-.2H505l-1,.2a2.4,2.4,0,0,0-.8.6,4.1,4.1,0,0,0-.5.9,3.6,3.6,0,0,0-.2,1.1v4.9h-2.7Z"/><path class="c" d="M512.7,442.5h2.6v1.2h.1a4.3,4.3,0,0,1,1.2-1.1,5.3,5.3,0,0,1,1.9-.4,4.1,4.1,0,0,1,1.9.4,4.2,4.2,0,0,1,1.5,1.1,4.6,4.6,0,0,1,1.1,1.6,5.4,5.4,0,0,1,.4,2.2,5.2,5.2,0,0,1-.4,2.1,4.6,4.6,0,0,1-1.1,1.6,4.2,4.2,0,0,1-1.5,1.1,4.1,4.1,0,0,1-1.9.4,5.3,5.3,0,0,1-1.9-.4,4.3,4.3,0,0,1-1.2-1.1h-.1v5.5h-2.7Zm5.3,7.8,1-.2.9-.6a3.5,3.5,0,0,0,.6-.9,3.6,3.6,0,0,0,.2-1.1,3.7,3.7,0,0,0-.2-1.2,3.5,3.5,0,0,0-.6-.9l-.9-.6-1-.2-1.1.2a2.4,2.4,0,0,0-.8.6,1.5,1.5,0,0,0-.6.9,2.2,2.2,0,0,0-.2,1.2,2,2,0,0,0,.2,1.1,1.5,1.5,0,0,0,.6.9,2.4,2.4,0,0,0,.8.6Z"/><path class="c" d="M525,442.5h2.6v1.4h.2a1.5,1.5,0,0,1,.5-.7l.6-.5.9-.4h1.8l.6.3-.7,2.4-.5-.2h-.8l-1,.2a2.4,2.4,0,0,0-.8.6,4.1,4.1,0,0,0-.5.9,3.7,3.7,0,0,0-.1,1.1v4.9H525Z"/><path class="c" d="M535,441.2h-.7a2.9,2.9,0,0,1-.9-.9,1.5,1.5,0,0,1-.1-.7,2,2,0,0,1,.1-.7l.4-.5a.9.9,0,0,1,.5-.3l.7-.2a1.7,1.7,0,0,1,1.2.5,1.5,1.5,0,0,1,0,2.4A1.7,1.7,0,0,1,535,441.2Zm-1.4,11.2v-9.9h2.8v9.9Z"/><path class="c" d="M537.8,442.5h3.1l2.5,6.3h.1l2.6-6.3h3.1l-4.4,9.9h-2.7Z"/><path class="c" d="M556.4,451.3h-.1a4,4,0,0,1-1.2,1,2.9,2.9,0,0,1-1.7.4,4,4,0,0,1-1.5-.3,6.7,6.7,0,0,1-1.2-.6,4.4,4.4,0,0,1-.8-1.1,3.2,3.2,0,0,1-.3-1.4,3.5,3.5,0,0,1,.3-1.4,2.8,2.8,0,0,1,.9-1l1.3-.7,1.7-.2h1.6l1,.3v-.3a1.8,1.8,0,0,0-.6-1.3,2.8,2.8,0,0,0-1.6-.5,3.1,3.1,0,0,0-2.4,1.2l-1.9-1.3a5.3,5.3,0,0,1,4.4-2,5.5,5.5,0,0,1,3.6,1.1,4.1,4.1,0,0,1,1.2,3.2v5.9h-2.7Zm0-2.9-.9-.4h-1.1a2.1,2.1,0,0,0-1.5.4,1.2,1.2,0,0,0-.6,1,1.4,1.4,0,0,0,.5,1,2.7,2.7,0,0,0,1.2.3h1l.8-.5a3.5,3.5,0,0,0,.5-.8A1.9,1.9,0,0,0,556.4,448.4Z"/><path class="c" d="M562.2,444.8h-1.8v-2.3h1.8v-3h2.7v3h2.5v2.3h-2.5v3.9a1.7,1.7,0,0,0,.1.7c0,.2.1.3.3.5a1,1,0,0,0,.8.3h.5a.5.5,0,0,0,.4-.2l.8,2.4-1,.3h-1.2l-1.4-.2a2.6,2.6,0,0,1-1-.7,3.3,3.3,0,0,1-1-2.6Z"/><path class="c" d="M578.9,450a6.1,6.1,0,0,1-1.9,2,6.5,6.5,0,0,1-2.9.7,5.4,5.4,0,0,1-2.2-.4,6.2,6.2,0,0,1-1.7-1.1,9.1,9.1,0,0,1-1.1-1.6,5.2,5.2,0,0,1-.4-2.1,4.9,4.9,0,0,1,.4-2.1,4.6,4.6,0,0,1,1.1-1.6,5.2,5.2,0,0,1,1.7-1.2,4.6,4.6,0,0,1,2.1-.4,5.4,5.4,0,0,1,2.2.4,5.7,5.7,0,0,1,1.6,1.1,4.2,4.2,0,0,1,.9,1.6,4.9,4.9,0,0,1,.4,2.1v.7h-7.6a1.7,1.7,0,0,0,.3,1,2.3,2.3,0,0,0,.7.7l.8.4.9.2a3.4,3.4,0,0,0,1.6-.4,3.1,3.1,0,0,0,.9-1.1Zm-2.5-3.8a1.3,1.3,0,0,0-.1-.6l-.5-.6-.7-.5H574a2.4,2.4,0,0,0-1.5.4,2.8,2.8,0,0,0-1,1.4Z"/><path class="c" d="M585.3,442.5h2.5v1.2h.2a2.6,2.6,0,0,1,1.2-1.1,4.9,4.9,0,0,1,1.9-.4,4.1,4.1,0,0,1,1.9.4,4.2,4.2,0,0,1,1.5,1.1,4.6,4.6,0,0,1,1.1,1.6,6,6,0,0,1,0,4.3,4.6,4.6,0,0,1-1.1,1.6,4.2,4.2,0,0,1-1.5,1.1,4.1,4.1,0,0,1-1.9.4,4.9,4.9,0,0,1-1.9-.4,2.6,2.6,0,0,1-1.2-1.1h-.2l.2,1.4v4.1h-2.7Zm5.2,7.8,1.1-.2.8-.6a1.5,1.5,0,0,0,.6-.9,2,2,0,0,0,.3-1.1,2.1,2.1,0,0,0-.3-1.2,1.5,1.5,0,0,0-.6-.9l-.8-.6-1.1-.2-1,.2a2.4,2.4,0,0,0-.8.6,1.5,1.5,0,0,0-.6.9,2.1,2.1,0,0,0-.3,1.2,2,2,0,0,0,.3,1.1,1.5,1.5,0,0,0,.6.9,2.4,2.4,0,0,0,.8.6Z"/><path class="c" d="M604,451.3h-.2a5.2,5.2,0,0,1-1.1,1,3.4,3.4,0,0,1-1.8.4,3.2,3.2,0,0,1-1.4-.3,5.2,5.2,0,0,1-1.3-.6,4.4,4.4,0,0,1-.8-1.1,3.2,3.2,0,0,1-.3-1.4,2.5,2.5,0,0,1,.4-1.4,3.9,3.9,0,0,1,.8-1l1.3-.7,1.7-.2h1.6l1.1.3v-.3a1.6,1.6,0,0,0-.7-1.3,2.5,2.5,0,0,0-1.6-.5,2.8,2.8,0,0,0-2.3,1.2l-2-1.3a5.4,5.4,0,0,1,4.4-2,5.3,5.3,0,0,1,3.6,1.1,4.1,4.1,0,0,1,1.3,3.2v5.9H604Zm0-2.9-1-.4h-1.1a2.1,2.1,0,0,0-1.5.4,1.3,1.3,0,0,0,0,2,2,2,0,0,0,1.1.3h1l.8-.5a3.5,3.5,0,0,0,.5-.8A1.9,1.9,0,0,0,604,448.4Z"/><path class="c" d="M612.7,452.7l-1.7-.2a4.6,4.6,0,0,1-1.4-.7,2.8,2.8,0,0,1-1-.9l-.6-1,2.5-1a2.4,2.4,0,0,0,2.2,1.5,2.1,2.1,0,0,0,1.2-.3.7.7,0,0,0,.4-.6.9.9,0,0,0-.3-.7l-1.3-.4-1.4-.3-1-.3-.9-.6a2.7,2.7,0,0,1-.7-.8,2,2,0,0,1-.3-1.1,1.8,1.8,0,0,1,.4-1.3,3.9,3.9,0,0,1,.8-1l1.4-.6,1.6-.2a5.5,5.5,0,0,1,2.6.6,3.5,3.5,0,0,1,1.7,1.7l-2.4.9-.8-.8a2.7,2.7,0,0,0-1.2-.3,1.9,1.9,0,0,0-1,.3.5.5,0,0,0-.4.6.5.5,0,0,0,.4.5l.9.4,1.6.3a5.5,5.5,0,0,1,2.3,1.2,2.6,2.6,0,0,1,.8,1.9,2.7,2.7,0,0,1-.3,1.2,4.3,4.3,0,0,1-.9,1,3.7,3.7,0,0,1-1.4.7A4.8,4.8,0,0,1,612.7,452.7Z"/><path class="c" d="M619.7,444.8H618v-2.3h1.7v-3h2.8v3h2.4v2.3h-2.4v4.6l.3.5a1.1,1.1,0,0,0,.8.3h.6l.4-.2.8,2.4-1.1.3h-1.2l-1.4-.2-1-.7a3.6,3.6,0,0,1-1-2.6Z"/><path class="c" d="M636.4,450a5.8,5.8,0,0,1-1.8,2,6.6,6.6,0,0,1-3,.7,5.2,5.2,0,0,1-2.1-.4,5,5,0,0,1-1.7-1.1,4.2,4.2,0,0,1-1.1-1.6,5.4,5.4,0,0,1-.5-2.1,7.1,7.1,0,0,1,.4-2.1,6.4,6.4,0,0,1,1.1-1.6,6.6,6.6,0,0,1,1.7-1.2,5.2,5.2,0,0,1,2.1-.4,4.8,4.8,0,0,1,2.2.4,4.6,4.6,0,0,1,1.6,1.1,4.4,4.4,0,0,1,1,1.6,7.1,7.1,0,0,1,.3,2.1v.7h-7.7a3,3,0,0,0,.4,1c.1.3.4.5.6.7l.8.4,1,.2a3.3,3.3,0,0,0,1.5-.4,3.5,3.5,0,0,0,1-1.1Zm-2.4-3.8a1.4,1.4,0,0,0-.2-.6l-.5-.6-.7-.5h-1.1a2.2,2.2,0,0,0-2.4,1.8Z"/><path class="d" d="M333.4,246.7V235.3h4l1.6.2,1.2.8a4.4,4.4,0,0,1,.8,1.1,3.9,3.9,0,0,1,0,3,4.4,4.4,0,0,1-.8,1.1l-1.2.8-1.6.2h-1.8v4.2Zm4.1-6.2a1.7,1.7,0,0,0,1.2-.5,1.6,1.6,0,0,0,.5-1.1c0-.2-.1-.4-.1-.6a2.9,2.9,0,0,0-.9-.9h-2.6v3.2Z"/><path class="d" d="M347.1,245.9H347a3.4,3.4,0,0,1-.9.8,2.5,2.5,0,0,1-1.3.3l-1.2-.2-.9-.6a1.6,1.6,0,0,1-.6-.8,2.2,2.2,0,0,1,0-2.2,1.8,1.8,0,0,1,.7-.8,1.7,1.7,0,0,1,1-.6l1.2-.2,1.3.2.8.2v-.2a1.3,1.3,0,0,0-.5-1.1,2.1,2.1,0,0,0-1.2-.4,2.3,2.3,0,0,0-1.8.9l-1.6-1a4.4,4.4,0,0,1,3.4-1.6,3.8,3.8,0,0,1,2.8.9,3,3,0,0,1,1,2.5v4.7h-2.1Zm0-2.4-.7-.2h-.9a2.1,2.1,0,0,0-1.2.3,1,1,0,0,0,0,1.6,1.6,1.6,0,0,0,.9.3l.8-.2.6-.4.4-.6A1.5,1.5,0,0,0,347.1,243.5Z"/><path class="d" d="M353.9,247l-1.4-.2-1-.5-.8-.7a3.6,3.6,0,0,1-.4-.9l1.8-.8a1.8,1.8,0,0,0,.8.9,1.7,1.7,0,0,0,1,.3c.4,0,.7,0,.9-.2a.5.5,0,0,0,.3-.5c0-.2-.1-.3-.3-.5l-.9-.3-1.1-.3-.8-.2-.7-.5-.5-.6a1.5,1.5,0,0,1-.2-.9,2,2,0,0,1,.2-1.1,2.3,2.3,0,0,1,.7-.7l1-.5,1.3-.2a4.6,4.6,0,0,1,2,.5,3,3,0,0,1,1.3,1.4l-1.9.7a1.3,1.3,0,0,0-.6-.7l-.9-.2-.8.2a.5.5,0,0,0-.3.5c0,.2.1.3.3.4l.7.3,1.2.3a3.8,3.8,0,0,1,1.8.9,2,2,0,0,1,.6,1.5,3,3,0,0,1-.2,1,2.7,2.7,0,0,1-.7.8l-1.1.6Z"/><path class="d" d="M361.6,247l-1.4-.2-1-.5-.8-.7a3.6,3.6,0,0,1-.4-.9l1.9-.8a1.3,1.3,0,0,0,.7.9,1.7,1.7,0,0,0,1,.3c.4,0,.7,0,.9-.2a.6.6,0,0,0,.1-1l-1-.3-1.1-.3-.8-.2-.7-.5-.5-.6a2.9,2.9,0,0,1-.2-.9,3.6,3.6,0,0,1,.2-1.1,2.3,2.3,0,0,1,.7-.7l1-.5,1.3-.2a4.6,4.6,0,0,1,2,.5,2.6,2.6,0,0,1,1.3,1.4l-1.8.7a2.3,2.3,0,0,0-.7-.7l-.8-.2-.8.2a.5.5,0,0,0-.4.5c0,.2.1.3.3.4l.8.3,1.2.3a3.8,3.8,0,0,1,1.8.9,2.5,2.5,0,0,1,.5,1.5,1.6,1.6,0,0,1-.2,1,2.7,2.7,0,0,1-.7.8l-1,.6Z"/><path class="d" d="M365.4,238.9h2.3l1.3,4.9h.2l1.5-4.9h2.2l1.5,4.9h.1l1.3-4.9h2.3l-2.5,7.8h-2.2l-1.6-4.9h-.1l-1.6,4.9h-2.2Z"/><path class="d" d="M382.7,238.6a4.1,4.1,0,0,1,1.6.3,4.3,4.3,0,0,1,1.3.9,3.8,3.8,0,0,1,.9,1.3,5,5,0,0,1,0,3.4,3.8,3.8,0,0,1-.9,1.3,3,3,0,0,1-1.3.9,4.1,4.1,0,0,1-1.6.3,4.3,4.3,0,0,1-1.7-.3,3,3,0,0,1-1.3-.9,3.8,3.8,0,0,1-.9-1.3,5,5,0,0,1,0-3.4,3.8,3.8,0,0,1,.9-1.3,3.9,3.9,0,0,1,3-1.2Zm0,6.4h.7l.7-.4.5-.7a3.1,3.1,0,0,0,.1-1,2.5,2.5,0,0,0-.1-.9l-.5-.7a1.8,1.8,0,0,0-.7-.5h-1.5a1.8,1.8,0,0,0-.7.5,1.6,1.6,0,0,0-.4.7,1.3,1.3,0,0,0-.2.9,1.6,1.6,0,0,0,.2,1,2.5,2.5,0,0,0,.4.7l.7.4Z"/><path class="d" d="M388,238.9h2V240h.1l.4-.6.5-.4.7-.3H393l.6.3-.6,1.8h-1l-.8.2-.6.5a1.6,1.6,0,0,0-.4.7,2.2,2.2,0,0,0-.1.9v3.8H388Z"/><path class="d" d="M399.9,245.8h-.2a1.5,1.5,0,0,1-.9.8,2.4,2.4,0,0,1-1.5.4,3.5,3.5,0,0,1-1.4-.3l-1.2-.9a5.7,5.7,0,0,1-.8-1.3,5,5,0,0,1,0-3.4,5.7,5.7,0,0,1,.8-1.3l1.2-.9a3.5,3.5,0,0,1,1.4-.3,3.3,3.3,0,0,1,1.5.4,1.5,1.5,0,0,1,.9.8h.2l-.2-1.1v-3.4h2.1v11.4h-1.9Zm-2.1-.8h.8l.6-.4.5-.7a3,3,0,0,0,.2-1,2.4,2.4,0,0,0-.2-.9,1.8,1.8,0,0,0-.5-.7l-.6-.5H397a1.8,1.8,0,0,0-.7.5,1.6,1.6,0,0,0-.4.7,1.5,1.5,0,0,0-.2.9c0,.4,0,.7.2.9a1.6,1.6,0,0,0,.4.7,1.8,1.8,0,0,0,.7.5Z"/><path class="d" d="M403.9,235.3H406v4.5h4.9v-4.5H413v11.4h-2.1v-4.8H406v4.8h-2.1Z"/><path class="d" d="M419.7,245.9h-.2a2.4,2.4,0,0,1-.9.8,2.3,2.3,0,0,1-1.3.3l-1.1-.2a2.1,2.1,0,0,1-1-.6l-.6-.8a3.1,3.1,0,0,1,0-2.2,2.7,2.7,0,0,1,.7-.8,2.1,2.1,0,0,1,1-.6l1.3-.2,1.2.2.9.2v-.2a1.6,1.6,0,0,0-.5-1.1,2.8,2.8,0,0,0-1.3-.4,2.3,2.3,0,0,0-1.8.9l-1.5-1a4.6,4.6,0,0,1,6.2-.7,3.3,3.3,0,0,1,.9,2.5v4.7h-2Zm0-2.4-.8-.2H418a1.8,1.8,0,0,0-1.1.3,1,1,0,0,0,0,1.6,1.2,1.2,0,0,0,.9.3l.7-.2a.9.9,0,0,0,.6-.4l.4-.6A1.4,1.4,0,0,0,419.7,243.5Z"/><path class="d" d="M426.4,247l-1.4-.2-1-.5-.7-.7a4.1,4.1,0,0,1-.5-.9l1.9-.8c.2.4.4.8.7.9a1.7,1.7,0,0,0,1,.3c.4,0,.7,0,.9-.2a.5.5,0,0,0,.4-.5c0-.2-.1-.3-.3-.5l-1-.3-1.1-.3-.7-.2-.8-.5-.5-.6a2.9,2.9,0,0,1-.2-.9,2,2,0,0,1,.3-1.1,1.3,1.3,0,0,1,.6-.7l1-.5,1.3-.2a4.6,4.6,0,0,1,2,.5,2.6,2.6,0,0,1,1.3,1.4l-1.8.7-.7-.7-.8-.2-.8.2a.5.5,0,0,0-.3.5c0,.2,0,.3.2.4l.8.3,1.2.3a3.8,3.8,0,0,1,1.8.9,2,2,0,0,1,.6,1.5,1.7,1.7,0,0,1-.3,1,1.8,1.8,0,0,1-.7.8l-1,.6Z"/><path class="d" d="M431,235.3h2.1v4.6h.1a2.8,2.8,0,0,1,1-.9,3.3,3.3,0,0,1,1.4-.4,2.9,2.9,0,0,1,2.3.9,3.7,3.7,0,0,1,.7,2.5v4.7h-2.1v-4.5a1.6,1.6,0,0,0-.4-1.2,1.2,1.2,0,0,0-1.1-.4,1,1,0,0,0-.7.2,1.3,1.3,0,0,0-.6.5,1.5,1.5,0,0,0-.3.7,2.9,2.9,0,0,0-.2.9v3.8H431Z"/><path class="c" d="M540.9,196.5a2.9,2.9,0,0,1-.8-2.1v-2.5a1.1,1.1,0,0,0-.3-.8l-.7-.2v-1.8a1.1,1.1,0,0,0,.7-.3c.2-.1.3-.4.3-.8v-2.4a3.3,3.3,0,0,1,.8-2.2,2.8,2.8,0,0,1,2.1-.7h.6v1.7h-.3a1.1,1.1,0,0,0-.8.3,1.8,1.8,0,0,0-.4,1V188a2.5,2.5,0,0,1-.2,1.3,1.5,1.5,0,0,1-.9.6h0a2.2,2.2,0,0,1,.9.7,2.4,2.4,0,0,1,.2,1.3v2.3a1.3,1.3,0,0,0,.4.9.9.9,0,0,0,.8.4h.3v1.7H543A2.5,2.5,0,0,1,540.9,196.5Z"/><path class="c" d="M558,208.5h-1.3v-1.8H558v-2.4h2.1v2.4h2v1.8h-2v3.1a4.3,4.3,0,0,0,.1.5.5.5,0,0,0,.2.4.9.9,0,0,0,.7.3h.7l.6,1.8-.8.3h-.9l-1.1-.2-.8-.5a2.9,2.9,0,0,1-.8-2.1Z"/><path class="c" d="M568.3,213.7h-.2a3,3,0,0,1-.8.8,2.9,2.9,0,0,1-1.4.3l-1.1-.2a2.1,2.1,0,0,1-1-.6l-.6-.8a3.1,3.1,0,0,1,0-2.2,2.7,2.7,0,0,1,.7-.8,2.1,2.1,0,0,1,1-.6l1.3-.2,1.3.2.8.2v-.2a1.6,1.6,0,0,0-.5-1.1,2.8,2.8,0,0,0-1.3-.4,2.3,2.3,0,0,0-1.8.9l-1.5-1a4.3,4.3,0,0,1,3.4-1.6,4.1,4.1,0,0,1,2.8.9,3.3,3.3,0,0,1,.9,2.5v4.7h-2Zm0-2.4-.8-.2h-.8a2.1,2.1,0,0,0-1.2.3,1,1,0,0,0,0,1.6,1.2,1.2,0,0,0,.9.3l.8-.2.6-.4.3-.6A1.4,1.4,0,0,0,568.3,211.3Z"/><path class="c" d="M572,203.1h2.1v4.5h.1a2.4,2.4,0,0,1,.9-.8,3.3,3.3,0,0,1,1.5-.4,3.2,3.2,0,0,1,1.4.3,3.8,3.8,0,0,1,1.2.9,6,6,0,0,1,.9,1.3,5,5,0,0,1,0,3.4,6,6,0,0,1-.9,1.3,2.7,2.7,0,0,1-1.2.9,3.2,3.2,0,0,1-1.4.3,2.4,2.4,0,0,1-1.5-.4,2.4,2.4,0,0,1-.9-.8H574v.9h-2Zm4.1,9.7h.8l.6-.5a1.8,1.8,0,0,0,.5-.7,2,2,0,0,0,.2-.9,2.9,2.9,0,0,0-.2-.9,1.8,1.8,0,0,0-.5-.7l-.6-.5h-1.6a1.8,1.8,0,0,0-.7.5l-.5.7a2.5,2.5,0,0,0-.1.9,3.1,3.1,0,0,0,.1,1l.5.7.7.4Z"/><path class="c" d="M584,214.5V206l-1.9.9-.8-1.8,3.3-1.5h1.5v10.9Z"/><path class="c" d="M589.6,209.3a1.5,1.5,0,0,1-.9-.4,1.4,1.4,0,0,1,0-2,1.1,1.1,0,0,1,.9-.4,1.2,1.2,0,0,1,1,.4,1.5,1.5,0,0,1,0,2A1.5,1.5,0,0,1,589.6,209.3Zm0,5.2a1.1,1.1,0,0,1-.9-.4,1.3,1.3,0,0,1-.4-1,1.4,1.4,0,0,1,1.3-1.3,1.2,1.2,0,0,1,1,.4,1.1,1.1,0,0,1,.4.9,1.3,1.3,0,0,1-.4,1A1.2,1.2,0,0,1,589.6,214.5Z"/><path class="c" d="M598.8,203.3l-.8,1.3.6.5a1.1,1.1,0,0,1,.2.8,1.3,1.3,0,0,1-.4,1,1,1,0,0,1-.9.4,1.4,1.4,0,0,1-1.4-1.4,1.3,1.3,0,0,1,.1-.6c.1-.1.1-.3.3-.5l1.4-2.1Zm3.5,0-.8,1.3.6.5a1.1,1.1,0,0,1,.2.8,1.3,1.3,0,0,1-.4,1,1,1,0,0,1-.9.4,1.4,1.4,0,0,1-1.4-1.4,1.3,1.3,0,0,1,.1-.6l.3-.5,1.4-2.1Z"/><path class="c" d="M608.5,214.8a5.8,5.8,0,0,1-1.9-.3,7.1,7.1,0,0,1-1.4-1,3.8,3.8,0,0,1-.9-1.5,6.4,6.4,0,0,1-.3-2v-6.9h2.2v7a4.1,4.1,0,0,0,.1,1.1,5.9,5.9,0,0,0,.4.8l.8.5a1.6,1.6,0,0,0,1,.2,2.2,2.2,0,0,0,1.7-.7,2,2,0,0,0,.4-.8,4.3,4.3,0,0,0,.2-1.1v-7h2.1V210a5.8,5.8,0,0,1-.3,1.9,3.8,3.8,0,0,1-.9,1.5,2.8,2.8,0,0,1-1.4,1A3.7,3.7,0,0,1,608.5,214.8Z"/><path class="c" d="M615.9,205.6h-.5c-.2,0-.3-.1-.5-.3l-.3-.4a1.3,1.3,0,0,1,0-1l.3-.5.5-.3h.5a1.3,1.3,0,0,1,.9.4,1.3,1.3,0,0,1,.4,1,1.4,1.4,0,0,1-1.3,1.3Zm-1.1,8.9v-7.8h2.1v7.8Z"/><path class="c" d="M620.8,210.5l-2.7-3.8h2.5l1.4,2.2h.1l1.4-2.2H626l-2.7,3.8,2.7,4h-2.4l-1.5-2.2H622l-1.4,2.2h-2.5Z"/><path class="c" d="M629.5,214.1l-3.2-7.4h2.3l2,4.7h.1l1.9-4.7H635L630.1,218h-2.3Z"/><path class="c" d="M639.5,203.1H642l4.3,11.4h-2.4l-.9-2.7h-4.4l-1,2.7h-2.4Zm2.8,6.7-1.1-2.9-.4-1.3h-.1l-.4,1.3-1,2.9Z"/><path class="c" d="M649.1,214.1l-3.3-7.4h2.4l2,4.7h.1l1.9-4.7h2.4l-5,11.3h-2.2Z"/><path class="c" d="M655.4,203.1h2.1v3.2l-.2,1.4h.2a2,2,0,0,1,.9-.9,3.3,3.3,0,0,1,1.4-.4,2.9,2.9,0,0,1,2.3.9,3.7,3.7,0,0,1,.7,2.5v4.7h-2.1V210a1.6,1.6,0,0,0-.4-1.2,1.2,1.2,0,0,0-1-.4,1.1,1.1,0,0,0-.8.2,1.3,1.3,0,0,0-.6.5l-.3.7a2.8,2.8,0,0,0-.1.9v3.8h-2.1Z"/><path class="c" d="M666.4,210.5l-2.7-3.8h2.5l1.4,2.2h.1l1.4-2.2h2.5l-2.7,3.8,2.7,4h-2.4l-1.5-2.2h-.1l-1.4,2.2h-2.5Z"/><path class="c" d="M672.6,206.7l.8-1.2-.6-.5a1.1,1.1,0,0,1-.2-.8,1.3,1.3,0,0,1,.4-1,1.5,1.5,0,0,1,.9-.4,1.5,1.5,0,0,1,1,.4,1.3,1.3,0,0,1,.4,1,1.3,1.3,0,0,1-.1.6.9.9,0,0,1-.3.5l-1.4,2Zm3.5,0,.8-1.2-.6-.5a1.1,1.1,0,0,1-.2-.8,1.3,1.3,0,0,1,.4-1,1.5,1.5,0,0,1,1-.4,1.5,1.5,0,0,1,.9.4,1.3,1.3,0,0,1,.4,1,1.3,1.3,0,0,1-.1.6.9.9,0,0,1-.3.5l-1.4,2Z"/><path class="c" d="M680.3,216l.9-1.5a1.3,1.3,0,0,1-.6-.5,1.9,1.9,0,0,1-.2-.8,1,1,0,0,1,.4-.9,1.4,1.4,0,0,1,2,0,1.3,1.3,0,0,1,.4.9c0,.2-.1.4-.1.6l-.3.5-1.6,2.3Z"/><path class="c" d="M558,227.7h-1.3v-1.8H558v-2.4h2.1v2.4h2v1.8h-2v3.1a4.3,4.3,0,0,0,.1.5.5.5,0,0,0,.2.4.9.9,0,0,0,.7.3h.7l.6,1.8-.8.3h-.9l-1.1-.2-.8-.5a2.9,2.9,0,0,1-.8-2.1Z"/><path class="c" d="M568.3,232.9h-.2a3,3,0,0,1-.8.8,2.9,2.9,0,0,1-1.4.3l-1.1-.2a2.1,2.1,0,0,1-1-.6l-.6-.8a3.1,3.1,0,0,1,0-2.2,2.7,2.7,0,0,1,.7-.8,2.1,2.1,0,0,1,1-.6l1.3-.2,1.3.2.8.2v-.2a1.6,1.6,0,0,0-.5-1.1,2.8,2.8,0,0,0-1.3-.4,2.3,2.3,0,0,0-1.8.9l-1.5-1a4.3,4.3,0,0,1,3.4-1.6,4.1,4.1,0,0,1,2.8.9,3.3,3.3,0,0,1,.9,2.5v4.7h-2Zm0-2.4-.8-.2h-.8a2.1,2.1,0,0,0-1.2.3,1,1,0,0,0,0,1.6,1.2,1.2,0,0,0,.9.3l.8-.2.6-.4.3-.6A1.4,1.4,0,0,0,568.3,230.5Z"/><path class="c" d="M572,222.3h2.1v4.5h.1a2.4,2.4,0,0,1,.9-.8,3.3,3.3,0,0,1,1.5-.4,3.2,3.2,0,0,1,1.4.3,3.8,3.8,0,0,1,1.2.9,6,6,0,0,1,.9,1.3,5,5,0,0,1,0,3.4,6,6,0,0,1-.9,1.3,2.7,2.7,0,0,1-1.2.9,3.2,3.2,0,0,1-1.4.3,2.4,2.4,0,0,1-1.5-.4,2.4,2.4,0,0,1-.9-.8H574v.9h-2Zm4.1,9.7h.8l.6-.5a1.8,1.8,0,0,0,.5-.7,2,2,0,0,0,.2-.9,2.9,2.9,0,0,0-.2-.9,1.8,1.8,0,0,0-.5-.7l-.6-.5h-1.6a1.8,1.8,0,0,0-.7.5l-.5.7a2.5,2.5,0,0,0-.1.9,3.1,3.1,0,0,0,.1,1l.5.7.7.4Z"/><path class="c" d="M581.4,233.7v-1.9l1.8-1.7.7-.7.6-.6.6-.6.3-.4.5-.5.3-.5c.1-.2.2-.3.2-.5a4.3,4.3,0,0,0,.1-.5,1.4,1.4,0,0,0-.5-.9,1.2,1.2,0,0,0-1.1-.4,1.4,1.4,0,0,0-1.1.4,2.4,2.4,0,0,0-.6.9l-1.9-.7a4.1,4.1,0,0,1,.5-.9,2.7,2.7,0,0,1,.7-.8,2,2,0,0,1,1.1-.6,2.8,2.8,0,0,1,1.3-.3,3.3,3.3,0,0,1,1.5.3,2.4,2.4,0,0,1,1.2.7,2.6,2.6,0,0,1,.7,1,2.7,2.7,0,0,1,.3,1.2,4.1,4.1,0,0,1-.5,1.9,10.1,10.1,0,0,1-1.3,1.6l-1.3,1.4-1.3,1.2h4.5v1.8Z"/><path class="c" d="M591.6,228.5a1.8,1.8,0,0,1-1-.4,1.4,1.4,0,0,1,2-2,1.4,1.4,0,0,1-1,2.4Zm0,5.2a1.4,1.4,0,0,1-1.4-1.4,1.1,1.1,0,0,1,.4-.9,1.4,1.4,0,0,1,2,0,1.5,1.5,0,0,1,.4.9,1.8,1.8,0,0,1-.4,1A1.3,1.3,0,0,1,591.6,233.7Z"/><path class="c" d="M600.8,222.5l-.9,1.3a1,1,0,0,1,.6.5,1.1,1.1,0,0,1,.3.8,1.8,1.8,0,0,1-.4,1,1.4,1.4,0,0,1-2.4-1,1.3,1.3,0,0,1,.1-.6l.3-.5,1.4-2.1Zm3.5,0-.9,1.3a1,1,0,0,1,.6.5,1.1,1.1,0,0,1,.3.8,1.4,1.4,0,0,1-2.4,1,1.8,1.8,0,0,1-.4-1c0-.2.1-.4.1-.6l.3-.5,1.4-2.1Z"/><path class="c" d="M606.2,222.3h2.2v11.4h-2.2Z"/><path class="c" d="M613.5,227.7l-3.4-5.4h2.6L615,226h.1l2.2-3.7H620l-3.5,5.4,3.8,6h-2.7l-2.5-4.1H615l-2.5,4.1h-2.7Z"/><path class="c" d="M622.6,224.8h-.5c-.2,0-.3-.1-.5-.3l-.3-.4a1.3,1.3,0,0,1,0-1l.3-.5.5-.3h.5a1.3,1.3,0,0,1,.9.4,1.3,1.3,0,0,1,.4,1,1.4,1.4,0,0,1-1.3,1.3Zm-1.1,8.9v-7.8h2.1v7.8Z"/><path class="c" d="M624.7,225.9h2.4l1.3,4.9h.1l1.5-4.9h2.2l1.6,4.9h.1l1.3-4.9h2.3l-2.5,7.8h-2.3l-1.6-4.9H631l-1.5,4.9h-2.3Z"/><path class="c" d="M643.9,232.7h-.2a1.8,1.8,0,0,1-1,.9,2.1,2.1,0,0,1-1.4.4,2.7,2.7,0,0,1-2.2-.9,3.7,3.7,0,0,1-.7-2.5v-4.7h2.1v4.5c0,.6.1,1,.4,1.2a1.2,1.2,0,0,0,1,.4h.8l.6-.5.3-.8a2.5,2.5,0,0,0,.1-.9v-3.8h2.1v7.8h-1.9Z"/><path class="c" d="M650.7,234l-1.4-.2-1.1-.5-.7-.7a4.1,4.1,0,0,1-.5-.9l1.9-.8c.2.5.4.8.7.9a2,2,0,0,0,1.1.3,1.5,1.5,0,0,0,.9-.2.5.5,0,0,0,.3-.5c0-.2-.1-.3-.3-.5l-.9-.3-1.2-.3-.7-.2-.7-.5-.6-.6a2.9,2.9,0,0,1-.2-.9,2,2,0,0,1,.3-1.1,2.3,2.3,0,0,1,.7-.7l1-.5,1.2-.2a3.9,3.9,0,0,1,2,.5,2.3,2.3,0,0,1,1.3,1.4l-1.8.7a1.3,1.3,0,0,0-.6-.7l-.9-.2-.8.2a.5.5,0,0,0-.3.5c0,.2.1.3.3.4l.7.3,1.2.3a3.8,3.8,0,0,1,1.8.9,2,2,0,0,1,.6,1.5,3,3,0,0,1-.2,1,2.7,2.7,0,0,1-.7.8l-1.1.6Z"/><path class="c" d="M660.7,232.7h-.1a2.8,2.8,0,0,1-1,.9,2.3,2.3,0,0,1-1.4.4,2.9,2.9,0,0,1-2.3-.9,4.4,4.4,0,0,1-.7-2.5v-4.7h2.1v4.5c0,.6.1,1,.4,1.2a1.2,1.2,0,0,0,1.1.4h.7l.6-.5a2,2,0,0,0,.4-.8c0-.2.1-.6.1-.9v-3.8h2.1v7.8h-2Z"/><path class="c" d="M666.4,229.7l-2.7-3.8h2.5l1.4,2.2h.1l1.4-2.2h2.5l-2.7,3.8,2.7,4h-2.4l-1.5-2.2h-.1l-1.4,2.2h-2.5Z"/><path class="c" d="M675.1,233.3l-3.2-7.4h2.3l2,4.7h.1l1.9-4.7h2.4l-4.9,11.3h-2.3Z"/><path class="c" d="M681.4,225.9l.9-1.2a1,1,0,0,1-.6-.5,1.1,1.1,0,0,1-.3-.8,1.3,1.3,0,0,1,.4-1,1.4,1.4,0,0,1,2.4,1c0,.2-.1.4-.1.6l-.3.5-1.4,2Zm3.5,0,.9-1.2a1,1,0,0,1-.6-.5,1.1,1.1,0,0,1-.3-.8,1.3,1.3,0,0,1,.4-1,1.4,1.4,0,0,1,2.4,1c0,.2-.1.4-.1.6l-.3.5-1.4,2Z"/><path class="c" d="M558.4,252.9a1.1,1.1,0,0,1-.9-.4,1,1,0,0,1-.4-.9,1.3,1.3,0,0,1,.4-1,1.4,1.4,0,0,1,.9-.3,1.5,1.5,0,0,1,1,.3,1.3,1.3,0,0,1,.4,1,1,1,0,0,1-.4.9A1.2,1.2,0,0,1,558.4,252.9Z"/><path class="c" d="M562.8,252.9a1.2,1.2,0,0,1-1-.4,1,1,0,0,1-.4-.9,1.3,1.3,0,0,1,.4-1,1.5,1.5,0,0,1,1-.3,1.4,1.4,0,0,1,.9.3,1.3,1.3,0,0,1,.4,1,1,1,0,0,1-.4.9A1.1,1.1,0,0,1,562.8,252.9Z"/><path class="c" d="M567.1,252.9a1.2,1.2,0,0,1-1-.4,1,1,0,0,1-.4-.9,1.3,1.3,0,0,1,.4-1,1.5,1.5,0,0,1,1-.3,1.4,1.4,0,0,1,.9.3,1.3,1.3,0,0,1,.4,1,1,1,0,0,1-.4.9A1.1,1.1,0,0,1,567.1,252.9Z"/><path class="c" d="M558.4,272.1a1.1,1.1,0,0,1-.9-.4,1,1,0,0,1-.4-.9,1.3,1.3,0,0,1,.4-1,1.4,1.4,0,0,1,.9-.3,1.5,1.5,0,0,1,1,.3,1.3,1.3,0,0,1,.4,1,1,1,0,0,1-.4.9A1.2,1.2,0,0,1,558.4,272.1Z"/><path class="c" d="M562.8,272.1a1.2,1.2,0,0,1-1-.4,1,1,0,0,1-.4-.9,1.3,1.3,0,0,1,.4-1,1.5,1.5,0,0,1,1-.3,1.4,1.4,0,0,1,.9.3,1.3,1.3,0,0,1,.4,1,1,1,0,0,1-.4.9A1.1,1.1,0,0,1,562.8,272.1Z"/><path class="c" d="M567.1,272.1a1.2,1.2,0,0,1-1-.4,1,1,0,0,1-.4-.9,1.3,1.3,0,0,1,.4-1,1.5,1.5,0,0,1,1-.3,1.4,1.4,0,0,1,.9.3,1.3,1.3,0,0,1,.4,1,1,1,0,0,1-.4.9A1.1,1.1,0,0,1,567.1,272.1Z"/><path class="c" d="M554.5,285.3h-1.3v-1.8h1.3v-2.4h2.1v2.4h1.9v1.8h-1.9v3.1a.7.7,0,0,0,.1.5.5.5,0,0,0,.2.4.7.7,0,0,0,.6.3h.8l.6,1.8-.8.3h-1l-1-.2-.8-.5a2.9,2.9,0,0,1-.8-2.1Z"/><path class="c" d="M564.8,290.5h-.2a2.4,2.4,0,0,1-.9.8,2.5,2.5,0,0,1-1.3.3l-1.1-.2a2.1,2.1,0,0,1-1-.6,2.4,2.4,0,0,1-.6-.8,2,2,0,0,1-.2-1.1,3.6,3.6,0,0,1,.2-1.1,2.7,2.7,0,0,1,.7-.8,2.1,2.1,0,0,1,1-.6l1.3-.2,1.2.2.9.2v-.2a1.6,1.6,0,0,0-.5-1.1,2.8,2.8,0,0,0-1.3-.4,2.3,2.3,0,0,0-1.8.9l-1.5-1a4.6,4.6,0,0,1,6.2-.7,3.3,3.3,0,0,1,.9,2.5v4.7h-2Zm0-2.4-.8-.2h-.9a1.6,1.6,0,0,0-1.1.3,1,1,0,0,0,0,1.6,1.2,1.2,0,0,0,.9.3l.7-.2a.9.9,0,0,0,.6-.4l.4-.6A1.4,1.4,0,0,0,564.8,288.1Z"/><path class="c" d="M568.5,279.9h2.1v3.4l-.2,1.1h.2a2.4,2.4,0,0,1,.9-.8,3.3,3.3,0,0,1,1.5-.4,3.2,3.2,0,0,1,1.4.3,3.8,3.8,0,0,1,1.2.9,3.5,3.5,0,0,1,.8,1.3,5,5,0,0,1,0,3.4,3.5,3.5,0,0,1-.8,1.3,2.7,2.7,0,0,1-1.2.9,3.2,3.2,0,0,1-1.4.3,2.4,2.4,0,0,1-1.5-.4,2.4,2.4,0,0,1-.9-.8h-.2v.9h-1.9Zm4,9.7h.8a1.8,1.8,0,0,0,.7-.5l.5-.7a2.2,2.2,0,0,0,.1-.9,2.8,2.8,0,0,0-.1-.9l-.5-.7a1.8,1.8,0,0,0-.7-.5h-1.5a2.6,2.6,0,0,0-1.2,1.2,2.4,2.4,0,0,0-.2.9,3,3,0,0,0,.2,1l.5.7.7.4Z"/><path class="c" d="M578.3,279.9h2.5l4.7,7.7h.1v-7.7h2.1v11.4h-2.3l-4.8-8.1h-.2l.2,2.2v5.9h-2.2Z"/><path class="c" d="M590.9,286.1a1.4,1.4,0,0,1-1-2.4,1.4,1.4,0,0,1,2,2A1.8,1.8,0,0,1,590.9,286.1Zm0,5.2a1.3,1.3,0,0,1-1-.4,1.8,1.8,0,0,1-.4-1,1.5,1.5,0,0,1,.4-.9,1.4,1.4,0,0,1,2,0,1.1,1.1,0,0,1,.4.9,1.4,1.4,0,0,1-1.4,1.4Z"/><path class="c" d="M600.1,280.1l-.8,1.3.6.5a1.9,1.9,0,0,1,.2.8,1.4,1.4,0,0,1-1.4,1.4,1,1,0,0,1-.9-.4,1.4,1.4,0,0,1-.5-1c0-.2.1-.4.1-.6l.3-.5,1.4-2.1Zm3.5,0-.8,1.3.6.5a1.9,1.9,0,0,1,.2.8,1.4,1.4,0,0,1-1.4,1.4,1.1,1.1,0,0,1-.9-.4,1.4,1.4,0,0,1-.5-1c0-.2.1-.4.1-.6l.3-.5,1.4-2.1Z"/><path class="c" d="M608.4,286l-3.8-6.1h2.6l2.2,3.8h.2l2.2-3.8h2.6l-3.8,6.1v5.3h-2.2Z"/><path class="c" d="M613.8,283.5h2.4l1.3,4.9h.1l1.5-4.9h2.2l1.6,4.9h.1l1.3-4.9h2.3l-2.5,7.8h-2.3l-1.5-4.9h-.2l-1.5,4.9h-2.3Z"/><path class="c" d="M633,290.3h-.2a2,2,0,0,1-.9.9,2.6,2.6,0,0,1-1.5.4,2.7,2.7,0,0,1-2.2-.9,3.7,3.7,0,0,1-.7-2.5v-4.7h2.1V288c0,.6.1,1,.4,1.2a1.2,1.2,0,0,0,1.1.4h.7l.6-.5.3-.8a2.5,2.5,0,0,0,.1-.9v-3.8h2.1v7.8H633Z"/><path class="c" d="M639.8,291.6l-1.4-.2-1.1-.5-.7-.7a4.1,4.1,0,0,1-.5-.9l1.9-.8c.2.5.4.8.7.9a2,2,0,0,0,1.1.3,1.5,1.5,0,0,0,.9-.2.5.5,0,0,0,.3-.5c0-.2-.1-.3-.3-.5l-.9-.3-1.1-.3-.8-.2-.7-.5-.5-.6a1.6,1.6,0,0,1-.3-.9,2,2,0,0,1,.3-1.1,2.3,2.3,0,0,1,.7-.7l1-.5,1.2-.2a3.9,3.9,0,0,1,2,.5,2.3,2.3,0,0,1,1.3,1.4l-1.8.7a1.3,1.3,0,0,0-.6-.7l-.9-.2-.8.2a.5.5,0,0,0-.3.5c0,.2.1.3.3.4l.7.3,1.2.3a3.8,3.8,0,0,1,1.8.9,2,2,0,0,1,.6,1.5,3,3,0,0,1-.2,1,2.7,2.7,0,0,1-.7.8l-1.1.6Z"/><path class="c" d="M646.8,290.9l-3.3-7.4h2.4l2,4.7h.1l1.9-4.7h2.4l-4.9,11.3h-2.3Z"/><path class="c" d="M656.9,291.6a4.5,4.5,0,0,1-1.6-.3,2.4,2.4,0,0,1-1.2-.7,2.5,2.5,0,0,1-.8-1,3.3,3.3,0,0,1-.2-2.2,3,3,0,0,1,.4-.8l.5-.6.7-.4h0a4.3,4.3,0,0,1-1-.9,3.3,3.3,0,0,1-.4-1.4,2.7,2.7,0,0,1,.3-1.2,2.5,2.5,0,0,1,.8-1,2.4,2.4,0,0,1,1.1-.6,3.2,3.2,0,0,1,1.4-.3,3.7,3.7,0,0,1,1.5.3,2.4,2.4,0,0,1,1.1.6,3.9,3.9,0,0,1,.8,1,2.5,2.5,0,0,1,.2,1.2,2.3,2.3,0,0,1-.4,1.4,2.6,2.6,0,0,1-.9.9h0l.7.4.5.6a3,3,0,0,1,.4.8,3.3,3.3,0,0,1-.2,2.2,2.5,2.5,0,0,1-.8,1,2.7,2.7,0,0,1-1.3.7A3.8,3.8,0,0,1,656.9,291.6Zm0-2a2.1,2.1,0,0,0,1.4-.4,1.4,1.4,0,0,0,.5-1.1,1.3,1.3,0,0,0-.1-.6l-.4-.5a.9.9,0,0,0-.6-.3l-.8-.2-.7.2a.9.9,0,0,0-.6.3,1,1,0,0,0-.4.5,1.3,1.3,0,0,0-.1.6,1.2,1.2,0,0,0,.5,1.1A1.8,1.8,0,0,0,656.9,289.6Zm0-4.9a1.6,1.6,0,0,0,1.2-.4,1.1,1.1,0,0,0,.4-1,1,1,0,0,0-.4-.9,1.6,1.6,0,0,0-1.2-.4,1.5,1.5,0,0,0-1.1.4,1,1,0,0,0-.4.9,1.1,1.1,0,0,0,.4,1A1.5,1.5,0,0,0,656.9,284.7Z"/><path class="c" d="M666.1,291.6l-1.3-.2-1.1-.5a2.8,2.8,0,0,1-.9-1,2.6,2.6,0,0,1-.6-1.3l1.9-.7a2.4,2.4,0,0,0,.7,1.3,1.7,1.7,0,0,0,1.3.4h.7a2.9,2.9,0,0,0,.9-.9,1.9,1.9,0,0,0,.2-.8,1.9,1.9,0,0,0-.2-.7l-.3-.5-.6-.4-.7-.2-.9.2-.7.6-2-.9.6-5.5h6.2v1.8h-4.4l-.4,2.6h.1a2,2,0,0,1,.8-.4,2,2,0,0,1,1.1-.2,2.7,2.7,0,0,1,1.3.2,2.8,2.8,0,0,1,1.1.8,4.4,4.4,0,0,1,.8,1.1,4,4,0,0,1,.3,1.5,3.3,3.3,0,0,1-.3,1.5,3.6,3.6,0,0,1-.8,1.2,3.5,3.5,0,0,1-1.3.8A3.7,3.7,0,0,1,666.1,291.6Z"/><path class="c" d="M675.3,291.6a4.5,4.5,0,0,1-1.6-.3,2.4,2.4,0,0,1-1.2-.7,2.5,2.5,0,0,1-.8-1,3.3,3.3,0,0,1-.2-2.2l.4-.8.5-.6.7-.4h0a4.3,4.3,0,0,1-1-.9,3.3,3.3,0,0,1-.4-1.4,2.7,2.7,0,0,1,.3-1.2,2.5,2.5,0,0,1,.8-1,2.4,2.4,0,0,1,1.1-.6,3.2,3.2,0,0,1,1.4-.3,3.7,3.7,0,0,1,1.5.3,2.4,2.4,0,0,1,1.1.6,3.9,3.9,0,0,1,.8,1,5,5,0,0,1,.2,1.2,2.3,2.3,0,0,1-.4,1.4,2.6,2.6,0,0,1-.9.9h0l.7.4.5.6a3,3,0,0,1,.4.8,3.3,3.3,0,0,1-.2,2.2,2.5,2.5,0,0,1-.8,1,2.7,2.7,0,0,1-1.3.7A3.8,3.8,0,0,1,675.3,291.6Zm0-2a2.1,2.1,0,0,0,1.4-.4,1.4,1.4,0,0,0,.5-1.1,1.3,1.3,0,0,0-.1-.6l-.4-.5-.6-.3-.8-.2-.7.2a.9.9,0,0,0-.6.3,1,1,0,0,0-.4.5,1.3,1.3,0,0,0-.1.6,1.2,1.2,0,0,0,.5,1.1A1.8,1.8,0,0,0,675.3,289.6Zm0-4.9a1.6,1.6,0,0,0,1.2-.4,1.1,1.1,0,0,0,.4-1,1,1,0,0,0-.4-.9,1.6,1.6,0,0,0-1.2-.4,1.5,1.5,0,0,0-1.1.4,1,1,0,0,0-.4.9,1.1,1.1,0,0,0,.4,1A1.5,1.5,0,0,0,675.3,284.7Z"/><path class="c" d="M683.3,291.3v-8.5l-1.9.9-.8-1.8,3.2-1.5h1.6v10.9Z"/><path class="c" d="M687.5,283.5l.8-1.2-.6-.5a1.9,1.9,0,0,1-.2-.8,1.3,1.3,0,0,1,.4-1,1.4,1.4,0,0,1,2.4,1c0,.2-.1.4-.1.6l-.3.5-1.4,2Zm3.5,0,.9-1.2a1,1,0,0,1-.6-.5,1.1,1.1,0,0,1-.3-.8,1.3,1.3,0,0,1,.4-1,1.4,1.4,0,0,1,2.4,1c0,.2-.1.4-.1.6l-.3.5-1.4,2Z"/><path class="c" d="M539.2,312.5v-1.7h.3a.9.9,0,0,0,.8-.4,1.2,1.2,0,0,0,.3-.9v-2.3a2.3,2.3,0,0,1,.3-1.3c.1-.3.4-.5.9-.7h0q-.7-.2-.9-.6a2.5,2.5,0,0,1-.3-1.3v-2.3a1.7,1.7,0,0,0-.3-1,1.1,1.1,0,0,0-.8-.3h-.3v-1.7h.6a2.8,2.8,0,0,1,2.1.7,3.3,3.3,0,0,1,.8,2.2v2.4c0,.4.1.7.3.8a.9.9,0,0,0,.7.3v1.8l-.7.2a1.1,1.1,0,0,0-.3.8v2.5a2.9,2.9,0,0,1-.8,2.1,2.5,2.5,0,0,1-2.1.8Z"/><path class="b" d="M557.1,342.6a4.6,4.6,0,0,1-1.5,1.6,4,4,0,0,1-2.2.6,3.3,3.3,0,0,1-1.7-.4,5.7,5.7,0,0,1-1.3-.8,3.8,3.8,0,0,1-.9-1.3,5.1,5.1,0,0,1-.3-1.7,4.1,4.1,0,0,1,.3-1.6,4.2,4.2,0,0,1,.9-1.4l1.2-.9a5,5,0,0,1,3.4,0,3.5,3.5,0,0,1,1.9,2.2,4.1,4.1,0,0,1,.3,1.6v.6h-5.9a1.9,1.9,0,0,0,.2.8l.5.6.7.3h.7a2.1,2.1,0,0,0,1.2-.3,1.6,1.6,0,0,0,.7-.9Zm-1.9-3c0-.2-.1-.3-.2-.5s-.2-.3-.3-.5l-.6-.3-.8-.2a1.6,1.6,0,0,0-1.2.4,2.1,2.1,0,0,0-.7,1.1Z"/><path class="b" d="M560.5,337.7h.1a4.7,4.7,0,0,1,1-1,3.7,3.7,0,0,1,1.5-.3l1.3.2.9.7a3.7,3.7,0,0,1,.5,1.1,5.1,5.1,0,0,1,.2,1.3v4.8h-2.1V340a1.7,1.7,0,0,0-.4-1.3,1.6,1.6,0,0,0-1.1-.4l-.7.2-.6.5a1.9,1.9,0,0,0-.3.8,2,2,0,0,0-.2.9v3.8h-2.1v-7.8h2Z"/><path class="b" d="M575.2,342.5a3.9,3.9,0,0,1-1.5,1.6,3.9,3.9,0,0,1-2.3.7,2.9,2.9,0,0,1-1.6-.4,4.1,4.1,0,0,1-1.3-.8,3.8,3.8,0,0,1-.9-1.3,5.1,5.1,0,0,1-.3-1.7,4.7,4.7,0,0,1,.3-1.7,4.4,4.4,0,0,1,2.2-2.2,4.1,4.1,0,0,1,1.6-.3,3.9,3.9,0,0,1,2.3.6,3.6,3.6,0,0,1,1.4,1.6l-1.9.8a2.7,2.7,0,0,0-.7-.8,2,2,0,0,0-1.1-.3l-.8.2-.6.4a2.2,2.2,0,0,0-.5.8,2.2,2.2,0,0,0-.1.9,2.8,2.8,0,0,0,.1.9,1.8,1.8,0,0,0,.5.7l.6.5h.8a2,2,0,0,0,1.1-.3,3,3,0,0,0,.8-.8Z"/><path class="b" d="M576.4,336.7h1.9v1h.2l.4-.5.5-.4.6-.3h1.4l.5.2-.5,1.9-.5-.2h-.5a1.1,1.1,0,0,0-.8.2l-.6.4a2.5,2.5,0,0,0-.4.7,2.8,2.8,0,0,0-.1.9v3.9h-2.1Z"/><path class="b" d="M585.5,344.1l-3.3-7.4h2.4l2,4.7h.1l1.9-4.7h2.3L586,348h-2.2Z"/><path class="b" d="M591.8,336.7h2v.9h.1a2.4,2.4,0,0,1,.9-.8,2.4,2.4,0,0,1,1.5-.4,4,4,0,0,1,1.5.3,4.7,4.7,0,0,1,1.2.9,4.1,4.1,0,0,1,.8,1.3,4.7,4.7,0,0,1,.3,1.7,5.1,5.1,0,0,1-.3,1.7,5.7,5.7,0,0,1-.8,1.3l-1.2.8a2.8,2.8,0,0,1-1.5.4,3.3,3.3,0,0,1-1.5-.4,2.4,2.4,0,0,1-.9-.8h-.1V348h-2.1Zm4.1,6.1h.8a1.5,1.5,0,0,0,.6-.5,1.8,1.8,0,0,0,.5-.7,2.9,2.9,0,0,0,.2-.9,2,2,0,0,0-.2-.9,2.2,2.2,0,0,0-.5-.8l-.6-.4-.8-.2-.8.2-.7.4a2.5,2.5,0,0,0-.4.7,3,3,0,0,0-.2,1,2.9,2.9,0,0,0,.2.9,1.6,1.6,0,0,0,.4.7,1.8,1.8,0,0,0,.7.5Z"/><path class="b" d="M602,338.5h-1.4v-1.8H602v-2.4h2.1v2.4H606v1.8h-1.9v3.6l.2.4a.9.9,0,0,0,.7.3h.7l.6,1.8-.8.3h-.9l-1.1-.2-.8-.5a2.8,2.8,0,0,1-.7-2.1Z"/><path class="b" d="M614.9,342.6a4.6,4.6,0,0,1-1.5,1.6,4,4,0,0,1-2.2.6,3.3,3.3,0,0,1-1.7-.4,5.7,5.7,0,0,1-1.3-.8,3.8,3.8,0,0,1-.9-1.3,5.1,5.1,0,0,1-.3-1.7,4.1,4.1,0,0,1,.3-1.6,6.4,6.4,0,0,1,.8-1.4l1.3-.9a5,5,0,0,1,3.4,0,3.4,3.4,0,0,1,1.2.9,2.7,2.7,0,0,1,.7,1.3,4.1,4.1,0,0,1,.3,1.6v.6h-5.9a1.9,1.9,0,0,0,.2.8l.5.6.7.3h.7a2.1,2.1,0,0,0,1.2-.3,2.2,2.2,0,0,0,.7-.9Zm-1.9-3c0-.2-.1-.3-.2-.5l-.3-.5-.6-.3-.8-.2a1.6,1.6,0,0,0-1.2.4,2.1,2.1,0,0,0-.7,1.1Z"/><path class="b" d="M622.3,343.6h-.2a2.4,2.4,0,0,1-.9.8,3.3,3.3,0,0,1-1.5.4,2.5,2.5,0,0,1-1.4-.4,3.6,3.6,0,0,1-1.2-.8,5.7,5.7,0,0,1-.8-1.3,5.1,5.1,0,0,1-.3-1.7,4.7,4.7,0,0,1,.3-1.7,4.1,4.1,0,0,1,.8-1.3,2.7,2.7,0,0,1,1.2-.9,3.5,3.5,0,0,1,1.4-.3,2.4,2.4,0,0,1,1.5.4,2.4,2.4,0,0,1,.9.8h.2l-.2-1.1V333h2.1v11.5h-1.9Zm-2.1-.8h.8l.6-.5a1.8,1.8,0,0,0,.5-.7,2.9,2.9,0,0,0,.2-.9,3,3,0,0,0-.2-1l-.5-.7-.6-.4-.8-.2-.8.2-.7.4a5.6,5.6,0,0,0-.5.8,2.2,2.2,0,0,0-.1.9,2.8,2.8,0,0,0,.1.9l.5.7a1.8,1.8,0,0,0,.7.5Z"/><path class="b" d="M629.5,336.7h1.9v.9h.2a2.4,2.4,0,0,1,.9-.8,2.4,2.4,0,0,1,1.5-.4,3.5,3.5,0,0,1,1.4.3,2.7,2.7,0,0,1,1.2.9,4.1,4.1,0,0,1,.8,1.3,4.7,4.7,0,0,1,.3,1.7,5.1,5.1,0,0,1-.3,1.7,5.7,5.7,0,0,1-.8,1.3,3.6,3.6,0,0,1-1.2.8,2.5,2.5,0,0,1-1.4.4,3.3,3.3,0,0,1-1.5-.4,2.4,2.4,0,0,1-.9-.8h-.2l.2,1.1V348h-2.1Zm4,6.1h.8a1.8,1.8,0,0,0,.7-.5l.5-.7a2.8,2.8,0,0,0,.1-.9,2.2,2.2,0,0,0-.1-.9,5.6,5.6,0,0,0-.5-.8l-.7-.4-.8-.2-.8.2-.6.4-.5.7a3,3,0,0,0-.2,1,2.9,2.9,0,0,0,.2.9,1.8,1.8,0,0,0,.5.7l.6.5Z"/><path class="b" d="M643.9,343.7h-.1l-.9.7a2.8,2.8,0,0,1-1.3.4l-1.2-.2-.9-.6a1.6,1.6,0,0,1-.6-.8,2.3,2.3,0,0,1-.3-1.1,2,2,0,0,1,.3-1.1c.1-.4.4-.6.6-.9l1.1-.5,1.2-.2h1.3l.8.3v-.3a1.4,1.4,0,0,0-.5-1,1.6,1.6,0,0,0-1.2-.4,2.5,2.5,0,0,0-1.9.9l-1.5-1a4.1,4.1,0,0,1,3.4-1.6,3.9,3.9,0,0,1,2.8.9,2.9,2.9,0,0,1,1,2.5v4.7h-2.1Zm0-2.4-.8-.3h-.8a1.6,1.6,0,0,0-1.2.4,1,1,0,0,0-.4.8,1,1,0,0,0,.4.7,1.6,1.6,0,0,0,.9.3h.8l.6-.4a2.1,2.1,0,0,0,.4-.6A1.7,1.7,0,0,0,643.9,341.3Z"/><path class="b" d="M650.7,344.8l-1.4-.2-1-.5-.8-.8a2.2,2.2,0,0,1-.5-.8l1.9-.8a2.2,2.2,0,0,0,.7.9,2,2,0,0,0,1.1.3l.9-.2a.6.6,0,0,0,0-1l-.9-.4-1.1-.2-.8-.3-.7-.4a1.8,1.8,0,0,1-.5-.7,1.2,1.2,0,0,1-.3-.9,1.9,1.9,0,0,1,.3-1,2.3,2.3,0,0,1,.7-.7,1.9,1.9,0,0,1,1-.5l1.2-.2a4,4,0,0,1,2,.4,2.5,2.5,0,0,1,1.3,1.4l-1.8.8a1.1,1.1,0,0,0-.6-.7l-.9-.2-.8.2a.5.5,0,0,0-.3.5.5.5,0,0,0,.3.4l.7.3,1.2.3a3.8,3.8,0,0,1,1.8.9,2,2,0,0,1,.6,1.5,4.4,4.4,0,0,1-.2,1l-.7.8-1.1.5A2.8,2.8,0,0,1,650.7,344.8Z"/><path class="b" d="M656.1,338.5h-1.4v-1.8h1.4v-2.4h2.1v2.4h1.9v1.8h-1.9v3.6c.1.2.1.3.2.4a.9.9,0,0,0,.7.3h.7l.6,1.8-.8.3h-.9l-1.1-.2-.8-.5a2.8,2.8,0,0,1-.7-2.1Z"/><path class="b" d="M669,342.6a4.6,4.6,0,0,1-1.5,1.6,4,4,0,0,1-2.2.6,3.3,3.3,0,0,1-1.7-.4,4.1,4.1,0,0,1-1.3-.8,3.8,3.8,0,0,1-.9-1.3,5.1,5.1,0,0,1-.3-1.7,4.1,4.1,0,0,1,.3-1.6,6.4,6.4,0,0,1,.8-1.4l1.3-.9a5,5,0,0,1,3.4,0,3.4,3.4,0,0,1,1.2.9,2.7,2.7,0,0,1,.7,1.3,4.1,4.1,0,0,1,.3,1.6v.6h-5.9a1.9,1.9,0,0,0,.2.8l.5.6.7.3h.7a2.1,2.1,0,0,0,1.2-.3,2.2,2.2,0,0,0,.7-.9Zm-1.9-3-.2-.5-.3-.5-.6-.3-.8-.2a1.6,1.6,0,0,0-1.2.4,1.6,1.6,0,0,0-.7,1.1Z"/><path class="b" d="M172.7,327.5h-.2a2,2,0,0,1-.9.9,2.8,2.8,0,0,1-1.3.3,2.4,2.4,0,0,1-2.1-.8,3.3,3.3,0,0,1-.7-2.3v-4.5h2v4.3a1.6,1.6,0,0,0,.3,1.1,1.4,1.4,0,0,0,1.1.4h.7c.2-.2.4-.3.5-.5a1.5,1.5,0,0,0,.3-.7,2.8,2.8,0,0,0,.1-.9v-3.6h2v7.4h-1.8Z"/><path class="b" d="M178,322.1h.1a2.8,2.8,0,0,1,1-.9,2.8,2.8,0,0,1,1.3-.3l1.2.2a2.2,2.2,0,0,1,.9.7,2.3,2.3,0,0,1,.5,1,4.3,4.3,0,0,1,.2,1.2v4.5h-2v-4.2a2.1,2.1,0,0,0-.3-1.2,1.8,1.8,0,0,0-1.1-.4l-.7.2-.5.5a.9.9,0,0,0-.3.7,1.9,1.9,0,0,0-.2.8v3.6h-1.9v-7.4H178Z"/><path class="b" d="M191.8,326.7a5,5,0,0,1-1.4,1.5,3.6,3.6,0,0,1-2.1.5,4.1,4.1,0,0,1-1.6-.3,2,2,0,0,1-1.2-.8,2.5,2.5,0,0,1-.8-1.2,4.1,4.1,0,0,1-.3-1.6,4,4,0,0,1,.3-1.5,2,2,0,0,1,.8-1.2,2.7,2.7,0,0,1,1.2-.9,3.3,3.3,0,0,1,1.5-.3,4.1,4.1,0,0,1,1.6.3l1.1.8a3.7,3.7,0,0,1,.7,1.2,4.1,4.1,0,0,1,.3,1.6h0v.2c-.1.1-.1.1-.1.2h-5.5a.9.9,0,0,0,.3.7,1.3,1.3,0,0,0,.4.6l.6.3h.7a1.9,1.9,0,0,0,1.8-1.1Zm-1.8-2.8c0-.2-.1-.3-.2-.5a.5.5,0,0,0-.3-.4l-.5-.4h-.8a1.5,1.5,0,0,0-1.1.4,1.5,1.5,0,0,0-.7,1Z"/><path class="b" d="M195,322.1h.1a2,2,0,0,1,.9-.9,3.2,3.2,0,0,1,1.4-.3l1.2.2a2.7,2.7,0,0,1,.8.7c.3.2.4.6.6,1a4.5,4.5,0,0,1,.1,1.2v4.5h-1.9v-4.2a2.1,2.1,0,0,0-.4-1.2,1.5,1.5,0,0,0-1-.4l-.7.2-.6.5-.3.7a1.9,1.9,0,0,0-.1.8v3.6h-2v-7.4H195Z"/><path class="b" d="M208.7,326.6a3.2,3.2,0,0,1-1.3,1.5,3.8,3.8,0,0,1-2.2.6,3.7,3.7,0,0,1-1.5-.3,2.6,2.6,0,0,1-1.3-.8,3.6,3.6,0,0,1-.8-1.2,4.1,4.1,0,0,1-.3-1.6,4.5,4.5,0,0,1,.3-1.6l.8-1.2a5.7,5.7,0,0,1,1.3-.8,3.7,3.7,0,0,1,1.5-.3,3.8,3.8,0,0,1,2.2.6,2.9,2.9,0,0,1,1.2,1.5l-1.8.8a1.2,1.2,0,0,0-.6-.8,1.7,1.7,0,0,0-1-.3l-.7.2a.9.9,0,0,0-.6.4,1.8,1.8,0,0,0-.5.7,1.9,1.9,0,0,0-.1.8,2.8,2.8,0,0,0,.1.9,1.8,1.8,0,0,0,.5.7,1.5,1.5,0,0,0,.6.4h.7a1.5,1.5,0,0,0,1-.3,1.1,1.1,0,0,0,.7-.8Z"/><path class="b" d="M212.2,328.1l-3.1-7h2.3l1.8,4.5h.1l1.8-4.5h2.2l-4.6,10.6h-2.1Z"/><path class="b" d="M218.2,321.1h1.9v1.1h.1l.3-.5.5-.4.6-.3h1.3l.5.2-.5,1.8-.4-.2h-1.3l-.5.5-.4.6a2.8,2.8,0,0,0-.1.9v3.6h-2Z"/><path class="b" d="M226.8,328.1l-3.1-7h2.2l1.9,4.5h.1l1.8-4.5h2.2l-4.6,10.6h-2.2Z"/><path class="b" d="M232.7,321.1h1.8v.9h.2c.1-.3.4-.5.8-.8a3.2,3.2,0,0,1,1.4-.3,3.5,3.5,0,0,1,1.4.3l1.1.8.8,1.2a8.8,8.8,0,0,1,.2,1.6,7.8,7.8,0,0,1-.2,1.6,3.6,3.6,0,0,1-.8,1.2,2.1,2.1,0,0,1-1.1.8,3.5,3.5,0,0,1-1.4.3,3.2,3.2,0,0,1-1.4-.3,1.5,1.5,0,0,1-.8-.8h-.2l.2,1.1v3h-2Zm3.8,5.8h.8l.6-.4a1.6,1.6,0,0,0,.4-.7,2.9,2.9,0,0,0,.2-.9,1.9,1.9,0,0,0-.2-.8,1.6,1.6,0,0,0-.4-.7l-.6-.4-.8-.2-.7.2-.7.4-.4.6a2.9,2.9,0,0,0-.2.9,2.4,2.4,0,0,0,.2.9,4.3,4.3,0,0,0,.4.7l.7.4Z"/><path class="b" d="M242.2,322.8h-1.3v-1.7h1.3v-2.2h2v2.2H246v1.7h-1.8v3.5l.2.3a.9.9,0,0,0,.6.3h.7l.6,1.7-.8.3h-1.8l-.8-.5a2.6,2.6,0,0,1-.7-2Z"/><path class="b" d="M254.3,326.7a4,4,0,0,1-1.4,1.5,3.3,3.3,0,0,1-2.1.5,3.7,3.7,0,0,1-1.5-.3,2.6,2.6,0,0,1-1.3-.8,3.6,3.6,0,0,1-.8-1.2,4.1,4.1,0,0,1-.3-1.6,4,4,0,0,1,.3-1.5,3.6,3.6,0,0,1,.8-1.2,2.7,2.7,0,0,1,1.2-.9,4.1,4.1,0,0,1,1.6-.3,3.7,3.7,0,0,1,1.5.3,3.6,3.6,0,0,1,1.2.8,7.5,7.5,0,0,1,.7,1.2,7.8,7.8,0,0,1,.2,1.6h0v.4h-5.5a1.4,1.4,0,0,0,.2.7c.1.3.3.4.5.6l.6.3h.7a2,2,0,0,0,1.1-.3,2.7,2.7,0,0,0,.7-.8Zm-1.8-2.8a.9.9,0,0,0-.1-.5l-.3-.4-.6-.4h-.7a1.7,1.7,0,0,0-1.2.4,1.4,1.4,0,0,0-.6,1Z"/><path class="b" d="M261.2,327.6h-.1a2,2,0,0,1-.8.8,3.4,3.4,0,0,1-2.8,0,2.1,2.1,0,0,1-1.1-.8,3.6,3.6,0,0,1-.8-1.2,4.1,4.1,0,0,1-.3-1.6,4.5,4.5,0,0,1,.3-1.6l.8-1.2,1.1-.8a3.4,3.4,0,0,1,2.8,0l.8.8h.1v-4.2h2v10.7h-1.9Zm-1.9-.7h.7l.6-.4a1.8,1.8,0,0,0,.5-.7,2.5,2.5,0,0,0,.1-.9,2.8,2.8,0,0,0-.1-.9l-.5-.6c-.1-.2-.4-.3-.6-.4l-.7-.2-.8.2-.6.4a1.6,1.6,0,0,0-.4.7,1.9,1.9,0,0,0-.2.8,2.9,2.9,0,0,0,.2.9,1.6,1.6,0,0,0,.4.7l.6.4Z"/><path class="b" d="M268,321.1h1.8v.9h.2c.1-.3.4-.5.8-.8a3.2,3.2,0,0,1,1.4-.3,3.5,3.5,0,0,1,1.4.3l1.1.8a8.3,8.3,0,0,1,.8,1.2,8.8,8.8,0,0,1,.2,1.6,7.8,7.8,0,0,1-.2,1.6,3.6,3.6,0,0,1-.8,1.2,2.1,2.1,0,0,1-1.1.8,3.5,3.5,0,0,1-1.4.3,3.2,3.2,0,0,1-1.4-.3,1.5,1.5,0,0,1-.8-.8h-.2l.2,1.1v3h-2Zm3.8,5.8h.8l.6-.4a1.6,1.6,0,0,0,.4-.7,2.9,2.9,0,0,0,.2-.9,1.9,1.9,0,0,0-.2-.8,1.6,1.6,0,0,0-.4-.7l-.6-.4-.8-.2-.7.2-.7.4-.4.6a2.9,2.9,0,0,0-.2.9,2.4,2.4,0,0,0,.2.9,4.3,4.3,0,0,0,.4.7l.7.4Z"/><path class="b" d="M281.5,327.7h-.1a2.7,2.7,0,0,1-.8.7,2.5,2.5,0,0,1-1.3.3h-1a2,2,0,0,1-.9-.6,1.6,1.6,0,0,1-.6-.8,1.6,1.6,0,0,1-.2-1,3,3,0,0,1,.2-1l.6-.8,1-.5,1.2-.2h1.2l.7.3v-.3a1.1,1.1,0,0,0-.4-.9,1.6,1.6,0,0,0-1.2-.4,2.1,2.1,0,0,0-1.7.9l-1.4-1a3.7,3.7,0,0,1,3.2-1.5,4,4,0,0,1,2.6.8,3,3,0,0,1,.9,2.4v4.4h-2Zm0-2.2-.7-.2H280a1.8,1.8,0,0,0-1.1.3,1,1,0,0,0-.4.7.8.8,0,0,0,.4.7,1.4,1.4,0,0,0,.9.3h.7l.5-.4.4-.5A2,2,0,0,0,281.5,325.5Z"/><path class="b" d="M287.9,328.7h-1.3l-1-.5-.7-.7a2,2,0,0,1-.4-.8l1.7-.7c.2.4.4.7.7.8a1.7,1.7,0,0,0,1,.3l.8-.2a.5.5,0,0,0,.3-.4.8.8,0,0,0-.2-.5,1.9,1.9,0,0,0-.9-.4l-1.1-.2-.7-.2-.7-.5c-.2-.1-.3-.3-.5-.6a1.9,1.9,0,0,1-.1-.8,1.6,1.6,0,0,1,.2-1c.1-.3.4-.5.6-.7l1-.4,1.2-.2a3.4,3.4,0,0,1,1.8.4,2.2,2.2,0,0,1,1.2,1.3l-1.7.7a.9.9,0,0,0-.6-.6l-.8-.2-.7.2c-.2.1-.3.2-.3.4a.5.5,0,0,0,.2.4l.7.3,1.2.3a2.4,2.4,0,0,1,1.6.8,2,2,0,0,1,.6,1.4,2.9,2.9,0,0,1-.2.9,2.7,2.7,0,0,1-.7.8l-1,.5A2.3,2.3,0,0,1,287.9,328.7Z"/><path class="b" d="M292.9,322.8h-1.3v-1.7h1.3v-2.2h2v2.2h1.8v1.7h-1.8v3.5l.2.3a.9.9,0,0,0,.6.3h.7l.6,1.7-.7.3h-1.9l-.8-.5a3,3,0,0,1-.7-2Z"/><path class="b" d="M305,326.7a4,4,0,0,1-1.4,1.5,3.3,3.3,0,0,1-2.1.5,4,4,0,0,1-1.5-.3,2.6,2.6,0,0,1-1.3-.8,3.6,3.6,0,0,1-.8-1.2,4.1,4.1,0,0,1-.3-1.6,4,4,0,0,1,.3-1.5,3.6,3.6,0,0,1,.8-1.2,4.7,4.7,0,0,1,1.2-.9,4.1,4.1,0,0,1,1.6-.3,3.3,3.3,0,0,1,1.5.3,3.6,3.6,0,0,1,1.2.8,7.5,7.5,0,0,1,.7,1.2,4.1,4.1,0,0,1,.2,1.6h0v.4h-5.5a1.4,1.4,0,0,0,.2.7c.1.3.3.4.5.6l.6.3h.7a2,2,0,0,0,1.1-.3,2.7,2.7,0,0,0,.7-.8Zm-1.8-2.8a.9.9,0,0,0-.1-.5l-.3-.4c-.2-.1-.3-.3-.6-.4h-.7a1.4,1.4,0,0,0-1.1.4,1.3,1.3,0,0,0-.7,1Z"/><path class="b" d="M311.7,238.3h10.1v6.9H311.7v10h-6.9v-10H294.7v-6.9h10.1V228.2h6.9Z"/><rect class="e" x="140.5" y="126.7" width="313" height="230" rx="19.4"/><path class="b" d="M295.7,533.3a8.9,8.9,0,0,1-3,3.4,8.4,8.4,0,0,1-4.9,1.4,7.8,7.8,0,0,1-3.5-.7,7.5,7.5,0,0,1-2.8-1.8,10.7,10.7,0,0,1-1.9-2.8,11.1,11.1,0,0,1,0-7.2,9.2,9.2,0,0,1,1.9-2.8,7.5,7.5,0,0,1,2.8-1.8,9.5,9.5,0,0,1,3.5-.7,8.4,8.4,0,0,1,4.9,1.4,7.4,7.4,0,0,1,2.9,3.4l-4.1,1.7A4.5,4.5,0,0,0,290,525a3.8,3.8,0,0,0-2.2-.6,4.7,4.7,0,0,0-1.7.4,4.2,4.2,0,0,0-1.4.9,3.8,3.8,0,0,0-.9,1.5,5.2,5.2,0,0,0,0,4,3.8,3.8,0,0,0,.9,1.5,4.2,4.2,0,0,0,1.4.9,3.3,3.3,0,0,0,1.7.4,3.5,3.5,0,0,0,2.3-.7,4,4,0,0,0,1.6-1.8Z"/><path class="b" d="M298.5,537.5V513.2h4.4v24.3Z"/><path class="b" d="M309.2,518.6a2.2,2.2,0,0,1-1.1-.2,1.8,1.8,0,0,1-.9-.6,2.4,2.4,0,0,1-.6-.9,3.1,3.1,0,0,1,0-2.2,1.5,1.5,0,0,1,.6-.9,3.1,3.1,0,0,1,.9-.7l1.1-.2a2.9,2.9,0,0,1,2.1.9,2.8,2.8,0,0,1,.8,2,3,3,0,0,1-.8,2A2.8,2.8,0,0,1,309.2,518.6ZM307,537.5V520.9h4.5v16.6Z"/><path class="b" d="M331.1,533.5a8.2,8.2,0,0,1-3.1,3.3,8.1,8.1,0,0,1-4.7,1.3,8.6,8.6,0,0,1-3.6-.7,7.8,7.8,0,0,1-4.6-4.6,8.6,8.6,0,0,1-.7-3.6,8,8,0,0,1,.7-3.4,7.5,7.5,0,0,1,1.8-2.8,7.9,7.9,0,0,1,2.7-2,9.9,9.9,0,0,1,3.5-.7,10.5,10.5,0,0,1,3.6.7,6.8,6.8,0,0,1,2.6,1.8,8.5,8.5,0,0,1,1.6,2.8,12.9,12.9,0,0,1,.5,3.5v.8c0,.1-.1.2-.1.3H318.8a4.8,4.8,0,0,0,.6,1.8,2.9,2.9,0,0,0,1,1.2,3.7,3.7,0,0,0,1.4.7,3.9,3.9,0,0,0,1.5.2,4.4,4.4,0,0,0,2.6-.7,5,5,0,0,0,1.5-1.7Zm-4-6.4a1.9,1.9,0,0,0-.3-1,3.6,3.6,0,0,0-.7-1,3.5,3.5,0,0,0-1.3-.8,4.3,4.3,0,0,0-1.7-.3,3.6,3.6,0,0,0-2.5.8,3.9,3.9,0,0,0-1.6,2.3Z"/><path class="b" d="M338.5,523.1h.2a4.5,4.5,0,0,1,2.1-2,6.2,6.2,0,0,1,3.1-.8,7.6,7.6,0,0,1,2.7.5,6.2,6.2,0,0,1,2,1.5,5.7,5.7,0,0,1,1.1,2.2,9.2,9.2,0,0,1,.4,2.9v10.1h-4.4V528a4.1,4.1,0,0,0-.8-2.7,3.1,3.1,0,0,0-2.4-.9,4.2,4.2,0,0,0-1.6.4,6,6,0,0,0-1.2,1.1,3.9,3.9,0,0,0-.7,1.6,5.8,5.8,0,0,0-.3,1.9v8.1h-4.4V520.9h4.2Z"/><path class="b" d="M354.8,524.7h-3v-3.8h3v-5.1h4.4v5.1h4.1v3.8h-4.1v6.6c0,.4.1.8.1,1.1a1.9,1.9,0,0,0,.5.9,1.7,1.7,0,0,0,1.4.6l.9-.2a.9.9,0,0,0,.6-.3l1.3,3.9a4.9,4.9,0,0,1-1.7.6l-2,.2a7.2,7.2,0,0,1-2.2-.4,5.6,5.6,0,0,1-1.7-1.1,5.9,5.9,0,0,1-1.6-4.5Z"/><path class="b" d="M374,513.2h4.5v7.3l-.3,2.4h.3a4.7,4.7,0,0,1,1.9-1.8,6.3,6.3,0,0,1,3.2-.8,7.3,7.3,0,0,1,3,.7,6.8,6.8,0,0,1,2.6,1.8,8.8,8.8,0,0,1,1.7,2.8,9.6,9.6,0,0,1,0,7.2,8.8,8.8,0,0,1-1.7,2.8,6.8,6.8,0,0,1-2.6,1.8,6,6,0,0,1-3,.7,6.3,6.3,0,0,1-3.2-.8,4.7,4.7,0,0,1-1.9-1.8h-.3v2H374Zm8.7,20.8a3.5,3.5,0,0,0,1.7-.4,4.2,4.2,0,0,0,1.4-.9,5.6,5.6,0,0,0,1-1.5,6.8,6.8,0,0,0,0-4,5.6,5.6,0,0,0-1-1.5,4.2,4.2,0,0,0-1.4-.9,5.3,5.3,0,0,0-1.7-.4,4.7,4.7,0,0,0-1.7.4,4.2,4.2,0,0,0-1.4.9,5.6,5.6,0,0,0-1,1.5,6.5,6.5,0,0,0-.4,2,5.9,5.9,0,0,0,.4,2,5.6,5.6,0,0,0,1,1.5,4.2,4.2,0,0,0,1.4.9A3.3,3.3,0,0,0,382.7,534Z"/><path class="b" d="M394.1,520.9h4.2v2.3h.3a2.8,2.8,0,0,1,.8-1.1,3.1,3.1,0,0,1,1.1-.9,7.6,7.6,0,0,1,2.8-.9l1.5.2a2.8,2.8,0,0,1,1.1.5l-1.2,4a3.2,3.2,0,0,0-.9-.3l-1.2-.2a4.7,4.7,0,0,0-1.7.4,2.9,2.9,0,0,0-1.2,1,4.6,4.6,0,0,0-.9,1.5,11.1,11.1,0,0,0-.2,1.9v8.2h-4.5Z"/><path class="b" d="M414.8,520.3a10.5,10.5,0,0,1,3.6.7,8.4,8.4,0,0,1,2.8,1.8,11.2,11.2,0,0,1,1.8,2.8,9.6,9.6,0,0,1,0,7.2,11.2,11.2,0,0,1-1.8,2.8,8.4,8.4,0,0,1-2.8,1.8,8.6,8.6,0,0,1-3.6.7,7.8,7.8,0,0,1-3.5-.7,7.5,7.5,0,0,1-2.8-1.8,9.2,9.2,0,0,1-1.9-2.8,11.1,11.1,0,0,1,0-7.2,9.2,9.2,0,0,1,1.9-2.8,7.5,7.5,0,0,1,2.8-1.8A9.5,9.5,0,0,1,414.8,520.3Zm0,13.7a3.5,3.5,0,0,0,1.7-.4,4.2,4.2,0,0,0,1.4-.9,3.8,3.8,0,0,0,.9-1.5,4.2,4.2,0,0,0,.4-2,4.5,4.5,0,0,0-.4-2,3.8,3.8,0,0,0-.9-1.5,4.2,4.2,0,0,0-1.4-.9,3.8,3.8,0,0,0-3.4,0,3.8,3.8,0,0,0-1.3.9,3.1,3.1,0,0,0-1,1.5,4.5,4.5,0,0,0-.4,2,4.2,4.2,0,0,0,.4,2,3.1,3.1,0,0,0,1,1.5,3.8,3.8,0,0,0,1.3.9A3.5,3.5,0,0,0,414.8,534Z"/><path class="b" d="M424.4,520.9h5l2.8,10.4h.2l3.3-10.4h4.6l3.3,10.4h.2l2.8-10.4h4.9l-5.3,16.6h-4.8L438,527h-.2l-3.3,10.5h-4.8Z"/><path class="b" d="M460.1,538.1a12.7,12.7,0,0,1-2.9-.4l-2.2-1.1a11.4,11.4,0,0,1-1.6-1.5,7.6,7.6,0,0,1-.9-1.8l3.9-1.7a3.8,3.8,0,0,0,1.6,1.9,3.1,3.1,0,0,0,2.1.7,3.7,3.7,0,0,0,2-.5c.4-.3.7-.6.7-1a1.3,1.3,0,0,0-.6-1.1,5.4,5.4,0,0,0-2.1-.8l-2.3-.5a5.2,5.2,0,0,1-1.6-.6,3.8,3.8,0,0,1-1.5-.9,5.3,5.3,0,0,1-1.2-1.4,3.8,3.8,0,0,1-.4-1.9,5.4,5.4,0,0,1,.5-2.2,5.7,5.7,0,0,1,1.5-1.6,6.8,6.8,0,0,1,2.1-1,8,8,0,0,1,2.7-.4,8.2,8.2,0,0,1,4.2,1,5.7,5.7,0,0,1,2.8,2.9l-3.8,1.6a3.2,3.2,0,0,0-1.4-1.4,4.5,4.5,0,0,0-1.9-.5,3.8,3.8,0,0,0-1.6.4c-.5.3-.8.6-.8,1a1,1,0,0,0,.6.9,5.4,5.4,0,0,0,1.7.7l2.5.6a7.2,7.2,0,0,1,3.8,1.9,4.7,4.7,0,0,1,1.2,3.2,4.1,4.1,0,0,1-.5,2.1,5.5,5.5,0,0,1-1.4,1.7,7.1,7.1,0,0,1-2.3,1.2A8.4,8.4,0,0,1,460.1,538.1Z"/><path class="b" d="M485.9,533.5a9,9,0,0,1-3.1,3.3,8.2,8.2,0,0,1-4.8,1.3,8.1,8.1,0,0,1-3.5-.7,7.5,7.5,0,0,1-2.8-1.8,10.7,10.7,0,0,1-1.9-2.8,10.5,10.5,0,0,1-.6-3.6,9.7,9.7,0,0,1,.6-3.4,11.2,11.2,0,0,1,1.8-2.8,9.5,9.5,0,0,1,2.8-2,9.4,9.4,0,0,1,3.4-.7,9.6,9.6,0,0,1,3.6.7,6.1,6.1,0,0,1,2.6,1.8,7.1,7.1,0,0,1,1.6,2.8,9.9,9.9,0,0,1,.6,3.5v.4c0,.1-.1.2-.1.4v.3H473.6a4.8,4.8,0,0,0,.5,1.8,4.3,4.3,0,0,0,1.1,1.2,3.7,3.7,0,0,0,1.4.7,5.1,5.1,0,0,0,4-.5,4.4,4.4,0,0,0,1.6-1.7Zm-4-6.4-.3-1a4.4,4.4,0,0,0-2-1.8,4.8,4.8,0,0,0-1.8-.3,3.9,3.9,0,0,0-2.5.8,4.2,4.2,0,0,0-1.5,2.3Z"/><path class="b" d="M489,520.9h4.2v2.3h.3a4.4,4.4,0,0,1,.8-1.1,3.1,3.1,0,0,1,1.1-.9,4.2,4.2,0,0,1,1.4-.6l1.4-.3,1.6.2a3.1,3.1,0,0,1,1,.5l-1.2,4a1.9,1.9,0,0,0-.9-.3l-1.2-.2a4.2,4.2,0,0,0-1.6.4,3.2,3.2,0,0,0-1.3,1,4.4,4.4,0,0,0-.8,1.5,5.8,5.8,0,0,0-.3,1.9v8.2H489Z"/><rect class="b" x="779" width="221" height="560.22"/><path class="b" d="M49.5,65.5h7.2a13.4,13.4,0,0,1,4.6.8,10.4,10.4,0,0,1,3.5,2.2A11.1,11.1,0,0,1,67,71.9a12.3,12.3,0,0,1,.8,4.4,11.8,11.8,0,0,1-.8,4.3,9.5,9.5,0,0,1-5.7,5.6,13.4,13.4,0,0,1-4.6.8H49.5Zm7,17.7a10.2,10.2,0,0,0,3.2-.5,6.9,6.9,0,0,0,2.2-1.4,6.4,6.4,0,0,0,1.4-2.2,8.6,8.6,0,0,0,.4-2.8,8.8,8.8,0,0,0-.4-2.9,6.4,6.4,0,0,0-1.4-2.2,5.4,5.4,0,0,0-2.2-1.3,8,8,0,0,0-3.2-.5h-3V83.2Z"/><path class="b" d="M79.6,85.4h-.2a8,8,0,0,1-1.7,1.5,4.9,4.9,0,0,1-2.5.6,5.4,5.4,0,0,1-2.2-.4,5.9,5.9,0,0,1-1.7-1,6.1,6.1,0,0,1-1.2-1.6,4.6,4.6,0,0,1-.4-2.1,4.6,4.6,0,0,1,.5-2,4.8,4.8,0,0,1,1.2-1.6,6.9,6.9,0,0,1,1.9-1,8.8,8.8,0,0,1,2.4-.3,8.2,8.2,0,0,1,2.4.2l1.5.4v-.4a2.3,2.3,0,0,0-.9-1.9,3.6,3.6,0,0,0-2.3-.8,4.6,4.6,0,0,0-3.5,1.7l-2.8-1.9a7.6,7.6,0,0,1,6.4-3,8.1,8.1,0,0,1,5.2,1.6,6.2,6.2,0,0,1,1.8,4.8V87H79.6Zm0-4.4-1.4-.5-1.6-.2a3.4,3.4,0,0,0-2.2.6,1.8,1.8,0,0,0,0,3,3.1,3.1,0,0,0,1.7.5,3.2,3.2,0,0,0,1.4-.3,4.1,4.1,0,0,0,1.1-.7,2.6,2.6,0,0,0,.7-1.1A2.8,2.8,0,0,0,79.6,81Z"/><path class="b" d="M87.9,75.7H85.3V72.3h2.6V67.8h3.9v4.5h3.6v3.4H91.8v5.8c0,.4.1.7.1,1a2.2,2.2,0,0,0,.5.8,1.4,1.4,0,0,0,1.2.5h.8l.5-.3L96,86.8l-1.4.5-1.8.2a4.5,4.5,0,0,1-2-.4,3.8,3.8,0,0,1-1.5-.9,5.7,5.7,0,0,1-1.4-4Z"/><path class="b" d="M107.1,85.4h-.3a5.7,5.7,0,0,1-1.6,1.5,4.9,4.9,0,0,1-2.5.6,5.4,5.4,0,0,1-2.2-.4,5.9,5.9,0,0,1-1.7-1,6.1,6.1,0,0,1-1.2-1.6,4.6,4.6,0,0,1-.4-2.1,4.5,4.5,0,0,1,.4-2,5.1,5.1,0,0,1,1.3-1.6,5.7,5.7,0,0,1,1.9-1,8.8,8.8,0,0,1,2.4-.3,9,9,0,0,1,2.4.2l1.5.4v-.4a2.3,2.3,0,0,0-.9-1.9,3.8,3.8,0,0,0-2.4-.8,4.4,4.4,0,0,0-3.4,1.7l-2.9-1.9a7.7,7.7,0,0,1,6.4-3,8.2,8.2,0,0,1,5.3,1.6,6.2,6.2,0,0,1,1.8,4.8V87h-3.9Zm0-4.4-1.4-.5-1.6-.2a3.4,3.4,0,0,0-2.2.6,1.9,1.9,0,0,0-.8,1.5,2.1,2.1,0,0,0,.7,1.5,3.4,3.4,0,0,0,1.7.5,3.7,3.7,0,0,0,1.5-.3,4.1,4.1,0,0,0,1.1-.7,2.6,2.6,0,0,0,.7-1.1A2.8,2.8,0,0,0,107.1,81Z"/><path class="b" d="M121.2,65.5h4v8.6h9V65.5h4.1V87h-4.1V77.9h-9V87h-4Z"/><path class="b" d="M150.7,85.4h-.2a6.1,6.1,0,0,1-1.7,1.5,4.6,4.6,0,0,1-2.5.6,4.9,4.9,0,0,1-2.1-.4,5.2,5.2,0,0,1-1.8-1,4.2,4.2,0,0,1-1.1-1.6,4.6,4.6,0,0,1-.5-2.1,4.6,4.6,0,0,1,.5-2,4.8,4.8,0,0,1,1.2-1.6,6.9,6.9,0,0,1,1.9-1,9.9,9.9,0,0,1,2.4-.3,8.2,8.2,0,0,1,2.4.2l1.5.4v-.4a2.3,2.3,0,0,0-.9-1.9,3.6,3.6,0,0,0-2.3-.8,4.6,4.6,0,0,0-3.5,1.7l-2.8-1.9a7.7,7.7,0,0,1,6.4-3,7.9,7.9,0,0,1,5.2,1.6,6.2,6.2,0,0,1,1.8,4.8V87h-3.9Zm0-4.4-1.4-.5-1.6-.2a3.6,3.6,0,0,0-2.2.6,2,2,0,0,0,0,3,3.4,3.4,0,0,0,1.7.5,3.2,3.2,0,0,0,1.4-.3l1.2-.7a4.1,4.1,0,0,0,.7-1.1A5.1,5.1,0,0,0,150.7,81Z"/><path class="b" d="M161.4,74.2h.3a4.2,4.2,0,0,1,1.8-1.7,5,5,0,0,1,2.7-.7,6,6,0,0,1,2.4.5,4.3,4.3,0,0,1,1.7,1.2,7.8,7.8,0,0,1,1.1,2,10.3,10.3,0,0,1,.3,2.6V87h-3.9V78.6a3.8,3.8,0,0,0-.7-2.4,2.9,2.9,0,0,0-2.1-.8,3.3,3.3,0,0,0-1.4.4,3.1,3.1,0,0,0-1.1.9,3.5,3.5,0,0,0-.6,1.4,4.7,4.7,0,0,0-.2,1.7V87h-4V72.3h3.7Z"/><path class="b" d="M185.9,85.2h-.2a5.2,5.2,0,0,1-1.7,1.6,5.1,5.1,0,0,1-2.8.7,6,6,0,0,1-2.7-.6,7.3,7.3,0,0,1-2.3-1.6,8.7,8.7,0,0,1-1.5-2.5,8.3,8.3,0,0,1-.6-3.2,8.1,8.1,0,0,1,.6-3.1,8.7,8.7,0,0,1,1.5-2.5,7.3,7.3,0,0,1,2.3-1.6,6,6,0,0,1,2.7-.6,5.1,5.1,0,0,1,2.8.7,4.4,4.4,0,0,1,1.7,1.6h.2l-.2-2.1V65.5h3.9V87h-3.7ZM182,83.8a3.2,3.2,0,0,0,1.4-.2,3.8,3.8,0,0,0,1.3-.9,4.3,4.3,0,0,0,.9-1.3,4.8,4.8,0,0,0,.3-1.8,4.7,4.7,0,0,0-.3-1.7,4.3,4.3,0,0,0-.9-1.3,3.8,3.8,0,0,0-1.3-.9,3.2,3.2,0,0,0-1.4-.3,3.3,3.3,0,0,0-1.5.3,3.8,3.8,0,0,0-1.3.9,4.1,4.1,0,0,0-.8,1.3,3.3,3.3,0,0,0-.4,1.7,3.4,3.4,0,0,0,.4,1.8,5.7,5.7,0,0,0,.8,1.3,3.5,3.5,0,0,0,1.3.8A3.3,3.3,0,0,0,182,83.8Z"/><path class="b" d="M192.9,87V65.5h4V87Z"/><path class="b" d="M202.4,70.3a2,2,0,0,1-1-.2l-.8-.5a2.2,2.2,0,0,1-.5-.8,2.6,2.6,0,0,1,0-2,2.2,2.2,0,0,1,.5-.8l.8-.5a2,2,0,0,1,1-.2,2.4,2.4,0,0,1,1.8.7,2.4,2.4,0,0,1,0,3.6A2.4,2.4,0,0,1,202.4,70.3ZM200.5,87V72.3h3.9V87Z"/><path class="b" d="M211.7,74.2h.2a5.2,5.2,0,0,1,1.9-1.7,5,5,0,0,1,2.7-.7,6,6,0,0,1,2.4.5,4.3,4.3,0,0,1,1.7,1.2,5.4,5.4,0,0,1,1,2,7.1,7.1,0,0,1,.4,2.6V87h-3.9V78.6a3.3,3.3,0,0,0-.8-2.4,2.5,2.5,0,0,0-2-.8,3.3,3.3,0,0,0-1.4.4,3.1,3.1,0,0,0-1.1.9,3.5,3.5,0,0,0-.6,1.4,4.7,4.7,0,0,0-.3,1.7V87H208V72.3h3.7Z"/><path class="b" d="M231.8,94a11,11,0,0,1-2.7-.4,10.3,10.3,0,0,1-2.1-1.1,6.7,6.7,0,0,1-1.5-1.4,6.5,6.5,0,0,1-.9-1.6l3.7-1.5a3.7,3.7,0,0,0,1.4,1.8,3.5,3.5,0,0,0,2.1.7,3.8,3.8,0,0,0,3-1.2,5,5,0,0,0,1.1-3.4v-1h-.3a3.4,3.4,0,0,1-1.8,1.5,5.3,5.3,0,0,1-2.6.6,7.5,7.5,0,0,1-2.6-.5,6.9,6.9,0,0,1-2.2-1.6,7.2,7.2,0,0,1-1.6-2.4,7.5,7.5,0,0,1-.6-3.1,7.8,7.8,0,0,1,.6-3.1,7.2,7.2,0,0,1,1.6-2.4,5.4,5.4,0,0,1,2.2-1.5,5.8,5.8,0,0,1,2.6-.6,5.3,5.3,0,0,1,2.6.6,3.4,3.4,0,0,1,1.8,1.5h.3V72.3h3.7V85.9a11.6,11.6,0,0,1-.5,3.4,8.9,8.9,0,0,1-1.6,2.5,7.2,7.2,0,0,1-2.5,1.6A7.9,7.9,0,0,1,231.8,94Zm.2-10.5a3.2,3.2,0,0,0,1.4-.3,3.5,3.5,0,0,0,1.3-.8,4.1,4.1,0,0,0,.8-1.3,3.1,3.1,0,0,0,.4-1.7,3.3,3.3,0,0,0-.4-1.7,4.1,4.1,0,0,0-.8-1.3,5.7,5.7,0,0,0-1.3-.8,5,5,0,0,0-2.8,0,3.6,3.6,0,0,0-1.2.8,3.8,3.8,0,0,0-.9,1.3,4.7,4.7,0,0,0-.3,1.7,4.3,4.3,0,0,0,.3,1.7,3,3,0,0,0,.9,1.3,2.5,2.5,0,0,0,1.2.8A3.2,3.2,0,0,0,232,83.5Z"/><rect class="c" x="690" y="243.2" width="89" height="5"/><rect x="779" y="243.2" width="57" height="5"/><path class="b" d="M480.2,237h11.7v2.9H480.2Zm0,5h11.7v2.8H480.2Z"/><path d="M847.6,538.1a11.9,11.9,0,0,1-2.9-.4,9,9,0,0,1-2.2-1.1,5.8,5.8,0,0,1-1.6-1.5,5.4,5.4,0,0,1-1-1.8l4-1.7a4.2,4.2,0,0,0,1.5,1.9,3.6,3.6,0,0,0,2.2.7,3.6,3.6,0,0,0,1.9-.5c.5-.3.7-.6.7-1a1.3,1.3,0,0,0-.6-1.1,4.8,4.8,0,0,0-2-.8l-2.4-.5-1.6-.6a6,6,0,0,1-1.5-.9,7.6,7.6,0,0,1-1.1-1.4,3.8,3.8,0,0,1-.5-1.9,4.9,4.9,0,0,1,2-3.8,6.4,6.4,0,0,1,2.2-1,7.5,7.5,0,0,1,2.6-.4,8.8,8.8,0,0,1,4.3,1,5.5,5.5,0,0,1,2.7,2.9l-3.8,1.6a2.7,2.7,0,0,0-1.4-1.4,4.1,4.1,0,0,0-1.8-.5,4.3,4.3,0,0,0-1.7.4c-.5.3-.7.6-.7,1a1,1,0,0,0,.6.9,4.8,4.8,0,0,0,1.6.7l2.6.6a6.8,6.8,0,0,1,3.7,1.9,4.4,4.4,0,0,1,1.3,3.2,5.4,5.4,0,0,1-.5,2.1,5.9,5.9,0,0,1-1.5,1.7,6.6,6.6,0,0,1-2.2,1.2A9.3,9.3,0,0,1,847.6,538.1Z"/><path d="M873.3,533.5a8.2,8.2,0,0,1-3.1,3.3,8.1,8.1,0,0,1-4.7,1.3,8.6,8.6,0,0,1-3.6-.7,7.8,7.8,0,0,1-4.6-4.6,8.6,8.6,0,0,1-.7-3.6,8,8,0,0,1,.7-3.4,7.5,7.5,0,0,1,1.8-2.8,9,9,0,0,1,2.7-2,9.9,9.9,0,0,1,3.5-.7,10.5,10.5,0,0,1,3.6.7,6.8,6.8,0,0,1,2.6,1.8,8.5,8.5,0,0,1,1.6,2.8,12.9,12.9,0,0,1,.5,3.5v1.1H861a4.8,4.8,0,0,0,.6,1.8,4,4,0,0,0,1,1.2,3.7,3.7,0,0,0,1.4.7,3.9,3.9,0,0,0,1.5.2,4.4,4.4,0,0,0,2.6-.7,4.1,4.1,0,0,0,1.5-1.7Zm-4-6.4a1.9,1.9,0,0,0-.3-1,3.6,3.6,0,0,0-.7-1,3.5,3.5,0,0,0-1.3-.8,4,4,0,0,0-1.7-.3,3.6,3.6,0,0,0-2.5.8,4.4,4.4,0,0,0-1.6,2.3Z"/><path d="M876.5,520.9h4.2v2.3h.2a4.4,4.4,0,0,1,.8-1.1,4.7,4.7,0,0,1,1.2-.9,3.8,3.8,0,0,1,1.3-.6,4,4,0,0,1,1.5-.3l1.5.2,1.1.5-1.2,4a3.2,3.2,0,0,0-.9-.3l-1.2-.2a4.7,4.7,0,0,0-1.7.4,4.1,4.1,0,0,0-1.3,1,7.1,7.1,0,0,0-.8,1.5,5.8,5.8,0,0,0-.3,1.9v8.2h-4.4Z"/><path d="M888.9,520.9H894l4.1,10.6h.2l4.2-10.6h5.1l-7.2,16.6H896Z"/><path d="M924.9,533.5a8.5,8.5,0,0,1-3.2,3.3,9.5,9.5,0,0,1-11.1-1.2,10.3,10.3,0,0,1-1.8-2.8,10.5,10.5,0,0,1-.7-3.6,8,8,0,0,1,.7-3.4,7.5,7.5,0,0,1,1.8-2.8,9,9,0,0,1,2.7-2,9.9,9.9,0,0,1,3.5-.7,10.5,10.5,0,0,1,3.6.7,6.8,6.8,0,0,1,2.6,1.8,8.5,8.5,0,0,1,1.6,2.8,12.9,12.9,0,0,1,.5,3.5v1.1H912.5a4.8,4.8,0,0,0,.6,1.8,4,4,0,0,0,1,1.2,4.6,4.6,0,0,0,1.4.7,3.9,3.9,0,0,0,1.5.2,4.2,4.2,0,0,0,2.6-.7,5.2,5.2,0,0,0,1.6-1.7Zm-4.1-6.4a1.9,1.9,0,0,0-.3-1,2.3,2.3,0,0,0-.7-1,4.2,4.2,0,0,0-1.2-.8,4.8,4.8,0,0,0-1.8-.3,3.6,3.6,0,0,0-2.5.8,3.8,3.8,0,0,0-1.5,2.3Z"/><path d="M928,520.9h4.2v2.3h.2a7.1,7.1,0,0,1,2-2,3.5,3.5,0,0,1,1.4-.6,3.2,3.2,0,0,1,1.4-.3l1.5.2,1.1.5-1.2,4a3.2,3.2,0,0,0-.9-.3l-1.2-.2a4.7,4.7,0,0,0-1.7.4,4.1,4.1,0,0,0-1.3,1,7.1,7.1,0,0,0-.8,1.5,5.8,5.8,0,0,0-.3,1.9v8.2H928Z"/></svg>