<svg xmlns="http://www.w3.org/2000/svg" viewBox="0 0 1000 524"><defs><style>.a{fill:lime;}.b{fill:#ff0;}.c{fill:#fff;}.d,.e{fill:none;stroke-miterlimit:10;}.d{stroke:#fff;stroke-width:5px;}.e{stroke:lime;stroke-width:4.31px;}</style></defs><rect width="779" height="524"/><path class="a" d="M219.4,238.2h4.2a3.3,3.3,0,0,1,1.5.3l1.3.7a4.7,4.7,0,0,1,.7,1.2,3.2,3.2,0,0,1,.3,1.4,3.6,3.6,0,0,1-.2,1.1,1.9,1.9,0,0,1-.5.9,2.7,2.7,0,0,1-.8.7,2,2,0,0,1-.9.5h-.1l3.1,4.4v.2h-2.5l-2.9-4.3h-1v4.3h-2.2Zm4.2,5.2a1.7,1.7,0,0,0,1.2-.5,1.4,1.4,0,0,0,.4-1.1,1.3,1.3,0,0,0-.1-.6.5.5,0,0,0-.3-.5,1,1,0,0,0-.5-.4h-2.7v3.2Z"/><path class="a" d="M233.8,248.8h-.1l-.9.8a2.5,2.5,0,0,1-1.3.3,2.5,2.5,0,0,1-1.2-.2l-.9-.5a1.8,1.8,0,0,1-.6-.9,2,2,0,0,1-.3-1.1,2.3,2.3,0,0,1,.3-1.1,1.8,1.8,0,0,1,.7-.8,2.3,2.3,0,0,1,1-.5,2.5,2.5,0,0,1,1.2-.2H233l.8.3v-.3a1.1,1.1,0,0,0-.5-1,1.6,1.6,0,0,0-1.2-.4,2.3,2.3,0,0,0-1.8.9l-1.6-1.1a4.3,4.3,0,0,1,3.4-1.5,4.3,4.3,0,0,1,2.8.8,3.1,3.1,0,0,1,1,2.6v4.7h-2.1Zm0-2.3-.7-.3h-.9a2.1,2.1,0,0,0-1.2.3c-.2.3-.4.5-.4.8a1,1,0,0,0,.4.8l.9.3.8-.2.6-.4a1,1,0,0,0,.4-.5A1.7,1.7,0,0,0,233.8,246.5Z"/><path class="a" d="M239.5,242.9h.1a4.7,4.7,0,0,1,1-1,3.7,3.7,0,0,1,1.5-.3l1.3.2.9.7a2.8,2.8,0,0,1,.5,1.1,5.1,5.1,0,0,1,.2,1.3v4.8h-2.1v-4.5a1.7,1.7,0,0,0-.4-1.3,1.2,1.2,0,0,0-1.1-.4l-.7.2-.6.5a1.5,1.5,0,0,0-.3.7,2.9,2.9,0,0,0-.2.9v3.9h-2.1v-7.9h2Z"/><path class="a" d="M252.6,248.7h-.2c-.1.4-.4.6-.9.9a3.3,3.3,0,0,1-1.5.3,3.5,3.5,0,0,1-1.4-.3l-1.2-.8a6.4,6.4,0,0,1-.8-1.4,4.1,4.1,0,0,1-.3-1.6,4.3,4.3,0,0,1,.3-1.7,4.1,4.1,0,0,1,.8-1.3,4.7,4.7,0,0,1,1.2-.9,3.5,3.5,0,0,1,1.4-.3,3.3,3.3,0,0,1,1.5.3c.5.3.8.5.9.9h.2l-.2-1.1v-3.5h2.1v11.5h-1.9Zm-2.1-.7.8-.2.6-.4a1.8,1.8,0,0,0,.5-.7,2.9,2.9,0,0,0,.2-.9,3,3,0,0,0-.2-1,1.8,1.8,0,0,0-.5-.7l-.6-.4-.8-.2-.8.2-.7.4a1.6,1.6,0,0,0-.4.7,1.6,1.6,0,0,0-.2,1,1.5,1.5,0,0,0,.2.9,1.6,1.6,0,0,0,.4.7l.7.4Z"/><path class="a" d="M260,241.6a4.1,4.1,0,0,1,1.6.3,4.4,4.4,0,0,1,2.2,2.2,4.3,4.3,0,0,1,.3,1.7,4.1,4.1,0,0,1-.3,1.6,4.2,4.2,0,0,1-.9,1.4,4.3,4.3,0,0,1-2.9,1.1,4.7,4.7,0,0,1-1.7-.3,4.1,4.1,0,0,1-1.3-.8,4.2,4.2,0,0,1-.9-1.4,4.1,4.1,0,0,1-.3-1.6,4.3,4.3,0,0,1,.3-1.7,4.4,4.4,0,0,1,2.2-2.2A4.7,4.7,0,0,1,260,241.6Zm0,6.4.7-.2.7-.4.5-.7a2.8,2.8,0,0,0,.1-.9,3.1,3.1,0,0,0-.1-1l-.5-.7-.7-.4-.7-.2-.8.2-.7.4a1.6,1.6,0,0,0-.4.7,3,3,0,0,0-.2,1,2.9,2.9,0,0,0,.2.9,1.6,1.6,0,0,0,.4.7l.7.4Z"/><path class="a" d="M265.3,241.8h2v1.1h.1a2.5,2.5,0,0,1,2.4-1.3,2.4,2.4,0,0,1,1.5.4,2.8,2.8,0,0,1,.9,1,3.2,3.2,0,0,1,1-1,2.9,2.9,0,0,1,1.6-.4l1.3.2.9.7a2.3,2.3,0,0,1,.5,1,4.3,4.3,0,0,1,.2,1.2v5h-2.1v-4.6c0-1.1-.5-1.6-1.3-1.6l-.8.2-.5.5a1.6,1.6,0,0,0-.4.7c0,.3-.1.6-.1,1v3.8h-2.1v-4.6c0-1.1-.4-1.6-1.3-1.6l-.8.2-.5.5-.3.7a3.1,3.1,0,0,0-.1,1v3.8h-2.1Z"/><path class="a" d="M279.4,249.7V238.2h2.1v11.5Z"/><path class="a" d="M285.7,249.3l-3.3-7.5h2.4l2,4.8h.1l1.9-4.8h2.4l-4.9,11.3H284Z"/><path class="a" d="M301,243.4h5.6a.6.6,0,0,1,.1.4v.6a7.6,7.6,0,0,1-.3,2.1,4.9,4.9,0,0,1-2.9,3,6.1,6.1,0,0,1-2.4.4,6.4,6.4,0,0,1-2.4-.4,5,5,0,0,1-1.9-1.3,5.3,5.3,0,0,1-1.3-1.9,6,6,0,0,1-.5-2.4,5.9,5.9,0,0,1,.5-2.3,5.3,5.3,0,0,1,1.3-1.9,5,5,0,0,1,1.9-1.3,6.4,6.4,0,0,1,2.4-.4,6.9,6.9,0,0,1,2.5.4,6.2,6.2,0,0,1,1.8,1.4l-1.5,1.4a2.7,2.7,0,0,0-1.2-.9,4.1,4.1,0,0,0-1.6-.3,3.3,3.3,0,0,0-1.5.3,3.5,3.5,0,0,0-1.3.8,3.6,3.6,0,0,0-.8,1.2,4.1,4.1,0,0,0-.3,1.6,4.7,4.7,0,0,0,.3,1.7,3.6,3.6,0,0,0,.8,1.2,3.5,3.5,0,0,0,1.3.8,3.9,3.9,0,0,0,3,0,4.1,4.1,0,0,0,1.1-.7l.6-.7.3-1H301Z"/><path class="a" d="M315.6,247.8a4,4,0,0,1-1.4,1.5,4.4,4.4,0,0,1-2.3.6,4.1,4.1,0,0,1-1.6-.3,4.2,4.2,0,0,1-1.4-.9,4.3,4.3,0,0,1-1.1-2.9,5.1,5.1,0,0,1,.3-1.7,3.5,3.5,0,0,1,.8-1.3,3.8,3.8,0,0,1,1.3-.9,4.1,4.1,0,0,1,1.6-.3,4.3,4.3,0,0,1,1.7.3,2.7,2.7,0,0,1,1.2.9,2.9,2.9,0,0,1,.8,1.3,4.1,4.1,0,0,1,.3,1.6v.2c-.1,0-.1.1-.1.2h-5.9a2.4,2.4,0,0,0,.3.9,1.2,1.2,0,0,0,.5.5l.6.4h.7a1.6,1.6,0,0,0,1.2-.4,1.6,1.6,0,0,0,.8-.8Zm-1.9-3.1a.8.8,0,0,0-.1-.4l-.4-.5-.5-.4h-.9a1.5,1.5,0,0,0-1.1.4,2,2,0,0,0-.8,1Z"/><path class="a" d="M319.1,242.9h.1a2.5,2.5,0,0,1,2.4-1.3l1.3.2a2.2,2.2,0,0,1,.9.7,2.9,2.9,0,0,1,.6,1.1,5.1,5.1,0,0,1,.2,1.3v4.8h-2.1v-4.5a2.2,2.2,0,0,0-.4-1.3,1.4,1.4,0,0,0-1.1-.4l-.8.2-.5.5a1.6,1.6,0,0,0-.4.7,2.8,2.8,0,0,0-.1.9v3.9h-2.1v-7.9h2Z"/><path class="a" d="M333.7,247.8a4.3,4.3,0,0,1-1.5,1.5,3.8,3.8,0,0,1-2.2.6,4.7,4.7,0,0,1-1.7-.3,3.8,3.8,0,0,1-1.3-.9,4.3,4.3,0,0,1-.9-1.3,4.1,4.1,0,0,1-.3-1.6,5.1,5.1,0,0,1,.3-1.7,3.8,3.8,0,0,1,.9-1.3,3,3,0,0,1,1.3-.9,4.1,4.1,0,0,1,1.6-.3,4.7,4.7,0,0,1,1.7.3,2.7,2.7,0,0,1,1.2.9,2.9,2.9,0,0,1,.8,1.3,7.8,7.8,0,0,1,.2,1.6v.4h-5.9a1.4,1.4,0,0,0,.3.9l.5.5.6.4h.7a1.6,1.6,0,0,0,1.2-.4,2,2,0,0,0,.8-.8Zm-1.9-3.1c0-.1-.1-.2-.1-.4l-.4-.5a1.5,1.5,0,0,0-.6-.4h-.8a1.9,1.9,0,0,0-1.2.4,1.8,1.8,0,0,0-.7,1Z"/><path class="a" d="M335.2,241.8h1.9v1.1h.2l.4-.5a1,1,0,0,1,.5-.4l.6-.3h1.4l.5.2-.5,1.9-.5-.2h-1.3l-.6.5a1.6,1.6,0,0,0-.4.7,2.8,2.8,0,0,0-.1.9v3.9h-2.1Z"/><path class="a" d="M346.2,248.8h-.1l-.9.8a2.8,2.8,0,0,1-1.3.3,2.3,2.3,0,0,1-1.2-.2,1.9,1.9,0,0,1-.9-.5,3.1,3.1,0,0,1-.7-.9,3.6,3.6,0,0,1-.2-1.1,2.3,2.3,0,0,1,.3-1.1,1.6,1.6,0,0,1,.6-.8l1.1-.5a2.3,2.3,0,0,1,1.2-.2h1.3l.8.3v-.3a1.4,1.4,0,0,0-.5-1,1.6,1.6,0,0,0-1.2-.4,2.3,2.3,0,0,0-1.9.9l-1.5-1.1a4.2,4.2,0,0,1,3.4-1.5,4.4,4.4,0,0,1,2.8.8,3.5,3.5,0,0,1,1,2.6v4.7h-2.1Zm0-2.3-.8-.3h-.8a2.1,2.1,0,0,0-1.2.3c-.2.3-.4.5-.4.8a.8.8,0,0,0,.4.8l.9.3.8-.2.6-.4.4-.5A1.7,1.7,0,0,0,346.2,246.5Z"/><path class="a" d="M350.6,243.6h-1.3v-1.8h1.3v-2.4h2.1v2.4h2v1.8h-2v3.2a1.1,1.1,0,0,0,.1.5.8.8,0,0,0,.2.4.7.7,0,0,0,.6.2h.5l.3-.2.6,1.9-.8.2h-1a1.6,1.6,0,0,1-1-.2l-.8-.5a2.9,2.9,0,0,1-.8-2.1Z"/><path class="a" d="M363.5,247.8a4,4,0,0,1-1.4,1.5,4.6,4.6,0,0,1-3.9.3,4.2,4.2,0,0,1-1.4-.9,4.3,4.3,0,0,1-1.1-2.9,5.1,5.1,0,0,1,.3-1.7,3.5,3.5,0,0,1,.8-1.3,3.8,3.8,0,0,1,1.3-.9,4.1,4.1,0,0,1,1.6-.3,4.3,4.3,0,0,1,1.7.3,3.8,3.8,0,0,1,1.3.9,4,4,0,0,1,.7,1.3,4.1,4.1,0,0,1,.3,1.6v.2c-.1,0-.1.1-.1.2h-5.9l.3.9.5.5.6.4h.7a1.6,1.6,0,0,0,1.2-.4,1.6,1.6,0,0,0,.8-.8Zm-1.9-3.1a.8.8,0,0,0-.1-.4l-.4-.5-.5-.4h-.9a1.5,1.5,0,0,0-1.1.4,2,2,0,0,0-.8,1Z"/><path class="a" d="M237.8,261.9l1.2.2a2.5,2.5,0,0,1,1,.8,3.1,3.1,0,0,1,.8,1.1,3.2,3.2,0,0,1,.3,1.4,2.8,2.8,0,0,1-.4,1.5,5,5,0,0,1-.8,1.2l-1.2.8-1.5.2a4.1,4.1,0,0,1-1.6-.3,5.7,5.7,0,0,1-1.3-.8,8.3,8.3,0,0,1-.8-1.2,3.9,3.9,0,0,1-.2-1.5,4.5,4.5,0,0,1,.4-2l1.1-1.9,2.7-3.7,1.6,1.1-2.3,3.1h1Zm-.6,5.3h.6a.9.9,0,0,0,.6-.4,1.3,1.3,0,0,0,.4-.6,1.4,1.4,0,0,0,.2-.7,1.9,1.9,0,0,0-.2-.7l-.4-.6a.9.9,0,0,0-.6-.3l-.6-.2-.7.2a.9.9,0,0,0-.6.3,2.1,2.1,0,0,0-.4.6,1.9,1.9,0,0,0-.2.7,1.4,1.4,0,0,0,.2.7,1.3,1.3,0,0,0,.4.6.9.9,0,0,0,.6.4Z"/><path class="a" d="M247.4,268.9v-2h-5.1v-1.7l4.9-7.3h2.3v7h1.4v2h-1.4v2Zm0-7.9h-.1l-2.6,3.9h2.7Z"/><path class="a" d="M261.8,267.9h-.1a2.6,2.6,0,0,1-.9.9,3.3,3.3,0,0,1-1.5.3,3.2,3.2,0,0,1-1.4-.3,3.6,3.6,0,0,1-1.2-.8,4.2,4.2,0,0,1-.9-1.4,4.1,4.1,0,0,1-.3-1.6,4.3,4.3,0,0,1,.3-1.7,3,3,0,0,1,.9-1.3,2.7,2.7,0,0,1,1.2-.9,3.2,3.2,0,0,1,1.4-.3,3.3,3.3,0,0,1,1.5.3,2.6,2.6,0,0,1,.9.9h.1v-4.6h2.1v11.5h-2Zm-2.1-.7.8-.2.7-.4a1.6,1.6,0,0,0,.4-.7,1.5,1.5,0,0,0,.2-.9,1.6,1.6,0,0,0-.2-1,1.6,1.6,0,0,0-.4-.7l-.7-.4-.8-.2-.8.2-.6.4a1.8,1.8,0,0,0-.5.7,3,3,0,0,0-.2,1,2.9,2.9,0,0,0,.2.9,1.8,1.8,0,0,0,.5.7l.6.4Z"/><path class="a" d="M266.7,260h-.5l-.4-.3-.3-.4a1.3,1.3,0,0,1-.1-.6.9.9,0,0,1,.1-.5l.3-.4.4-.3h.5a1.3,1.3,0,0,1,1,.4,1.1,1.1,0,0,1,.4.9,1.3,1.3,0,0,1-.4,1A1.8,1.8,0,0,1,266.7,260Zm-1,8.9V261h2.1v7.9Z"/><path class="a" d="M273.3,272.6l-1.5-.2-1.2-.6a6,6,0,0,1-.8-.8,2,2,0,0,1-.4-.8l2-.8a1.8,1.8,0,0,0,.7,1,2.4,2.4,0,0,0,1.2.3,2,2,0,0,0,1.5-.6,2.4,2.4,0,0,0,.6-1.8v-.5h-.1a3.9,3.9,0,0,1-1,.8,3.2,3.2,0,0,1-1.4.3,3.5,3.5,0,0,1-1.4-.3l-1.2-.8a5.7,5.7,0,0,1-.8-1.3,4.7,4.7,0,0,1-.3-1.7,3.7,3.7,0,0,1,2.3-3.7,3.5,3.5,0,0,1,1.4-.3,3.2,3.2,0,0,1,1.4.3,2.5,2.5,0,0,1,1,.8h.1V261h2v7.3a4.8,4.8,0,0,1-.3,1.8,4.4,4.4,0,0,1-2.2,2.2A4.1,4.1,0,0,1,273.3,272.6Zm0-5.6.8-.2a1.3,1.3,0,0,0,.7-.4l.4-.6a3,3,0,0,0,.2-1,2.9,2.9,0,0,0-.2-.9,4.3,4.3,0,0,0-.4-.7l-.7-.4h-1.5l-.7.4a1.6,1.6,0,0,0-.4.7,1.5,1.5,0,0,0-.2.9,1.6,1.6,0,0,0,.2,1l.4.6a1,1,0,0,0,.7.4Z"/><path class="a" d="M280.4,260h-.6l-.4-.3-.3-.4a1.3,1.3,0,0,1-.1-.6.9.9,0,0,1,.1-.5l.3-.4.4-.3h.6a1.2,1.2,0,0,1,.9.4,1.1,1.1,0,0,1,.4.9,1.3,1.3,0,0,1-.4,1A1.8,1.8,0,0,1,280.4,260Zm-1.1,8.9V261h2.1v7.9Z"/><path class="a" d="M284.1,262.8h-1.4V261h1.4v-2.4h2.1V261h1.9v1.8h-1.9V266a1.1,1.1,0,0,0,.1.5.8.8,0,0,0,.2.4c.1.2.3.2.6.2h.5l.3-.2.6,1.9-.8.2h-1a1.6,1.6,0,0,1-1-.2,1.6,1.6,0,0,1-.8-.5,2.9,2.9,0,0,1-.8-2.1Z"/><path class="a" d="M295.2,262.1h.1a2.5,2.5,0,0,1,2.4-1.3l1.3.2a2.2,2.2,0,0,1,.9.7,2.9,2.9,0,0,1,.6,1.1,5.3,5.3,0,0,1,.1,1.3v4.8h-2.1v-4.5a2.3,2.3,0,0,0-.3-1.3,1.8,1.8,0,0,0-1.1-.4l-.8.2a1.2,1.2,0,0,0-.5.5,1.6,1.6,0,0,0-.4.7,2.8,2.8,0,0,0-.1.9v3.9h-2.1V261h2Z"/><path class="a" d="M307.8,267.9h-.1a4.3,4.3,0,0,1-1,.9,3.2,3.2,0,0,1-1.4.3,2.9,2.9,0,0,1-2.3-.9,3.6,3.6,0,0,1-.7-2.4V261h2.1v4.5a1.7,1.7,0,0,0,.4,1.3,1.2,1.2,0,0,0,1.1.4l.7-.2c.3-.1.4-.3.6-.5a1.5,1.5,0,0,0,.3-.7,2.9,2.9,0,0,0,.2-.9V261h2.1v7.9h-2Z"/><path class="a" d="M311.6,261h1.9v1.1h.2a2.4,2.4,0,0,1,1-1,2.9,2.9,0,0,1,1.4-.3,2.8,2.8,0,0,1,1.5.4,2.5,2.5,0,0,1,.8,1,3.6,3.6,0,0,1,1.1-1,2.7,2.7,0,0,1,1.6-.4l1.2.2a2.2,2.2,0,0,1,.9.7,2.3,2.3,0,0,1,.5,1,4.3,4.3,0,0,1,.2,1.2v5h-2.1v-4.6c0-1.1-.4-1.6-1.3-1.6l-.7.2c-.3.1-.4.3-.6.5l-.3.7a3.1,3.1,0,0,0-.1,1v3.8h-2.1v-4.6c0-1.1-.5-1.6-1.4-1.6l-.7.2a1.2,1.2,0,0,0-.5.5,1.1,1.1,0,0,0-.3.7,3.1,3.1,0,0,0-.1,1v3.8h-2.1Z"/><path class="a" d="M325.6,257.4h2.1V262h.1a2.6,2.6,0,0,1,.9-.9,3.3,3.3,0,0,1,1.5-.3,4,4,0,0,1,1.5.3l1.2.9a4.1,4.1,0,0,1,.8,1.3,4.3,4.3,0,0,1,.3,1.7,4.1,4.1,0,0,1-.3,1.6,6.4,6.4,0,0,1-.8,1.4l-1.2.8a4,4,0,0,1-1.5.3,3.3,3.3,0,0,1-1.5-.3,2.6,2.6,0,0,1-.9-.9h-.1v1h-2Zm4.1,9.8.8-.2.7-.4a4.3,4.3,0,0,0,.4-.7,2.9,2.9,0,0,0,.2-.9,3,3,0,0,0-.2-1,4.3,4.3,0,0,0-.4-.7l-.7-.4-.8-.2-.8.2-.7.4a4.3,4.3,0,0,0-.4.7,3,3,0,0,0-.2,1,2.9,2.9,0,0,0,.2.9,4.3,4.3,0,0,0,.4.7l.7.4Z"/><path class="a" d="M342.7,267a5.4,5.4,0,0,1-1.5,1.5,4.6,4.6,0,0,1-3.9.3,4.4,4.4,0,0,1-2.2-2.2,4.1,4.1,0,0,1-.3-1.6,5.1,5.1,0,0,1,.3-1.7,5.7,5.7,0,0,1,.8-1.3,3.8,3.8,0,0,1,1.3-.9,4.7,4.7,0,0,1,1.7-.3,3.8,3.8,0,0,1,2.9,1.2,2.7,2.7,0,0,1,.7,1.3,4.1,4.1,0,0,1,.3,1.6v.4h-5.9a2.4,2.4,0,0,0,.2.9,1.2,1.2,0,0,0,.5.5l.7.4h.7a1.6,1.6,0,0,0,1.2-.4,1.9,1.9,0,0,0,.7-.8Zm-1.9-3.1c-.1-.1-.1-.2-.2-.4l-.3-.5-.6-.4h-.8a1.6,1.6,0,0,0-1.2.4,1.4,1.4,0,0,0-.7,1Z"/><path class="a" d="M344.1,261h2v1.1h.1l.4-.5.5-.4.7-.3h1.4l.5.2-.6,1.9-.4-.2h-1.4l-.6.5-.3.7a2.9,2.9,0,0,0-.2.9v3.9h-2.1Z"/><path class="b" d="M229.3,157.9V143.5h5a4.1,4.1,0,0,1,1.9.4,4.2,4.2,0,0,1,1.6.9,4.5,4.5,0,0,1,1,1.4,4.1,4.1,0,0,1,.4,1.9,3.7,3.7,0,0,1-.4,1.8,3.6,3.6,0,0,1-1,1.4,6.2,6.2,0,0,1-1.6,1,5.8,5.8,0,0,1-1.9.3H232v5.3Zm5.1-7.9a1.9,1.9,0,0,0,2.1-1.9,2.2,2.2,0,0,0-.1-.8l-.4-.6-.7-.4-.9-.2H232V150Z"/><path class="b" d="M246.5,156.8h-.2a5.2,5.2,0,0,1-1.1,1,3.9,3.9,0,0,1-1.7.4,3.2,3.2,0,0,1-1.4-.3,2.4,2.4,0,0,1-1.2-.7,3.9,3.9,0,0,1-.8-1,3.2,3.2,0,0,1-.2-1.4,3.5,3.5,0,0,1,.3-1.4,2.5,2.5,0,0,1,.8-1l1.3-.7,1.6-.2h1.5l1.1.4v-.3a1.6,1.6,0,0,0-.7-1.3,2,2,0,0,0-1.5-.5A2.7,2.7,0,0,0,242,151l-1.9-1.3a5.2,5.2,0,0,1,4.3-2,5,5,0,0,1,3.4,1.1A4.1,4.1,0,0,1,249,152v5.9h-2.5Zm0-2.9-1-.4h-1.1a2,2,0,0,0-1.4.4,1.3,1.3,0,0,0,0,2,2,2,0,0,0,1.1.3,1.8,1.8,0,0,0,1-.2,1.5,1.5,0,0,0,.7-.5,1.8,1.8,0,0,0,.5-.7A1.9,1.9,0,0,0,246.5,153.9Z"/><path class="b" d="M254.9,158.2a4.7,4.7,0,0,1-1.7-.3,3.1,3.1,0,0,1-1.3-.6l-.9-.9a2.7,2.7,0,0,1-.6-1l2.3-1a2.4,2.4,0,0,0,2.2,1.5,1.6,1.6,0,0,0,1.1-.3c.3-.2.5-.4.5-.6a1,1,0,0,0-.4-.7l-1.2-.4-1.4-.3-.9-.3-.9-.6a2.7,2.7,0,0,1-.7-.8,2,2,0,0,1-.2-1.1,2.8,2.8,0,0,1,.3-1.3,3.9,3.9,0,0,1,.8-1l1.3-.6,1.6-.2a5.4,5.4,0,0,1,2.5.6,3.8,3.8,0,0,1,1.6,1.7l-2.3,1a1.8,1.8,0,0,0-.8-.9,2.2,2.2,0,0,0-1.1-.2,1.6,1.6,0,0,0-1,.2.7.7,0,0,0-.4.6.5.5,0,0,0,.4.5,1.9,1.9,0,0,0,.9.4l1.5.3a4.5,4.5,0,0,1,2.2,1.2,2.6,2.6,0,0,1,.8,1.9,2.7,2.7,0,0,1-.3,1.2,2.8,2.8,0,0,1-.9,1,4,4,0,0,1-1.3.7A4.7,4.7,0,0,1,254.9,158.2Z"/><path class="b" d="M264.6,158.2a4.8,4.8,0,0,1-1.8-.3,3.1,3.1,0,0,1-1.3-.6l-.9-.9-.6-1,2.4-1a2.3,2.3,0,0,0,3.3,1.2.7.7,0,0,0,.4-.6.9.9,0,0,0-.3-.7l-1.2-.4-1.4-.3-1-.3-.9-.6a2.4,2.4,0,0,1-.6-.8,2,2,0,0,1-.3-1.1,2.8,2.8,0,0,1,.3-1.3,2.8,2.8,0,0,1,.9-1l1.2-.6,1.6-.2a5.1,5.1,0,0,1,2.5.6,3.3,3.3,0,0,1,1.6,1.7l-2.2,1a1.8,1.8,0,0,0-1.9-1.1,1.6,1.6,0,0,0-1,.2.6.6,0,0,0-.1,1.1l1,.4,1.5.3a5.1,5.1,0,0,1,2.2,1.2,2.5,2.5,0,0,1,.7,1.9,2.7,2.7,0,0,1-.3,1.2,3.9,3.9,0,0,1-.8,1l-1.3.7A4.7,4.7,0,0,1,264.6,158.2Z"/><path class="b" d="M269.3,148.1h2.9l1.7,6.1h.1l1.9-6.1h2.7l2,6.1h.1l1.6-6.1h2.9l-3.1,9.8h-2.8l-2-6.2h-.1l-2,6.2h-2.8Z"/><path class="b" d="M290.9,147.7a7.8,7.8,0,0,1,2.1.4,5.7,5.7,0,0,1,1.6,1.1,5,5,0,0,1,1.1,1.7,6.5,6.5,0,0,1,.4,2.1,7.8,7.8,0,0,1-.4,2.1,5.3,5.3,0,0,1-2.7,2.7,7.8,7.8,0,0,1-2.1.4,6.5,6.5,0,0,1-2.1-.4,5,5,0,0,1-1.7-1.1,5.4,5.4,0,0,1-1-1.6,5.2,5.2,0,0,1-.4-2.1,4.6,4.6,0,0,1,.4-2.1,4.8,4.8,0,0,1,1-1.7,5,5,0,0,1,1.7-1.1A6.5,6.5,0,0,1,290.9,147.7Zm0,8.1.9-.2.9-.6a1.9,1.9,0,0,0,.5-.9,2,2,0,0,0,.3-1.1,2.1,2.1,0,0,0-.3-1.2,1.9,1.9,0,0,0-.5-.9l-.9-.6h-1.9l-.8.6a1.5,1.5,0,0,0-.6.9,3.7,3.7,0,0,0-.2,1.2,3.6,3.6,0,0,0,.2,1.1,1.5,1.5,0,0,0,.6.9,2.4,2.4,0,0,0,.8.6Z"/><path class="b" d="M297.6,148.1H300v1.3h.2l.5-.6.6-.6.8-.3.9-.2h.9l.6.3-.7,2.4-.5-.2h-.7l-1,.2-.8.6-.5.9a4.1,4.1,0,0,0-.1,1.1v4.9h-2.6Z"/><path class="b" d="M312.4,156.7h-.2a2.7,2.7,0,0,1-1.1,1,3.6,3.6,0,0,1-1.9.5,5.8,5.8,0,0,1-1.8-.4,7.2,7.2,0,0,1-1.5-1.1,8.6,8.6,0,0,1-1-1.6,7.8,7.8,0,0,1-.4-2.1,6.5,6.5,0,0,1,.4-2.1,6.9,6.9,0,0,1,1-1.7,7.2,7.2,0,0,1,1.5-1.1,5.8,5.8,0,0,1,1.8-.4,3.6,3.6,0,0,1,1.9.5,2.7,2.7,0,0,1,1.1,1h.2l-.2-1.4v-4.3h2.7v14.4h-2.5Zm-2.6-.9,1-.2a2.4,2.4,0,0,0,.8-.6,3.5,3.5,0,0,0,.6-.9,3.6,3.6,0,0,0,.2-1.1,3.7,3.7,0,0,0-.2-1.2,3.5,3.5,0,0,0-.6-.9l-.8-.6h-1a1.6,1.6,0,0,0-1,.2l-.8.5a2.4,2.4,0,0,0-.6.9,2.2,2.2,0,0,0-.2,1.2,2,2,0,0,0,.2,1.1,1.5,1.5,0,0,0,.6.9l.8.6Z"/><path class="b" d="M317.4,143.5h2.7v5.8h6v-5.8h2.7v14.4h-2.7v-6.1h-6v6.1h-2.7Z"/><path class="b" d="M337.1,156.8H337a5.2,5.2,0,0,1-1.1,1,4.3,4.3,0,0,1-1.7.4,3.2,3.2,0,0,1-1.4-.3,2.4,2.4,0,0,1-1.2-.7,3.9,3.9,0,0,1-.8-1,3.2,3.2,0,0,1-.3-1.4,3.5,3.5,0,0,1,.3-1.4,2.8,2.8,0,0,1,.9-1,4.7,4.7,0,0,1,1.2-.7l1.6-.2h1.6l1,.4v-.3a1.5,1.5,0,0,0-.6-1.3,2,2,0,0,0-1.5-.5,2.7,2.7,0,0,0-2.3,1.1l-1.9-1.3a5.7,5.7,0,0,1,7.7-.9,4.1,4.1,0,0,1,1.2,3.2v5.9h-2.6Zm0-2.9-.9-.4h-1.1a2,2,0,0,0-1.4.4,1.1,1.1,0,0,0-.5,1,1.3,1.3,0,0,0,.4,1,2.4,2.4,0,0,0,1.2.3,1.5,1.5,0,0,0,.9-.2,1.4,1.4,0,0,0,.8-.5l.5-.7A1.9,1.9,0,0,0,337.1,153.9Z"/><path class="b" d="M345.6,158.2a4.3,4.3,0,0,1-1.7-.3,2.6,2.6,0,0,1-1.3-.6l-1-.9a4.7,4.7,0,0,1-.5-1l2.3-1a2.4,2.4,0,0,0,2.2,1.5,1.8,1.8,0,0,0,1.1-.3.7.7,0,0,0,.4-.6.9.9,0,0,0-.3-.7l-1.2-.4-1.4-.3-1-.3-.8-.6a2.7,2.7,0,0,1-.7-.8,2,2,0,0,1-.3-1.1,2.8,2.8,0,0,1,.3-1.3,2.8,2.8,0,0,1,.9-1l1.3-.6,1.5-.2a4.9,4.9,0,0,1,2.5.6,3.5,3.5,0,0,1,1.7,1.7l-2.3,1a2.4,2.4,0,0,0-.8-.9,2.2,2.2,0,0,0-1.1-.2,1.6,1.6,0,0,0-1,.2.6.6,0,0,0-.1,1.1l1,.4,1.5.3a5.1,5.1,0,0,1,2.2,1.2,2.6,2.6,0,0,1,.8,1.9,2.7,2.7,0,0,1-.3,1.2,2.8,2.8,0,0,1-.9,1l-1.3.7A4.7,4.7,0,0,1,345.6,158.2Z"/><path class="b" d="M351.4,143.5H354v4.1l-.2,1.7h.2a4.3,4.3,0,0,1,1.2-1.1,3.5,3.5,0,0,1,1.8-.5,3.4,3.4,0,0,1,2.8,1.2,4.5,4.5,0,0,1,.9,3v6h-2.6v-5.7a2.3,2.3,0,0,0-.5-1.5,1.6,1.6,0,0,0-1.4-.5,1.5,1.5,0,0,0-.9.2c-.3.1-.5.4-.7.6a4.1,4.1,0,0,0-.5.9,4.9,4.9,0,0,0-.1,1.2v4.8h-2.6Z"/><path class="c" d="M297.1,175.4h5.4v3.7h-5.4v5.4h-3.7v-5.4H288v-3.7h5.4V170h3.7Z"/><rect class="d" x="147.5" y="115.5" width="295" height="230" rx="18.8"/><path class="c" d="M194.8,384h2.9l3,8.6.5,1.8h.1l.6-1.8L205,384h2.9l-5.2,14.3h-2.9Z"/><path class="c" d="M210.3,387.2h-.6l-.6-.4c-.1-.2-.3-.3-.3-.5a1.3,1.3,0,0,1,0-1.4c0-.2.2-.3.3-.5s.4-.3.6-.3l.6-.2a1.7,1.7,0,0,1,0,3.4ZM209,398.3v-9.8h2.6v9.8Z"/><path class="c" d="M223.2,395.9a5.8,5.8,0,0,1-1.8,2,5.1,5.1,0,0,1-2.8.7,4.6,4.6,0,0,1-2.1-.4,5.3,5.3,0,0,1-2.7-2.7,4.6,4.6,0,0,1-.4-2.1,4.5,4.5,0,0,1,.4-2,5.9,5.9,0,0,1,1-1.7,9.1,9.1,0,0,1,1.6-1.1,5.7,5.7,0,0,1,4.2,0,3.3,3.3,0,0,1,1.5,1.1,6.2,6.2,0,0,1,1,1.6,6.4,6.4,0,0,1,.3,2v.5c-.1.1-.1.1-.1.2H216a1.7,1.7,0,0,0,.3,1,2.4,2.4,0,0,0,.6.8l.8.4h.9a2.4,2.4,0,0,0,1.5-.4,2.8,2.8,0,0,0,.9-1Zm-2.4-3.8a1.1,1.1,0,0,0-.1-.5l-.5-.6a1.8,1.8,0,0,0-.7-.5l-1-.2a2.5,2.5,0,0,0-1.5.5,3,3,0,0,0-.9,1.3Z"/><path class="c" d="M223.8,388.5h3l1.6,6.1h.1l2-6.1h2.7l1.9,6.1h.2l1.6-6.1h2.9l-3.2,9.8h-2.8l-2-6.2h-.1l-2,6.2H227Z"/><path class="c" d="M257.8,396a6.9,6.9,0,0,1-2.5,2,8.3,8.3,0,0,1-3.2.6,7.3,7.3,0,0,1-3-.6,6.3,6.3,0,0,1-3.9-3.9,7.3,7.3,0,0,1-.6-3,7.2,7.2,0,0,1,.6-2.9,7.5,7.5,0,0,1,1.5-2.4,10,10,0,0,1,2.4-1.6,9.4,9.4,0,0,1,3-.5,7.3,7.3,0,0,1,3,.6,5.5,5.5,0,0,1,2.3,1.7l-1.9,1.8-1.4-1.1a4.2,4.2,0,0,0-2-.5,4.1,4.1,0,0,0-1.9.4,4.6,4.6,0,0,0-2.5,2.5,4.5,4.5,0,0,0-.4,2,4.6,4.6,0,0,0,.4,2.1,4.6,4.6,0,0,0,2.5,2.5,5.8,5.8,0,0,0,1.9.4,4.6,4.6,0,0,0,2.1-.5,7.5,7.5,0,0,0,1.7-1.4Z"/><path class="c" d="M259.4,398.3V384h2.7v14.3Z"/><path class="c" d="M270.2,397.3h-.1a4.8,4.8,0,0,1-1.1.9,3.1,3.1,0,0,1-1.7.4l-1.4-.2a3.5,3.5,0,0,1-1.2-.7,4.4,4.4,0,0,1-.8-1.1,2.8,2.8,0,0,1-.3-1.3,3.2,3.2,0,0,1,.3-1.4,3.1,3.1,0,0,1,.9-1.1l1.2-.6a4.5,4.5,0,0,1,1.6-.3l1.6.2,1,.3v-.3a1.8,1.8,0,0,0-.6-1.3,2.5,2.5,0,0,0-1.5-.5,3,3,0,0,0-2.3,1.1l-1.9-1.3a5,5,0,0,1,4.2-1.9,4.6,4.6,0,0,1,3.5,1.1,3.9,3.9,0,0,1,1.2,3.1v5.9h-2.6Zm0-3-.9-.3-1.1-.2a2,2,0,0,0-1.4.5,1,1,0,0,0-.5,1,1,1,0,0,0,.4.9,1.7,1.7,0,0,0,1.2.4l.9-.2.8-.5.5-.7A2.8,2.8,0,0,0,270.2,394.3Z"/><path class="c" d="M276.4,387.2h-.7l-.5-.4-.4-.5a2.5,2.5,0,0,1,0-1.4l.4-.5a.9.9,0,0,1,.5-.3l.7-.2a2.1,2.1,0,0,1,1.2.5,1.7,1.7,0,0,1,0,2.4A2.1,2.1,0,0,1,276.4,387.2Zm-1.3,11.1v-9.8h2.6v9.8Z"/><path class="c" d="M280.1,388.5h2.4v1.3h.2a3.4,3.4,0,0,1,1.2-1.2,3.9,3.9,0,0,1,1.8-.4,3.8,3.8,0,0,1,1.9.5,4.5,4.5,0,0,1,1.1,1.3,4,4,0,0,1,1.3-1.3,3.9,3.9,0,0,1,2-.5,4.1,4.1,0,0,1,1.6.3,2,2,0,0,1,1,.8,3.5,3.5,0,0,1,.7,1.2,8.8,8.8,0,0,1,.2,1.6v6.2h-2.6v-5.7c0-1.3-.6-2-1.6-2l-1,.2c-.2.2-.5.4-.6.7a1.9,1.9,0,0,0-.5.9,3.7,3.7,0,0,0-.1,1.1v4.8h-2.6v-5.7c0-1.3-.6-2-1.7-2l-.9.2a2.3,2.3,0,0,0-.7.7,3.9,3.9,0,0,0-.4.9,3.7,3.7,0,0,0-.1,1.1v4.8h-2.6Z"/><path class="c" d="M304.6,398.3V386.5h-4V384h10.7v2.5h-4v11.8Z"/><path class="c" d="M316,388.2a5.2,5.2,0,0,1,2.1.4,4.2,4.2,0,0,1,1.6,1.1,4.6,4.6,0,0,1,1.1,1.6,5.7,5.7,0,0,1,0,4.2,6.2,6.2,0,0,1-1.1,1.7,5.4,5.4,0,0,1-1.6,1,5.2,5.2,0,0,1-2.1.4,4.6,4.6,0,0,1-2.1-.4,4.8,4.8,0,0,1-1.7-1,5.9,5.9,0,0,1-1-1.7,5.7,5.7,0,0,1,0-4.2,4.4,4.4,0,0,1,1-1.6,3.9,3.9,0,0,1,1.7-1.1A4.6,4.6,0,0,1,316,388.2Zm0,8,.9-.2a2.6,2.6,0,0,0,.9-.5,4.1,4.1,0,0,0,.5-.9,2.5,2.5,0,0,0,0-2.4,4.1,4.1,0,0,0-.5-.9,2.6,2.6,0,0,0-.9-.5l-.9-.2-1,.2-.8.5a2.4,2.4,0,0,0-.6.9,3.7,3.7,0,0,0,0,2.4,2.4,2.4,0,0,0,.6.9l.8.5Z"/><path class="c" d="M322.8,384h2.6v7.8h.1l3.3-3.3H332v.2l-3.6,3.5,3.9,5.9v.2h-3.1l-2.7-4.3-1.1,1.1v3.2h-2.6Z"/><path class="c" d="M342.3,395.9a4.9,4.9,0,0,1-1.8,2,5.1,5.1,0,0,1-2.8.7,4.9,4.9,0,0,1-2.1-.4,5.3,5.3,0,0,1-2.7-2.7,4.6,4.6,0,0,1-.4-2.1,4.5,4.5,0,0,1,.4-2,5.9,5.9,0,0,1,1-1.7,9.1,9.1,0,0,1,1.6-1.1,4.9,4.9,0,0,1,2.1-.4,4.6,4.6,0,0,1,2.1.4,3.3,3.3,0,0,1,1.5,1.1,4.4,4.4,0,0,1,1,1.6,6.4,6.4,0,0,1,.3,2v.7h-7.4a1.7,1.7,0,0,0,.3,1l.6.8.8.4h.9a2.4,2.4,0,0,0,1.5-.4,4.7,4.7,0,0,0,1-1Zm-2.3-3.8c-.1-.1-.1-.3-.2-.5l-.5-.6a1.8,1.8,0,0,0-.7-.5l-1-.2a2.5,2.5,0,0,0-1.5.5,3,3,0,0,0-.9,1.3Z"/><path class="c" d="M346.6,389.8h.2a3.4,3.4,0,0,1,1.2-1.2,3.7,3.7,0,0,1,1.8-.4,3.8,3.8,0,0,1,1.6.3,3.6,3.6,0,0,1,1.2.8,4.6,4.6,0,0,1,.7,1.4,7.9,7.9,0,0,1,.2,1.7v5.9h-2.6v-5.6a2.5,2.5,0,0,0-.5-1.6,2,2,0,0,0-1.4-.5l-.9.2a2.3,2.3,0,0,0-.7.7,1.9,1.9,0,0,0-.5.9,3.7,3.7,0,0,0-.1,1.1v4.8h-2.6v-9.8h2.4Z"/><path class="c" d="M365.7,384.1a11.3,11.3,0,0,0-2.1,3.5,11.8,11.8,0,0,0-.8,4.3,11.6,11.6,0,0,0,.8,4.2,13.1,13.1,0,0,0,2.1,3.6l-2,1.3a11.1,11.1,0,0,1-1.2-1.6,10.3,10.3,0,0,1-1.1-2.1,11.4,11.4,0,0,1-.9-2.6,12.7,12.7,0,0,1-.3-2.8,13.6,13.6,0,0,1,.3-2.9,10.6,10.6,0,0,1,.9-2.5,15.1,15.1,0,0,1,1.1-2.2,11.1,11.1,0,0,1,1.2-1.6Z"/><path class="c" d="M366.4,384h2.9l2.9,8.6.6,1.8h.1l.6-1.8,3.1-8.6h2.9l-5.2,14.3h-2.9Z"/><path class="c" d="M393.1,396a7.9,7.9,0,0,1-2.5,2,8.7,8.7,0,0,1-3.2.6,7.3,7.3,0,0,1-3-.6,7.5,7.5,0,0,1-2.4-1.5,7.8,7.8,0,0,1-1.6-2.4,7.3,7.3,0,0,1-.5-3,7.1,7.1,0,0,1,.5-2.9,7.8,7.8,0,0,1,1.6-2.4,10,10,0,0,1,2.4-1.6,9.4,9.4,0,0,1,3-.5,7.3,7.3,0,0,1,3,.6,6.3,6.3,0,0,1,2.3,1.7l-1.9,1.8a5.8,5.8,0,0,0-1.5-1.1,3.8,3.8,0,0,0-1.9-.5,4.1,4.1,0,0,0-1.9.4,3.1,3.1,0,0,0-1.5,1,4.2,4.2,0,0,0-1.1,1.5,6.4,6.4,0,0,0-.3,2,6.6,6.6,0,0,0,.3,2.1,4.2,4.2,0,0,0,1.1,1.5,3.1,3.1,0,0,0,1.5,1,5.8,5.8,0,0,0,1.9.4,4.6,4.6,0,0,0,2.1-.5,7.5,7.5,0,0,0,1.7-1.4Z"/><path class="c" d="M398.3,398.3V386.5h-4V384H405v2.5h-4v11.8Z"/><path class="c" d="M407.8,382.7a11.1,11.1,0,0,1,1.2,1.6,15.5,15.5,0,0,1,1.2,2.2,18.3,18.3,0,0,1,.8,2.5,13.5,13.5,0,0,1,.4,2.9,12.6,12.6,0,0,1-.4,2.8,19.8,19.8,0,0,1-.8,2.6,10.5,10.5,0,0,1-1.2,2.1,11.1,11.1,0,0,1-1.2,1.6l-1.9-1.3a15.8,15.8,0,0,0,2-3.6,9.8,9.8,0,0,0,.8-4.2,10,10,0,0,0-.8-4.3,13.3,13.3,0,0,0-2-3.5Z"/><rect class="a" x="399" y="249" width="380" height="5"/><rect class="c" x="426" y="390" width="353" height="5"/><ellipse class="e" cx="291" cy="255.5" rx="109" ry="56.5"/><rect class="c" x="779" width="221" height="524"/><path class="c" d="M49.5,68.8V47.3H57a9.3,9.3,0,0,1,2.9.5,6.8,6.8,0,0,1,2.3,1.4,6.5,6.5,0,0,1,1.6,2.1,8.1,8.1,0,0,1,0,5.6A6.5,6.5,0,0,1,62.2,59a6.8,6.8,0,0,1-2.3,1.4,9.3,9.3,0,0,1-2.9.5H53.5v7.9ZM57.1,57a3.2,3.2,0,0,0,2.4-.8,3.4,3.4,0,0,0,.8-2.1,3.6,3.6,0,0,0-.2-1.1,2.1,2.1,0,0,0-.6-1,3.3,3.3,0,0,0-1-.6,3.2,3.2,0,0,0-1.4-.3H53.5V57Z"/><path class="c" d="M75.2,67.2H75a8,8,0,0,1-1.7,1.5,4.9,4.9,0,0,1-2.5.6,7.8,7.8,0,0,1-2.2-.4,9.5,9.5,0,0,1-1.7-1,6.1,6.1,0,0,1-1.2-1.6,4.9,4.9,0,0,1-.4-2.1,4.5,4.5,0,0,1,.4-2A5.1,5.1,0,0,1,67,60.6a5.7,5.7,0,0,1,1.9-1,8.6,8.6,0,0,1,2.4-.4,8.3,8.3,0,0,1,2.4.3l1.5.4v-.4a2.7,2.7,0,0,0-.9-2,3.7,3.7,0,0,0-2.3-.7,4.4,4.4,0,0,0-3.5,1.7l-2.8-2A7.6,7.6,0,0,1,72,53.6a7.6,7.6,0,0,1,5.3,1.6A6.2,6.2,0,0,1,79.1,60v8.8H75.2Zm0-4.4-1.4-.5-1.6-.2a3.4,3.4,0,0,0-2.2.6,1.8,1.8,0,0,0,0,3,2.9,2.9,0,0,0,1.7.5,3.2,3.2,0,0,0,1.4-.3,4.1,4.1,0,0,0,1.1-.7,2.6,2.6,0,0,0,.7-1.1A2.8,2.8,0,0,0,75.2,62.8Z"/><path class="c" d="M87.9,69.3a9.5,9.5,0,0,1-2.6-.4,9.3,9.3,0,0,1-2-.9,9.3,9.3,0,0,1-1.4-1.4,10.9,10.9,0,0,1-.8-1.5l3.5-1.5a3.2,3.2,0,0,0,3.3,2.2,3.1,3.1,0,0,0,1.7-.4,1,1,0,0,0,.6-.9,1.4,1.4,0,0,0-.5-1,8.4,8.4,0,0,0-1.8-.7l-2.1-.4-1.4-.5L83,61.1a6.4,6.4,0,0,1-1-1.3,3.8,3.8,0,0,1-.4-1.6,4,4,0,0,1,1.8-3.4,5.6,5.6,0,0,1,1.9-.9,8.5,8.5,0,0,1,2.3-.3,9.2,9.2,0,0,1,3.8.8A5.5,5.5,0,0,1,93.8,57l-3.4,1.4a2.3,2.3,0,0,0-1.2-1.2,3.2,3.2,0,0,0-1.6-.4,3.3,3.3,0,0,0-1.5.3,1.2,1.2,0,0,0-.6.9.9.9,0,0,0,.5.8l1.4.6,2.3.5A6.4,6.4,0,0,1,93,61.6a3.8,3.8,0,0,1,1.1,2.8,4.1,4.1,0,0,1-.4,1.9,6.1,6.1,0,0,1-1.3,1.5,6.4,6.4,0,0,1-2,1.1A10.1,10.1,0,0,1,87.9,69.3Z"/><path class="c" d="M102.3,69.3A9,9,0,0,1,97.8,68a9.3,9.3,0,0,1-1.4-1.4,10.9,10.9,0,0,1-.8-1.5l3.5-1.5a4.5,4.5,0,0,0,1.3,1.7,4.1,4.1,0,0,0,1.9.5,3.2,3.2,0,0,0,1.8-.4,1,1,0,0,0,.6-.9,1.4,1.4,0,0,0-.5-1,7.7,7.7,0,0,0-1.9-.7l-2-.4-1.5-.5-1.3-.8a6.4,6.4,0,0,1-1-1.3,3.8,3.8,0,0,1-.4-1.6,4,4,0,0,1,1.8-3.4,4.8,4.8,0,0,1,1.9-.9,8.5,8.5,0,0,1,2.3-.3,9.2,9.2,0,0,1,3.8.8,5.5,5.5,0,0,1,2.4,2.6l-3.4,1.4a2.8,2.8,0,0,0-1.2-1.2,3.2,3.2,0,0,0-1.6-.4,3.3,3.3,0,0,0-1.5.3,1.2,1.2,0,0,0-.6.9.7.7,0,0,0,.5.8l1.4.6,2.3.5a6.4,6.4,0,0,1,3.3,1.7,4.3,4.3,0,0,1,1.1,2.8,4.1,4.1,0,0,1-.4,1.9,6.1,6.1,0,0,1-1.3,1.5,6.4,6.4,0,0,1-2,1.1A10.1,10.1,0,0,1,102.3,69.3Z"/><path class="c" d="M109.5,54.1h4.4l2.4,9.2h.2l2.9-9.2h4.1l2.9,9.2h.2l2.4-9.2h4.4l-4.7,14.7h-4.3l-2.9-9.3h-.2l-3,9.3h-4.1Z"/><path class="c" d="M141.8,53.6a8.3,8.3,0,0,1,3.2.6,7.8,7.8,0,0,1,2.4,1.6,7.2,7.2,0,0,1,1.6,2.5,7.8,7.8,0,0,1,.6,3.1,8.2,8.2,0,0,1-2.2,5.7,10,10,0,0,1-2.4,1.6,8.3,8.3,0,0,1-3.2.6,7.8,7.8,0,0,1-3.1-.6,8.9,8.9,0,0,1-2.5-1.6,8.2,8.2,0,0,1-2.2-5.7,7.8,7.8,0,0,1,.6-3.1,6.9,6.9,0,0,1,4.1-4.1A7.8,7.8,0,0,1,141.8,53.6Zm0,12a4,4,0,0,0,1.5-.3,2.3,2.3,0,0,0,1.2-.8,3,3,0,0,0,.9-1.3,4.8,4.8,0,0,0,.3-1.8,4.7,4.7,0,0,0-.3-1.7,3.4,3.4,0,0,0-.9-1.4l-1.2-.8a4,4,0,0,0-1.5-.3,3.2,3.2,0,0,0-1.4.3,5.7,5.7,0,0,0-1.3.8,4.9,4.9,0,0,0-1.1,3.1,4.8,4.8,0,0,0,.3,1.8,4.1,4.1,0,0,0,.8,1.3,2.6,2.6,0,0,0,1.3.8A3.2,3.2,0,0,0,141.8,65.6Z"/><path class="c" d="M151.8,54.1h3.7v2h.3a6.1,6.1,0,0,1,.7-1l1-.8,1.2-.5,1.3-.2,1.3.2,1,.4-1.1,3.5-.8-.3h-1.1a3.2,3.2,0,0,0-1.4.3,3.4,3.4,0,0,0-1.2.9,6.1,6.1,0,0,0-.7,1.4,7.8,7.8,0,0,0-.2,1.6v7.3h-4Z"/><path class="c" d="M174.1,67h-.2a5.2,5.2,0,0,1-1.7,1.6,6.1,6.1,0,0,1-2.8.7,6,6,0,0,1-2.7-.6,9.4,9.4,0,0,1-2.3-1.6,10.4,10.4,0,0,1-1.5-2.5,8.3,8.3,0,0,1-.6-3.2,7.8,7.8,0,0,1,.6-3.1,8.7,8.7,0,0,1,1.5-2.5,7.3,7.3,0,0,1,2.3-1.6,6,6,0,0,1,2.7-.6,5.1,5.1,0,0,1,2.8.7,4.4,4.4,0,0,1,1.7,1.6h.2l-.2-2.1V47.3h3.9V68.8h-3.7Zm-3.9-1.4a4,4,0,0,0,1.5-.3,2.8,2.8,0,0,0,1.2-.8,3,3,0,0,0,.9-1.3,4.8,4.8,0,0,0,.3-1.8,4.7,4.7,0,0,0-.3-1.7,3.4,3.4,0,0,0-.9-1.4l-1.2-.8a3.9,3.9,0,0,0-3,0,3.8,3.8,0,0,0-1.3.9,4.1,4.1,0,0,0-.8,1.3,4.7,4.7,0,0,0-.4,1.7,4.8,4.8,0,0,0,.4,1.8,5.7,5.7,0,0,0,.8,1.3,3.5,3.5,0,0,0,1.3.8A4,4,0,0,0,170.2,65.6Z"/><path class="c" d="M188.2,47.3h4.1v8.6h9V47.3h4.1V68.8h-4.1V59.7h-9v9.1h-4.1Z"/><path class="c" d="M217.8,67.2h-.2a6.1,6.1,0,0,1-1.7,1.5,4.6,4.6,0,0,1-2.5.6,6.5,6.5,0,0,1-2.1-.4,7.7,7.7,0,0,1-1.8-1,6.1,6.1,0,0,1-1.2-1.6,7.1,7.1,0,0,1-.4-2.1,4.6,4.6,0,0,1,.5-2,4.8,4.8,0,0,1,1.2-1.6,6.9,6.9,0,0,1,1.9-1,10,10,0,0,1,2.4-.4,7.8,7.8,0,0,1,2.4.3l1.5.4v-.4a2.7,2.7,0,0,0-.9-2,3.5,3.5,0,0,0-2.3-.7,4.6,4.6,0,0,0-3.5,1.7l-2.8-2a7.8,7.8,0,0,1,6.4-2.9,7.5,7.5,0,0,1,5.2,1.6,6.2,6.2,0,0,1,1.8,4.8v8.8h-3.9Zm0-4.4-1.4-.5-1.6-.2a3.4,3.4,0,0,0-2.2.6,1.8,1.8,0,0,0,0,3,3.1,3.1,0,0,0,1.7.5,3.2,3.2,0,0,0,1.4-.3,3,3,0,0,0,1.1-.7,4.4,4.4,0,0,0,.8-1.1A5.1,5.1,0,0,0,217.8,62.8Z"/><path class="c" d="M228.5,56h.2a6.6,6.6,0,0,1,1.9-1.8,6,6,0,0,1,2.7-.6,8.6,8.6,0,0,1,2.4.4,5.9,5.9,0,0,1,1.7,1.3,4.7,4.7,0,0,1,1,2,7.1,7.1,0,0,1,.4,2.6v8.9h-3.9V60.4a3.3,3.3,0,0,0-.8-2.4,2.5,2.5,0,0,0-2-.8,2.3,2.3,0,0,0-1.4.4,3.1,3.1,0,0,0-1.1.9,3.5,3.5,0,0,0-.6,1.4,4.7,4.7,0,0,0-.3,1.7v7.2h-3.9V54.1h3.7Z"/><path class="c" d="M253,67h-.3a4.1,4.1,0,0,1-1.6,1.6,6.2,6.2,0,0,1-2.9.7,6.6,6.6,0,0,1-2.7-.6,8.9,8.9,0,0,1-2.2-1.6,6.4,6.4,0,0,1-1.5-2.5,8.3,8.3,0,0,1-.6-3.2,7.8,7.8,0,0,1,.6-3.1,5.8,5.8,0,0,1,1.5-2.5,6.9,6.9,0,0,1,2.2-1.6,6.6,6.6,0,0,1,2.7-.6,5.2,5.2,0,0,1,2.9.7,3.5,3.5,0,0,1,1.6,1.6h.3l-.3-2.1V47.3h4V68.8H253Zm-4-1.4a3.3,3.3,0,0,0,1.5-.3,2.6,2.6,0,0,0,1.3-.8,4.1,4.1,0,0,0,.8-1.3,3.4,3.4,0,0,0,.4-1.8,3.3,3.3,0,0,0-.4-1.7,4.7,4.7,0,0,0-.8-1.4,5.7,5.7,0,0,0-1.3-.8,3.3,3.3,0,0,0-1.5-.3,3.2,3.2,0,0,0-1.4.3,3.8,3.8,0,0,0-1.3.9,7.3,7.3,0,0,0-.9,1.3,4.7,4.7,0,0,0-.3,1.7,4.8,4.8,0,0,0,.3,1.8l.9,1.3a3.5,3.5,0,0,0,1.3.8A3.2,3.2,0,0,0,249,65.6Z"/><path class="c" d="M260,68.8V47.3h4V68.8Z"/><path class="c" d="M269.5,52.1l-1-.2-.8-.5a3.5,3.5,0,0,1-.5-.8,1.8,1.8,0,0,1-.2-1,1.6,1.6,0,0,1,.2-1,2.2,2.2,0,0,1,.5-.8l.8-.5a1.8,1.8,0,0,1,1-.2,2.4,2.4,0,0,1,1.8.7,2.4,2.4,0,0,1,0,3.6A2.4,2.4,0,0,1,269.5,52.1Zm-1.9,16.7V54.1h3.9V68.8Z"/><path class="c" d="M278.8,56h.2a6.6,6.6,0,0,1,1.9-1.8,5.3,5.3,0,0,1,2.6-.6,8.7,8.7,0,0,1,2.5.4,7.6,7.6,0,0,1,1.7,1.3,6.3,6.3,0,0,1,1,2,10.1,10.1,0,0,1,.4,2.6v8.9h-4V60.4a3.3,3.3,0,0,0-.7-2.4,2.5,2.5,0,0,0-2-.8,2.6,2.6,0,0,0-1.5.4,2.8,2.8,0,0,0-1,.9,6.1,6.1,0,0,0-.7,1.4,8.8,8.8,0,0,0-.2,1.7v7.2h-3.9V54.1h3.7Z"/><path class="c" d="M298.9,75.7a7.7,7.7,0,0,1-2.7-.4,6.4,6.4,0,0,1-2.2-1,6.7,6.7,0,0,1-1.5-1.4,4.8,4.8,0,0,1-.8-1.6l3.7-1.5a3.7,3.7,0,0,0,1.4,1.8,3.8,3.8,0,0,0,2.1.7,3.9,3.9,0,0,0,3-1.2,5.3,5.3,0,0,0,1-3.4v-1h-.2a4.3,4.3,0,0,1-1.8,1.5,5.7,5.7,0,0,1-2.7.6,5.7,5.7,0,0,1-2.5-.6,4.8,4.8,0,0,1-2.2-1.5,6,6,0,0,1-1.6-2.4,7.5,7.5,0,0,1-.6-3.1,7.8,7.8,0,0,1,.6-3.1,8,8,0,0,1,3.8-4,7.4,7.4,0,0,1,2.5-.5,5.7,5.7,0,0,1,2.7.6,4.3,4.3,0,0,1,1.8,1.5h.2V54.1h3.8V67.7a9,9,0,0,1-.6,3.4,7.2,7.2,0,0,1-1.6,2.5,6.7,6.7,0,0,1-2.4,1.6A8.3,8.3,0,0,1,298.9,75.7Zm.2-10.5a3.4,3.4,0,0,0,1.4-.2,3.6,3.6,0,0,0,1.2-.8,3,3,0,0,0,.9-1.3,4.3,4.3,0,0,0,.3-1.7,4.7,4.7,0,0,0-.3-1.7,3,3,0,0,0-.9-1.3,2.5,2.5,0,0,0-1.2-.8,3.5,3.5,0,0,0-1.4-.3,3.2,3.2,0,0,0-1.4.3,3.5,3.5,0,0,0-1.3.8,5.7,5.7,0,0,0-.8,1.3,3.3,3.3,0,0,0-.4,1.7,3.1,3.1,0,0,0,.4,1.7,4.1,4.1,0,0,0,.8,1.3,5.7,5.7,0,0,0,1.3.8A3.2,3.2,0,0,0,299.1,65.2Z"/><rect x="779" y="249" width="57" height="5"/><rect x="779" y="390" width="57" height="5"/><path d="M847.6,483.9a11.9,11.9,0,0,1-2.9-.4,9,9,0,0,1-2.2-1.1,7.8,7.8,0,0,1-1.6-1.5,5.4,5.4,0,0,1-1-1.8l4-1.7a4.2,4.2,0,0,0,1.5,1.9,4.4,4.4,0,0,0,2.2.7,3.6,3.6,0,0,0,1.9-.5c.5-.3.7-.6.7-1a1.4,1.4,0,0,0-.6-1.2,7.3,7.3,0,0,0-2-.7l-2.4-.5-1.6-.6a6,6,0,0,1-1.5-.9,7.6,7.6,0,0,1-1.1-1.4,4.1,4.1,0,0,1-.5-1.9,4,4,0,0,1,.6-2.2,4.3,4.3,0,0,1,1.4-1.6,5,5,0,0,1,2.2-1,7.5,7.5,0,0,1,2.6-.4,10,10,0,0,1,4.3.9,6.1,6.1,0,0,1,2.7,3l-3.8,1.6a2.7,2.7,0,0,0-1.4-1.4,4.1,4.1,0,0,0-1.8-.5,3.1,3.1,0,0,0-1.7.4c-.5.3-.7.6-.7,1a1,1,0,0,0,.6.9,3.4,3.4,0,0,0,1.6.6l2.6.7a6.8,6.8,0,0,1,3.7,1.9,4.4,4.4,0,0,1,1.3,3.2,5.4,5.4,0,0,1-.5,2.1,5.9,5.9,0,0,1-1.5,1.7,6.6,6.6,0,0,1-2.2,1.2A9.3,9.3,0,0,1,847.6,483.9Z"/><path d="M873.3,479.3a8.2,8.2,0,0,1-3.1,3.3,8.9,8.9,0,0,1-4.7,1.3,10.5,10.5,0,0,1-3.6-.7,8.7,8.7,0,0,1-2.8-1.9,6.8,6.8,0,0,1-1.8-2.8,7.8,7.8,0,0,1-.7-3.5,7.7,7.7,0,0,1,.7-3.4,8.4,8.4,0,0,1,4.5-4.8,9.9,9.9,0,0,1,3.5-.7,8.6,8.6,0,0,1,3.6.7,6.8,6.8,0,0,1,2.6,1.8,8.5,8.5,0,0,1,1.6,2.8,12.3,12.3,0,0,1,.5,3.5V476H861a4.8,4.8,0,0,0,.6,1.8,5.8,5.8,0,0,0,1,1.2,6.1,6.1,0,0,0,1.4.7l1.5.2a4.4,4.4,0,0,0,2.6-.7,4.1,4.1,0,0,0,1.5-1.7Zm-4-6.5a1.6,1.6,0,0,0-.3-.9l-.7-1.1-1.3-.7a4,4,0,0,0-1.7-.3,3.6,3.6,0,0,0-2.5.8,4.5,4.5,0,0,0-1.6,2.2Z"/><path d="M876.5,466.7h4.2V469h.2l.8-1.2,1.2-.8,1.3-.7,1.5-.2,1.5.2,1.1.5-1.2,4-.9-.4H885a3.3,3.3,0,0,0-1.7.4,4.1,4.1,0,0,0-1.3,1,5.3,5.3,0,0,0-.8,1.5,5.8,5.8,0,0,0-.3,1.9v8.2h-4.4Z"/><path d="M888.9,466.7H894l4.1,10.6h.2l4.2-10.6h5.1l-7.2,16.6H896Z"/><path d="M924.9,479.3a8.5,8.5,0,0,1-3.2,3.3,8.7,8.7,0,0,1-4.7,1.3,9.5,9.5,0,0,1-3.5-.7,8.1,8.1,0,0,1-2.9-1.9,8,8,0,0,1-1.8-2.8,9.5,9.5,0,0,1-.7-3.5,7.7,7.7,0,0,1,.7-3.4,8.4,8.4,0,0,1,4.5-4.8,9.9,9.9,0,0,1,3.5-.7,8.6,8.6,0,0,1,3.6.7,6.8,6.8,0,0,1,2.6,1.8,8.5,8.5,0,0,1,1.6,2.8,12.3,12.3,0,0,1,.5,3.5V476H912.5a4.8,4.8,0,0,0,.6,1.8,5.8,5.8,0,0,0,1,1.2l1.4.7,1.5.2a4.2,4.2,0,0,0,2.6-.7,5.2,5.2,0,0,0,1.6-1.7Zm-4.1-6.5a1.6,1.6,0,0,0-.3-.9,3.4,3.4,0,0,0-.7-1.1l-1.2-.7a4.8,4.8,0,0,0-1.8-.3,3.6,3.6,0,0,0-2.5.8,3.8,3.8,0,0,0-1.5,2.2Z"/><path d="M928,466.7h4.2V469h.2a4.7,4.7,0,0,1,.9-1.2l1.1-.8a6.1,6.1,0,0,1,1.4-.7l1.4-.2,1.5.2,1.1.5-1.2,4-.9-.4h-1.2a3.3,3.3,0,0,0-1.7.4,4.1,4.1,0,0,0-1.3,1,5.3,5.3,0,0,0-.8,1.5,5.8,5.8,0,0,0-.3,1.9v8.2H928Z"/><path class="c" d="M385.2,56.7h3.1L393.7,71h-3l-1.2-3.4H384L382.8,71h-3Zm3.4,8.4-1.2-3.6-.6-1.7h-.1l-.5,1.7-1.3,3.6Z"/><path class="c" d="M398.1,59.2v3.3h5.7v2.6h-5.7v3.3h6.3V71h-9V56.7h9v2.5Z"/><path class="c" d="M411.3,71.3a5.7,5.7,0,0,1-1.8-.3,5.1,5.1,0,0,1-1.5-.7,5.7,5.7,0,0,1-2-3.1l2.5-1a3.5,3.5,0,0,0,1,1.8,2.4,2.4,0,0,0,1.8.7h.8l.7-.3.5-.5a1.9,1.9,0,0,0,.2-.8,1.7,1.7,0,0,0-.1-.7l-.5-.6a1.9,1.9,0,0,0-.9-.5l-1.3-.6-.9-.3-1.1-.5-1.1-.8a5,5,0,0,1-.8-1.2,3.2,3.2,0,0,1-.3-1.4,4.1,4.1,0,0,1,.3-1.6,6.4,6.4,0,0,1,1-1.3,4.2,4.2,0,0,1,1.4-.9,5.8,5.8,0,0,1,1.9-.3,5.4,5.4,0,0,1,1.9.3,4.1,4.1,0,0,1,1.3.8,2.8,2.8,0,0,1,.9,1,2.4,2.4,0,0,1,.5,1l-2.4,1a1.9,1.9,0,0,0-.7-1.1,2,2,0,0,0-1.4-.5,2.4,2.4,0,0,0-1.5.4,1.3,1.3,0,0,0,0,2.2,5.9,5.9,0,0,0,1.8.9l.9.3,1.5.6,1.3,1a2.4,2.4,0,0,1,.7,1.2,4.1,4.1,0,0,1,.3,1.6,3.8,3.8,0,0,1-.4,1.9,4.1,4.1,0,0,1-1.2,1.4,4.6,4.6,0,0,1-1.6.7A5.1,5.1,0,0,1,411.3,71.3Z"/><path class="c" d="M418.1,63.6h6.8v2.3h-6.8Z"/><path class="c" d="M426.9,71V68.6l2.2-2.2.9-.8a6,6,0,0,1,.8-.8,4.6,4.6,0,0,1,.7-.7l.4-.5.6-.7a2.1,2.1,0,0,0,.4-.6,1.4,1.4,0,0,0,.2-.6,1.3,1.3,0,0,0,.1-.6,2.1,2.1,0,0,0-.5-1.2,2.1,2.1,0,0,0-1.4-.4,1.6,1.6,0,0,0-1.4.5,1.9,1.9,0,0,0-.7,1.1l-2.4-1,.5-1.1.9-1,1.4-.7a4.7,4.7,0,0,1,1.7-.3,5.8,5.8,0,0,1,1.9.3l1.4.8a3.8,3.8,0,0,1,.9,1.3,4.1,4.1,0,0,1,.3,1.6,4.6,4.6,0,0,1-.6,2.3,9.5,9.5,0,0,1-1.5,2L431.9,67l-1.5,1.6H436V71Z"/><path class="c" d="M442.6,71.3l-1.6-.2a6.1,6.1,0,0,1-1.4-.7,4.6,4.6,0,0,1-1.2-1.2,5.9,5.9,0,0,1-.7-1.6l2.4-.9a3,3,0,0,0,.8,1.6,2.5,2.5,0,0,0,1.6.6l.9-.2.8-.5a1.6,1.6,0,0,0,.4-.7,2.1,2.1,0,0,0,0-1.8,1.6,1.6,0,0,0-.4-.7l-.7-.5h-1a2.2,2.2,0,0,0-1.1.2l-.8.7-2.5-1.2.8-6.8h7.7v2.3h-5.5l-.6,3.2h.2l1-.5a2.9,2.9,0,0,1,1.4-.3,4.1,4.1,0,0,1,1.6.3,5.2,5.2,0,0,1,2.4,2.4,6.2,6.2,0,0,1,0,3.8,5.6,5.6,0,0,1-1,1.5,5.1,5.1,0,0,1-1.6.9A4.1,4.1,0,0,1,442.6,71.3Z"/><path class="c" d="M454.8,62.2a4,4,0,0,1,1.5.3l1.4.9a6.7,6.7,0,0,1,.9,1.4,5.7,5.7,0,0,1,.3,1.8,4.1,4.1,0,0,1-.4,1.9,4,4,0,0,1-1,1.5,5.1,5.1,0,0,1-1.6.9,3.7,3.7,0,0,1-1.8.4,4.5,4.5,0,0,1-2-.4l-1.6-1-1-1.5a5.8,5.8,0,0,1-.3-1.9,7,7,0,0,1,.5-2.5l1.4-2.3,3.3-4.7,2.1,1.4-2.8,3.9h.1Zm-.7,6.7.8-.2.8-.4.5-.7a2.9,2.9,0,0,0,.2-.9,3,3,0,0,0-.2-1l-.5-.7-.8-.4-.8-.2-.9.2-.7.4c-.3.2-.4.5-.6.7a3,3,0,0,0-.2,1,2.9,2.9,0,0,0,.2.9c.2.2.3.5.6.7l.7.4Z"/><rect class="c" x="410.5" y="79" width="5" height="38.5"/><rect class="c" x="410.5" y="113" width="5" height="5"/><path class="c" d="M295.7,478.6a8.9,8.9,0,0,1-3,3.4,8.4,8.4,0,0,1-4.9,1.4,7.8,7.8,0,0,1-3.5-.7,7.5,7.5,0,0,1-2.8-1.8,10.7,10.7,0,0,1-1.9-2.8,11.1,11.1,0,0,1,0-7.2,10.7,10.7,0,0,1,1.9-2.8,9,9,0,0,1,2.8-1.8,9.5,9.5,0,0,1,3.5-.7,8.4,8.4,0,0,1,4.9,1.4,7.4,7.4,0,0,1,2.9,3.4l-4.1,1.7a4.5,4.5,0,0,0-1.5-1.8,3.8,3.8,0,0,0-2.2-.6,4.7,4.7,0,0,0-1.7.4,4.2,4.2,0,0,0-1.4.9,3.8,3.8,0,0,0-.9,1.5,5.2,5.2,0,0,0,0,4,3.8,3.8,0,0,0,.9,1.5,4.2,4.2,0,0,0,1.4.9,3.3,3.3,0,0,0,1.7.4,3.5,3.5,0,0,0,2.3-.7,4,4,0,0,0,1.6-1.8Z"/><path class="c" d="M298.5,482.8V458.5h4.4v24.3Z"/><path class="c" d="M309.2,463.9a2.2,2.2,0,0,1-1.1-.2,1.8,1.8,0,0,1-.9-.6,2.4,2.4,0,0,1-.6-.9,3.1,3.1,0,0,1,0-2.2,1.5,1.5,0,0,1,.6-.9,3.1,3.1,0,0,1,.9-.7l1.1-.2a2.9,2.9,0,0,1,2.1.9,2.8,2.8,0,0,1,.8,2,3,3,0,0,1-.8,2A2.8,2.8,0,0,1,309.2,463.9ZM307,482.8V466.2h4.5v16.6Z"/><path class="c" d="M331.1,478.8a8.2,8.2,0,0,1-3.1,3.3,8.1,8.1,0,0,1-4.7,1.3,8.6,8.6,0,0,1-3.6-.7,7.8,7.8,0,0,1-4.6-4.6,8.6,8.6,0,0,1-.7-3.6,8,8,0,0,1,.7-3.4,7.5,7.5,0,0,1,1.8-2.8,7.9,7.9,0,0,1,2.7-2,9.9,9.9,0,0,1,3.5-.7,10.5,10.5,0,0,1,3.6.7,8.1,8.1,0,0,1,2.6,1.8,8.5,8.5,0,0,1,1.6,2.8,12.9,12.9,0,0,1,.5,3.5v.8c0,.1-.1.2-.1.3H318.8a4.8,4.8,0,0,0,.6,1.8,2.9,2.9,0,0,0,1,1.2,3.7,3.7,0,0,0,1.4.7,3.9,3.9,0,0,0,1.5.2,4.4,4.4,0,0,0,2.6-.7,5,5,0,0,0,1.5-1.7Zm-4-6.4a1.9,1.9,0,0,0-.3-1,3.6,3.6,0,0,0-.7-1,3.5,3.5,0,0,0-1.3-.8,4.3,4.3,0,0,0-1.7-.3,3.6,3.6,0,0,0-2.5.8,3.9,3.9,0,0,0-1.6,2.3Z"/><path class="c" d="M338.5,468.4h.2a5.1,5.1,0,0,1,2.1-2,6.2,6.2,0,0,1,3.1-.8,7.6,7.6,0,0,1,2.7.5,6.2,6.2,0,0,1,2,1.5,5.7,5.7,0,0,1,1.1,2.2,9.2,9.2,0,0,1,.4,2.9v10.1h-4.4v-9.5a4.1,4.1,0,0,0-.8-2.7,3.1,3.1,0,0,0-2.4-.9,4.2,4.2,0,0,0-1.6.4l-1.2,1.1a3.9,3.9,0,0,0-.7,1.6,5.8,5.8,0,0,0-.3,1.9v8.1h-4.4V466.2h4.2Z"/><path class="c" d="M354.8,470h-3v-3.8h3v-5.1h4.4v5.1h4.1V470h-4.1v6.6c0,.4.1.8.1,1.1a1.9,1.9,0,0,0,.5.9,1.7,1.7,0,0,0,1.4.6l.9-.2a.9.9,0,0,0,.6-.3l1.3,3.9a4.9,4.9,0,0,1-1.7.6l-2,.2a5.1,5.1,0,0,1-2.2-.4,4.2,4.2,0,0,1-1.7-1.1,5.8,5.8,0,0,1-1.6-4.5Z"/><path class="c" d="M374,458.5h4.5v7.3l-.3,2.4h.3a4.7,4.7,0,0,1,1.9-1.8,6.3,6.3,0,0,1,3.2-.8,7.3,7.3,0,0,1,3,.7,8.1,8.1,0,0,1,2.6,1.8,10,10,0,0,1,1.7,2.8,9.6,9.6,0,0,1,0,7.2,8.8,8.8,0,0,1-1.7,2.8,6.8,6.8,0,0,1-2.6,1.8,6,6,0,0,1-3,.7,6.3,6.3,0,0,1-3.2-.8,4.7,4.7,0,0,1-1.9-1.8h-.3v2H374Zm8.7,20.8a3.5,3.5,0,0,0,1.7-.4,4.2,4.2,0,0,0,1.4-.9,5.6,5.6,0,0,0,1-1.5,6.8,6.8,0,0,0,0-4,5.6,5.6,0,0,0-1-1.5,4.2,4.2,0,0,0-1.4-.9,5.3,5.3,0,0,0-1.7-.4,4.7,4.7,0,0,0-1.7.4,4.2,4.2,0,0,0-1.4.9,5.6,5.6,0,0,0-1,1.5,6.5,6.5,0,0,0-.4,2,5.9,5.9,0,0,0,.4,2,5.6,5.6,0,0,0,1,1.5,4.2,4.2,0,0,0,1.4.9A3.3,3.3,0,0,0,382.7,479.3Z"/><path class="c" d="M394.1,466.2h4.2v2.3h.3a2.8,2.8,0,0,1,.8-1.1,3.1,3.1,0,0,1,1.1-.9,7.6,7.6,0,0,1,2.8-.9l1.5.2,1.1.5-1.2,4-.9-.3h-1.2a4.7,4.7,0,0,0-1.7.3,2.9,2.9,0,0,0-1.2,1,3.7,3.7,0,0,0-.8,1.5,6.3,6.3,0,0,0-.3,1.9v8.2h-4.5Z"/><path class="c" d="M414.8,465.6a10.5,10.5,0,0,1,3.6.7,10.3,10.3,0,0,1,2.8,1.8,13.4,13.4,0,0,1,1.8,2.8,9.6,9.6,0,0,1,0,7.2,11.2,11.2,0,0,1-1.8,2.8,8.4,8.4,0,0,1-2.8,1.8,8.6,8.6,0,0,1-3.6.7,7.8,7.8,0,0,1-3.5-.7,7.5,7.5,0,0,1-2.8-1.8,9.2,9.2,0,0,1-1.9-2.8,11.1,11.1,0,0,1,0-7.2,10.7,10.7,0,0,1,1.9-2.8,9,9,0,0,1,2.8-1.8A9.5,9.5,0,0,1,414.8,465.6Zm0,13.7a3.5,3.5,0,0,0,1.7-.4,4.2,4.2,0,0,0,1.4-.9,3.8,3.8,0,0,0,.9-1.5,4.2,4.2,0,0,0,.4-2,4.5,4.5,0,0,0-.4-2,3.8,3.8,0,0,0-.9-1.5,4.2,4.2,0,0,0-1.4-.9,3.8,3.8,0,0,0-3.4,0,3.8,3.8,0,0,0-1.3.9,3.1,3.1,0,0,0-1,1.5,4.5,4.5,0,0,0-.4,2,4.2,4.2,0,0,0,.4,2,3.1,3.1,0,0,0,1,1.5,3.8,3.8,0,0,0,1.3.9A3.5,3.5,0,0,0,414.8,479.3Z"/><path class="c" d="M424.4,466.2h5l2.8,10.4h.2l3.3-10.4h4.6l3.3,10.4h.2l2.8-10.4h4.9l-5.3,16.6h-4.8L438,472.3h-.2l-3.3,10.5h-4.8Z"/><path class="c" d="M460.1,483.4a12.7,12.7,0,0,1-2.9-.4,11.3,11.3,0,0,1-2.2-1.1,6,6,0,0,1-2.5-3.3l3.9-1.7a3.8,3.8,0,0,0,1.6,1.9,3.1,3.1,0,0,0,2.1.7,3.7,3.7,0,0,0,2-.5c.4-.3.7-.6.7-1a1.3,1.3,0,0,0-.6-1.1,5.4,5.4,0,0,0-2.1-.8l-2.3-.5-1.6-.5a5.6,5.6,0,0,1-1.5-1,4.1,4.1,0,0,1-1.2-1.4,3.8,3.8,0,0,1-.4-1.9,5.4,5.4,0,0,1,.5-2.2,7.5,7.5,0,0,1,1.5-1.6,6.8,6.8,0,0,1,2.1-1,11.7,11.7,0,0,1,2.7-.4,8.2,8.2,0,0,1,4.2,1,5.7,5.7,0,0,1,2.8,2.9l-3.8,1.6a3.8,3.8,0,0,0-1.4-1.4,4.5,4.5,0,0,0-1.9-.5,3.8,3.8,0,0,0-1.6.4c-.5.3-.8.6-.8,1a1.2,1.2,0,0,0,.6,1l1.7.6,2.5.6a7.2,7.2,0,0,1,3.8,1.9,4.7,4.7,0,0,1,1.2,3.2,4.1,4.1,0,0,1-.5,2.1,5.5,5.5,0,0,1-1.4,1.7,7.1,7.1,0,0,1-2.3,1.2A8.4,8.4,0,0,1,460.1,483.4Z"/><path class="c" d="M485.9,478.8a9,9,0,0,1-3.1,3.3,8.2,8.2,0,0,1-4.8,1.3,8.1,8.1,0,0,1-3.5-.7,7.5,7.5,0,0,1-2.8-1.8,10.7,10.7,0,0,1-1.9-2.8,10.5,10.5,0,0,1-.6-3.6,9.7,9.7,0,0,1,.6-3.4,11.2,11.2,0,0,1,1.8-2.8,9.5,9.5,0,0,1,2.8-2,9.4,9.4,0,0,1,3.4-.7,9.6,9.6,0,0,1,3.6.7,7.2,7.2,0,0,1,4.2,4.6,9.9,9.9,0,0,1,.6,3.5v.4c0,.1-.1.2-.1.4v.3H473.6a4.8,4.8,0,0,0,.5,1.8,4.3,4.3,0,0,0,1.1,1.2,3.7,3.7,0,0,0,1.4.7,5.1,5.1,0,0,0,4-.5,4.4,4.4,0,0,0,1.6-1.7Zm-4-6.4-.3-1a4.4,4.4,0,0,0-2-1.8,4.8,4.8,0,0,0-1.8-.3,3.9,3.9,0,0,0-2.5.8,4.2,4.2,0,0,0-1.5,2.3Z"/><path class="c" d="M489,466.2h4.2v2.3h.3a4.4,4.4,0,0,1,.8-1.1,3.1,3.1,0,0,1,1.1-.9,4.2,4.2,0,0,1,1.4-.6l1.4-.3,1.6.2,1,.5-1.2,4-.9-.3h-1.2a4.1,4.1,0,0,0-1.6.3,3.2,3.2,0,0,0-1.3,1,5.5,5.5,0,0,0-.8,1.5,6.3,6.3,0,0,0-.3,1.9v8.2H489Z"/></svg>