<?xml version="1.0" encoding="utf-8"?>
<!-- Generator: Adobe Illustrator 24.1.2, SVG Export Plug-In . SVG Version: 6.00 Build 0)  -->
<svg version="1.2" baseProfile="tiny" xmlns="http://www.w3.org/2000/svg" xmlns:xlink="http://www.w3.org/1999/xlink" x="0px"
	 y="0px" viewBox="0 0 1000 1000" overflow="visible" xml:space="preserve">
<g id="Layer_4">
</g>
<g id="Layer_1">
</g>
<g id="Layer_2">
</g>
<g id="Layer_3">
	<rect width="1000" height="1000"/>
	<g>
		<g>
			<path fill="#FFFFFF" d="M183.2,690.9h5.5v9l-0.3,2.9h0.3c0.5-0.9,1.3-1.6,2.4-2.2c1.1-0.6,2.4-0.9,4-0.9c1.3,0,2.6,0.3,3.8,0.8
				s2.2,1.3,3.2,2.3c0.9,1,1.6,2.1,2.2,3.5c0.5,1.3,0.8,2.8,0.8,4.4s-0.3,3.1-0.8,4.4c-0.5,1.3-1.3,2.5-2.2,3.5
				c-0.9,1-2,1.7-3.2,2.3c-1.2,0.5-2.4,0.8-3.8,0.8c-1.6,0-2.9-0.3-4-0.9c-1.1-0.6-1.8-1.4-2.4-2.2h-0.3v2.5h-5.2V690.9z
				 M193.8,716.5c0.7,0,1.4-0.1,2.1-0.4s1.2-0.7,1.7-1.2c0.5-0.5,0.9-1.1,1.2-1.8c0.3-0.7,0.5-1.5,0.5-2.4s-0.2-1.7-0.5-2.4
				c-0.3-0.7-0.7-1.3-1.2-1.8c-0.5-0.5-1.1-0.9-1.7-1.2s-1.4-0.4-2.1-0.4s-1.4,0.1-2.1,0.4c-0.7,0.3-1.2,0.7-1.7,1.2
				c-0.5,0.5-0.9,1.1-1.2,1.8c-0.3,0.7-0.5,1.6-0.5,2.5c0,0.9,0.2,1.8,0.5,2.5c0.3,0.7,0.7,1.3,1.2,1.8c0.5,0.5,1.1,0.9,1.7,1.2
				C192.4,716.4,193.1,716.5,193.8,716.5z"/>
			<path fill="#FFFFFF" d="M207.9,700.4h5.2v2.9h0.3c0.3-0.5,0.6-1,1-1.4c0.4-0.4,0.9-0.8,1.4-1.1c0.5-0.3,1.1-0.6,1.7-0.8
				c0.6-0.2,1.2-0.3,1.8-0.3c0.7,0,1.4,0.1,1.9,0.2c0.5,0.2,1,0.4,1.3,0.6l-1.5,4.9c-0.3-0.2-0.7-0.3-1.1-0.4
				c-0.4-0.1-0.9-0.1-1.5-0.1c-0.8,0-1.4,0.1-2.1,0.4c-0.6,0.3-1.1,0.7-1.6,1.2s-0.8,1.2-1,1.9c-0.2,0.7-0.4,1.5-0.4,2.3v10.1h-5.5
				V700.4z"/>
			<path fill="#FFFFFF" d="M233.5,699.7c1.6,0,3.1,0.3,4.4,0.8c1.3,0.5,2.5,1.3,3.4,2.3c1,1,1.7,2.1,2.3,3.5
				c0.5,1.3,0.8,2.8,0.8,4.4s-0.3,3.1-0.8,4.4c-0.5,1.3-1.3,2.5-2.3,3.5c-1,1-2.1,1.7-3.4,2.3c-1.3,0.5-2.8,0.8-4.4,0.8
				s-3.1-0.3-4.4-0.8c-1.3-0.5-2.5-1.3-3.4-2.3c-1-1-1.7-2.1-2.3-3.5s-0.8-2.8-0.8-4.4s0.3-3.1,0.8-4.4c0.5-1.3,1.3-2.5,2.3-3.5
				c1-1,2.1-1.7,3.4-2.3C230.5,700,231.9,699.7,233.5,699.7z M233.5,716.5c0.7,0,1.4-0.1,2-0.4c0.7-0.3,1.2-0.7,1.7-1.2
				c0.5-0.5,0.9-1.1,1.2-1.8c0.3-0.7,0.4-1.6,0.4-2.5c0-0.9-0.1-1.8-0.4-2.5c-0.3-0.7-0.7-1.3-1.2-1.8c-0.5-0.5-1.1-0.9-1.7-1.2
				c-0.7-0.3-1.3-0.4-2-0.4c-0.7,0-1.4,0.1-2.1,0.4c-0.6,0.3-1.2,0.7-1.7,1.2c-0.5,0.5-0.9,1.1-1.2,1.8c-0.3,0.7-0.4,1.6-0.4,2.5
				c0,0.9,0.1,1.8,0.4,2.5c0.3,0.7,0.7,1.3,1.2,1.8c0.5,0.5,1.1,0.9,1.7,1.2C232.1,716.4,232.8,716.5,233.5,716.5z"/>
			<path fill="#FFFFFF" d="M245.4,700.4h6.2l3.4,12.9h0.3l4.1-12.9h5.7l4.1,12.9h0.3l3.4-12.9h6.1l-6.6,20.6h-5.9l-4.1-13h-0.3
				l-4.1,13H252L245.4,700.4z"/>
			<path fill="#FFFFFF" d="M289.6,721.6c-1.3,0-2.5-0.2-3.6-0.5c-1-0.3-2-0.8-2.7-1.3c-0.8-0.5-1.4-1.2-2-1.9
				c-0.5-0.7-0.9-1.4-1.2-2.2l4.9-2.1c0.5,1.1,1.1,1.9,1.9,2.4c0.8,0.5,1.7,0.8,2.7,0.8c1,0,1.8-0.2,2.4-0.5
				c0.6-0.4,0.9-0.8,0.9-1.3c0-0.6-0.2-1-0.7-1.4c-0.5-0.3-1.3-0.7-2.5-0.9l-2.9-0.6c-0.6-0.1-1.3-0.4-2-0.7
				c-0.7-0.3-1.3-0.7-1.9-1.2c-0.6-0.5-1-1-1.4-1.7c-0.4-0.7-0.5-1.5-0.5-2.4c0-1,0.2-1.9,0.7-2.7c0.4-0.8,1-1.4,1.8-2
				c0.8-0.5,1.6-1,2.7-1.3c1-0.3,2.1-0.4,3.3-0.4c2,0,3.7,0.4,5.3,1.2c1.5,0.8,2.7,2,3.4,3.7l-4.7,1.9c-0.4-0.8-1-1.4-1.7-1.8
				c-0.8-0.4-1.5-0.5-2.3-0.5c-0.8,0-1.5,0.2-2.1,0.5c-0.6,0.3-0.9,0.7-0.9,1.2c0,0.5,0.2,0.9,0.7,1.1c0.5,0.3,1.2,0.5,2,0.8
				l3.2,0.8c2.1,0.5,3.7,1.3,4.7,2.4c1,1.1,1.5,2.4,1.5,3.9c0,0.9-0.2,1.8-0.6,2.6c-0.4,0.8-1,1.5-1.8,2.2c-0.8,0.6-1.7,1.1-2.8,1.5
				C292.1,721.4,290.9,721.6,289.6,721.6z"/>
			<path fill="#FFFFFF" d="M321.4,716c-1,1.7-2.2,3-3.8,4.1s-3.6,1.6-5.9,1.6c-1.6,0-3-0.3-4.3-0.8c-1.3-0.5-2.5-1.3-3.5-2.3
				c-1-1-1.7-2.1-2.3-3.5c-0.5-1.3-0.8-2.8-0.8-4.4c0-1.5,0.3-2.9,0.8-4.2c0.5-1.3,1.3-2.5,2.2-3.5c1-1,2.1-1.8,3.4-2.4
				c1.3-0.6,2.7-0.9,4.3-0.9c1.7,0,3.1,0.3,4.4,0.8c1.3,0.5,2.4,1.3,3.2,2.3c0.9,1,1.5,2.1,2,3.4c0.4,1.3,0.7,2.7,0.7,4.3
				c0,0.2,0,0.4,0,0.5c0,0.2,0,0.3,0,0.5c0,0.1,0,0.3,0,0.5h-15.5c0.1,0.8,0.3,1.6,0.7,2.2c0.3,0.6,0.8,1.1,1.3,1.5
				c0.5,0.4,1.1,0.7,1.7,0.9c0.6,0.2,1.2,0.3,1.9,0.3c1.3,0,2.3-0.3,3.1-0.9s1.5-1.3,2-2.2L321.4,716z M316.4,708
				c0-0.4-0.1-0.8-0.4-1.2s-0.5-0.9-0.9-1.3c-0.4-0.4-0.9-0.7-1.5-1c-0.6-0.3-1.3-0.4-2.2-0.4c-1.2,0-2.2,0.3-3.1,1
				c-0.9,0.7-1.5,1.6-1.9,2.8H316.4z"/>
			<path fill="#FFFFFF" d="M325.3,700.4h5.2v2.9h0.3c0.3-0.5,0.6-1,1-1.4c0.4-0.4,0.9-0.8,1.4-1.1c0.5-0.3,1.1-0.6,1.7-0.8
				c0.6-0.2,1.2-0.3,1.8-0.3c0.7,0,1.4,0.1,1.9,0.2c0.5,0.2,1,0.4,1.3,0.6l-1.5,4.9c-0.3-0.2-0.7-0.3-1.1-0.4
				c-0.4-0.1-0.9-0.1-1.5-0.1c-0.8,0-1.4,0.1-2.1,0.4c-0.6,0.3-1.1,0.7-1.6,1.2s-0.8,1.2-1,1.9c-0.2,0.7-0.4,1.5-0.4,2.3v10.1h-5.5
				V700.4z"/>
		</g>
		<g>
			<path fill="#FFFFFF" d="M764.1,721.6c-1.3,0-2.5-0.2-3.6-0.5c-1-0.3-2-0.8-2.7-1.3c-0.8-0.5-1.4-1.2-2-1.9
				c-0.5-0.7-0.9-1.4-1.2-2.2l4.9-2.1c0.5,1.1,1.1,1.9,1.9,2.4c0.8,0.5,1.7,0.8,2.7,0.8c1,0,1.8-0.2,2.4-0.5
				c0.6-0.4,0.9-0.8,0.9-1.3c0-0.6-0.2-1-0.7-1.4c-0.5-0.3-1.3-0.7-2.5-0.9l-2.9-0.6c-0.6-0.1-1.3-0.4-2-0.7
				c-0.7-0.3-1.3-0.7-1.9-1.2c-0.6-0.5-1-1-1.4-1.7c-0.4-0.7-0.5-1.5-0.5-2.4c0-1,0.2-1.9,0.7-2.7c0.4-0.8,1-1.4,1.8-2
				c0.8-0.5,1.6-1,2.7-1.3c1-0.3,2.1-0.4,3.3-0.4c2,0,3.7,0.4,5.3,1.2c1.5,0.8,2.7,2,3.4,3.7l-4.7,1.9c-0.4-0.8-1-1.4-1.7-1.8
				c-0.8-0.4-1.5-0.5-2.3-0.5c-0.8,0-1.5,0.2-2.1,0.5c-0.6,0.3-0.9,0.7-0.9,1.2c0,0.5,0.2,0.9,0.7,1.1c0.5,0.3,1.2,0.5,2,0.8
				l3.2,0.8c2.1,0.5,3.7,1.3,4.7,2.4c1,1.1,1.5,2.4,1.5,3.9c0,0.9-0.2,1.8-0.6,2.6c-0.4,0.8-1,1.5-1.8,2.2c-0.8,0.6-1.7,1.1-2.8,1.5
				C766.6,721.4,765.4,721.6,764.1,721.6z"/>
			<path fill="#FFFFFF" d="M796,716c-1,1.7-2.2,3-3.8,4.1s-3.6,1.6-5.9,1.6c-1.6,0-3-0.3-4.3-0.8c-1.3-0.5-2.5-1.3-3.5-2.3
				c-1-1-1.7-2.1-2.3-3.5c-0.5-1.3-0.8-2.8-0.8-4.4c0-1.5,0.3-2.9,0.8-4.2c0.5-1.3,1.3-2.5,2.2-3.5c1-1,2.1-1.8,3.4-2.4
				c1.3-0.6,2.7-0.9,4.3-0.9c1.7,0,3.1,0.3,4.4,0.8c1.3,0.5,2.4,1.3,3.2,2.3c0.9,1,1.5,2.1,2,3.4c0.4,1.3,0.7,2.7,0.7,4.3
				c0,0.2,0,0.4,0,0.5c0,0.2,0,0.3,0,0.5c0,0.1,0,0.3,0,0.5h-15.5c0.1,0.8,0.3,1.6,0.7,2.2c0.3,0.6,0.8,1.1,1.3,1.5
				c0.5,0.4,1.1,0.7,1.7,0.9c0.6,0.2,1.2,0.3,1.9,0.3c1.3,0,2.3-0.3,3.1-0.9s1.5-1.3,2-2.2L796,716z M791,708c0-0.4-0.1-0.8-0.4-1.2
				s-0.5-0.9-0.9-1.3c-0.4-0.4-0.9-0.7-1.5-1c-0.6-0.3-1.3-0.4-2.2-0.4c-1.2,0-2.2,0.3-3.1,1c-0.9,0.7-1.5,1.6-1.9,2.8H791z"/>
			<path fill="#FFFFFF" d="M799.8,700.4h5.2v2.9h0.3c0.3-0.5,0.6-1,1-1.4c0.4-0.4,0.9-0.8,1.4-1.1c0.5-0.3,1.1-0.6,1.7-0.8
				c0.6-0.2,1.2-0.3,1.8-0.3c0.7,0,1.4,0.1,1.9,0.2c0.5,0.2,1,0.4,1.3,0.6l-1.5,4.9c-0.3-0.2-0.7-0.3-1.1-0.4
				c-0.4-0.1-0.9-0.1-1.5-0.1c-0.8,0-1.4,0.1-2.1,0.4c-0.6,0.3-1.1,0.7-1.6,1.2s-0.8,1.2-1,1.9c-0.2,0.7-0.4,1.5-0.4,2.3v10.1h-5.5
				V700.4z"/>
			<path fill="#FFFFFF" d="M815.2,700.4h6.3l5.1,13.1h0.3l5.2-13.1h6.2l-8.9,20.6h-5.4L815.2,700.4z"/>
			<path fill="#FFFFFF" d="M859.6,716c-1,1.7-2.2,3-3.8,4.1s-3.6,1.6-5.9,1.6c-1.6,0-3-0.3-4.3-0.8c-1.3-0.5-2.5-1.3-3.5-2.3
				c-1-1-1.7-2.1-2.3-3.5c-0.5-1.3-0.8-2.8-0.8-4.4c0-1.5,0.3-2.9,0.8-4.2c0.5-1.3,1.3-2.5,2.2-3.5c1-1,2.1-1.8,3.4-2.4
				c1.3-0.6,2.7-0.9,4.3-0.9c1.7,0,3.1,0.3,4.4,0.8c1.3,0.5,2.4,1.3,3.2,2.3c0.9,1,1.5,2.1,2,3.4c0.4,1.3,0.7,2.7,0.7,4.3
				c0,0.2,0,0.4,0,0.5c0,0.2,0,0.3,0,0.5c0,0.1,0,0.3,0,0.5h-15.5c0.1,0.8,0.3,1.6,0.7,2.2c0.3,0.6,0.8,1.1,1.3,1.5
				c0.5,0.4,1.1,0.7,1.7,0.9c0.6,0.2,1.2,0.3,1.9,0.3c1.3,0,2.3-0.3,3.1-0.9s1.5-1.3,2-2.2L859.6,716z M854.6,708
				c0-0.4-0.1-0.8-0.4-1.2s-0.5-0.9-0.9-1.3c-0.4-0.4-0.9-0.7-1.5-1c-0.6-0.3-1.3-0.4-2.2-0.4c-1.2,0-2.2,0.3-3.1,1
				c-0.9,0.7-1.5,1.6-1.9,2.8H854.6z"/>
			<path fill="#FFFFFF" d="M863.5,700.4h5.2v2.9h0.3c0.3-0.5,0.6-1,1-1.4c0.4-0.4,0.9-0.8,1.4-1.1c0.5-0.3,1.1-0.6,1.7-0.8
				c0.6-0.2,1.2-0.3,1.8-0.3c0.7,0,1.4,0.1,1.9,0.2c0.5,0.2,1,0.4,1.3,0.6l-1.5,4.9c-0.3-0.2-0.7-0.3-1.1-0.4
				c-0.4-0.1-0.9-0.1-1.5-0.1c-0.8,0-1.4,0.1-2.1,0.4c-0.6,0.3-1.1,0.7-1.6,1.2s-0.8,1.2-1,1.9c-0.2,0.7-0.4,1.5-0.4,2.3v10.1h-5.5
				V700.4z"/>
		</g>
		<g>
			<path fill="#FFFF00" d="M502.9,363.7l-1.8-0.3l0.4-2.4l1.8,0.3l0.6-3.2l2.8,0.5l-0.6,3.2l2.6,0.5l-0.4,2.4l-2.6-0.5l-0.8,4.2
				c0,0.3-0.1,0.5-0.1,0.7c0,0.2,0.1,0.4,0.2,0.6c0.2,0.3,0.4,0.4,0.8,0.5c0.2,0,0.4,0.1,0.6,0c0.2,0,0.3-0.1,0.4-0.1l0.3,2.6
				c-0.4,0.1-0.7,0.2-1.1,0.2c-0.4,0-0.8,0-1.3-0.1c-0.5-0.1-1-0.3-1.4-0.5c-0.4-0.2-0.7-0.5-0.9-0.9c-0.6-0.8-0.7-1.8-0.5-3
				L502.9,363.7z"/>
			<path fill="#FFFF00" d="M515.3,373.2l-0.2,0c-0.4,0.3-0.9,0.6-1.4,0.8c-0.5,0.2-1.1,0.2-1.9,0.1c-0.5-0.1-1-0.3-1.5-0.5
				c-0.4-0.3-0.8-0.6-1.1-1c-0.3-0.4-0.5-0.8-0.6-1.3c-0.1-0.5-0.1-1,0-1.5c0.1-0.5,0.3-1,0.6-1.4c0.3-0.4,0.7-0.7,1.1-1
				c0.4-0.2,0.9-0.4,1.5-0.5c0.6-0.1,1.1,0,1.7,0.1c0.7,0.1,1.2,0.3,1.7,0.5c0.4,0.2,0.8,0.4,1,0.5l0.1-0.3c0.1-0.6,0-1.1-0.4-1.5
				c-0.4-0.4-0.9-0.7-1.5-0.8c-1-0.2-1.9,0.1-2.7,0.8l-1.8-1.8c1.4-1.2,3-1.6,4.9-1.3c1.6,0.3,2.8,0.9,3.5,1.8
				c0.7,0.9,0.9,2.1,0.7,3.6l-1.1,6.3l-2.8-0.5L515.3,373.2z M515.8,370c-0.3-0.2-0.6-0.4-0.9-0.6c-0.3-0.2-0.7-0.3-1.1-0.3
				c-0.7-0.1-1.2-0.1-1.6,0.2s-0.7,0.6-0.7,1c-0.1,0.4,0,0.8,0.3,1.1c0.3,0.3,0.7,0.5,1.1,0.6c0.4,0.1,0.7,0.1,1.1,0
				c0.3-0.1,0.6-0.2,0.9-0.4c0.3-0.2,0.5-0.4,0.7-0.7C515.7,370.6,515.8,370.3,515.8,370z"/>
			<path fill="#FFFF00" d="M523.9,381c-0.7-0.1-1.4-0.3-1.9-0.6c-0.5-0.3-1-0.6-1.4-1c-0.4-0.4-0.7-0.8-0.9-1.2
				c-0.2-0.4-0.4-0.8-0.4-1.2l2.9-0.6c0.1,0.6,0.3,1.1,0.8,1.5c0.4,0.4,0.9,0.6,1.4,0.7c0.9,0.2,1.6,0,2.3-0.5
				c0.6-0.5,1-1.2,1.2-2.2l0.1-0.7l-0.2,0c-0.4,0.4-0.9,0.7-1.5,0.8s-1.2,0.2-2,0.1c-0.6-0.1-1.2-0.4-1.8-0.7
				c-0.5-0.4-1-0.8-1.4-1.4c-0.4-0.6-0.6-1.2-0.8-1.9c-0.2-0.7-0.2-1.5,0-2.3c0.1-0.8,0.4-1.5,0.8-2.2c0.4-0.6,0.9-1.1,1.4-1.5
				c0.5-0.4,1.1-0.7,1.8-0.8c0.6-0.1,1.3-0.2,1.9-0.1c0.7,0.1,1.3,0.4,1.8,0.7s0.9,0.8,1.1,1.3l0.2,0l0.2-1.1l2.7,0.5l-1.8,9.7
				c-0.2,0.9-0.4,1.7-0.8,2.3c-0.4,0.7-0.9,1.2-1.5,1.6c-0.6,0.4-1.2,0.7-1.9,0.8C525.5,381.1,524.7,381.1,523.9,381z M525.3,373.5
				c0.3,0.1,0.7,0.1,1,0c0.4-0.1,0.7-0.2,1-0.4c0.3-0.2,0.6-0.5,0.8-0.8c0.2-0.3,0.4-0.7,0.5-1.2s0.1-0.9,0-1.3
				c-0.1-0.4-0.2-0.7-0.5-1c-0.2-0.3-0.5-0.5-0.8-0.7c-0.3-0.2-0.6-0.3-1-0.4c-0.3-0.1-0.7-0.1-1,0s-0.7,0.2-1,0.4
				c-0.3,0.2-0.6,0.5-0.8,0.8c-0.2,0.3-0.4,0.7-0.5,1.2s-0.1,0.9,0,1.3c0.1,0.4,0.2,0.7,0.5,1c0.2,0.3,0.5,0.5,0.8,0.7
				C524.7,373.3,525,373.5,525.3,373.5z"/>
			<path fill="#FFFF00" d="M533.8,371.5l10,1.8l-0.4,2.5l-10-1.8L533.8,371.5z M534.6,367.3l10,1.8l-0.4,2.5l-10-1.8L534.6,367.3z"
				/>
			<path fill="#FFFF00" d="M545,377.3l6.4-4.8l-5.2-0.9l0.4-2.4l8.6,1.6l-0.4,2.3l-6.4,4.8l5.4,1l-0.4,2.4l-8.9-1.6L545,377.3z"/>
			<path fill="#FFFF00" d="M562.1,371.6c0.8,0.1,1.5,0.4,2.2,0.8c0.6,0.4,1.1,0.9,1.5,1.5s0.7,1.2,0.8,2s0.2,1.5,0,2.3
				c-0.1,0.8-0.4,1.5-0.8,2.2c-0.4,0.6-0.9,1.2-1.5,1.6c-0.6,0.4-1.2,0.7-2,0.8c-0.7,0.2-1.5,0.2-2.3,0c-0.8-0.1-1.5-0.4-2.2-0.8
				c-0.6-0.4-1.1-0.9-1.5-1.5c-0.4-0.6-0.7-1.2-0.8-2s-0.2-1.5,0-2.3c0.1-0.8,0.4-1.5,0.8-2.2c0.4-0.6,0.9-1.2,1.5-1.6
				c0.6-0.4,1.2-0.7,2-0.8C560.5,371.5,561.3,371.5,562.1,371.6z M560.5,380.2c0.4,0.1,0.7,0.1,1.1,0c0.4-0.1,0.7-0.2,1-0.4
				c0.3-0.2,0.6-0.5,0.8-0.8c0.2-0.3,0.4-0.8,0.5-1.2s0.1-0.9,0-1.3c-0.1-0.4-0.2-0.7-0.4-1.1c-0.2-0.3-0.5-0.6-0.8-0.7
				c-0.3-0.2-0.6-0.3-1-0.4c-0.4-0.1-0.7-0.1-1.1,0s-0.7,0.2-1,0.4c-0.3,0.2-0.6,0.5-0.8,0.8c-0.2,0.3-0.4,0.8-0.5,1.2
				c-0.1,0.5-0.1,0.9,0,1.3c0.1,0.4,0.2,0.7,0.4,1.1c0.2,0.3,0.5,0.6,0.8,0.7C559.8,380,560.2,380.1,560.5,380.2z"/>
			<path fill="#FFFF00" d="M569.2,373.2l2.6,0.5l-0.3,1.5l0.2,0c0.2-0.2,0.4-0.4,0.6-0.6s0.5-0.3,0.8-0.4c0.3-0.1,0.6-0.2,0.9-0.2
				c0.3,0,0.6,0,0.9,0c0.4,0.1,0.7,0.2,0.9,0.3c0.2,0.1,0.5,0.3,0.6,0.4l-1.2,2.4c-0.2-0.1-0.3-0.2-0.5-0.3
				c-0.2-0.1-0.4-0.2-0.7-0.2c-0.4-0.1-0.7-0.1-1.1,0s-0.6,0.3-0.9,0.5c-0.3,0.2-0.5,0.5-0.7,0.9c-0.2,0.3-0.3,0.7-0.4,1.2l-0.9,5.2
				l-2.8-0.5L569.2,373.2z"/>
			<path fill="#FFFF00" d="M582.2,375.2c0.8,0.1,1.5,0.4,2.2,0.8c0.6,0.4,1.1,0.9,1.5,1.5s0.7,1.2,0.8,2s0.2,1.5,0,2.3
				c-0.1,0.8-0.4,1.5-0.8,2.2c-0.4,0.6-0.9,1.2-1.5,1.6c-0.6,0.4-1.2,0.7-2,0.8c-0.7,0.2-1.5,0.2-2.3,0s-1.5-0.4-2.2-0.8
				c-0.6-0.4-1.1-0.9-1.5-1.5c-0.4-0.6-0.7-1.2-0.8-2c-0.2-0.7-0.2-1.5,0-2.3c0.1-0.8,0.4-1.5,0.8-2.2c0.4-0.6,0.9-1.2,1.5-1.6
				c0.6-0.4,1.2-0.7,2-0.8C580.7,375.1,581.4,375.1,582.2,375.2z M580.7,383.8c0.4,0.1,0.7,0.1,1.1,0c0.4-0.1,0.7-0.2,1-0.4
				c0.3-0.2,0.6-0.5,0.8-0.8c0.2-0.3,0.4-0.8,0.5-1.2s0.1-0.9,0-1.3c-0.1-0.4-0.2-0.7-0.4-1.1c-0.2-0.3-0.5-0.6-0.8-0.7
				c-0.3-0.2-0.6-0.3-1-0.4c-0.4-0.1-0.7-0.1-1.1,0s-0.7,0.2-1,0.4c-0.3,0.2-0.6,0.5-0.8,0.8c-0.2,0.3-0.4,0.8-0.5,1.2
				c-0.1,0.5-0.1,0.9,0,1.3c0.1,0.4,0.2,0.7,0.4,1.1c0.2,0.3,0.5,0.6,0.8,0.7C580,383.6,580.3,383.8,580.7,383.8z"/>
		</g>
		<g>
			<path fill="#FFFF00" d="M516.5,523.5c-0.7,0.1-1.3,0.1-1.9,0.1c-0.6-0.1-1.1-0.2-1.5-0.4c-0.4-0.2-0.8-0.5-1.2-0.8
				s-0.6-0.6-0.8-1l2.3-1.5c0.3,0.5,0.7,0.8,1.2,1c0.5,0.2,0.9,0.2,1.4,0.2c0.5-0.1,0.9-0.3,1.2-0.5c0.3-0.2,0.4-0.5,0.3-0.7
				c0-0.3-0.2-0.5-0.5-0.6c-0.3-0.1-0.7-0.2-1.4-0.3l-1.5-0.1c-0.3,0-0.7-0.1-1.1-0.2c-0.4-0.1-0.7-0.2-1.1-0.4
				c-0.3-0.2-0.6-0.4-0.9-0.8c-0.2-0.3-0.4-0.7-0.5-1.2c-0.1-0.5-0.1-1,0.1-1.4c0.2-0.4,0.4-0.8,0.7-1.2c0.3-0.3,0.8-0.6,1.2-0.9
				c0.5-0.2,1-0.4,1.6-0.5c1-0.2,1.9-0.1,2.8,0.1c0.9,0.3,1.5,0.8,2.1,1.6l-2.3,1.4c-0.3-0.4-0.6-0.6-1-0.7
				c-0.4-0.1-0.8-0.1-1.2-0.1c-0.4,0.1-0.7,0.2-1,0.4s-0.4,0.5-0.3,0.7c0,0.2,0.2,0.4,0.5,0.5c0.3,0.1,0.6,0.2,1.1,0.2l1.7,0.1
				c1.1,0.1,2,0.3,2.6,0.8c0.6,0.5,1,1.1,1.1,1.9c0.1,0.5,0,0.9-0.1,1.4c-0.1,0.5-0.4,0.9-0.7,1.3c-0.3,0.4-0.8,0.7-1.3,1
				S517.1,523.4,516.5,523.5z"/>
			<path fill="#FFFF00" d="M532.2,517.8c-0.3,0.9-0.9,1.7-1.6,2.4c-0.7,0.7-1.7,1.1-2.9,1.3c-0.8,0.1-1.6,0.1-2.3,0
				c-0.7-0.2-1.4-0.4-2-0.9c-0.6-0.4-1.1-0.9-1.5-1.6c-0.4-0.6-0.7-1.4-0.8-2.2c-0.1-0.8-0.1-1.5,0-2.2c0.2-0.7,0.4-1.4,0.8-2
				c0.4-0.6,0.9-1.1,1.5-1.5c0.6-0.4,1.3-0.7,2.1-0.8c0.8-0.1,1.6-0.1,2.3,0c0.7,0.2,1.3,0.5,1.8,0.9s1,0.9,1.3,1.6
				c0.3,0.6,0.6,1.3,0.7,2.1c0,0.1,0,0.2,0,0.3c0,0.1,0,0.2,0,0.2c0,0.1,0,0.2,0,0.2l-7.9,1.4c0.1,0.4,0.3,0.8,0.5,1
				c0.2,0.3,0.5,0.5,0.8,0.7c0.3,0.2,0.6,0.3,0.9,0.3c0.3,0,0.7,0,1,0c0.6-0.1,1.1-0.3,1.5-0.7c0.4-0.4,0.6-0.8,0.8-1.3L532.2,517.8
				z M529,514.2c0-0.2-0.1-0.4-0.3-0.6c-0.1-0.2-0.3-0.4-0.6-0.6c-0.2-0.2-0.5-0.3-0.9-0.4c-0.3-0.1-0.7-0.1-1.1,0
				c-0.6,0.1-1.1,0.4-1.5,0.8c-0.4,0.4-0.6,1-0.7,1.6L529,514.2z"/>
			<path fill="#FFFF00" d="M535.7,510.4l0.2,0c0.2-0.6,0.6-1.1,1.1-1.5c0.5-0.4,1.1-0.7,1.8-0.8c0.7-0.1,1.3-0.1,1.8,0
				c0.5,0.1,1,0.4,1.4,0.7c0.4,0.3,0.7,0.8,1,1.3s0.4,1.1,0.6,1.8l1.1,6.4l-2.8,0.5l-1-6c-0.1-0.8-0.4-1.3-0.8-1.6
				c-0.4-0.3-0.9-0.4-1.6-0.3c-0.4,0.1-0.7,0.2-1,0.4c-0.3,0.2-0.5,0.5-0.6,0.8c-0.2,0.3-0.3,0.7-0.3,1.1c0,0.4,0,0.8,0,1.2l0.9,5.1
				l-2.8,0.5l-1.8-10.5l2.6-0.5L535.7,510.4z"/>
			<path fill="#FFFF00" d="M554.5,515.3l-0.2,0c-0.2,0.5-0.5,0.9-1,1.3c-0.5,0.4-1.1,0.7-1.9,0.8c-0.7,0.1-1.3,0.1-2-0.1
				c-0.7-0.2-1.3-0.5-1.8-0.9c-0.5-0.4-1-0.9-1.4-1.6c-0.4-0.6-0.7-1.4-0.8-2.2c-0.1-0.8-0.1-1.6,0-2.3c0.2-0.7,0.4-1.4,0.8-2
				c0.4-0.6,0.8-1.1,1.4-1.4c0.6-0.4,1.2-0.6,1.8-0.7c0.8-0.1,1.5-0.1,2.1,0.1c0.6,0.2,1.1,0.5,1.4,0.9l0.2,0l-0.4-1.5l-0.8-4.6
				l2.8-0.5l2.6,15.3l-2.6,0.5L554.5,515.3z M551.5,514.8c0.4-0.1,0.7-0.2,1-0.4c0.3-0.2,0.6-0.4,0.8-0.7c0.2-0.3,0.4-0.7,0.5-1
				c0.1-0.4,0.1-0.8,0-1.3c-0.1-0.5-0.2-0.9-0.5-1.2c-0.2-0.3-0.5-0.6-0.8-0.8c-0.3-0.2-0.6-0.4-1-0.4c-0.4-0.1-0.7-0.1-1.1,0
				c-0.4,0.1-0.7,0.2-1,0.4c-0.3,0.2-0.6,0.5-0.8,0.8c-0.2,0.3-0.4,0.7-0.5,1c-0.1,0.4-0.1,0.8,0,1.3s0.2,0.9,0.4,1.2
				c0.2,0.3,0.5,0.6,0.8,0.8c0.3,0.2,0.6,0.4,1,0.4C550.8,514.8,551.2,514.8,551.5,514.8z"/>
			<path fill="#FFFF00" d="M562.6,504.4l2.6-0.5l0.2,1.3l0.2,0c0.2-0.5,0.5-0.9,1-1.3c0.5-0.4,1.1-0.7,1.9-0.8
				c0.7-0.1,1.3-0.1,2,0.1s1.3,0.5,1.8,0.9s1,0.9,1.4,1.6c0.4,0.6,0.7,1.4,0.8,2.2c0.1,0.8,0.1,1.6,0,2.3c-0.2,0.7-0.4,1.4-0.8,2
				c-0.4,0.6-0.8,1.1-1.4,1.4c-0.6,0.4-1.2,0.6-1.8,0.7c-0.8,0.1-1.5,0.1-2.1-0.1c-0.6-0.2-1.1-0.5-1.4-0.9l-0.2,0l0.4,1.5l0.8,4.4
				l-2.8,0.5L562.6,504.4z M569.4,511.7c0.4-0.1,0.7-0.2,1-0.4s0.6-0.5,0.8-0.8c0.2-0.3,0.4-0.7,0.5-1c0.1-0.4,0.1-0.8,0-1.3
				c-0.1-0.5-0.2-0.9-0.4-1.2c-0.2-0.3-0.5-0.6-0.8-0.8c-0.3-0.2-0.6-0.4-1-0.4c-0.4-0.1-0.7-0.1-1.1,0c-0.4,0.1-0.7,0.2-1,0.4
				c-0.3,0.2-0.6,0.4-0.8,0.7c-0.2,0.3-0.4,0.7-0.5,1c-0.1,0.4-0.1,0.8,0,1.3c0.1,0.5,0.2,0.9,0.5,1.2c0.2,0.3,0.5,0.6,0.8,0.8
				c0.3,0.2,0.6,0.4,1,0.4C568.7,511.7,569.1,511.7,569.4,511.7z"/>
			<path fill="#FFFF00" d="M583.5,510.4l-0.2,0c-0.3,0.5-0.6,0.9-1,1.2c-0.4,0.4-1,0.6-1.7,0.7c-0.5,0.1-1.1,0.1-1.6,0
				c-0.5-0.1-1-0.3-1.4-0.5c-0.4-0.3-0.8-0.6-1-1c-0.3-0.4-0.5-0.9-0.6-1.4c-0.1-0.5-0.1-1.1,0.1-1.5c0.1-0.5,0.4-0.9,0.7-1.3
				c0.3-0.4,0.7-0.7,1.2-1c0.5-0.3,1-0.4,1.7-0.5c0.7-0.1,1.3-0.2,1.7-0.1c0.5,0,0.8,0.1,1.1,0.1l-0.1-0.3c-0.1-0.6-0.4-1-0.9-1.3
				c-0.5-0.3-1.1-0.4-1.7-0.3c-1,0.2-1.7,0.7-2.3,1.6l-2.3-1c0.9-1.6,2.3-2.6,4.2-2.9c1.6-0.3,2.9-0.1,3.9,0.5
				c1,0.6,1.6,1.7,1.9,3.2l1.1,6.3l-2.8,0.5L583.5,510.4z M583,507.3c-0.4-0.1-0.7-0.2-1.1-0.2c-0.4,0-0.8,0-1.2,0.1
				c-0.7,0.1-1.2,0.4-1.5,0.7c-0.3,0.4-0.4,0.7-0.4,1.2c0.1,0.4,0.3,0.7,0.7,0.9c0.4,0.2,0.8,0.3,1.3,0.2c0.4-0.1,0.7-0.2,1-0.4
				s0.5-0.4,0.7-0.7c0.2-0.3,0.3-0.5,0.4-0.9C583,507.9,583,507.6,583,507.3z"/>
			<path fill="#FFFF00" d="M592.8,510.3c-0.7,0.1-1.3,0.1-1.9,0.1c-0.6-0.1-1.1-0.2-1.5-0.4s-0.8-0.5-1.2-0.8
				c-0.3-0.3-0.6-0.6-0.8-1l2.3-1.5c0.3,0.5,0.7,0.8,1.2,1c0.5,0.2,0.9,0.2,1.4,0.2c0.5-0.1,0.9-0.3,1.2-0.5
				c0.3-0.2,0.4-0.5,0.3-0.7c0-0.3-0.2-0.5-0.5-0.6c-0.3-0.1-0.7-0.2-1.4-0.3l-1.5-0.1c-0.3,0-0.7-0.1-1.1-0.2
				c-0.4-0.1-0.7-0.2-1.1-0.4s-0.6-0.4-0.9-0.8c-0.2-0.3-0.4-0.7-0.5-1.2c-0.1-0.5-0.1-1,0.1-1.4c0.2-0.4,0.4-0.8,0.7-1.2
				c0.3-0.3,0.8-0.6,1.2-0.9c0.5-0.2,1-0.4,1.6-0.5c1-0.2,1.9-0.1,2.8,0.1s1.5,0.8,2.1,1.6l-2.3,1.4c-0.3-0.4-0.6-0.6-1-0.7
				c-0.4-0.1-0.8-0.1-1.2-0.1c-0.4,0.1-0.7,0.2-1,0.4s-0.4,0.5-0.3,0.7c0,0.2,0.2,0.4,0.5,0.5c0.3,0.1,0.6,0.2,1.1,0.2l1.7,0.1
				c1.1,0.1,2,0.3,2.6,0.8c0.6,0.5,1,1.1,1.1,1.9c0.1,0.5,0,0.9-0.1,1.4c-0.1,0.4-0.4,0.9-0.7,1.3s-0.8,0.7-1.3,1
				S593.5,510.2,592.8,510.3z"/>
			<path fill="#FFFF00" d="M598.6,500.6l-1.8,0.3l-0.4-2.4l1.8-0.3l-0.6-3.2l2.8-0.5l0.6,3.2l2.6-0.4l0.4,2.4l-2.6,0.4l0.7,4.2
				c0,0.3,0.1,0.5,0.2,0.7c0.1,0.2,0.2,0.4,0.4,0.5c0.2,0.2,0.5,0.3,0.9,0.2c0.2,0,0.4-0.1,0.6-0.2c0.1-0.1,0.3-0.2,0.4-0.3l1.2,2.3
				c-0.3,0.2-0.6,0.4-1,0.5c-0.4,0.1-0.8,0.3-1.2,0.3c-0.5,0.1-1,0.1-1.5,0s-0.8-0.3-1.2-0.5c-0.8-0.5-1.3-1.4-1.5-2.6L598.6,500.6z
				"/>
			<path fill="#FFFF00" d="M616.8,503.2c-0.3,0.9-0.9,1.7-1.6,2.4c-0.7,0.7-1.7,1.1-2.9,1.3c-0.8,0.1-1.6,0.1-2.3,0
				c-0.7-0.2-1.4-0.4-2-0.9c-0.6-0.4-1.1-0.9-1.5-1.6s-0.7-1.4-0.8-2.2c-0.1-0.8-0.1-1.5,0-2.2c0.2-0.7,0.4-1.4,0.8-2
				c0.4-0.6,0.9-1.1,1.5-1.5c0.6-0.4,1.3-0.7,2.1-0.8c0.8-0.1,1.6-0.1,2.3,0s1.3,0.5,1.8,0.9c0.5,0.4,1,0.9,1.3,1.6
				c0.3,0.6,0.6,1.3,0.7,2.1c0,0.1,0,0.2,0,0.3c0,0.1,0,0.2,0,0.2c0,0.1,0,0.2,0,0.2l-7.9,1.4c0.1,0.4,0.3,0.8,0.5,1
				s0.5,0.5,0.8,0.7c0.3,0.2,0.6,0.3,0.9,0.3c0.3,0,0.7,0,1,0c0.6-0.1,1.1-0.3,1.5-0.7c0.4-0.4,0.6-0.8,0.8-1.3L616.8,503.2z
				 M613.5,499.6c0-0.2-0.1-0.4-0.3-0.6c-0.1-0.2-0.3-0.4-0.6-0.6c-0.2-0.2-0.5-0.3-0.9-0.4c-0.3-0.1-0.7-0.1-1.1,0
				c-0.6,0.1-1.1,0.4-1.5,0.8c-0.4,0.4-0.6,1-0.7,1.6L613.5,499.6z"/>
		</g>
		<path fill="#FFFFFF" d="M256.5,673L256.5,673c-9.9,0-17.9-8-17.9-17.9V285c0-9.9,8-17.9,17.9-17.9h0c9.9,0,17.9,8,17.9,17.9v370.1
			C274.4,665,266.4,673,256.5,673z"/>
		<path fill="#FFFFFF" d="M800.5,673L800.5,673c-9.9,0-17.9-8-17.9-17.9V285c0-9.9,8-17.9,17.9-17.9h0c9.9,0,17.9,8,17.9,17.9v370.1
			C818.4,665,810.4,673,800.5,673z"/>
		<g>
			<polygon fill="#FFFFFF" points="780,428.7 753.5,448 757.2,453 783.6,433.7 788.6,430 765.6,398.6 760.6,402.2 			"/>
			
				<rect x="266.6" y="386" transform="matrix(-0.9881 -0.1539 0.1539 -0.9881 985.4009 854.4692)" fill="#FFFFFF" width="518.3" height="6.2"/>
		</g>
		<g>
			<polygon fill="#FFFFFF" points="280.8,570.5 307.3,589.9 303.6,594.8 277.2,575.5 272.2,571.9 295.2,540.5 300.2,544.1 			"/>
			
				<rect x="275.9" y="527.9" transform="matrix(0.9881 -0.1539 0.1539 0.9881 -75.3195 88.639)" fill="#FFFFFF" width="518.3" height="6.2"/>
		</g>
	</g>
	<g>
		<path fill="#FFFFFF" d="M368.9,928.6h12.7v3.6h-8.9v4.9h8v3.6h-8v8h-3.8V928.6z"/>
		<path fill="#FFFFFF" d="M385.8,933.1c-0.3,0-0.6-0.1-0.9-0.2c-0.3-0.1-0.5-0.3-0.8-0.5c-0.2-0.2-0.4-0.5-0.5-0.7
			c-0.1-0.3-0.2-0.6-0.2-0.9s0.1-0.6,0.2-0.9c0.1-0.3,0.3-0.5,0.5-0.7c0.2-0.2,0.5-0.4,0.8-0.5c0.3-0.1,0.6-0.2,0.9-0.2
			c0.7,0,1.2,0.2,1.7,0.7c0.5,0.5,0.7,1,0.7,1.7s-0.2,1.2-0.7,1.7C387,932.8,386.5,933.1,385.8,933.1z M384,948.6v-13.7h3.7v13.7
			H384z"/>
		<path fill="#FFFFFF" d="M397.2,955.1c-1,0-1.8-0.1-2.6-0.4s-1.4-0.6-2-1s-1-0.8-1.4-1.3c-0.4-0.5-0.6-1-0.8-1.5l3.5-1.4
			c0.3,0.7,0.7,1.3,1.3,1.7c0.6,0.4,1.3,0.6,2,0.6c1.2,0,2.1-0.4,2.7-1.1s1-1.8,1-3.1v-1h-0.2c-0.4,0.6-1,1.1-1.7,1.4
			c-0.7,0.3-1.5,0.5-2.5,0.5c-0.8,0-1.6-0.2-2.4-0.5c-0.8-0.3-1.5-0.8-2.1-1.4s-1.1-1.4-1.5-2.2c-0.4-0.9-0.6-1.8-0.6-2.9
			c0-1.1,0.2-2,0.6-2.9s0.9-1.6,1.5-2.2s1.3-1.1,2.1-1.4c0.8-0.3,1.6-0.5,2.4-0.5c1,0,1.8,0.2,2.5,0.5c0.7,0.3,1.3,0.8,1.7,1.4h0.2
			v-1.5h3.5v12.7c0,1.2-0.2,2.2-0.5,3.1c-0.4,0.9-0.8,1.7-1.5,2.4c-0.6,0.6-1.4,1.1-2.3,1.5C399.3,954.9,398.3,955.1,397.2,955.1z
			 M397.3,945.3c0.4,0,0.9-0.1,1.3-0.2c0.4-0.2,0.8-0.4,1.2-0.7c0.3-0.3,0.6-0.7,0.8-1.2c0.2-0.5,0.3-1,0.3-1.6s-0.1-1.1-0.3-1.6
			s-0.5-0.9-0.8-1.2c-0.3-0.3-0.7-0.6-1.2-0.7c-0.4-0.2-0.9-0.2-1.3-0.2s-0.9,0.1-1.3,0.2s-0.8,0.4-1.1,0.7
			c-0.3,0.3-0.6,0.7-0.8,1.2c-0.2,0.5-0.3,1-0.3,1.6s0.1,1.1,0.3,1.6c0.2,0.5,0.5,0.9,0.8,1.2c0.3,0.3,0.7,0.6,1.1,0.7
			C396.5,945.2,396.9,945.3,397.3,945.3z"/>
		<path fill="#FFFFFF" d="M409.8,939.4c-0.7,0-1.2-0.2-1.7-0.7c-0.5-0.5-0.7-1-0.7-1.7c0-0.7,0.2-1.2,0.7-1.7
			c0.5-0.5,1.1-0.7,1.7-0.7s1.2,0.2,1.7,0.7c0.5,0.5,0.7,1,0.7,1.7c0,0.7-0.2,1.2-0.7,1.7C411,939.2,410.5,939.4,409.8,939.4z
			 M409.8,948.6c-0.7,0-1.2-0.2-1.7-0.7c-0.5-0.5-0.7-1-0.7-1.7c0-0.7,0.2-1.2,0.7-1.7c0.5-0.5,1.1-0.7,1.7-0.7s1.2,0.2,1.7,0.7
			c0.5,0.5,0.7,1,0.7,1.7c0,0.7-0.2,1.2-0.7,1.7C411,948.4,410.5,948.6,409.8,948.6z"/>
		<path fill="#FFFFFF" d="M421.7,928.6h7.3c1,0,1.9,0.2,2.7,0.5c0.8,0.3,1.5,0.8,2.1,1.3c0.6,0.6,1,1.2,1.4,2s0.5,1.6,0.5,2.5
			c0,0.7-0.1,1.3-0.3,1.9c-0.2,0.6-0.5,1.1-0.9,1.6c-0.4,0.5-0.8,0.9-1.4,1.3c-0.5,0.4-1.1,0.6-1.7,0.9l0,0.2l5.4,7.7v0.2h-4.3
			l-5.2-7.5h-1.8v7.5h-3.8V928.6z M429,937.6c0.9,0,1.6-0.3,2.1-0.8c0.5-0.5,0.8-1.2,0.8-2c0-0.4-0.1-0.7-0.2-1
			c-0.1-0.3-0.3-0.6-0.5-0.9c-0.2-0.3-0.5-0.5-0.9-0.6c-0.4-0.2-0.8-0.2-1.2-0.2h-3.6v5.6H429z"/>
		<path fill="#FFFFFF" d="M451.4,945.3c-0.6,1.1-1.5,2-2.6,2.7s-2.4,1-3.9,1c-1,0-2-0.2-2.9-0.5c-0.9-0.4-1.7-0.9-2.3-1.5
			c-0.7-0.7-1.2-1.4-1.5-2.3s-0.5-1.9-0.5-2.9c0-1,0.2-1.9,0.5-2.8c0.4-0.9,0.8-1.7,1.5-2.3c0.6-0.7,1.4-1.2,2.3-1.6
			s1.8-0.6,2.9-0.6c1.1,0,2.1,0.2,2.9,0.5c0.9,0.4,1.6,0.9,2.2,1.5c0.6,0.6,1,1.4,1.3,2.3c0.3,0.9,0.4,1.8,0.4,2.9
			c0,0.1,0,0.2,0,0.3c0,0.1,0,0.2,0,0.3c0,0.1,0,0.2,0,0.3h-10.3c0.1,0.6,0.2,1,0.5,1.4c0.2,0.4,0.5,0.7,0.9,1
			c0.3,0.3,0.7,0.5,1.1,0.6c0.4,0.1,0.8,0.2,1.3,0.2c0.8,0,1.5-0.2,2.1-0.6s1-0.9,1.3-1.4L451.4,945.3z M448,940
			c0-0.2-0.1-0.5-0.2-0.8c-0.1-0.3-0.3-0.6-0.6-0.8c-0.3-0.3-0.6-0.5-1-0.6s-0.9-0.3-1.4-0.3c-0.8,0-1.5,0.2-2.1,0.7s-1,1.1-1.3,1.9
			H448z"/>
		<path fill="#FFFFFF" d="M462.5,947.2h-0.2c-0.4,0.5-0.9,1-1.6,1.3s-1.4,0.6-2.3,0.6c-0.7,0-1.4-0.1-2-0.4c-0.6-0.2-1.2-0.6-1.6-1
			c-0.5-0.4-0.8-0.9-1.1-1.5c-0.3-0.6-0.4-1.2-0.4-1.9c0-0.7,0.1-1.3,0.4-1.9s0.7-1.1,1.2-1.5c0.5-0.4,1.1-0.7,1.8-0.9
			c0.7-0.2,1.4-0.3,2.2-0.3c0.9,0,1.6,0.1,2.2,0.2c0.6,0.1,1.1,0.3,1.4,0.4v-0.4c0-0.7-0.3-1.3-0.9-1.8c-0.6-0.5-1.3-0.7-2.2-0.7
			c-1.3,0-2.3,0.5-3.2,1.6l-2.7-1.8c1.5-1.8,3.4-2.7,6-2.7c2.1,0,3.8,0.5,4.9,1.5c1.1,1,1.7,2.5,1.7,4.4v8.2h-3.6V947.2z
			 M462.5,943.1c-0.4-0.2-0.9-0.4-1.3-0.5c-0.5-0.1-1-0.2-1.5-0.2c-0.9,0-1.6,0.2-2,0.6s-0.7,0.9-0.7,1.4c0,0.6,0.2,1,0.7,1.3
			s1,0.5,1.6,0.5c0.5,0,0.9-0.1,1.3-0.3c0.4-0.2,0.8-0.4,1-0.7c0.3-0.3,0.5-0.6,0.7-1C462.4,943.9,462.5,943.5,462.5,943.1z"/>
		<path fill="#FFFFFF" d="M479.1,947h-0.2c-0.3,0.6-0.9,1.1-1.6,1.5c-0.7,0.4-1.6,0.6-2.6,0.6c-0.9,0-1.7-0.2-2.5-0.5
			c-0.8-0.4-1.5-0.9-2.1-1.5c-0.6-0.6-1.1-1.4-1.4-2.3c-0.4-0.9-0.5-1.9-0.5-2.9c0-1.1,0.2-2,0.5-2.9c0.4-0.9,0.8-1.7,1.4-2.3
			c0.6-0.6,1.3-1.1,2.1-1.5c0.8-0.4,1.6-0.5,2.5-0.5c1,0,1.9,0.2,2.6,0.6c0.7,0.4,1.2,0.9,1.6,1.5h0.2l-0.2-2v-6h3.7v20h-3.4V947z
			 M475.5,945.7c0.5,0,0.9-0.1,1.4-0.3c0.4-0.2,0.8-0.4,1.2-0.8s0.6-0.7,0.8-1.2c0.2-0.5,0.3-1,0.3-1.7c0-0.6-0.1-1.2-0.3-1.7
			c-0.2-0.5-0.5-0.9-0.8-1.2s-0.7-0.6-1.2-0.8s-0.9-0.3-1.4-0.3s-0.9,0.1-1.4,0.3c-0.4,0.2-0.8,0.4-1.2,0.8s-0.6,0.7-0.8,1.2
			c-0.2,0.5-0.3,1-0.3,1.6c0,0.6,0.1,1.1,0.3,1.6c0.2,0.5,0.5,0.9,0.8,1.2s0.7,0.6,1.2,0.8C474.5,945.6,475,945.7,475.5,945.7z"/>
		<path fill="#FFFFFF" d="M487.8,933.1c-0.3,0-0.6-0.1-0.9-0.2c-0.3-0.1-0.5-0.3-0.8-0.5c-0.2-0.2-0.4-0.5-0.5-0.7
			c-0.1-0.3-0.2-0.6-0.2-0.9s0.1-0.6,0.2-0.9c0.1-0.3,0.3-0.5,0.5-0.7c0.2-0.2,0.5-0.4,0.8-0.5c0.3-0.1,0.6-0.2,0.9-0.2
			c0.7,0,1.2,0.2,1.7,0.7c0.5,0.5,0.7,1,0.7,1.7s-0.2,1.2-0.7,1.7C489,932.8,488.4,933.1,487.8,933.1z M485.9,948.6v-13.7h3.7v13.7
			H485.9z"/>
		<path fill="#FFFFFF" d="M496.4,936.7h0.2c0.4-0.7,1-1.2,1.7-1.6c0.7-0.4,1.6-0.6,2.5-0.6c0.9,0,1.6,0.1,2.3,0.4
			c0.7,0.3,1.2,0.7,1.6,1.2s0.7,1.1,1,1.8s0.3,1.5,0.3,2.4v8.3h-3.7v-7.9c0-1-0.2-1.7-0.7-2.2c-0.4-0.5-1.1-0.7-1.9-0.7
			c-0.5,0-0.9,0.1-1.3,0.3s-0.7,0.5-1,0.9s-0.5,0.8-0.6,1.3c-0.1,0.5-0.2,1-0.2,1.6v6.7H493v-13.7h3.4V936.7z"/>
		<path fill="#FFFFFF" d="M515.2,955.1c-1,0-1.8-0.1-2.6-0.4s-1.4-0.6-2-1s-1-0.8-1.4-1.3c-0.4-0.5-0.6-1-0.8-1.5l3.5-1.4
			c0.3,0.7,0.7,1.3,1.3,1.7c0.6,0.4,1.3,0.6,2,0.6c1.2,0,2.1-0.4,2.7-1.1s1-1.8,1-3.1v-1h-0.2c-0.4,0.6-1,1.1-1.7,1.4
			c-0.7,0.3-1.5,0.5-2.5,0.5c-0.8,0-1.6-0.2-2.4-0.5c-0.8-0.3-1.5-0.8-2.1-1.4s-1.1-1.4-1.5-2.2c-0.4-0.9-0.6-1.8-0.6-2.9
			c0-1.1,0.2-2,0.6-2.9s0.9-1.6,1.5-2.2s1.3-1.1,2.1-1.4c0.8-0.3,1.6-0.5,2.4-0.5c1,0,1.8,0.2,2.5,0.5c0.7,0.3,1.3,0.8,1.7,1.4h0.2
			v-1.5h3.5v12.7c0,1.2-0.2,2.2-0.5,3.1c-0.4,0.9-0.8,1.7-1.5,2.4c-0.6,0.6-1.4,1.1-2.3,1.5C517.3,954.9,516.3,955.1,515.2,955.1z
			 M515.4,945.3c0.4,0,0.9-0.1,1.3-0.2c0.4-0.2,0.8-0.4,1.2-0.7c0.3-0.3,0.6-0.7,0.8-1.2c0.2-0.5,0.3-1,0.3-1.6s-0.1-1.1-0.3-1.6
			s-0.5-0.9-0.8-1.2c-0.3-0.3-0.7-0.6-1.2-0.7c-0.4-0.2-0.9-0.2-1.3-0.2s-0.9,0.1-1.3,0.2s-0.8,0.4-1.1,0.7
			c-0.3,0.3-0.6,0.7-0.8,1.2c-0.2,0.5-0.3,1-0.3,1.6s0.1,1.1,0.3,1.6c0.2,0.5,0.5,0.9,0.8,1.2c0.3,0.3,0.7,0.6,1.1,0.7
			C514.5,945.2,514.9,945.3,515.4,945.3z"/>
		<path fill="#FFFFFF" d="M532.2,948.6v-20h7.1c1,0,1.8,0.2,2.7,0.5c0.8,0.3,1.6,0.7,2.2,1.3c0.6,0.6,1.1,1.2,1.5,2
			c0.4,0.8,0.5,1.6,0.5,2.6c0,1-0.2,1.8-0.5,2.6s-0.8,1.4-1.5,2c-0.6,0.6-1.3,1-2.2,1.3c-0.8,0.3-1.7,0.5-2.7,0.5H536v7.4H532.2z
			 M539.3,937.7c1,0,1.7-0.3,2.2-0.8c0.5-0.6,0.8-1.2,0.8-1.9c0-0.4-0.1-0.7-0.2-1c-0.1-0.3-0.3-0.6-0.6-0.9s-0.6-0.5-0.9-0.6
			c-0.4-0.1-0.8-0.2-1.3-0.2H536v5.5H539.3z"/>
		<path fill="#FFFFFF" d="M557.6,946.8h-0.2c-0.4,0.7-1,1.2-1.7,1.6c-0.7,0.4-1.6,0.6-2.5,0.6c-1.7,0-3-0.5-3.9-1.6
			c-0.8-1.1-1.3-2.5-1.3-4.3v-8.3h3.7v7.9c0,1,0.2,1.7,0.7,2.2c0.4,0.5,1.1,0.7,1.9,0.7c0.5,0,0.9-0.1,1.3-0.3
			c0.4-0.2,0.7-0.5,1-0.9s0.5-0.8,0.6-1.3c0.1-0.5,0.2-1,0.2-1.6v-6.7h3.7v13.7h-3.4V946.8z"/>
		<path fill="#FFFFFF" d="M564.1,928.6h3.7v6l-0.2,2h0.2c0.3-0.6,0.9-1.1,1.6-1.5c0.7-0.4,1.6-0.6,2.6-0.6c0.9,0,1.7,0.2,2.5,0.5
			c0.8,0.4,1.5,0.9,2.1,1.5c0.6,0.6,1.1,1.4,1.4,2.3c0.4,0.9,0.5,1.9,0.5,2.9c0,1.1-0.2,2-0.5,2.9c-0.4,0.9-0.8,1.7-1.4,2.3
			c-0.6,0.6-1.3,1.1-2.1,1.5c-0.8,0.4-1.6,0.5-2.5,0.5c-1,0-1.9-0.2-2.6-0.6c-0.7-0.4-1.2-0.9-1.6-1.5h-0.2v1.7h-3.4V928.6z
			 M571.2,945.7c0.5,0,0.9-0.1,1.4-0.3c0.4-0.2,0.8-0.4,1.2-0.8c0.3-0.3,0.6-0.7,0.8-1.2c0.2-0.5,0.3-1,0.3-1.6
			c0-0.6-0.1-1.1-0.3-1.6c-0.2-0.5-0.5-0.9-0.8-1.2c-0.3-0.3-0.7-0.6-1.2-0.8c-0.4-0.2-0.9-0.3-1.4-0.3s-0.9,0.1-1.4,0.3
			s-0.8,0.4-1.2,0.8s-0.6,0.7-0.8,1.2c-0.2,0.5-0.3,1-0.3,1.7c0,0.6,0.1,1.2,0.3,1.7c0.2,0.5,0.5,0.9,0.8,1.2s0.7,0.6,1.2,0.8
			C570.3,945.6,570.8,945.7,571.2,945.7z"/>
		<path fill="#FFFFFF" d="M580.8,948.6v-20h3.7v20H580.8z"/>
		<path fill="#FFFFFF" d="M589.6,933.1c-0.3,0-0.6-0.1-0.9-0.2c-0.3-0.1-0.5-0.3-0.8-0.5c-0.2-0.2-0.4-0.5-0.5-0.7
			c-0.1-0.3-0.2-0.6-0.2-0.9s0.1-0.6,0.2-0.9c0.1-0.3,0.3-0.5,0.5-0.7c0.2-0.2,0.5-0.4,0.8-0.5c0.3-0.1,0.6-0.2,0.9-0.2
			c0.7,0,1.2,0.2,1.7,0.7c0.5,0.5,0.7,1,0.7,1.7s-0.2,1.2-0.7,1.7C590.9,932.8,590.3,933.1,589.6,933.1z M587.8,948.6v-13.7h3.7
			v13.7H587.8z"/>
		<path fill="#FFFFFF" d="M607.7,945.1c-0.6,1.2-1.4,2.1-2.5,2.8s-2.4,1.1-4,1.1c-1.1,0-2-0.2-2.9-0.5c-0.9-0.4-1.7-0.9-2.3-1.5
			c-0.6-0.7-1.1-1.4-1.5-2.3s-0.5-1.9-0.5-2.9c0-1.1,0.2-2,0.5-2.9c0.4-0.9,0.9-1.7,1.5-2.3c0.6-0.6,1.4-1.1,2.3-1.5
			s1.9-0.5,2.9-0.5c1.6,0,2.9,0.4,4,1.1c1.1,0.7,1.9,1.7,2.4,2.8l-3.4,1.4c-0.3-0.6-0.7-1.1-1.2-1.4c-0.5-0.3-1.1-0.5-1.9-0.5
			c-0.5,0-0.9,0.1-1.4,0.3s-0.8,0.4-1.1,0.8c-0.3,0.3-0.6,0.7-0.8,1.2c-0.2,0.5-0.3,1-0.3,1.6c0,0.6,0.1,1.1,0.3,1.6
			c0.2,0.5,0.4,0.9,0.8,1.2c0.3,0.3,0.7,0.6,1.1,0.8s0.9,0.3,1.4,0.3c0.8,0,1.4-0.2,1.9-0.5c0.5-0.3,1-0.8,1.3-1.5L607.7,945.1z"/>
		<path fill="#FFFFFF" d="M616.6,948.6v-20h7.1c1,0,1.8,0.2,2.7,0.5c0.8,0.3,1.6,0.7,2.2,1.3c0.6,0.6,1.1,1.2,1.5,2
			c0.4,0.8,0.5,1.6,0.5,2.6c0,1-0.2,1.8-0.5,2.6s-0.8,1.4-1.5,2c-0.6,0.6-1.3,1-2.2,1.3c-0.8,0.3-1.7,0.5-2.7,0.5h-3.3v7.4H616.6z
			 M623.7,937.7c1,0,1.7-0.3,2.2-0.8c0.5-0.6,0.8-1.2,0.8-1.9c0-0.4-0.1-0.7-0.2-1c-0.1-0.3-0.3-0.6-0.6-0.9s-0.6-0.5-0.9-0.6
			c-0.4-0.1-0.8-0.2-1.3-0.2h-3.3v5.5H623.7z"/>
		<path fill="#FFFFFF" d="M640.6,947.2h-0.2c-0.4,0.5-0.9,1-1.6,1.3s-1.4,0.6-2.3,0.6c-0.7,0-1.4-0.1-2-0.4c-0.6-0.2-1.2-0.6-1.6-1
			c-0.5-0.4-0.8-0.9-1.1-1.5c-0.3-0.6-0.4-1.2-0.4-1.9c0-0.7,0.1-1.3,0.4-1.9s0.7-1.1,1.2-1.5c0.5-0.4,1.1-0.7,1.8-0.9
			c0.7-0.2,1.4-0.3,2.2-0.3c0.9,0,1.6,0.1,2.2,0.2c0.6,0.1,1.1,0.3,1.4,0.4v-0.4c0-0.7-0.3-1.3-0.9-1.8c-0.6-0.5-1.3-0.7-2.2-0.7
			c-1.3,0-2.3,0.5-3.2,1.6l-2.7-1.8c1.5-1.8,3.4-2.7,6-2.7c2.1,0,3.8,0.5,4.9,1.5c1.1,1,1.7,2.5,1.7,4.4v8.2h-3.6V947.2z
			 M640.6,943.1c-0.4-0.2-0.9-0.4-1.3-0.5c-0.5-0.1-1-0.2-1.5-0.2c-0.9,0-1.6,0.2-2,0.6s-0.7,0.9-0.7,1.4c0,0.6,0.2,1,0.7,1.3
			s1,0.5,1.6,0.5c0.5,0,0.9-0.1,1.3-0.3c0.4-0.2,0.8-0.4,1-0.7c0.3-0.3,0.5-0.6,0.7-1C640.5,943.9,640.6,943.5,640.6,943.1z"/>
		<path fill="#FFFFFF" d="M652.4,949.1c-0.9,0-1.7-0.1-2.4-0.3c-0.7-0.2-1.3-0.5-1.8-0.9c-0.5-0.4-0.9-0.8-1.3-1.3
			c-0.4-0.5-0.6-1-0.8-1.4l3.3-1.4c0.3,0.7,0.7,1.2,1.3,1.6c0.5,0.3,1.1,0.5,1.8,0.5c0.7,0,1.2-0.1,1.6-0.4c0.4-0.2,0.6-0.5,0.6-0.9
			c0-0.4-0.2-0.7-0.5-0.9c-0.3-0.2-0.9-0.4-1.7-0.6l-1.9-0.4c-0.4-0.1-0.9-0.2-1.3-0.4c-0.5-0.2-0.9-0.5-1.2-0.8
			c-0.4-0.3-0.7-0.7-0.9-1.1c-0.2-0.4-0.4-1-0.4-1.6c0-0.7,0.1-1.3,0.4-1.8s0.7-1,1.2-1.3s1.1-0.6,1.8-0.8c0.7-0.2,1.4-0.3,2.2-0.3
			c1.3,0,2.5,0.3,3.5,0.8c1,0.5,1.8,1.3,2.3,2.5l-3.2,1.3c-0.3-0.5-0.6-0.9-1.1-1.2c-0.5-0.2-1-0.4-1.5-0.4c-0.5,0-1,0.1-1.4,0.3
			s-0.6,0.5-0.6,0.8c0,0.3,0.2,0.6,0.5,0.8c0.3,0.2,0.8,0.4,1.3,0.5l2.1,0.5c1.4,0.3,2.4,0.9,3.1,1.6c0.7,0.7,1,1.6,1,2.6
			c0,0.6-0.1,1.2-0.4,1.7c-0.3,0.5-0.7,1-1.2,1.4c-0.5,0.4-1.1,0.8-1.8,1S653.3,949.1,652.4,949.1z"/>
		<path fill="#FFFFFF" d="M661.9,938h-2.4v-3.1h2.4v-4.2h3.7v4.2h3.4v3.1h-3.4v5.5c0,0.3,0,0.6,0.1,0.9s0.2,0.5,0.4,0.7
			c0.3,0.3,0.6,0.5,1.1,0.5c0.3,0,0.6,0,0.8-0.1s0.4-0.2,0.5-0.3l1,3.2c-0.4,0.2-0.9,0.4-1.4,0.5c-0.5,0.1-1,0.2-1.6,0.2
			c-0.7,0-1.3-0.1-1.9-0.3c-0.6-0.2-1-0.5-1.4-0.9c-0.9-0.9-1.3-2.1-1.3-3.7V938z"/>
		<path fill="#FFFFFF" d="M684.4,945.3c-0.6,1.1-1.5,2-2.6,2.7s-2.4,1-3.9,1c-1,0-2-0.2-2.9-0.5c-0.9-0.4-1.7-0.9-2.3-1.5
			c-0.7-0.7-1.2-1.4-1.5-2.3s-0.5-1.9-0.5-2.9c0-1,0.2-1.9,0.5-2.8c0.4-0.9,0.8-1.7,1.5-2.3c0.6-0.7,1.4-1.2,2.3-1.6
			s1.8-0.6,2.9-0.6c1.1,0,2.1,0.2,2.9,0.5c0.9,0.4,1.6,0.9,2.2,1.5c0.6,0.6,1,1.4,1.3,2.3c0.3,0.9,0.4,1.8,0.4,2.9
			c0,0.1,0,0.2,0,0.3c0,0.1,0,0.2,0,0.3c0,0.1,0,0.2,0,0.3h-10.3c0.1,0.6,0.2,1,0.5,1.4c0.2,0.4,0.5,0.7,0.9,1
			c0.3,0.3,0.7,0.5,1.1,0.6c0.4,0.1,0.8,0.2,1.3,0.2c0.8,0,1.5-0.2,2.1-0.6s1-0.9,1.3-1.4L684.4,945.3z M681.1,940
			c0-0.2-0.1-0.5-0.2-0.8c-0.1-0.3-0.3-0.6-0.6-0.8c-0.3-0.3-0.6-0.5-1-0.6s-0.9-0.3-1.4-0.3c-0.8,0-1.5,0.2-2.1,0.7s-1,1.1-1.3,1.9
			H681.1z"/>
	</g>
</g>
</svg>
