<?xml version="1.0" encoding="utf-8"?>
<!-- Generator: Adobe Illustrator 24.1.2, SVG Export Plug-In . SVG Version: 6.00 Build 0)  -->
<svg version="1.2" baseProfile="tiny" xmlns="http://www.w3.org/2000/svg" xmlns:xlink="http://www.w3.org/1999/xlink" x="0px"
	 y="0px" viewBox="0 0 1000 1000" overflow="visible" xml:space="preserve">
<g id="Layer_4">
</g>
<g id="Layer_1">
	<g>
		<path fill="#FFFFFF" d="M47.8,63.7h7.3c1,0,1.9,0.2,2.7,0.5c0.8,0.3,1.5,0.8,2.1,1.3s1,1.2,1.4,2c0.3,0.8,0.5,1.6,0.5,2.5
			c0,0.7-0.1,1.3-0.3,1.9c-0.2,0.6-0.5,1.1-0.9,1.6c-0.4,0.5-0.8,0.9-1.4,1.3c-0.5,0.4-1.1,0.6-1.7,0.9l0,0.2l5.4,7.7v0.2h-4.3
			l-5.2-7.5h-1.8v7.5h-3.8V63.7z M55.1,72.8c0.9,0,1.6-0.3,2.1-0.8c0.5-0.5,0.8-1.2,0.8-2c0-0.4-0.1-0.7-0.2-1s-0.3-0.6-0.5-0.9
			c-0.2-0.3-0.5-0.5-0.9-0.6c-0.4-0.2-0.8-0.2-1.2-0.2h-3.6v5.6H55.1z"/>
		<path fill="#FFFFFF" d="M77.4,80.5c-0.6,1.1-1.5,2-2.6,2.7s-2.4,1-3.9,1c-1,0-2-0.2-2.9-0.5c-0.9-0.4-1.7-0.9-2.3-1.5
			c-0.7-0.7-1.2-1.4-1.5-2.3c-0.4-0.9-0.5-1.9-0.5-2.9c0-1,0.2-1.9,0.5-2.8c0.4-0.9,0.8-1.7,1.5-2.3c0.6-0.7,1.4-1.2,2.3-1.6
			s1.8-0.6,2.9-0.6c1.1,0,2.1,0.2,2.9,0.5c0.9,0.4,1.6,0.9,2.2,1.5c0.6,0.6,1,1.4,1.3,2.3c0.3,0.9,0.4,1.8,0.4,2.9
			c0,0.1,0,0.2,0,0.3c0,0.1,0,0.2,0,0.3c0,0.1,0,0.2,0,0.3H67.3c0.1,0.6,0.2,1,0.5,1.4c0.2,0.4,0.5,0.7,0.9,1
			c0.3,0.3,0.7,0.5,1.1,0.6c0.4,0.1,0.8,0.2,1.3,0.2c0.8,0,1.5-0.2,2.1-0.6c0.6-0.4,1-0.9,1.3-1.4L77.4,80.5z M74.1,75.1
			c0-0.2-0.1-0.5-0.2-0.8c-0.1-0.3-0.3-0.6-0.6-0.8c-0.3-0.3-0.6-0.5-1-0.6s-0.9-0.3-1.4-0.3c-0.8,0-1.5,0.2-2.1,0.7s-1,1.1-1.3,1.9
			H74.1z"/>
		<path fill="#FFFFFF" d="M88.6,82.3h-0.2c-0.4,0.5-0.9,1-1.6,1.3c-0.6,0.4-1.4,0.6-2.3,0.6c-0.7,0-1.4-0.1-2-0.4
			c-0.6-0.2-1.2-0.6-1.6-1c-0.5-0.4-0.8-0.9-1.1-1.5c-0.3-0.6-0.4-1.2-0.4-1.9c0-0.7,0.1-1.3,0.4-1.9s0.7-1.1,1.2-1.5
			c0.5-0.4,1.1-0.7,1.8-0.9c0.7-0.2,1.4-0.3,2.2-0.3c0.9,0,1.6,0.1,2.2,0.2c0.6,0.1,1.1,0.3,1.4,0.4v-0.4c0-0.7-0.3-1.3-0.9-1.8
			c-0.6-0.5-1.3-0.7-2.2-0.7c-1.3,0-2.3,0.5-3.2,1.6l-2.7-1.8c1.5-1.8,3.4-2.7,6-2.7c2.1,0,3.8,0.5,4.9,1.5s1.7,2.5,1.7,4.4v8.2
			h-3.6V82.3z M88.6,78.2c-0.4-0.2-0.9-0.4-1.3-0.5c-0.5-0.1-1-0.2-1.5-0.2c-0.9,0-1.6,0.2-2,0.6c-0.5,0.4-0.7,0.9-0.7,1.4
			s0.2,1,0.7,1.3s1,0.5,1.6,0.5c0.5,0,0.9-0.1,1.3-0.3c0.4-0.2,0.8-0.4,1-0.7c0.3-0.3,0.5-0.6,0.7-1C88.5,79,88.6,78.6,88.6,78.2z"
			/>
		<path fill="#FFFFFF" d="M105.2,82.1H105c-0.3,0.6-0.9,1.1-1.6,1.5c-0.7,0.4-1.6,0.6-2.6,0.6c-0.9,0-1.7-0.2-2.5-0.5
			c-0.8-0.4-1.5-0.9-2.1-1.5s-1.1-1.4-1.4-2.3c-0.4-0.9-0.5-1.9-0.5-2.9s0.2-2,0.5-2.9c0.4-0.9,0.8-1.7,1.4-2.3s1.3-1.1,2.1-1.5
			c0.8-0.4,1.6-0.5,2.5-0.5c1,0,1.9,0.2,2.6,0.6c0.7,0.4,1.2,0.9,1.6,1.5h0.2l-0.2-2v-6h3.7v20h-3.4V82.1z M101.6,80.8
			c0.5,0,0.9-0.1,1.4-0.3c0.4-0.2,0.8-0.4,1.2-0.8s0.6-0.7,0.8-1.2c0.2-0.5,0.3-1,0.3-1.7c0-0.6-0.1-1.2-0.3-1.7
			c-0.2-0.5-0.5-0.9-0.8-1.2s-0.7-0.6-1.2-0.8c-0.4-0.2-0.9-0.3-1.4-0.3s-0.9,0.1-1.4,0.3c-0.4,0.2-0.8,0.4-1.2,0.8
			s-0.6,0.7-0.8,1.2s-0.3,1-0.3,1.6c0,0.6,0.1,1.1,0.3,1.6s0.5,0.9,0.8,1.2s0.7,0.6,1.2,0.8C100.6,80.7,101.1,80.8,101.6,80.8z"/>
		<path fill="#FFFFFF" d="M114,74.5c-0.7,0-1.2-0.2-1.7-0.7c-0.5-0.5-0.7-1.1-0.7-1.7s0.2-1.2,0.7-1.7c0.5-0.5,1.1-0.7,1.7-0.7
			s1.2,0.2,1.7,0.7c0.5,0.5,0.7,1.1,0.7,1.7s-0.2,1.2-0.7,1.7C115.3,74.3,114.7,74.5,114,74.5z M114,83.8c-0.7,0-1.2-0.2-1.7-0.7
			c-0.5-0.5-0.7-1.1-0.7-1.7s0.2-1.2,0.7-1.7c0.5-0.5,1.1-0.7,1.7-0.7s1.2,0.2,1.7,0.7c0.5,0.5,0.7,1,0.7,1.7s-0.2,1.2-0.7,1.7
			C115.3,83.5,114.7,83.8,114,83.8z"/>
	</g>
</g>
<g id="Layer_2">
	<rect y="0" width="1000" height="1000"/>
	<g>
		<path fill="#FFFFFF" d="M154.6,795.9h5.5v9l-0.3,2.9h0.3c0.5-0.9,1.3-1.6,2.4-2.2c1.1-0.6,2.4-0.9,4-0.9c1.3,0,2.6,0.3,3.8,0.8
			c1.2,0.5,2.2,1.3,3.2,2.3c0.9,1,1.6,2.1,2.2,3.5c0.5,1.3,0.8,2.8,0.8,4.4s-0.3,3.1-0.8,4.4c-0.5,1.3-1.3,2.5-2.2,3.5
			c-0.9,1-2,1.7-3.2,2.3c-1.2,0.5-2.4,0.8-3.8,0.8c-1.6,0-2.9-0.3-4-0.9c-1.1-0.6-1.8-1.4-2.4-2.2h-0.3v2.5h-5.2V795.9z
			 M165.3,821.6c0.7,0,1.4-0.1,2.1-0.4s1.2-0.7,1.7-1.2c0.5-0.5,0.9-1.1,1.2-1.8c0.3-0.7,0.5-1.5,0.5-2.4s-0.2-1.7-0.5-2.4
			c-0.3-0.7-0.7-1.3-1.2-1.8c-0.5-0.5-1.1-0.9-1.7-1.2s-1.4-0.4-2.1-0.4s-1.4,0.1-2.1,0.4c-0.7,0.3-1.2,0.7-1.7,1.2
			c-0.5,0.5-0.9,1.1-1.2,1.8s-0.5,1.6-0.5,2.5c0,0.9,0.2,1.8,0.5,2.5c0.3,0.7,0.7,1.3,1.2,1.8c0.5,0.5,1.1,0.9,1.7,1.2
			C163.9,821.5,164.6,821.6,165.3,821.6z"/>
		<path fill="#FFFFFF" d="M179.4,805.4h5.2v2.9h0.3c0.3-0.5,0.6-1,1-1.4c0.4-0.4,0.9-0.8,1.4-1.1c0.5-0.3,1.1-0.6,1.7-0.8
			c0.6-0.2,1.2-0.3,1.8-0.3c0.7,0,1.3,0.1,1.9,0.2c0.5,0.2,1,0.4,1.3,0.6l-1.5,4.9c-0.3-0.2-0.7-0.3-1.1-0.4
			c-0.4-0.1-0.9-0.1-1.5-0.1c-0.8,0-1.4,0.1-2.1,0.4c-0.6,0.3-1.1,0.7-1.6,1.2c-0.4,0.5-0.8,1.2-1,1.9c-0.2,0.7-0.4,1.5-0.4,2.3V826
			h-5.5V805.4z"/>
		<path fill="#FFFFFF" d="M205,804.8c1.6,0,3.1,0.3,4.4,0.8c1.3,0.5,2.5,1.3,3.4,2.3c1,1,1.7,2.1,2.3,3.5c0.5,1.3,0.8,2.8,0.8,4.4
			s-0.3,3.1-0.8,4.4s-1.3,2.5-2.3,3.5c-1,1-2.1,1.7-3.4,2.3c-1.3,0.5-2.8,0.8-4.4,0.8c-1.6,0-3.1-0.3-4.4-0.8
			c-1.3-0.5-2.5-1.3-3.4-2.3c-1-1-1.7-2.1-2.3-3.5c-0.5-1.3-0.8-2.8-0.8-4.4s0.3-3.1,0.8-4.4c0.5-1.3,1.3-2.5,2.3-3.5
			c1-1,2.1-1.7,3.4-2.3S203.4,804.8,205,804.8z M205,821.6c0.7,0,1.4-0.1,2-0.4c0.7-0.3,1.2-0.7,1.7-1.2c0.5-0.5,0.9-1.1,1.2-1.8
			c0.3-0.7,0.4-1.6,0.4-2.5c0-0.9-0.1-1.8-0.4-2.5s-0.7-1.3-1.2-1.8c-0.5-0.5-1.1-0.9-1.7-1.2c-0.7-0.3-1.3-0.4-2-0.4
			c-0.7,0-1.4,0.1-2.1,0.4c-0.6,0.3-1.2,0.7-1.7,1.2c-0.5,0.5-0.9,1.1-1.2,1.8s-0.4,1.6-0.4,2.5c0,0.9,0.1,1.8,0.4,2.5
			c0.3,0.7,0.7,1.3,1.2,1.8c0.5,0.5,1.1,0.9,1.7,1.2C203.6,821.5,204.3,821.6,205,821.6z"/>
		<path fill="#FFFFFF" d="M216.9,805.4h6.2l3.4,12.9h0.3l4.1-12.9h5.7l4.1,12.9h0.3l3.4-12.9h6.1l-6.6,20.6h-5.9l-4.1-13h-0.3
			l-4.1,13h-5.8L216.9,805.4z"/>
		<path fill="#FFFFFF" d="M261,826.7c-1.3,0-2.5-0.2-3.6-0.5s-2-0.8-2.7-1.3c-0.8-0.5-1.4-1.2-2-1.9c-0.5-0.7-0.9-1.4-1.2-2.2
			l4.9-2.1c0.5,1.1,1.1,1.9,1.9,2.4c0.8,0.5,1.7,0.8,2.7,0.8c1,0,1.8-0.2,2.4-0.5s0.9-0.8,0.9-1.3c0-0.6-0.2-1-0.7-1.4
			c-0.5-0.3-1.3-0.7-2.5-0.9l-2.9-0.6c-0.6-0.1-1.3-0.4-2-0.7c-0.7-0.3-1.3-0.7-1.9-1.2c-0.6-0.5-1-1-1.4-1.7
			c-0.4-0.7-0.5-1.5-0.5-2.4c0-1,0.2-1.9,0.7-2.7c0.4-0.8,1-1.4,1.8-2c0.8-0.5,1.6-1,2.7-1.3c1-0.3,2.1-0.4,3.3-0.4
			c2,0,3.7,0.4,5.3,1.2s2.7,2,3.4,3.7l-4.7,1.9c-0.4-0.8-1-1.4-1.7-1.8c-0.8-0.4-1.5-0.5-2.3-0.5c-0.8,0-1.5,0.2-2.1,0.5
			c-0.6,0.3-0.9,0.7-0.9,1.2c0,0.5,0.2,0.9,0.7,1.1c0.5,0.3,1.2,0.5,2,0.8l3.2,0.8c2.1,0.5,3.7,1.3,4.7,2.4c1,1.1,1.5,2.4,1.5,3.9
			c0,0.9-0.2,1.8-0.6,2.6c-0.4,0.8-1,1.5-1.8,2.2c-0.8,0.6-1.7,1.1-2.8,1.5C263.6,826.5,262.4,826.7,261,826.7z"/>
		<path fill="#FFFFFF" d="M292.9,821.1c-1,1.7-2.2,3-3.8,4.1s-3.6,1.6-5.9,1.6c-1.6,0-3-0.3-4.3-0.8c-1.3-0.5-2.5-1.3-3.5-2.3
			c-1-1-1.7-2.1-2.3-3.5c-0.5-1.3-0.8-2.8-0.8-4.4c0-1.5,0.3-2.9,0.8-4.2c0.5-1.3,1.3-2.5,2.2-3.5s2.1-1.8,3.4-2.4
			c1.3-0.6,2.7-0.9,4.3-0.9c1.7,0,3.1,0.3,4.4,0.8c1.3,0.5,2.4,1.3,3.2,2.3c0.9,1,1.5,2.1,2,3.4c0.4,1.3,0.7,2.7,0.7,4.3
			c0,0.2,0,0.4,0,0.5c0,0.2,0,0.3,0,0.5c0,0.1,0,0.3,0,0.5h-15.5c0.1,0.8,0.3,1.6,0.7,2.2c0.3,0.6,0.8,1.1,1.3,1.5
			c0.5,0.4,1.1,0.7,1.7,0.9c0.6,0.2,1.2,0.3,1.9,0.3c1.3,0,2.3-0.3,3.1-0.9s1.5-1.3,2-2.2L292.9,821.1z M287.9,813.1
			c0-0.4-0.1-0.8-0.4-1.2c-0.2-0.4-0.5-0.9-0.9-1.3c-0.4-0.4-0.9-0.7-1.5-1c-0.6-0.3-1.3-0.4-2.2-0.4c-1.2,0-2.2,0.3-3.1,1
			c-0.9,0.7-1.5,1.6-1.9,2.8H287.9z"/>
		<path fill="#FFFFFF" d="M296.8,805.4h5.2v2.9h0.3c0.3-0.5,0.6-1,1-1.4c0.4-0.4,0.9-0.8,1.4-1.1c0.5-0.3,1.1-0.6,1.7-0.8
			c0.6-0.2,1.2-0.3,1.8-0.3c0.7,0,1.3,0.1,1.9,0.2c0.5,0.2,1,0.4,1.3,0.6l-1.5,4.9c-0.3-0.2-0.7-0.3-1.1-0.4
			c-0.4-0.1-0.9-0.1-1.5-0.1c-0.8,0-1.4,0.1-2.1,0.4c-0.6,0.3-1.1,0.7-1.6,1.2c-0.4,0.5-0.8,1.2-1,1.9c-0.2,0.7-0.4,1.5-0.4,2.3V826
			h-5.5V805.4z"/>
	</g>
	<g>
		<path fill="#FFFFFF" d="M735.6,826.7c-1.3,0-2.5-0.2-3.6-0.5c-1-0.3-2-0.8-2.7-1.3c-0.8-0.5-1.4-1.2-2-1.9
			c-0.5-0.7-0.9-1.4-1.2-2.2l4.9-2.1c0.5,1.1,1.1,1.9,1.9,2.4c0.8,0.5,1.7,0.8,2.7,0.8c1,0,1.8-0.2,2.4-0.5c0.6-0.4,0.9-0.8,0.9-1.3
			c0-0.6-0.2-1-0.7-1.4c-0.5-0.3-1.3-0.7-2.5-0.9l-2.9-0.6c-0.6-0.1-1.3-0.4-2-0.7c-0.7-0.3-1.3-0.7-1.9-1.2c-0.6-0.5-1-1-1.4-1.7
			c-0.4-0.7-0.5-1.5-0.5-2.4c0-1,0.2-1.9,0.7-2.7c0.4-0.8,1-1.4,1.8-2c0.8-0.5,1.6-1,2.7-1.3c1-0.3,2.1-0.4,3.3-0.4
			c2,0,3.7,0.4,5.3,1.2c1.5,0.8,2.7,2,3.4,3.7l-4.7,1.9c-0.4-0.8-1-1.4-1.7-1.8c-0.8-0.4-1.5-0.5-2.3-0.5c-0.8,0-1.5,0.2-2.1,0.5
			c-0.6,0.3-0.9,0.7-0.9,1.2c0,0.5,0.2,0.9,0.7,1.1c0.5,0.3,1.2,0.5,2,0.8l3.2,0.8c2.1,0.5,3.7,1.3,4.7,2.4c1,1.1,1.5,2.4,1.5,3.9
			c0,0.9-0.2,1.8-0.6,2.6c-0.4,0.8-1,1.5-1.8,2.2c-0.8,0.6-1.7,1.1-2.8,1.5C738.1,826.5,736.9,826.7,735.6,826.7z"/>
		<path fill="#FFFFFF" d="M767.4,821.1c-1,1.7-2.2,3-3.8,4.1s-3.6,1.6-5.9,1.6c-1.6,0-3-0.3-4.3-0.8c-1.3-0.5-2.5-1.3-3.5-2.3
			c-1-1-1.7-2.1-2.3-3.5c-0.5-1.3-0.8-2.8-0.8-4.4c0-1.5,0.3-2.9,0.8-4.2c0.5-1.3,1.3-2.5,2.2-3.5c1-1,2.1-1.8,3.4-2.4
			c1.3-0.6,2.7-0.9,4.3-0.9c1.7,0,3.1,0.3,4.4,0.8c1.3,0.5,2.4,1.3,3.2,2.3c0.9,1,1.5,2.1,2,3.4c0.4,1.3,0.7,2.7,0.7,4.3
			c0,0.2,0,0.4,0,0.5c0,0.2,0,0.3,0,0.5c0,0.1,0,0.3,0,0.5h-15.5c0.1,0.8,0.3,1.6,0.7,2.2c0.3,0.6,0.8,1.1,1.3,1.5
			c0.5,0.4,1.1,0.7,1.7,0.9c0.6,0.2,1.2,0.3,1.9,0.3c1.3,0,2.3-0.3,3.1-0.9s1.5-1.3,2-2.2L767.4,821.1z M762.4,813.1
			c0-0.4-0.1-0.8-0.4-1.2s-0.5-0.9-0.9-1.3c-0.4-0.4-0.9-0.7-1.5-1c-0.6-0.3-1.3-0.4-2.2-0.4c-1.2,0-2.2,0.3-3.1,1
			c-0.9,0.7-1.5,1.6-1.9,2.8H762.4z"/>
		<path fill="#FFFFFF" d="M771.3,805.4h5.2v2.9h0.3c0.3-0.5,0.6-1,1-1.4c0.4-0.4,0.9-0.8,1.4-1.1c0.5-0.3,1.1-0.6,1.7-0.8
			c0.6-0.2,1.2-0.3,1.8-0.3c0.7,0,1.4,0.1,1.9,0.2c0.5,0.2,1,0.4,1.3,0.6l-1.5,4.9c-0.3-0.2-0.7-0.3-1.1-0.4
			c-0.4-0.1-0.9-0.1-1.5-0.1c-0.8,0-1.4,0.1-2.1,0.4c-0.6,0.3-1.1,0.7-1.6,1.2s-0.8,1.2-1,1.9c-0.2,0.7-0.4,1.5-0.4,2.3V826h-5.5
			V805.4z"/>
		<path fill="#FFFFFF" d="M786.6,805.4h6.3l5.1,13.1h0.3l5.2-13.1h6.2l-8.9,20.6h-5.4L786.6,805.4z"/>
		<path fill="#FFFFFF" d="M831.1,821.1c-1,1.7-2.2,3-3.8,4.1s-3.6,1.6-5.9,1.6c-1.6,0-3-0.3-4.3-0.8c-1.3-0.5-2.5-1.3-3.5-2.3
			c-1-1-1.7-2.1-2.3-3.5c-0.5-1.3-0.8-2.8-0.8-4.4c0-1.5,0.3-2.9,0.8-4.2c0.5-1.3,1.3-2.5,2.2-3.5c1-1,2.1-1.8,3.4-2.4
			c1.3-0.6,2.7-0.9,4.3-0.9c1.7,0,3.1,0.3,4.4,0.8c1.3,0.5,2.4,1.3,3.2,2.3c0.9,1,1.5,2.1,2,3.4c0.4,1.3,0.7,2.7,0.7,4.3
			c0,0.2,0,0.4,0,0.5c0,0.2,0,0.3,0,0.5c0,0.1,0,0.3,0,0.5h-15.5c0.1,0.8,0.3,1.6,0.7,2.2c0.3,0.6,0.8,1.1,1.3,1.5
			c0.5,0.4,1.1,0.7,1.7,0.9c0.6,0.2,1.2,0.3,1.9,0.3c1.3,0,2.3-0.3,3.1-0.9s1.5-1.3,2-2.2L831.1,821.1z M826.1,813.1
			c0-0.4-0.1-0.8-0.4-1.2s-0.5-0.9-0.9-1.3c-0.4-0.4-0.9-0.7-1.5-1c-0.6-0.3-1.3-0.4-2.2-0.4c-1.2,0-2.2,0.3-3.1,1
			c-0.9,0.7-1.5,1.6-1.9,2.8H826.1z"/>
		<path fill="#FFFFFF" d="M835,805.4h5.2v2.9h0.3c0.3-0.5,0.6-1,1-1.4c0.4-0.4,0.9-0.8,1.4-1.1c0.5-0.3,1.1-0.6,1.7-0.8
			c0.6-0.2,1.2-0.3,1.8-0.3c0.7,0,1.4,0.1,1.9,0.2c0.5,0.2,1,0.4,1.3,0.6l-1.5,4.9c-0.3-0.2-0.7-0.3-1.1-0.4
			c-0.4-0.1-0.9-0.1-1.5-0.1c-0.8,0-1.4,0.1-2.1,0.4c-0.6,0.3-1.1,0.7-1.6,1.2s-0.8,1.2-1,1.9c-0.2,0.7-0.4,1.5-0.4,2.3V826H835
			V805.4z"/>
	</g>
	<g>
		<g>
			<path fill="#FFFF00" d="M471.4,264.8l-1.8-0.3l0.4-2.4l1.8,0.3l0.6-3.2l2.8,0.5l-0.6,3.2l2.6,0.5l-0.4,2.4l-2.6-0.5l-0.8,4.2
				c0,0.3-0.1,0.5-0.1,0.7c0,0.2,0.1,0.4,0.2,0.6c0.2,0.3,0.4,0.4,0.8,0.5c0.2,0,0.4,0.1,0.6,0c0.2,0,0.3-0.1,0.4-0.1l0.3,2.6
				c-0.4,0.1-0.7,0.2-1.1,0.2c-0.4,0-0.8,0-1.3-0.1c-0.5-0.1-1-0.3-1.4-0.5c-0.4-0.2-0.7-0.5-0.9-0.9c-0.6-0.8-0.7-1.8-0.5-3
				L471.4,264.8z"/>
			<path fill="#FFFF00" d="M483.8,274.2l-0.2,0c-0.4,0.3-0.9,0.6-1.4,0.8c-0.5,0.2-1.1,0.2-1.9,0.1c-0.5-0.1-1-0.3-1.5-0.5
				c-0.4-0.3-0.8-0.6-1.1-1c-0.3-0.4-0.5-0.8-0.6-1.3c-0.1-0.5-0.1-1,0-1.5c0.1-0.5,0.3-1,0.6-1.4c0.3-0.4,0.7-0.7,1.1-1
				c0.4-0.2,0.9-0.4,1.5-0.5c0.6-0.1,1.1,0,1.7,0.1c0.7,0.1,1.2,0.3,1.7,0.5c0.4,0.2,0.8,0.4,1,0.5l0.1-0.3c0.1-0.6,0-1.1-0.4-1.5
				c-0.4-0.4-0.9-0.7-1.5-0.8c-1-0.2-1.9,0.1-2.7,0.8l-1.8-1.8c1.4-1.2,3-1.6,4.9-1.3c1.6,0.3,2.8,0.9,3.5,1.8
				c0.7,0.9,0.9,2.1,0.7,3.6l-1.1,6.3l-2.8-0.5L483.8,274.2z M484.3,271.1c-0.3-0.2-0.6-0.4-0.9-0.6c-0.3-0.2-0.7-0.3-1.1-0.3
				c-0.7-0.1-1.2-0.1-1.6,0.2s-0.7,0.6-0.7,1c-0.1,0.4,0,0.8,0.3,1.1c0.3,0.3,0.7,0.5,1.1,0.6c0.4,0.1,0.7,0.1,1.1,0
				c0.3-0.1,0.6-0.2,0.9-0.4c0.3-0.2,0.5-0.4,0.7-0.7C484.2,271.7,484.3,271.4,484.3,271.1z"/>
			<path fill="#FFFF00" d="M492.4,282.1c-0.7-0.1-1.4-0.3-1.9-0.6c-0.5-0.3-1-0.6-1.4-1c-0.4-0.4-0.7-0.8-0.9-1.2
				c-0.2-0.4-0.4-0.8-0.4-1.2l2.9-0.6c0.1,0.6,0.3,1.1,0.8,1.5c0.4,0.4,0.9,0.6,1.4,0.7c0.9,0.2,1.6,0,2.3-0.5
				c0.6-0.5,1-1.2,1.2-2.2l0.1-0.7l-0.2,0c-0.4,0.4-0.9,0.7-1.5,0.8s-1.2,0.2-2,0.1c-0.6-0.1-1.2-0.4-1.8-0.7
				c-0.5-0.4-1-0.8-1.4-1.4c-0.4-0.6-0.6-1.2-0.8-1.9c-0.2-0.7-0.2-1.5,0-2.3c0.1-0.8,0.4-1.5,0.8-2.2c0.4-0.6,0.9-1.1,1.4-1.5
				c0.5-0.4,1.1-0.7,1.8-0.8c0.6-0.1,1.3-0.2,1.9-0.1c0.7,0.1,1.3,0.4,1.8,0.7s0.9,0.8,1.1,1.3l0.2,0l0.2-1.1l2.7,0.5l-1.8,9.7
				c-0.2,0.9-0.4,1.7-0.8,2.3c-0.4,0.7-0.9,1.2-1.5,1.6c-0.6,0.4-1.2,0.7-1.9,0.8C494,282.2,493.2,282.2,492.4,282.1z M493.8,274.6
				c0.3,0.1,0.7,0.1,1,0c0.4-0.1,0.7-0.2,1-0.4c0.3-0.2,0.6-0.5,0.8-0.8c0.2-0.3,0.4-0.7,0.5-1.2s0.1-0.9,0-1.3
				c-0.1-0.4-0.2-0.7-0.5-1c-0.2-0.3-0.5-0.5-0.8-0.7c-0.3-0.2-0.6-0.3-1-0.4c-0.3-0.1-0.7-0.1-1,0s-0.7,0.2-1,0.4
				c-0.3,0.2-0.6,0.5-0.8,0.8c-0.2,0.3-0.4,0.7-0.5,1.2s-0.1,0.9,0,1.3c0.1,0.4,0.2,0.7,0.5,1c0.2,0.3,0.5,0.5,0.8,0.7
				C493.2,274.4,493.5,274.5,493.8,274.6z"/>
			<path fill="#FFFF00" d="M502.3,272.6l10,1.8l-0.4,2.5l-10-1.8L502.3,272.6z M503,268.3l10,1.8l-0.4,2.5l-10-1.8L503,268.3z"/>
			<path fill="#FFFF00" d="M513.5,278.4l6.4-4.8l-5.2-0.9l0.4-2.4l8.6,1.6l-0.4,2.3l-6.4,4.8l5.4,1l-0.4,2.4l-8.9-1.6L513.5,278.4z"
				/>
			<path fill="#FFFF00" d="M530.6,272.7c0.8,0.1,1.5,0.4,2.2,0.8c0.6,0.4,1.1,0.9,1.5,1.5s0.7,1.2,0.8,2s0.2,1.5,0,2.3
				c-0.1,0.8-0.4,1.5-0.8,2.2c-0.4,0.6-0.9,1.2-1.5,1.6c-0.6,0.4-1.2,0.7-2,0.8c-0.7,0.2-1.5,0.2-2.3,0c-0.8-0.1-1.5-0.4-2.2-0.8
				c-0.6-0.4-1.1-0.9-1.5-1.5c-0.4-0.6-0.7-1.2-0.8-2s-0.2-1.5,0-2.3c0.1-0.8,0.4-1.5,0.8-2.2c0.4-0.6,0.9-1.2,1.5-1.6
				c0.6-0.4,1.2-0.7,2-0.8C529,272.5,529.8,272.5,530.6,272.7z M529,281.2c0.4,0.1,0.7,0.1,1.1,0c0.4-0.1,0.7-0.2,1-0.4
				c0.3-0.2,0.6-0.5,0.8-0.8c0.2-0.3,0.4-0.8,0.5-1.2s0.1-0.9,0-1.3c-0.1-0.4-0.2-0.7-0.4-1.1c-0.2-0.3-0.5-0.6-0.8-0.7
				c-0.3-0.2-0.6-0.3-1-0.4c-0.4-0.1-0.7-0.1-1.1,0s-0.7,0.2-1,0.4c-0.3,0.2-0.6,0.5-0.8,0.8c-0.2,0.3-0.4,0.8-0.5,1.2
				c-0.1,0.5-0.1,0.9,0,1.3c0.1,0.4,0.2,0.7,0.4,1.1c0.2,0.3,0.5,0.6,0.8,0.7C528.3,281.1,528.6,281.2,529,281.2z"/>
			<path fill="#FFFF00" d="M537.6,274.3l2.6,0.5l-0.3,1.5l0.2,0c0.2-0.2,0.4-0.4,0.6-0.6s0.5-0.3,0.8-0.4c0.3-0.1,0.6-0.2,0.9-0.2
				c0.3,0,0.6,0,0.9,0c0.4,0.1,0.7,0.2,0.9,0.3c0.2,0.1,0.5,0.3,0.6,0.4l-1.2,2.4c-0.2-0.1-0.3-0.2-0.5-0.3
				c-0.2-0.1-0.4-0.2-0.7-0.2c-0.4-0.1-0.7-0.1-1.1,0s-0.6,0.3-0.9,0.5c-0.3,0.2-0.5,0.5-0.7,0.9c-0.2,0.3-0.3,0.7-0.4,1.2l-0.9,5.2
				l-2.8-0.5L537.6,274.3z"/>
			<path fill="#FFFF00" d="M550.7,276.3c0.8,0.1,1.5,0.4,2.2,0.8c0.6,0.4,1.1,0.9,1.5,1.5s0.7,1.2,0.8,2s0.2,1.5,0,2.3
				c-0.1,0.8-0.4,1.5-0.8,2.2c-0.4,0.6-0.9,1.2-1.5,1.6c-0.6,0.4-1.2,0.7-2,0.8c-0.7,0.2-1.5,0.2-2.3,0s-1.5-0.4-2.2-0.8
				c-0.6-0.4-1.1-0.9-1.5-1.5c-0.4-0.6-0.7-1.2-0.8-2c-0.2-0.7-0.2-1.5,0-2.3c0.1-0.8,0.4-1.5,0.8-2.2c0.4-0.6,0.9-1.2,1.5-1.6
				c0.6-0.4,1.2-0.7,2-0.8C549.1,276.2,549.9,276.2,550.7,276.3z M549.2,284.9c0.4,0.1,0.7,0.1,1.1,0c0.4-0.1,0.7-0.2,1-0.4
				c0.3-0.2,0.6-0.5,0.8-0.8c0.2-0.3,0.4-0.8,0.5-1.2s0.1-0.9,0-1.3c-0.1-0.4-0.2-0.7-0.4-1.1c-0.2-0.3-0.5-0.6-0.8-0.7
				c-0.3-0.2-0.6-0.3-1-0.4c-0.4-0.1-0.7-0.1-1.1,0s-0.7,0.2-1,0.4c-0.3,0.2-0.6,0.5-0.8,0.8c-0.2,0.3-0.4,0.8-0.5,1.2
				c-0.1,0.5-0.1,0.9,0,1.3c0.1,0.4,0.2,0.7,0.4,1.1c0.2,0.3,0.5,0.6,0.8,0.7C548.5,284.7,548.8,284.8,549.2,284.9z"/>
		</g>
		<g>
			<path fill="#FFFF00" d="M358.9,529.6l-0.2,0c-0.3,0.4-0.8,0.7-1.4,0.9c-0.6,0.2-1.3,0.3-2.1,0.1c-0.7-0.1-1.3-0.4-1.8-0.8
				c-0.6-0.4-1-0.9-1.4-1.4c-0.4-0.6-0.6-1.2-0.8-2c-0.1-0.7-0.1-1.5,0-2.3c0.1-0.8,0.4-1.5,0.8-2.2c0.4-0.6,0.9-1.2,1.4-1.6
				c0.6-0.4,1.2-0.7,1.8-0.9s1.3-0.2,2-0.1c0.8,0.1,1.4,0.4,1.9,0.8c0.5,0.4,0.8,0.9,1,1.4l0.2,0l0.1-1.5l0.8-4.6l2.8,0.5l-2.8,15.3
				l-2.6-0.5L358.9,529.6z M356.2,528.1c0.4,0.1,0.7,0.1,1.1,0c0.4-0.1,0.7-0.2,1-0.4c0.3-0.2,0.6-0.5,0.8-0.8
				c0.2-0.3,0.4-0.8,0.5-1.2c0.1-0.5,0.1-0.9,0-1.3c-0.1-0.4-0.2-0.8-0.5-1.1c-0.2-0.3-0.5-0.6-0.8-0.7s-0.7-0.3-1-0.4
				c-0.4-0.1-0.7-0.1-1.1,0c-0.4,0.1-0.7,0.2-1,0.4c-0.3,0.2-0.6,0.5-0.8,0.8c-0.2,0.3-0.4,0.7-0.5,1.2c-0.1,0.5-0.1,0.9,0,1.3
				c0.1,0.4,0.2,0.8,0.4,1.1c0.2,0.3,0.5,0.6,0.8,0.8C355.5,527.9,355.9,528,356.2,528.1z"/>
			<path fill="#FFFF00" d="M373.9,531c-0.6,0.8-1.4,1.3-2.3,1.7c-0.9,0.4-2,0.5-3.1,0.2c-0.8-0.1-1.5-0.4-2.1-0.8
				c-0.6-0.4-1.1-0.9-1.6-1.5c-0.4-0.6-0.7-1.2-0.8-2c-0.2-0.7-0.2-1.5,0-2.3c0.1-0.8,0.4-1.4,0.8-2.1c0.4-0.6,0.9-1.2,1.5-1.6
				c0.6-0.4,1.2-0.7,1.9-0.9c0.7-0.2,1.5-0.2,2.3-0.1c0.8,0.2,1.6,0.4,2.2,0.8s1.1,0.9,1.4,1.5c0.4,0.6,0.6,1.2,0.7,1.9
				c0.1,0.7,0.1,1.5-0.1,2.2c0,0.1,0,0.2,0,0.3c0,0.1-0.1,0.2-0.1,0.2c0,0.1,0,0.1-0.1,0.2l-7.9-1.4c0,0.4,0,0.8,0.2,1.2
				c0.1,0.3,0.3,0.6,0.5,0.9c0.2,0.3,0.5,0.5,0.8,0.6c0.3,0.1,0.6,0.3,0.9,0.3c0.6,0.1,1.2,0.1,1.7-0.2c0.5-0.2,0.9-0.5,1.2-0.9
				L373.9,531z M372.1,526.5c0-0.2,0-0.4-0.1-0.7c-0.1-0.2-0.2-0.5-0.4-0.7c-0.2-0.2-0.4-0.4-0.7-0.6c-0.3-0.2-0.6-0.3-1.1-0.4
				c-0.6-0.1-1.2,0-1.7,0.2c-0.5,0.3-0.9,0.7-1.2,1.3L372.1,526.5z"/>
			<path fill="#FFFF00" d="M386,533c-0.6,0.8-1.4,1.4-2.3,1.8c-0.9,0.4-2,0.5-3.2,0.3c-0.8-0.1-1.5-0.4-2.2-0.8
				c-0.6-0.4-1.1-0.9-1.5-1.5c-0.4-0.6-0.7-1.2-0.8-2c-0.2-0.7-0.2-1.5,0-2.3c0.1-0.8,0.4-1.5,0.8-2.2s0.9-1.2,1.5-1.6
				c0.6-0.4,1.2-0.7,2-0.8c0.7-0.2,1.5-0.2,2.3,0c1.2,0.2,2.2,0.7,2.9,1.4c0.7,0.7,1.2,1.5,1.4,2.5l-2.8,0.6c-0.2-0.5-0.4-1-0.7-1.3
				s-0.8-0.5-1.4-0.6c-0.4-0.1-0.7-0.1-1.1,0c-0.4,0.1-0.7,0.2-1,0.4c-0.3,0.2-0.5,0.5-0.8,0.8c-0.2,0.3-0.4,0.7-0.4,1.2
				c-0.1,0.5-0.1,0.9,0,1.3c0.1,0.4,0.2,0.7,0.4,1c0.2,0.3,0.5,0.6,0.8,0.8s0.6,0.3,1,0.4c0.6,0.1,1.1,0.1,1.6-0.1
				c0.5-0.2,0.8-0.5,1.2-1L386,533z"/>
			<path fill="#FFFF00" d="M389,525.5l2.6,0.5l-0.3,1.5l0.2,0c0.2-0.2,0.4-0.4,0.6-0.6c0.3-0.2,0.5-0.3,0.8-0.4
				c0.3-0.1,0.6-0.2,0.9-0.2c0.3,0,0.6,0,0.9,0c0.4,0.1,0.7,0.2,0.9,0.3c0.2,0.1,0.5,0.3,0.6,0.4l-1.2,2.4c-0.2-0.1-0.3-0.2-0.5-0.3
				c-0.2-0.1-0.4-0.2-0.7-0.2c-0.4-0.1-0.7-0.1-1.1,0c-0.3,0.1-0.6,0.3-0.9,0.5c-0.3,0.2-0.5,0.5-0.7,0.9c-0.2,0.3-0.3,0.7-0.4,1.2
				l-0.9,5.2l-2.8-0.5L389,525.5z"/>
			<path fill="#FFFF00" d="M399.4,537.7l-2.6-10.8l3.2,0.6l1.5,6.8l0.2,0l3.7-5.9l3.1,0.6l-9.3,13.9l-3-0.5L399.4,537.7z"/>
			<path fill="#FFFF00" d="M409.7,529.2l2.6,0.5l-0.2,1.3l0.2,0c0.3-0.4,0.8-0.7,1.4-0.9c0.6-0.2,1.3-0.3,2.1-0.1
				c0.7,0.1,1.3,0.4,1.8,0.8c0.6,0.4,1,0.9,1.4,1.4c0.4,0.6,0.6,1.2,0.8,2c0.1,0.7,0.1,1.5,0,2.3c-0.1,0.8-0.4,1.5-0.8,2.2
				c-0.4,0.6-0.9,1.2-1.4,1.6c-0.6,0.4-1.2,0.7-1.8,0.9c-0.7,0.2-1.3,0.2-2,0.1c-0.8-0.1-1.4-0.4-1.9-0.8c-0.5-0.4-0.8-0.9-1-1.4
				l-0.2,0l-0.1,1.5l-0.8,4.4l-2.8-0.5L409.7,529.2z M413.6,538.5c0.4,0.1,0.7,0.1,1.1,0c0.4-0.1,0.7-0.2,1-0.4
				c0.3-0.2,0.6-0.5,0.8-0.8c0.2-0.3,0.4-0.7,0.5-1.2c0.1-0.5,0.1-0.9,0-1.3c-0.1-0.4-0.2-0.8-0.5-1.1c-0.2-0.3-0.5-0.6-0.8-0.8
				s-0.6-0.3-1-0.4c-0.4-0.1-0.7-0.1-1.1,0c-0.4,0.1-0.7,0.2-1,0.4c-0.3,0.2-0.6,0.5-0.8,0.8c-0.2,0.3-0.4,0.7-0.5,1.2
				s-0.1,0.9,0,1.3c0.1,0.4,0.2,0.8,0.5,1.1c0.2,0.3,0.5,0.6,0.8,0.7C412.9,538.3,413.2,538.4,413.6,538.5z"/>
			<path fill="#FFFF00" d="M422.8,534.1l-1.8-0.3l0.4-2.4l1.8,0.3l0.6-3.2l2.8,0.5l-0.6,3.2l2.6,0.5l-0.4,2.4l-2.6-0.5l-0.8,4.2
				c0,0.3-0.1,0.5,0,0.7c0,0.2,0.1,0.4,0.2,0.6c0.2,0.3,0.4,0.4,0.8,0.5c0.2,0,0.4,0.1,0.6,0c0.2,0,0.3-0.1,0.4-0.1l0.3,2.6
				c-0.4,0.1-0.7,0.2-1.1,0.2c-0.4,0-0.8,0-1.3-0.1c-0.5-0.1-1-0.3-1.4-0.5c-0.4-0.2-0.7-0.5-0.9-0.9c-0.6-0.8-0.7-1.8-0.5-3
				L422.8,534.1z"/>
			<path fill="#FFFF00" d="M434.2,533.7l3.2,0.6l1.4,7.1l0.2,0l3.8-6.2l3.2,0.6l-6.4,9.7l-2.8-0.5L434.2,533.7z"/>
			<path fill="#FFFF00" d="M455.5,545.6c-0.6,0.8-1.4,1.4-2.3,1.8c-0.9,0.4-2,0.5-3.2,0.3c-0.8-0.1-1.5-0.4-2.2-0.8
				c-0.6-0.4-1.1-0.9-1.5-1.5c-0.4-0.6-0.7-1.2-0.8-2c-0.2-0.7-0.2-1.5,0-2.3c0.1-0.8,0.4-1.5,0.8-2.2c0.4-0.6,0.9-1.2,1.5-1.6
				c0.6-0.4,1.2-0.7,2-0.8c0.7-0.2,1.5-0.2,2.3,0c1.2,0.2,2.2,0.7,2.9,1.4c0.7,0.7,1.2,1.5,1.4,2.5l-2.8,0.6c-0.2-0.5-0.4-1-0.7-1.3
				c-0.3-0.3-0.8-0.5-1.4-0.6c-0.4-0.1-0.7-0.1-1.1,0c-0.4,0.1-0.7,0.2-1,0.4c-0.3,0.2-0.5,0.5-0.8,0.8c-0.2,0.3-0.4,0.7-0.4,1.2
				c-0.1,0.5-0.1,0.9,0,1.3c0.1,0.4,0.2,0.7,0.4,1c0.2,0.3,0.5,0.6,0.8,0.8c0.3,0.2,0.6,0.3,1,0.4c0.6,0.1,1.1,0.1,1.6-0.1
				c0.5-0.2,0.8-0.5,1.2-1L455.5,545.6z"/>
			<path fill="#FFFF00" d="M459.2,540.7l-1.8-0.3l0.4-2.4l1.8,0.3l0.6-3.2l2.8,0.5l-0.6,3.2l2.6,0.5l-0.4,2.4l-2.6-0.5l-0.8,4.2
				c0,0.3-0.1,0.5,0,0.7c0,0.2,0.1,0.4,0.2,0.6c0.2,0.3,0.4,0.4,0.8,0.5c0.2,0,0.4,0.1,0.6,0c0.2,0,0.3-0.1,0.4-0.1l0.3,2.6
				c-0.4,0.1-0.7,0.2-1.1,0.2c-0.4,0-0.8,0-1.3-0.1c-0.5-0.1-1-0.3-1.4-0.5c-0.4-0.2-0.7-0.5-0.9-0.9c-0.6-0.8-0.7-1.8-0.5-3
				L459.2,540.7z"/>
			<path fill="#FFFF00" d="M476.5,551l-0.2,0c-0.4,0.3-0.9,0.6-1.4,0.8c-0.5,0.2-1.1,0.2-1.9,0.1c-0.5-0.1-1-0.3-1.5-0.5
				c-0.4-0.3-0.8-0.6-1.1-1c-0.3-0.4-0.5-0.8-0.6-1.3c-0.1-0.5-0.1-1,0-1.5c0.1-0.5,0.3-1,0.6-1.4c0.3-0.4,0.7-0.7,1.1-1
				s0.9-0.4,1.5-0.5c0.6-0.1,1.1,0,1.7,0.1c0.7,0.1,1.2,0.3,1.7,0.5c0.4,0.2,0.8,0.4,1,0.5l0.1-0.3c0.1-0.6,0-1.1-0.4-1.5
				c-0.4-0.4-0.9-0.7-1.5-0.8c-1-0.2-1.9,0.1-2.7,0.8l-1.8-1.8c1.4-1.2,3-1.6,4.9-1.3c1.6,0.3,2.8,0.9,3.5,1.8
				c0.7,0.9,0.9,2.1,0.7,3.6l-1.1,6.3l-2.8-0.5L476.5,551z M477.1,547.9c-0.3-0.2-0.6-0.4-0.9-0.6c-0.3-0.2-0.7-0.3-1.1-0.3
				c-0.7-0.1-1.2-0.1-1.6,0.2c-0.4,0.2-0.7,0.6-0.7,1c-0.1,0.4,0,0.8,0.3,1.1c0.3,0.3,0.7,0.5,1.1,0.6c0.4,0.1,0.7,0.1,1.1,0
				c0.3-0.1,0.6-0.2,0.9-0.4c0.3-0.2,0.5-0.4,0.7-0.7C476.9,548.5,477,548.2,477.1,547.9z"/>
			<path fill="#FFFF00" d="M485.6,544.4l0.2,0c0.4-0.5,0.9-0.8,1.6-1c0.6-0.2,1.3-0.2,2-0.1c0.7,0.1,1.2,0.3,1.7,0.6
				c0.5,0.3,0.8,0.7,1.1,1.1c0.2,0.5,0.4,1,0.5,1.5c0.1,0.6,0,1.2-0.1,1.9l-1.1,6.4l-2.8-0.5l1.1-6c0.1-0.8,0.1-1.3-0.2-1.8
				c-0.3-0.4-0.7-0.7-1.4-0.8c-0.4-0.1-0.7,0-1.1,0.1c-0.3,0.1-0.6,0.3-0.9,0.5c-0.3,0.2-0.5,0.5-0.6,0.9c-0.2,0.4-0.3,0.8-0.4,1.2
				l-0.9,5.1l-2.8-0.5l1.9-10.5l2.6,0.5L485.6,544.4z"/>
			<path fill="#FFFF00" d="M501.6,555.4l-0.2,0c-0.3,0.4-0.8,0.7-1.4,0.9c-0.6,0.2-1.3,0.3-2.1,0.1c-0.7-0.1-1.3-0.4-1.8-0.8
				c-0.6-0.4-1-0.9-1.4-1.4c-0.4-0.6-0.6-1.2-0.8-2c-0.1-0.7-0.1-1.5,0-2.3c0.1-0.8,0.4-1.5,0.8-2.2c0.4-0.6,0.9-1.2,1.4-1.6
				c0.6-0.4,1.2-0.7,1.8-0.9c0.7-0.2,1.3-0.2,2-0.1c0.8,0.1,1.4,0.4,1.9,0.8c0.5,0.4,0.8,0.9,1,1.4l0.2,0l0.1-1.5l0.8-4.6l2.8,0.5
				l-2.8,15.3l-2.6-0.5L501.6,555.4z M499,553.9c0.4,0.1,0.7,0.1,1.1,0c0.4-0.1,0.7-0.2,1-0.4s0.6-0.5,0.8-0.8
				c0.2-0.3,0.4-0.7,0.5-1.2s0.1-0.9,0-1.3c-0.1-0.4-0.2-0.8-0.5-1.1c-0.2-0.3-0.5-0.6-0.8-0.7s-0.7-0.3-1-0.4
				c-0.4-0.1-0.7-0.1-1.1,0c-0.4,0.1-0.7,0.2-1,0.4c-0.3,0.2-0.6,0.5-0.8,0.8c-0.2,0.3-0.4,0.7-0.5,1.2c-0.1,0.5-0.1,0.9,0,1.3
				c0.1,0.4,0.2,0.8,0.4,1.1c0.2,0.3,0.5,0.6,0.8,0.8C498.3,553.7,498.6,553.8,499,553.9z"/>
			<path fill="#FFFF00" d="M515.2,559.5c-0.7-0.1-1.3-0.3-1.8-0.6c-0.5-0.3-0.9-0.6-1.3-0.9c-0.3-0.3-0.6-0.7-0.8-1.1
				c-0.2-0.4-0.3-0.8-0.4-1.2l2.7-0.6c0.1,0.6,0.4,1,0.8,1.4c0.4,0.3,0.8,0.6,1.3,0.6c0.5,0.1,0.9,0.1,1.3-0.1
				c0.3-0.1,0.5-0.3,0.6-0.6c0.1-0.3,0-0.5-0.2-0.8c-0.2-0.2-0.6-0.5-1.2-0.7l-1.4-0.6c-0.3-0.1-0.6-0.3-1-0.5
				c-0.3-0.2-0.6-0.5-0.8-0.8s-0.4-0.6-0.5-1s-0.1-0.8-0.1-1.2c0.1-0.5,0.3-0.9,0.6-1.3c0.3-0.4,0.7-0.6,1.1-0.9
				c0.4-0.2,0.9-0.3,1.5-0.4c0.5-0.1,1.1,0,1.7,0.1c1,0.2,1.9,0.5,2.6,1.1c0.7,0.5,1.2,1.3,1.4,2.2l-2.6,0.5
				c-0.1-0.5-0.4-0.8-0.7-1.1c-0.4-0.3-0.7-0.4-1.1-0.5c-0.4-0.1-0.8-0.1-1.1,0.1c-0.3,0.1-0.5,0.3-0.6,0.5c0,0.2,0,0.5,0.3,0.6
				c0.2,0.2,0.5,0.4,0.9,0.6l1.5,0.7c1,0.4,1.7,1,2.2,1.7c0.4,0.7,0.6,1.4,0.4,2.1c-0.1,0.5-0.3,0.9-0.6,1.2
				c-0.3,0.4-0.7,0.7-1.1,0.9c-0.5,0.2-1,0.4-1.5,0.5S515.9,559.6,515.2,559.5z"/>
			<path fill="#FFFF00" d="M531.9,559.6c-0.6,0.8-1.4,1.3-2.3,1.7c-0.9,0.4-2,0.5-3.1,0.2c-0.8-0.1-1.5-0.4-2.1-0.8
				c-0.6-0.4-1.1-0.9-1.6-1.5c-0.4-0.6-0.7-1.2-0.8-2c-0.2-0.7-0.2-1.5,0-2.3c0.1-0.8,0.4-1.4,0.8-2.1c0.4-0.6,0.9-1.2,1.5-1.6
				c0.6-0.4,1.2-0.7,1.9-0.9c0.7-0.2,1.5-0.2,2.3-0.1c0.8,0.2,1.6,0.4,2.2,0.8c0.6,0.4,1.1,0.9,1.4,1.5c0.4,0.6,0.6,1.2,0.7,1.9
				c0.1,0.7,0.1,1.5-0.1,2.2c0,0.1,0,0.2,0,0.3c0,0.1-0.1,0.2-0.1,0.2c0,0.1,0,0.1-0.1,0.2l-7.9-1.4c0,0.4,0,0.8,0.2,1.2
				c0.1,0.3,0.3,0.6,0.5,0.9c0.2,0.3,0.5,0.5,0.8,0.6c0.3,0.1,0.6,0.3,0.9,0.3c0.6,0.1,1.2,0.1,1.7-0.2c0.5-0.2,0.9-0.5,1.2-0.9
				L531.9,559.6z M530.1,555c0-0.2,0-0.4-0.1-0.7c-0.1-0.2-0.2-0.5-0.4-0.7c-0.2-0.2-0.4-0.4-0.7-0.6c-0.3-0.2-0.6-0.3-1.1-0.4
				c-0.6-0.1-1.2,0-1.7,0.2c-0.5,0.3-0.9,0.7-1.2,1.3L530.1,555z"/>
			<path fill="#FFFF00" d="M537.7,553.8l0.2,0c0.4-0.5,0.9-0.8,1.6-1c0.6-0.2,1.3-0.2,2-0.1c0.7,0.1,1.2,0.3,1.7,0.6
				c0.5,0.3,0.8,0.7,1.1,1.1c0.3,0.5,0.4,1,0.5,1.5c0.1,0.6,0,1.2-0.1,1.9l-1.1,6.4l-2.8-0.5l1.1-6c0.1-0.8,0.1-1.3-0.2-1.8
				c-0.3-0.4-0.7-0.7-1.4-0.8c-0.4-0.1-0.7,0-1.1,0.1c-0.3,0.1-0.6,0.3-0.9,0.5c-0.3,0.2-0.5,0.5-0.6,0.9c-0.2,0.4-0.3,0.8-0.4,1.2
				l-0.9,5.1l-2.8-0.5l1.9-10.5l2.6,0.5L537.7,553.8z"/>
			<path fill="#FFFF00" d="M553.7,564.8l-0.2,0c-0.3,0.4-0.8,0.7-1.4,0.9c-0.6,0.2-1.3,0.3-2.1,0.1c-0.7-0.1-1.3-0.4-1.8-0.8
				s-1-0.9-1.4-1.4c-0.4-0.6-0.6-1.2-0.8-2c-0.1-0.7-0.1-1.5,0-2.3c0.1-0.8,0.4-1.5,0.8-2.2c0.4-0.6,0.9-1.2,1.4-1.6
				c0.6-0.4,1.2-0.7,1.8-0.9c0.7-0.2,1.3-0.2,2-0.1c0.8,0.1,1.4,0.4,1.9,0.8c0.5,0.4,0.8,0.9,1,1.4l0.2,0l0.1-1.5l0.8-4.6l2.8,0.5
				l-2.8,15.3l-2.6-0.5L553.7,564.8z M551.1,563.3c0.4,0.1,0.7,0.1,1.1,0c0.4-0.1,0.7-0.2,1-0.4c0.3-0.2,0.6-0.5,0.8-0.8
				c0.2-0.3,0.4-0.7,0.5-1.2s0.1-0.9,0-1.3c-0.1-0.4-0.2-0.8-0.5-1.1c-0.2-0.3-0.5-0.6-0.8-0.7c-0.3-0.2-0.7-0.3-1-0.4
				c-0.4-0.1-0.7-0.1-1.1,0c-0.4,0.1-0.7,0.2-1,0.4c-0.3,0.2-0.6,0.5-0.8,0.8c-0.2,0.3-0.4,0.7-0.5,1.2c-0.1,0.5-0.1,0.9,0,1.3
				c0.1,0.4,0.2,0.8,0.4,1.1c0.2,0.3,0.5,0.6,0.8,0.8C550.4,563.1,550.7,563.3,551.1,563.3z"/>
			<path fill="#FFFF00" d="M564,557.2l3.2,0.6l1.4,7.1l0.2,0l3.8-6.2l3.2,0.6l-6.4,9.7l-2.8-0.5L564,557.2z"/>
			<path fill="#FFFF00" d="M579,571c-0.7-0.1-1.3-0.3-1.8-0.6c-0.5-0.3-0.9-0.6-1.3-0.9c-0.3-0.3-0.6-0.7-0.8-1.1
				c-0.2-0.4-0.3-0.8-0.4-1.2l2.7-0.6c0.1,0.6,0.4,1,0.8,1.4c0.4,0.3,0.8,0.6,1.3,0.6c0.5,0.1,0.9,0.1,1.3-0.1
				c0.3-0.1,0.5-0.3,0.6-0.6c0.1-0.3,0-0.5-0.2-0.8c-0.2-0.2-0.6-0.5-1.2-0.7l-1.4-0.6c-0.3-0.1-0.6-0.3-1-0.5
				c-0.3-0.2-0.6-0.5-0.8-0.8s-0.4-0.6-0.5-1c-0.1-0.4-0.1-0.8-0.1-1.2c0.1-0.5,0.3-0.9,0.6-1.3c0.3-0.4,0.7-0.6,1.1-0.9
				c0.4-0.2,0.9-0.3,1.5-0.4c0.5-0.1,1.1,0,1.7,0.1c1,0.2,1.9,0.5,2.6,1.1c0.7,0.5,1.2,1.3,1.4,2.2l-2.6,0.5
				c-0.1-0.5-0.4-0.8-0.7-1.1c-0.4-0.3-0.7-0.4-1.1-0.5c-0.4-0.1-0.8-0.1-1.1,0.1s-0.5,0.3-0.6,0.5c0,0.2,0,0.5,0.3,0.6
				c0.2,0.2,0.5,0.4,0.9,0.6l1.5,0.7c1,0.4,1.7,1,2.2,1.7c0.4,0.7,0.6,1.4,0.4,2.1c-0.1,0.5-0.3,0.9-0.6,1.2
				c-0.3,0.4-0.7,0.7-1.1,0.9s-1,0.4-1.5,0.5C580.3,571.2,579.7,571.2,579,571z"/>
			<path fill="#FFFF00" d="M595.7,571.1c-0.6,0.8-1.4,1.3-2.3,1.7c-0.9,0.4-2,0.5-3.1,0.2c-0.8-0.1-1.5-0.4-2.1-0.8
				s-1.1-0.9-1.6-1.5c-0.4-0.6-0.7-1.2-0.8-2c-0.2-0.7-0.2-1.5,0-2.3c0.1-0.8,0.4-1.4,0.8-2.1c0.4-0.6,0.9-1.2,1.5-1.6
				c0.6-0.4,1.2-0.7,1.9-0.9c0.7-0.2,1.5-0.2,2.3-0.1c0.8,0.2,1.6,0.4,2.2,0.8c0.6,0.4,1.1,0.9,1.4,1.5c0.4,0.6,0.6,1.2,0.7,1.9
				c0.1,0.7,0.1,1.5-0.1,2.2c0,0.1,0,0.2,0,0.3c0,0.1-0.1,0.2-0.1,0.2c0,0.1,0,0.1-0.1,0.2l-7.9-1.4c0,0.4,0,0.8,0.2,1.2
				c0.1,0.3,0.3,0.6,0.5,0.9c0.2,0.3,0.5,0.5,0.8,0.6s0.6,0.3,0.9,0.3c0.6,0.1,1.2,0.1,1.7-0.2c0.5-0.2,0.9-0.5,1.2-0.9L595.7,571.1
				z M593.9,566.6c0-0.2,0-0.4-0.1-0.7c-0.1-0.2-0.2-0.5-0.4-0.7c-0.2-0.2-0.4-0.4-0.7-0.6s-0.6-0.3-1.1-0.4c-0.6-0.1-1.2,0-1.7,0.2
				c-0.5,0.3-0.9,0.7-1.2,1.3L593.9,566.6z"/>
			<path fill="#FFFF00" d="M607.7,573.3c-0.6,0.8-1.4,1.3-2.3,1.7c-0.9,0.4-2,0.5-3.1,0.2c-0.8-0.1-1.5-0.4-2.1-0.8
				c-0.6-0.4-1.1-0.9-1.6-1.5c-0.4-0.6-0.7-1.2-0.8-2c-0.2-0.7-0.2-1.5,0-2.3c0.1-0.8,0.4-1.4,0.8-2.1c0.4-0.6,0.9-1.2,1.5-1.6
				c0.6-0.4,1.2-0.7,1.9-0.9c0.7-0.2,1.5-0.2,2.3-0.1c0.8,0.2,1.6,0.4,2.2,0.8c0.6,0.4,1.1,0.9,1.4,1.5c0.4,0.6,0.6,1.2,0.7,1.9
				c0.1,0.7,0.1,1.5-0.1,2.2c0,0.1,0,0.2,0,0.3c0,0.1,0,0.2-0.1,0.2c0,0.1,0,0.1-0.1,0.2l-7.9-1.4c0,0.4,0,0.8,0.2,1.2
				c0.1,0.3,0.3,0.6,0.5,0.9c0.2,0.3,0.5,0.5,0.8,0.6c0.3,0.1,0.6,0.3,0.9,0.3c0.6,0.1,1.2,0.1,1.7-0.2c0.5-0.2,0.9-0.5,1.2-0.9
				L607.7,573.3z M605.9,568.8c0-0.2,0-0.4-0.1-0.7c-0.1-0.2-0.2-0.5-0.4-0.7c-0.2-0.2-0.4-0.4-0.7-0.6c-0.3-0.2-0.6-0.3-1.1-0.4
				c-0.6-0.1-1.2,0-1.7,0.2c-0.5,0.3-0.9,0.7-1.2,1.3L605.9,568.8z"/>
			<path fill="#FFFF00" d="M617.4,576.3l-0.2,0c-0.3,0.4-0.8,0.7-1.4,0.9c-0.6,0.2-1.3,0.3-2.1,0.1c-0.7-0.1-1.3-0.4-1.8-0.8
				c-0.6-0.4-1-0.9-1.4-1.4c-0.4-0.6-0.6-1.2-0.8-2s-0.1-1.5,0-2.3c0.1-0.8,0.4-1.5,0.8-2.2c0.4-0.6,0.9-1.2,1.4-1.6
				c0.6-0.4,1.2-0.7,1.8-0.9c0.7-0.2,1.3-0.2,2-0.1c0.8,0.1,1.4,0.4,1.9,0.8c0.5,0.4,0.8,0.9,1,1.4l0.2,0l0.1-1.5l0.8-4.6l2.8,0.5
				l-2.8,15.3l-2.6-0.5L617.4,576.3z M614.8,574.8c0.4,0.1,0.7,0.1,1.1,0c0.4-0.1,0.7-0.2,1-0.4c0.3-0.2,0.6-0.5,0.8-0.8
				c0.2-0.3,0.4-0.7,0.5-1.2s0.1-0.9,0-1.3c-0.1-0.4-0.2-0.8-0.5-1.1c-0.2-0.3-0.5-0.6-0.8-0.7s-0.7-0.3-1-0.4
				c-0.4-0.1-0.7-0.1-1.1,0c-0.4,0.1-0.7,0.2-1,0.4c-0.3,0.2-0.6,0.5-0.8,0.8c-0.2,0.3-0.4,0.7-0.5,1.2c-0.1,0.5-0.1,0.9,0,1.3
				c0.1,0.4,0.2,0.8,0.4,1.1c0.2,0.3,0.5,0.6,0.8,0.8C614,574.6,614.4,574.8,614.8,574.8z"/>
			<path fill="#FFFF00" d="M629.6,564l2.8,0.5l-0.8,4.6l-0.4,1.5l0.2,0c0.3-0.4,0.8-0.7,1.4-0.9c0.6-0.2,1.3-0.3,2.1-0.1
				c0.7,0.1,1.3,0.4,1.8,0.8c0.6,0.4,1,0.9,1.4,1.4c0.4,0.6,0.6,1.2,0.8,2c0.1,0.7,0.1,1.5,0,2.3c-0.1,0.8-0.4,1.5-0.8,2.2
				c-0.4,0.6-0.9,1.2-1.4,1.6c-0.6,0.4-1.2,0.7-1.8,0.9c-0.7,0.2-1.3,0.2-2,0.1c-0.8-0.1-1.4-0.4-1.9-0.8s-0.8-0.9-1-1.4l-0.2,0
				l-0.2,1.3l-2.6-0.5L629.6,564z M632.7,578.1c0.4,0.1,0.7,0.1,1.1,0c0.4-0.1,0.7-0.2,1-0.4c0.3-0.2,0.6-0.5,0.8-0.8
				c0.2-0.3,0.4-0.7,0.5-1.2c0.1-0.5,0.1-0.9,0-1.3c-0.1-0.4-0.2-0.8-0.5-1.1c-0.2-0.3-0.5-0.6-0.8-0.8c-0.3-0.2-0.6-0.3-1-0.4
				c-0.4-0.1-0.7-0.1-1.1,0s-0.7,0.2-1,0.4c-0.3,0.2-0.6,0.5-0.8,0.8c-0.2,0.3-0.4,0.7-0.5,1.2c-0.1,0.5-0.1,0.9,0,1.3
				c0.1,0.4,0.2,0.8,0.4,1.1s0.5,0.6,0.8,0.7C632,577.9,632.3,578,632.7,578.1z"/>
			<path fill="#FFFF00" d="M646.4,581.7l-0.2,0c-0.4,0.3-0.9,0.6-1.4,0.8c-0.5,0.2-1.1,0.2-1.9,0.1c-0.5-0.1-1-0.3-1.5-0.5
				c-0.4-0.3-0.8-0.6-1.1-1s-0.5-0.8-0.6-1.3c-0.1-0.5-0.1-1,0-1.5c0.1-0.5,0.3-1,0.6-1.4c0.3-0.4,0.7-0.7,1.1-1
				c0.4-0.2,0.9-0.4,1.5-0.5c0.6-0.1,1.1,0,1.7,0.1c0.7,0.1,1.2,0.3,1.7,0.5c0.4,0.2,0.8,0.4,1,0.5l0.1-0.3c0.1-0.6,0-1.1-0.4-1.5
				s-0.9-0.7-1.5-0.8c-1-0.2-1.9,0.1-2.7,0.8l-1.8-1.8c1.4-1.2,3-1.6,4.9-1.3c1.6,0.3,2.8,0.9,3.5,1.8c0.7,0.9,0.9,2.1,0.7,3.6
				l-1.1,6.3l-2.8-0.5L646.4,581.7z M646.9,578.6c-0.3-0.2-0.6-0.4-0.9-0.6c-0.3-0.2-0.7-0.3-1.1-0.3c-0.7-0.1-1.2-0.1-1.6,0.2
				c-0.4,0.2-0.7,0.6-0.7,1s0,0.8,0.3,1.1c0.3,0.3,0.7,0.5,1.1,0.6c0.4,0.1,0.7,0.1,1.1,0c0.3-0.1,0.6-0.2,0.9-0.4
				c0.3-0.2,0.5-0.4,0.7-0.7C646.8,579.2,646.9,578.9,646.9,578.6z"/>
			<path fill="#FFFF00" d="M661.5,582.9c-0.6,0.8-1.4,1.4-2.3,1.8c-0.9,0.4-2,0.5-3.2,0.3c-0.8-0.1-1.5-0.4-2.2-0.8
				c-0.6-0.4-1.1-0.9-1.5-1.5s-0.7-1.2-0.8-2c-0.2-0.7-0.2-1.5,0-2.3c0.1-0.8,0.4-1.5,0.8-2.2c0.4-0.6,0.9-1.2,1.5-1.6
				c0.6-0.4,1.2-0.7,2-0.8c0.7-0.2,1.5-0.2,2.3,0c1.2,0.2,2.2,0.7,2.9,1.4c0.7,0.7,1.2,1.5,1.4,2.5l-2.8,0.6c-0.2-0.5-0.4-1-0.7-1.3
				c-0.3-0.3-0.8-0.5-1.4-0.6c-0.4-0.1-0.7-0.1-1.1,0c-0.4,0.1-0.7,0.2-1,0.4c-0.3,0.2-0.5,0.5-0.8,0.8c-0.2,0.3-0.4,0.7-0.4,1.2
				c-0.1,0.5-0.1,0.9,0,1.3c0.1,0.4,0.2,0.7,0.4,1c0.2,0.3,0.5,0.6,0.8,0.8c0.3,0.2,0.6,0.3,1,0.4c0.6,0.1,1.1,0.1,1.6-0.1
				c0.5-0.2,0.8-0.5,1.2-1L661.5,582.9z"/>
			<path fill="#FFFF00" d="M665.5,570.5l2.8,0.5l-1.5,8.3l0.1,0l4.1-2.9l3.5,0.6l0,0.2l-4.6,3.1l3.1,7.1l0,0.2l-3.3-0.6l-2-5.1
				l-1.5,1l-0.6,3.4l-2.8-0.5L665.5,570.5z"/>
		</g>
		<g>
			<path fill="#FFFF00" d="M314.4,441.4c-0.7,0.1-1.3,0.1-1.9,0.1c-0.6-0.1-1.1-0.2-1.5-0.4c-0.4-0.2-0.8-0.5-1.2-0.8
				c-0.3-0.3-0.6-0.6-0.8-1l2.3-1.5c0.3,0.5,0.7,0.8,1.2,1c0.5,0.2,0.9,0.2,1.4,0.2c0.5-0.1,0.9-0.3,1.2-0.5
				c0.3-0.2,0.4-0.5,0.3-0.7c0-0.3-0.2-0.5-0.5-0.6c-0.3-0.1-0.7-0.2-1.4-0.3l-1.5-0.1c-0.3,0-0.7-0.1-1.1-0.2
				c-0.4-0.1-0.7-0.2-1.1-0.4c-0.3-0.2-0.6-0.4-0.9-0.8c-0.2-0.3-0.4-0.7-0.5-1.2c-0.1-0.5-0.1-1,0.1-1.4c0.2-0.4,0.4-0.8,0.7-1.2
				c0.3-0.3,0.8-0.6,1.2-0.9c0.5-0.2,1-0.4,1.6-0.5c1-0.2,1.9-0.1,2.8,0.1c0.9,0.3,1.5,0.8,2.1,1.6l-2.3,1.4c-0.3-0.4-0.6-0.6-1-0.7
				c-0.4-0.1-0.8-0.1-1.2-0.1c-0.4,0.1-0.7,0.2-1,0.4s-0.4,0.5-0.3,0.7c0,0.2,0.2,0.4,0.5,0.5s0.6,0.2,1.1,0.2l1.7,0.1
				c1.1,0.1,2,0.3,2.6,0.8c0.6,0.5,1,1.1,1.1,1.9c0.1,0.5,0,0.9-0.1,1.4c-0.1,0.5-0.4,0.9-0.7,1.3c-0.3,0.4-0.8,0.7-1.3,1
				S315.1,441.3,314.4,441.4z"/>
			<path fill="#FFFF00" d="M330.2,435.8c-0.3,0.9-0.9,1.7-1.6,2.4c-0.7,0.7-1.7,1.1-2.9,1.3c-0.8,0.1-1.6,0.1-2.3,0
				c-0.7-0.2-1.4-0.4-2-0.9c-0.6-0.4-1.1-0.9-1.5-1.6c-0.4-0.6-0.7-1.4-0.8-2.2c-0.1-0.8-0.1-1.5,0-2.2c0.2-0.7,0.4-1.4,0.8-2
				c0.4-0.6,0.9-1.1,1.5-1.5c0.6-0.4,1.3-0.7,2.1-0.8c0.8-0.1,1.6-0.1,2.3,0c0.7,0.2,1.3,0.5,1.8,0.9s1,0.9,1.3,1.6
				c0.3,0.6,0.6,1.3,0.7,2.1c0,0.1,0,0.2,0,0.3c0,0.1,0,0.2,0,0.2c0,0.1,0,0.2,0,0.2l-7.9,1.4c0.1,0.4,0.3,0.8,0.5,1
				c0.2,0.3,0.5,0.5,0.8,0.7c0.3,0.2,0.6,0.3,0.9,0.3c0.3,0,0.7,0,1,0c0.6-0.1,1.1-0.3,1.5-0.7c0.4-0.4,0.6-0.8,0.8-1.3L330.2,435.8
				z M326.9,432.1c0-0.2-0.1-0.4-0.3-0.6c-0.1-0.2-0.3-0.4-0.6-0.6c-0.2-0.2-0.5-0.3-0.9-0.4c-0.3-0.1-0.7-0.1-1.1,0
				c-0.6,0.1-1.1,0.4-1.5,0.8c-0.4,0.4-0.6,1-0.7,1.6L326.9,432.1z"/>
			<path fill="#FFFF00" d="M333.6,428.4l0.2,0c0.2-0.6,0.6-1.1,1.1-1.5s1.1-0.7,1.8-0.8c0.7-0.1,1.3-0.1,1.8,0
				c0.5,0.1,1,0.4,1.4,0.7c0.4,0.3,0.7,0.8,1,1.3c0.3,0.5,0.4,1.1,0.6,1.8l1.1,6.4l-2.8,0.5l-1-6c-0.1-0.8-0.4-1.3-0.8-1.6
				c-0.4-0.3-0.9-0.4-1.6-0.3c-0.4,0.1-0.7,0.2-1,0.4c-0.3,0.2-0.5,0.5-0.6,0.8s-0.3,0.7-0.3,1.1c0,0.4,0,0.8,0,1.2l0.9,5.1
				l-2.8,0.5l-1.8-10.5l2.6-0.5L333.6,428.4z"/>
			<path fill="#FFFF00" d="M352.5,433.2l-0.2,0c-0.2,0.5-0.5,0.9-1,1.3c-0.5,0.4-1.1,0.7-1.9,0.8c-0.7,0.1-1.3,0.1-2-0.1
				c-0.7-0.2-1.3-0.5-1.8-0.9c-0.5-0.4-1-0.9-1.4-1.6c-0.4-0.6-0.7-1.4-0.8-2.2c-0.1-0.8-0.1-1.6,0-2.3c0.2-0.7,0.4-1.4,0.8-2
				c0.4-0.6,0.8-1.1,1.4-1.4c0.6-0.4,1.2-0.6,1.8-0.7c0.8-0.1,1.5-0.1,2.1,0.1c0.6,0.2,1.1,0.5,1.4,0.9l0.2,0l-0.4-1.5l-0.8-4.6
				l2.8-0.5l2.6,15.3l-2.6,0.5L352.5,433.2z M349.5,432.7c0.4-0.1,0.7-0.2,1-0.4c0.3-0.2,0.6-0.4,0.8-0.7s0.4-0.7,0.5-1
				c0.1-0.4,0.1-0.8,0-1.3c-0.1-0.5-0.2-0.9-0.5-1.2c-0.2-0.3-0.5-0.6-0.8-0.8c-0.3-0.2-0.6-0.4-1-0.4c-0.4-0.1-0.7-0.1-1.1,0
				s-0.7,0.2-1,0.4c-0.3,0.2-0.6,0.5-0.8,0.8c-0.2,0.3-0.4,0.7-0.5,1c-0.1,0.4-0.1,0.8,0,1.3s0.2,0.9,0.4,1.2
				c0.2,0.3,0.5,0.6,0.8,0.8c0.3,0.2,0.6,0.4,1,0.4C348.8,432.8,349.1,432.8,349.5,432.7z"/>
			<path fill="#FFFF00" d="M360.6,422.3l2.6-0.5l0.2,1.4l0.2,0c0.2-0.6,0.6-1.1,1.1-1.5c0.5-0.4,1.1-0.7,1.8-0.8
				c0.8-0.1,1.5-0.1,2.1,0.2c0.6,0.3,1.1,0.7,1.4,1.2c0.2-0.6,0.6-1.1,1.2-1.6c0.5-0.5,1.2-0.8,2.1-0.9c0.6-0.1,1.2-0.1,1.7,0
				s0.9,0.3,1.3,0.7c0.4,0.3,0.7,0.7,0.9,1.2c0.2,0.5,0.4,1,0.5,1.7l1.1,6.6l-2.8,0.5l-1.1-6.1c-0.2-1.4-1-2-2.1-1.8
				c-0.4,0.1-0.7,0.2-0.9,0.4c-0.3,0.2-0.5,0.5-0.6,0.8c-0.1,0.3-0.2,0.7-0.3,1.1c0,0.4,0,0.8,0.1,1.3l0.9,5.1l-2.8,0.5l-1.1-6.1
				c-0.2-1.4-1-2-2.2-1.8c-0.4,0.1-0.7,0.2-0.9,0.4c-0.2,0.2-0.4,0.5-0.6,0.8c-0.1,0.3-0.2,0.7-0.3,1.1c0,0.4,0,0.8,0.1,1.3l0.9,5.1
				l-2.8,0.5L360.6,422.3z"/>
			<path fill="#FFFF00" d="M390.8,425.3c-0.3,0.9-0.9,1.7-1.6,2.4c-0.7,0.7-1.7,1.1-2.9,1.3c-0.8,0.1-1.6,0.1-2.3,0
				c-0.7-0.2-1.4-0.4-2-0.9c-0.6-0.4-1.1-0.9-1.5-1.6c-0.4-0.6-0.7-1.4-0.8-2.2c-0.1-0.8-0.1-1.5,0-2.2c0.2-0.7,0.4-1.4,0.8-2
				c0.4-0.6,0.9-1.1,1.5-1.5c0.6-0.4,1.3-0.7,2.1-0.8c0.8-0.1,1.6-0.1,2.3,0c0.7,0.2,1.3,0.5,1.8,0.9c0.5,0.4,1,0.9,1.3,1.6
				c0.3,0.6,0.6,1.3,0.7,2.1c0,0.1,0,0.2,0,0.3c0,0.1,0,0.2,0,0.2c0,0.1,0,0.2,0,0.2l-7.9,1.4c0.1,0.4,0.3,0.8,0.5,1
				c0.2,0.3,0.5,0.5,0.8,0.7c0.3,0.2,0.6,0.3,0.9,0.3s0.7,0,1,0c0.6-0.1,1.1-0.3,1.5-0.7c0.4-0.4,0.6-0.8,0.8-1.3L390.8,425.3z
				 M387.5,421.7c0-0.2-0.1-0.4-0.3-0.6c-0.1-0.2-0.3-0.4-0.6-0.6c-0.2-0.2-0.5-0.3-0.9-0.4c-0.3-0.1-0.7-0.1-1.1,0
				c-0.6,0.1-1.1,0.4-1.5,0.8c-0.4,0.4-0.6,1-0.7,1.6L387.5,421.7z"/>
			<path fill="#FFFF00" d="M392.6,419.3l-1.8,0.3l-0.4-2.4l1.8-0.3l-0.6-3.2l2.8-0.5l0.6,3.2l2.6-0.4l0.4,2.4l-2.6,0.4l0.7,4.2
				c0,0.3,0.1,0.5,0.2,0.7c0.1,0.2,0.2,0.4,0.4,0.5c0.2,0.2,0.5,0.3,0.9,0.2c0.2,0,0.4-0.1,0.6-0.2c0.1-0.1,0.3-0.2,0.4-0.3l1.2,2.3
				c-0.3,0.2-0.6,0.4-1,0.5c-0.4,0.1-0.8,0.3-1.2,0.3c-0.5,0.1-1,0.1-1.5,0c-0.4-0.1-0.8-0.3-1.2-0.5c-0.8-0.5-1.3-1.4-1.5-2.6
				L392.6,419.3z"/>
			<path fill="#FFFF00" d="M407.5,423.9l-0.2,0c-0.3,0.5-0.6,0.9-1,1.2c-0.4,0.4-1,0.6-1.7,0.7c-0.5,0.1-1.1,0.1-1.6,0
				c-0.5-0.1-1-0.3-1.4-0.5c-0.4-0.3-0.8-0.6-1-1c-0.3-0.4-0.5-0.9-0.6-1.4c-0.1-0.5-0.1-1.1,0.1-1.5c0.1-0.5,0.4-0.9,0.7-1.3
				c0.3-0.4,0.7-0.7,1.2-1c0.5-0.3,1-0.4,1.7-0.5c0.7-0.1,1.3-0.2,1.7-0.1c0.5,0,0.8,0.1,1.1,0.1l-0.1-0.3c-0.1-0.6-0.4-1-0.9-1.3
				c-0.5-0.3-1.1-0.4-1.7-0.3c-1,0.2-1.7,0.7-2.3,1.6l-2.3-1c0.9-1.6,2.3-2.6,4.2-2.9c1.6-0.3,2.9-0.1,3.9,0.5
				c1,0.6,1.6,1.7,1.9,3.2l1.1,6.3l-2.8,0.5L407.5,423.9z M407,420.7c-0.4-0.1-0.7-0.2-1.1-0.2c-0.4,0-0.8,0-1.2,0.1
				c-0.7,0.1-1.2,0.4-1.5,0.7c-0.3,0.4-0.4,0.7-0.4,1.2c0.1,0.4,0.3,0.7,0.7,0.9c0.4,0.2,0.8,0.3,1.3,0.2c0.4-0.1,0.7-0.2,1-0.4
				c0.3-0.2,0.5-0.4,0.7-0.7c0.2-0.3,0.3-0.5,0.4-0.9C407,421.4,407,421,407,420.7z"/>
			<path fill="#FFFF00" d="M425,420.7l-0.2,0c-0.2,0.5-0.5,0.9-1,1.3c-0.5,0.4-1.1,0.7-1.9,0.8c-0.7,0.1-1.3,0.1-2-0.1
				c-0.7-0.2-1.3-0.5-1.8-0.9c-0.5-0.4-1-0.9-1.4-1.6c-0.4-0.6-0.7-1.4-0.8-2.2c-0.1-0.8-0.1-1.6,0-2.3c0.2-0.7,0.4-1.4,0.8-2
				c0.4-0.6,0.8-1.1,1.4-1.4s1.2-0.6,1.8-0.7c0.8-0.1,1.5-0.1,2.1,0.1c0.6,0.2,1.1,0.5,1.4,0.9l0.2,0l-0.4-1.5l-0.8-4.6l2.8-0.5
				l2.6,15.3l-2.6,0.5L425,420.7z M422,420.2c0.4-0.1,0.7-0.2,1-0.4c0.3-0.2,0.6-0.4,0.8-0.7s0.4-0.7,0.5-1c0.1-0.4,0.1-0.8,0-1.3
				c-0.1-0.5-0.2-0.9-0.5-1.2c-0.2-0.3-0.5-0.6-0.8-0.8c-0.3-0.2-0.6-0.4-1-0.4c-0.4-0.1-0.7-0.1-1.1,0s-0.7,0.2-1,0.4
				c-0.3,0.2-0.6,0.5-0.8,0.8c-0.2,0.3-0.4,0.7-0.5,1c-0.1,0.4-0.1,0.8,0,1.3c0.1,0.5,0.2,0.9,0.4,1.2c0.2,0.3,0.5,0.6,0.8,0.8
				c0.3,0.2,0.6,0.4,1,0.4C421.3,420.3,421.7,420.3,422,420.2z"/>
			<path fill="#FFFF00" d="M436.4,418.9l-0.2,0c-0.3,0.5-0.6,0.9-1,1.2c-0.4,0.4-1,0.6-1.7,0.7c-0.5,0.1-1.1,0.1-1.6,0
				c-0.5-0.1-1-0.3-1.4-0.5c-0.4-0.3-0.8-0.6-1-1c-0.3-0.4-0.5-0.9-0.6-1.4c-0.1-0.5-0.1-1.1,0.1-1.5c0.1-0.5,0.4-0.9,0.7-1.3
				c0.3-0.4,0.7-0.7,1.2-1c0.5-0.3,1-0.4,1.7-0.5c0.7-0.1,1.3-0.2,1.7-0.1c0.5,0,0.8,0.1,1.1,0.1l-0.1-0.3c-0.1-0.6-0.4-1-0.9-1.3
				c-0.5-0.3-1.1-0.4-1.7-0.3c-1,0.2-1.7,0.7-2.3,1.6l-2.3-1c0.9-1.6,2.3-2.6,4.2-2.9c1.6-0.3,2.9-0.1,3.9,0.5
				c1,0.6,1.6,1.7,1.9,3.2l1.1,6.3l-2.8,0.5L436.4,418.9z M435.9,415.7c-0.4-0.1-0.7-0.2-1.1-0.2c-0.4,0-0.8,0-1.2,0.1
				c-0.7,0.1-1.2,0.4-1.5,0.7c-0.3,0.4-0.4,0.7-0.4,1.2c0.1,0.4,0.3,0.7,0.7,0.9c0.4,0.2,0.8,0.3,1.3,0.2c0.4-0.1,0.7-0.2,1-0.4
				c0.3-0.2,0.5-0.4,0.7-0.7c0.2-0.3,0.3-0.5,0.4-0.9C435.9,416.4,435.9,416.1,435.9,415.7z"/>
			<path fill="#FFFF00" d="M441.1,410.9l-1.8,0.3l-0.4-2.4l1.8-0.3l-0.6-3.2l2.8-0.5l0.6,3.2l2.6-0.4l0.4,2.4l-2.6,0.4l0.7,4.2
				c0,0.3,0.1,0.5,0.2,0.7c0.1,0.2,0.2,0.4,0.4,0.5c0.2,0.2,0.5,0.3,0.9,0.2c0.2,0,0.4-0.1,0.6-0.2c0.1-0.1,0.3-0.2,0.4-0.3l1.2,2.3
				c-0.3,0.2-0.6,0.4-1,0.5c-0.4,0.1-0.8,0.3-1.2,0.3c-0.5,0.1-1,0.1-1.5,0c-0.5-0.1-0.8-0.3-1.2-0.5c-0.8-0.5-1.3-1.4-1.5-2.6
				L441.1,410.9z"/>
			<path fill="#FFFF00" d="M456,415.5l-0.2,0c-0.3,0.5-0.6,0.9-1,1.2c-0.4,0.4-1,0.6-1.7,0.7c-0.5,0.1-1.1,0.1-1.6,0
				c-0.5-0.1-1-0.3-1.4-0.5c-0.4-0.3-0.8-0.6-1-1c-0.3-0.4-0.5-0.9-0.6-1.4c-0.1-0.5-0.1-1.1,0.1-1.5c0.1-0.5,0.4-0.9,0.7-1.3
				c0.3-0.4,0.7-0.7,1.2-1c0.5-0.3,1-0.4,1.7-0.5c0.7-0.1,1.3-0.2,1.7-0.1c0.5,0,0.8,0.1,1.1,0.1l-0.1-0.3c-0.1-0.6-0.4-1-0.9-1.3
				c-0.5-0.3-1.1-0.4-1.7-0.3c-1,0.2-1.7,0.7-2.3,1.6l-2.3-1c0.9-1.6,2.3-2.6,4.2-2.9c1.6-0.3,2.9-0.1,3.9,0.5
				c1,0.6,1.6,1.7,1.9,3.2l1.1,6.3l-2.8,0.5L456,415.5z M455.5,412.4c-0.4-0.1-0.7-0.2-1.1-0.2c-0.4,0-0.8,0-1.2,0.1
				c-0.7,0.1-1.2,0.4-1.5,0.7c-0.3,0.4-0.4,0.7-0.4,1.2c0.1,0.4,0.3,0.7,0.7,0.9c0.4,0.2,0.8,0.3,1.3,0.2c0.4-0.1,0.7-0.2,1-0.4
				s0.5-0.4,0.7-0.7c0.2-0.3,0.3-0.5,0.4-0.9C455.5,413,455.5,412.7,455.5,412.4z"/>
			<path fill="#FFFF00" d="M470.8,406.9l3.7-0.6l0.4,2.5l-3.7,0.6l0.6,3.6l-2.5,0.4l-0.6-3.6l-3.6,0.6l-0.4-2.5l3.6-0.6l-0.6-3.6
				l2.5-0.4L470.8,406.9z"/>
			<path fill="#FFFF00" d="M479.9,401.7l3.2-0.6l3.8,6.2l0.1,0l1.5-7.1l3.2-0.5l-2.7,11.3l-2.8,0.5L479.9,401.7z"/>
			<path fill="#FFFF00" d="M494.3,397.8c-0.2,0-0.5,0-0.7,0c-0.2-0.1-0.5-0.1-0.6-0.3s-0.4-0.3-0.5-0.5c-0.1-0.2-0.2-0.4-0.3-0.7
				c0-0.3,0-0.5,0-0.7c0.1-0.2,0.2-0.4,0.3-0.6c0.1-0.2,0.3-0.4,0.5-0.5c0.2-0.1,0.4-0.2,0.7-0.3c0.5-0.1,1,0,1.4,0.3
				c0.4,0.3,0.7,0.7,0.8,1.2c0.1,0.5,0,1-0.3,1.4C495.2,397.5,494.8,397.7,494.3,397.8z M494.9,410l-1.8-10.5l2.8-0.5l1.8,10.5
				L494.9,410z"/>
			<path fill="#FFFF00" d="M509.7,404.8c-0.3,0.9-0.9,1.7-1.6,2.4c-0.7,0.7-1.7,1.1-2.9,1.3c-0.8,0.1-1.6,0.1-2.3,0
				c-0.7-0.2-1.4-0.4-2-0.9c-0.6-0.4-1.1-0.9-1.5-1.6c-0.4-0.6-0.7-1.4-0.8-2.2c-0.1-0.8-0.1-1.5,0-2.2c0.2-0.7,0.4-1.4,0.8-2
				c0.4-0.6,0.9-1.1,1.5-1.5c0.6-0.4,1.3-0.7,2.1-0.8c0.8-0.1,1.6-0.1,2.3,0c0.7,0.2,1.3,0.5,1.8,0.9s1,0.9,1.3,1.6
				c0.3,0.6,0.6,1.3,0.7,2.1c0,0.1,0,0.2,0,0.3c0,0.1,0,0.2,0,0.2c0,0.1,0,0.2,0,0.2l-7.9,1.4c0.1,0.4,0.3,0.8,0.5,1
				c0.2,0.3,0.5,0.5,0.8,0.7c0.3,0.2,0.6,0.3,0.9,0.3c0.3,0,0.7,0,1,0c0.6-0.1,1.1-0.3,1.5-0.7c0.4-0.4,0.6-0.8,0.8-1.3L509.7,404.8
				z M506.4,401.2c0-0.2-0.1-0.4-0.3-0.6c-0.1-0.2-0.3-0.4-0.6-0.6c-0.2-0.2-0.5-0.3-0.9-0.4c-0.3-0.1-0.7-0.1-1.1,0
				c-0.6,0.1-1.1,0.4-1.5,0.8c-0.4,0.4-0.6,1-0.7,1.6L506.4,401.2z"/>
			<path fill="#FFFF00" d="M509,396.7l3.1-0.5l2.9,6.3l0.1,0l0.9-6.9l2.9-0.5l3.2,6.2l0.2,0l0.6-6.9l3.1-0.5l-1.6,11.1l-3,0.5
				l-3.2-6.3l-0.2,0l-1,7l-3,0.5L509,396.7z"/>
			<path fill="#FFFF00" d="M543.3,398.9c-0.3,1-0.8,1.8-1.5,2.5c-0.7,0.7-1.7,1.2-2.9,1.4c-0.8,0.1-1.6,0.1-2.3,0
				c-0.7-0.2-1.4-0.4-2-0.9c-0.6-0.4-1.1-0.9-1.5-1.6s-0.7-1.4-0.8-2.2c-0.1-0.8-0.1-1.6,0-2.3c0.2-0.7,0.4-1.4,0.9-2
				c0.4-0.6,0.9-1.1,1.6-1.5c0.6-0.4,1.4-0.7,2.2-0.8c1.2-0.2,2.3-0.1,3.2,0.3c0.9,0.4,1.7,1,2.2,1.8l-2.4,1.5
				c-0.3-0.4-0.7-0.8-1.1-0.9c-0.4-0.2-0.9-0.2-1.5-0.1c-0.4,0.1-0.7,0.2-1,0.4c-0.3,0.2-0.6,0.4-0.8,0.7c-0.2,0.3-0.3,0.6-0.4,1
				c-0.1,0.4-0.1,0.8,0,1.3c0.1,0.5,0.2,0.9,0.4,1.2c0.2,0.3,0.5,0.6,0.8,0.8c0.3,0.2,0.6,0.4,1,0.4c0.4,0.1,0.7,0.1,1.1,0
				c0.6-0.1,1.1-0.3,1.4-0.7c0.4-0.3,0.6-0.8,0.8-1.3L543.3,398.9z"/>
			<path fill="#FFFF00" d="M545.5,401.2l-2.6-15.3l2.8-0.5l2.6,15.3L545.5,401.2z"/>
			<path fill="#FFFF00" d="M556.9,398.1l-0.2,0c-0.3,0.5-0.6,0.9-1,1.2c-0.4,0.4-1,0.6-1.7,0.7c-0.5,0.1-1.1,0.1-1.6,0
				c-0.5-0.1-1-0.3-1.4-0.5c-0.4-0.3-0.8-0.6-1-1c-0.3-0.4-0.5-0.9-0.6-1.4c-0.1-0.5-0.1-1.1,0.1-1.5c0.1-0.5,0.4-0.9,0.7-1.3
				c0.3-0.4,0.7-0.7,1.2-1c0.5-0.3,1-0.4,1.7-0.5c0.7-0.1,1.3-0.2,1.7-0.1c0.5,0,0.8,0.1,1.1,0.1l-0.1-0.3c-0.1-0.6-0.4-1-0.9-1.3
				c-0.5-0.3-1.1-0.4-1.7-0.3c-1,0.2-1.7,0.7-2.3,1.6l-2.3-1c0.9-1.6,2.3-2.6,4.2-2.9c1.6-0.3,2.9-0.1,3.9,0.5
				c1,0.6,1.6,1.7,1.9,3.2l1.1,6.3l-2.8,0.5L556.9,398.1z M556.3,395c-0.4-0.1-0.7-0.2-1.1-0.2c-0.4,0-0.8,0-1.2,0.1
				c-0.7,0.1-1.2,0.4-1.5,0.7c-0.3,0.4-0.4,0.7-0.4,1.2c0.1,0.4,0.3,0.7,0.7,0.9c0.4,0.2,0.8,0.3,1.3,0.2c0.4-0.1,0.7-0.2,1-0.4
				c0.3-0.2,0.5-0.4,0.7-0.7c0.2-0.3,0.3-0.5,0.4-0.9C556.4,395.6,556.4,395.3,556.3,395z"/>
			<path fill="#FFFF00" d="M561.6,386.2c-0.2,0-0.5,0-0.7,0c-0.2-0.1-0.5-0.1-0.6-0.3s-0.4-0.3-0.5-0.5c-0.1-0.2-0.2-0.4-0.3-0.7
				c0-0.3,0-0.5,0-0.7c0.1-0.2,0.2-0.4,0.3-0.6c0.1-0.2,0.3-0.4,0.5-0.5c0.2-0.1,0.4-0.2,0.7-0.3c0.5-0.1,1,0,1.4,0.3
				c0.4,0.3,0.7,0.7,0.8,1.2c0.1,0.5,0,1-0.3,1.4C562.5,385.9,562.1,386.1,561.6,386.2z M562.2,398.4l-1.8-10.5l2.8-0.5l1.8,10.5
				L562.2,398.4z"/>
			<path fill="#FFFF00" d="M565.8,386.9l2.6-0.5l0.2,1.4l0.2,0c0.2-0.6,0.6-1.1,1.1-1.5s1.1-0.7,1.8-0.8c0.8-0.1,1.5-0.1,2.1,0.2
				c0.6,0.3,1.1,0.7,1.4,1.2c0.2-0.6,0.6-1.1,1.2-1.6c0.5-0.5,1.2-0.8,2.1-0.9c0.6-0.1,1.2-0.1,1.7,0s0.9,0.3,1.3,0.7
				c0.4,0.3,0.7,0.7,0.9,1.2c0.2,0.5,0.4,1,0.5,1.7l1.1,6.6l-2.8,0.5l-1.1-6.1c-0.2-1.4-1-2-2.1-1.8c-0.4,0.1-0.7,0.2-0.9,0.4
				c-0.3,0.2-0.5,0.5-0.6,0.8c-0.1,0.3-0.2,0.7-0.3,1.1c0,0.4,0,0.8,0.1,1.3l0.9,5.1l-2.8,0.5l-1.1-6.1c-0.2-1.4-1-2-2.2-1.8
				c-0.4,0.1-0.7,0.2-0.9,0.4c-0.2,0.2-0.4,0.5-0.6,0.8c-0.1,0.3-0.2,0.7-0.3,1.1c0,0.4,0,0.8,0.1,1.3l0.9,5.1l-2.8,0.5L565.8,386.9
				z"/>
			<path fill="#FFFF00" d="M590.9,385.1l-1.8,0.3l-0.4-2.4l1.8-0.3l-0.6-3.2l2.8-0.5l0.6,3.2l2.6-0.4l0.4,2.4l-2.6,0.4l0.7,4.2
				c0,0.3,0.1,0.5,0.2,0.7c0.1,0.2,0.2,0.4,0.4,0.5c0.2,0.2,0.5,0.3,0.9,0.2c0.2,0,0.4-0.1,0.6-0.2c0.1-0.1,0.3-0.2,0.4-0.3l1.2,2.3
				c-0.3,0.2-0.6,0.4-1,0.5c-0.4,0.1-0.8,0.3-1.2,0.3c-0.5,0.1-1,0.1-1.5,0c-0.5-0.1-0.8-0.3-1.2-0.5c-0.8-0.5-1.3-1.4-1.5-2.6
				L590.9,385.1z"/>
			<path fill="#FFFF00" d="M602.7,380.2c0.8-0.1,1.6-0.1,2.3,0c0.7,0.2,1.4,0.4,2,0.9c0.6,0.4,1.1,0.9,1.5,1.6
				c0.4,0.6,0.7,1.4,0.8,2.2c0.1,0.8,0.1,1.6,0,2.3c-0.2,0.7-0.4,1.4-0.9,2c-0.4,0.6-0.9,1.1-1.6,1.5c-0.6,0.4-1.4,0.7-2.2,0.8
				c-0.8,0.1-1.6,0.1-2.3,0c-0.7-0.2-1.4-0.4-2-0.9c-0.6-0.4-1.1-0.9-1.5-1.6c-0.4-0.6-0.7-1.4-0.8-2.2c-0.1-0.8-0.1-1.6,0-2.3
				c0.2-0.7,0.4-1.4,0.9-2c0.4-0.6,0.9-1.1,1.6-1.5C601.2,380.6,601.9,380.3,602.7,380.2z M604.2,388.8c0.4-0.1,0.7-0.2,1-0.4
				c0.3-0.2,0.6-0.4,0.8-0.7c0.2-0.3,0.4-0.6,0.4-1c0.1-0.4,0.1-0.8,0-1.3c-0.1-0.5-0.2-0.9-0.4-1.2s-0.5-0.6-0.8-0.8
				c-0.3-0.2-0.6-0.4-1-0.4c-0.4-0.1-0.7-0.1-1.1,0c-0.4,0.1-0.7,0.2-1,0.4c-0.3,0.2-0.6,0.4-0.8,0.7c-0.2,0.3-0.4,0.6-0.4,1
				s-0.1,0.8,0,1.3c0.1,0.5,0.2,0.9,0.4,1.2c0.2,0.3,0.5,0.6,0.8,0.8c0.3,0.2,0.6,0.4,1,0.4C603.5,388.9,603.8,388.9,604.2,388.8z"
				/>
			<path fill="#FFFF00" d="M609.2,374.5l2.8-0.5l1.4,8.4l0.1,0l2.9-4.1l3.5-0.6l0,0.2l-3.2,4.5l5.3,5.6l0,0.2l-3.3,0.6l-3.7-4.1
				l-1,1.4l0.6,3.4l-2.8,0.5L609.2,374.5z"/>
			<path fill="#FFFF00" d="M632.4,383.7c-0.3,0.9-0.9,1.7-1.6,2.4c-0.7,0.7-1.7,1.1-2.9,1.3c-0.8,0.1-1.6,0.1-2.3,0
				c-0.7-0.2-1.4-0.4-2-0.9c-0.6-0.4-1.1-0.9-1.5-1.6c-0.4-0.6-0.7-1.4-0.8-2.2c-0.1-0.8-0.1-1.5,0-2.2c0.2-0.7,0.4-1.4,0.8-2
				c0.4-0.6,0.9-1.1,1.5-1.5c0.6-0.4,1.3-0.7,2.1-0.8c0.8-0.1,1.6-0.1,2.3,0c0.7,0.2,1.3,0.5,1.8,0.9s1,0.9,1.3,1.6
				c0.3,0.6,0.6,1.3,0.7,2.1c0,0.1,0,0.2,0,0.3c0,0.1,0,0.2,0,0.2c0,0.1,0,0.2,0,0.2l-7.9,1.4c0.1,0.4,0.3,0.8,0.5,1
				c0.2,0.3,0.5,0.5,0.8,0.7c0.3,0.2,0.6,0.3,0.9,0.3c0.3,0,0.7,0,1,0c0.6-0.1,1.1-0.3,1.5-0.7c0.4-0.4,0.6-0.8,0.8-1.3L632.4,383.7
				z M629.1,380c0-0.2-0.1-0.4-0.3-0.6c-0.1-0.2-0.3-0.4-0.6-0.6c-0.2-0.2-0.5-0.3-0.9-0.4c-0.3-0.1-0.7-0.1-1.1,0
				c-0.6,0.1-1.1,0.4-1.5,0.8c-0.4,0.4-0.6,1-0.7,1.6L629.1,380z"/>
			<path fill="#FFFF00" d="M635.8,376.3l0.2,0c0.2-0.6,0.6-1.1,1.1-1.5c0.5-0.4,1.1-0.7,1.8-0.8c0.7-0.1,1.3-0.1,1.8,0
				c0.5,0.1,1,0.4,1.4,0.7c0.4,0.3,0.7,0.8,1,1.3s0.4,1.1,0.6,1.8l1.1,6.4l-2.8,0.5l-1-6c-0.1-0.8-0.4-1.3-0.8-1.6
				c-0.4-0.3-0.9-0.4-1.6-0.3c-0.4,0.1-0.7,0.2-1,0.4c-0.3,0.2-0.5,0.5-0.6,0.8s-0.3,0.7-0.3,1.1c0,0.4,0,0.8,0,1.2l0.9,5.1
				l-2.8,0.5l-1.8-10.5l2.6-0.5L635.8,376.3z"/>
			<path fill="#FFFF00" d="M650.5,367.4c-0.7,1.3-1.3,2.7-1.6,4.2c-0.3,1.5-0.3,3-0.1,4.7c0.3,1.6,0.8,3.1,1.6,4.4
				c0.8,1.3,1.8,2.4,2.9,3.4l-1.9,1.8c-0.5-0.4-1-0.9-1.6-1.5c-0.6-0.6-1.1-1.3-1.6-2.1c-0.5-0.8-1-1.6-1.4-2.6
				c-0.4-0.9-0.7-1.9-0.9-3c-0.2-1.1-0.2-2.1-0.2-3.1c0.1-1,0.2-2,0.4-2.9s0.5-1.7,0.8-2.5c0.3-0.8,0.7-1.4,1-2L650.5,367.4z"/>
			<path fill="#FFFF00" d="M651.8,372.1l3.2-0.5l3.8,6.2l0.1,0l1.5-7.1l3.2-0.5l-2.7,11.3l-2.8,0.5L651.8,372.1z"/>
			<path fill="#FFFF00" d="M675.9,376c-0.3,1-0.8,1.8-1.5,2.5c-0.7,0.7-1.7,1.2-2.9,1.4c-0.8,0.1-1.6,0.1-2.3,0
				c-0.7-0.2-1.4-0.4-2-0.9c-0.6-0.4-1.1-0.9-1.5-1.6c-0.4-0.6-0.7-1.4-0.8-2.2c-0.1-0.8-0.1-1.6,0-2.3c0.2-0.7,0.4-1.4,0.9-2
				c0.4-0.6,0.9-1.1,1.6-1.5c0.6-0.4,1.4-0.7,2.2-0.8c1.2-0.2,2.3-0.1,3.2,0.3c0.9,0.4,1.7,1,2.2,1.8l-2.4,1.5
				c-0.3-0.4-0.7-0.8-1.1-0.9c-0.4-0.2-0.9-0.2-1.5-0.1c-0.4,0.1-0.7,0.2-1,0.4c-0.3,0.2-0.6,0.4-0.8,0.7c-0.2,0.3-0.3,0.6-0.4,1
				c-0.1,0.4-0.1,0.8,0,1.3c0.1,0.5,0.2,0.9,0.4,1.2c0.2,0.3,0.5,0.6,0.8,0.8c0.3,0.2,0.6,0.4,1,0.5c0.4,0.1,0.7,0.1,1.1,0
				c0.6-0.1,1.1-0.3,1.4-0.7c0.4-0.3,0.6-0.8,0.8-1.3L675.9,376z"/>
			<path fill="#FFFF00" d="M677.7,370.1l-1.8,0.3l-0.4-2.4l1.8-0.3l-0.6-3.2l2.8-0.5l0.6,3.2l2.6-0.4l0.4,2.4l-2.6,0.4l0.7,4.2
				c0,0.3,0.1,0.5,0.2,0.7c0.1,0.2,0.2,0.4,0.4,0.5c0.2,0.2,0.5,0.3,0.9,0.2c0.2,0,0.4-0.1,0.6-0.2c0.1-0.1,0.3-0.2,0.4-0.3l1.2,2.3
				c-0.3,0.2-0.6,0.4-1,0.5c-0.4,0.1-0.8,0.3-1.2,0.3c-0.5,0.1-1,0.1-1.5,0c-0.5-0.1-0.8-0.3-1.2-0.5c-0.8-0.5-1.3-1.4-1.5-2.6
				L677.7,370.1z"/>
			<path fill="#FFFF00" d="M685,360c0.5,0.4,1,0.9,1.6,1.5c0.6,0.6,1.1,1.3,1.6,2.1c0.5,0.8,1,1.6,1.4,2.6c0.4,0.9,0.7,1.9,0.9,3
				c0.2,1.1,0.2,2.1,0.2,3.1c-0.1,1-0.2,2-0.4,2.9c-0.2,0.9-0.5,1.7-0.8,2.5c-0.3,0.8-0.7,1.4-1,2l-2.4-1.1c0.7-1.3,1.3-2.7,1.6-4.2
				c0.3-1.5,0.3-3,0.1-4.7s-0.8-3.1-1.6-4.4c-0.8-1.3-1.8-2.4-2.9-3.4L685,360z"/>
		</g>
		<g>
			<path fill="#FFFF00" d="M366.8,711.3c-0.7,0.1-1.3,0.1-1.9,0c-0.6-0.1-1.1-0.3-1.5-0.5c-0.4-0.2-0.8-0.5-1.1-0.8
				c-0.3-0.3-0.6-0.7-0.8-1l2.4-1.4c0.3,0.5,0.7,0.9,1.1,1.1c0.4,0.2,0.9,0.3,1.4,0.2c0.5-0.1,0.9-0.2,1.2-0.4s0.4-0.5,0.4-0.7
				c0-0.3-0.2-0.5-0.5-0.6c-0.3-0.1-0.7-0.2-1.4-0.3l-1.5-0.1c-0.3,0-0.7-0.1-1.1-0.2c-0.4-0.1-0.7-0.3-1-0.5s-0.6-0.5-0.8-0.8
				c-0.2-0.3-0.4-0.7-0.4-1.2c-0.1-0.5,0-1,0.1-1.4s0.4-0.8,0.8-1.1c0.3-0.3,0.8-0.6,1.3-0.8c0.5-0.2,1.1-0.4,1.7-0.5
				c1-0.1,1.9-0.1,2.8,0.2s1.5,0.8,2,1.6l-2.3,1.3c-0.3-0.4-0.6-0.6-1-0.8c-0.4-0.1-0.8-0.2-1.2-0.1c-0.4,0.1-0.7,0.2-1,0.4
				c-0.3,0.2-0.4,0.4-0.4,0.7c0,0.2,0.2,0.4,0.5,0.5c0.3,0.1,0.6,0.2,1.1,0.2l1.7,0.2c1.1,0.1,2,0.4,2.6,0.9c0.6,0.5,1,1.1,1.1,1.9
				c0.1,0.5,0,0.9-0.1,1.4s-0.4,0.9-0.8,1.2c-0.4,0.4-0.8,0.7-1.3,1C368.1,711,367.5,711.2,366.8,711.3z"/>
			<path fill="#FFFF00" d="M382.7,706.2c-0.4,0.9-0.9,1.7-1.7,2.4c-0.8,0.6-1.7,1-2.9,1.2c-0.8,0.1-1.6,0.1-2.3-0.1
				c-0.7-0.2-1.4-0.5-1.9-0.9c-0.6-0.4-1-1-1.4-1.6c-0.4-0.6-0.6-1.4-0.7-2.2c-0.1-0.8-0.1-1.5,0.1-2.2c0.2-0.7,0.5-1.4,0.9-1.9
				s0.9-1.1,1.6-1.5c0.6-0.4,1.3-0.6,2.1-0.8c0.8-0.1,1.6-0.1,2.3,0.1c0.7,0.2,1.3,0.5,1.8,0.9c0.5,0.4,0.9,1,1.3,1.6
				c0.3,0.6,0.5,1.4,0.6,2.1c0,0.1,0,0.2,0,0.3c0,0.1,0,0.2,0,0.2c0,0.1,0,0.2,0,0.2l-7.9,1.1c0.1,0.4,0.3,0.8,0.5,1.1
				c0.2,0.3,0.5,0.5,0.8,0.7c0.3,0.2,0.6,0.3,0.9,0.3c0.3,0.1,0.7,0.1,1,0c0.6-0.1,1.2-0.3,1.5-0.7c0.4-0.4,0.7-0.8,0.8-1.2
				L382.7,706.2z M379.6,702.4c0-0.2-0.1-0.4-0.3-0.6c-0.1-0.2-0.3-0.4-0.6-0.6c-0.2-0.2-0.5-0.3-0.8-0.4c-0.3-0.1-0.7-0.1-1.1,0
				c-0.6,0.1-1.1,0.3-1.5,0.7c-0.4,0.4-0.7,0.9-0.8,1.6L379.6,702.4z"/>
			<path fill="#FFFF00" d="M386.4,698.9l0.2,0c0.3-0.6,0.6-1.1,1.2-1.4c0.5-0.4,1.1-0.6,1.9-0.7c0.7-0.1,1.3-0.1,1.8,0.1
				c0.5,0.1,1,0.4,1.4,0.7c0.4,0.3,0.7,0.8,0.9,1.3c0.2,0.5,0.4,1.1,0.5,1.8l0.9,6.4l-2.8,0.4l-0.8-6c-0.1-0.8-0.4-1.3-0.7-1.6
				c-0.4-0.3-0.9-0.4-1.5-0.3c-0.4,0.1-0.7,0.2-1,0.4c-0.3,0.2-0.5,0.5-0.7,0.8c-0.2,0.3-0.3,0.7-0.3,1.1s-0.1,0.8,0,1.2l0.7,5.2
				l-2.8,0.4l-1.4-10.5l2.6-0.4L386.4,698.9z"/>
			<path fill="#FFFF00" d="M405.1,704.4l-0.2,0c-0.2,0.5-0.5,0.9-1,1.3c-0.5,0.4-1.2,0.6-2,0.8c-0.7,0.1-1.3,0-2-0.2
				s-1.2-0.5-1.8-0.9c-0.5-0.4-1-1-1.4-1.6c-0.4-0.7-0.6-1.4-0.7-2.2c-0.1-0.8-0.1-1.6,0.1-2.3c0.2-0.7,0.5-1.4,0.9-1.9
				c0.4-0.6,0.9-1,1.5-1.4c0.6-0.4,1.2-0.6,1.9-0.7c0.8-0.1,1.5,0,2.1,0.2c0.6,0.2,1,0.6,1.4,1l0.2,0l-0.4-1.5l-0.6-4.6l2.8-0.4
				l2.1,15.4l-2.6,0.4L405.1,704.4z M402.1,703.8c0.4-0.1,0.7-0.2,1-0.4c0.3-0.2,0.6-0.4,0.8-0.7c0.2-0.3,0.4-0.6,0.5-1
				c0.1-0.4,0.1-0.8,0.1-1.3s-0.2-0.9-0.4-1.2c-0.2-0.4-0.5-0.6-0.8-0.9c-0.3-0.2-0.6-0.4-1-0.5c-0.4-0.1-0.7-0.1-1.1-0.1
				c-0.4,0.1-0.7,0.2-1,0.4c-0.3,0.2-0.6,0.4-0.8,0.7c-0.2,0.3-0.4,0.6-0.5,1c-0.1,0.4-0.1,0.8-0.1,1.3c0.1,0.5,0.2,0.9,0.4,1.2
				c0.2,0.4,0.5,0.6,0.8,0.9c0.3,0.2,0.6,0.4,1,0.5C401.4,703.8,401.7,703.9,402.1,703.8z"/>
			<path fill="#FFFF00" d="M413.5,693.8l2.6-0.4l0.2,1.3l0.2,0c0.2-0.5,0.5-0.9,1-1.3s1.2-0.6,2-0.8c0.7-0.1,1.3,0,2,0.2
				c0.6,0.2,1.2,0.5,1.8,0.9c0.5,0.4,1,1,1.4,1.6c0.4,0.7,0.6,1.4,0.7,2.2c0.1,0.8,0.1,1.6-0.1,2.3c-0.2,0.7-0.5,1.4-0.9,1.9
				c-0.4,0.6-0.9,1-1.5,1.4c-0.6,0.4-1.2,0.6-1.9,0.7c-0.8,0.1-1.5,0-2.1-0.2c-0.6-0.2-1-0.6-1.4-1l-0.2,0l0.4,1.5l0.6,4.4l-2.8,0.4
				L413.5,693.8z M420.1,701.3c0.4-0.1,0.7-0.2,1-0.4s0.6-0.4,0.8-0.7c0.2-0.3,0.4-0.6,0.5-1c0.1-0.4,0.1-0.8,0.1-1.3
				c-0.1-0.5-0.2-0.9-0.4-1.2c-0.2-0.4-0.5-0.6-0.8-0.9s-0.6-0.4-1-0.5c-0.4-0.1-0.7-0.1-1.1-0.1c-0.4,0.1-0.7,0.2-1,0.3
				s-0.6,0.4-0.8,0.7s-0.4,0.6-0.5,1c-0.1,0.4-0.1,0.8-0.1,1.3c0.1,0.5,0.2,0.9,0.4,1.2c0.2,0.4,0.5,0.6,0.8,0.9
				c0.3,0.2,0.6,0.4,1,0.5C419.4,701.4,419.7,701.4,420.1,701.3z"/>
			<path fill="#FFFF00" d="M434.2,700.6l-0.2,0c-0.3,0.4-0.6,0.8-1.1,1.2c-0.4,0.4-1,0.6-1.7,0.7c-0.5,0.1-1.1,0.1-1.6-0.1
				s-1-0.3-1.4-0.6s-0.7-0.6-1-1c-0.3-0.4-0.4-0.9-0.5-1.4c-0.1-0.5,0-1.1,0.1-1.5c0.2-0.5,0.4-0.9,0.7-1.3c0.3-0.4,0.8-0.7,1.3-0.9
				c0.5-0.2,1.1-0.4,1.7-0.5c0.7-0.1,1.3-0.1,1.7-0.1c0.5,0,0.8,0.1,1.1,0.2l0-0.3c-0.1-0.6-0.4-1-0.9-1.3s-1.1-0.4-1.7-0.3
				c-1,0.1-1.7,0.7-2.3,1.6l-2.2-1.1c0.9-1.6,2.4-2.5,4.3-2.7c1.6-0.2,2.9,0,3.9,0.6c1,0.6,1.6,1.7,1.8,3.2l0.9,6.3l-2.8,0.4
				L434.2,700.6z M433.8,697.4c-0.4-0.1-0.7-0.2-1.1-0.2c-0.4,0-0.8,0-1.2,0c-0.7,0.1-1.2,0.3-1.5,0.7c-0.3,0.3-0.5,0.7-0.4,1.2
				s0.3,0.8,0.7,1c0.4,0.2,0.8,0.3,1.3,0.2c0.4-0.1,0.7-0.2,1-0.3c0.3-0.2,0.5-0.4,0.7-0.6s0.3-0.5,0.4-0.8
				C433.8,698,433.8,697.7,433.8,697.4z"/>
			<path fill="#FFFF00" d="M443.5,700.8c-0.7,0.1-1.3,0.1-1.9,0c-0.6-0.1-1.1-0.3-1.5-0.5c-0.4-0.2-0.8-0.5-1.1-0.8
				c-0.3-0.3-0.6-0.7-0.8-1l2.4-1.4c0.3,0.5,0.7,0.9,1.1,1.1c0.4,0.2,0.9,0.3,1.4,0.2c0.5-0.1,0.9-0.2,1.2-0.4
				c0.3-0.2,0.4-0.5,0.4-0.7c0-0.3-0.2-0.5-0.5-0.6c-0.3-0.1-0.7-0.2-1.4-0.3l-1.5-0.1c-0.3,0-0.7-0.1-1.1-0.2
				c-0.4-0.1-0.7-0.3-1-0.5c-0.3-0.2-0.6-0.5-0.8-0.8c-0.2-0.3-0.4-0.7-0.4-1.2c-0.1-0.5,0-1,0.1-1.4c0.2-0.4,0.4-0.8,0.8-1.1
				c0.3-0.3,0.8-0.6,1.3-0.8s1.1-0.4,1.7-0.5c1-0.1,1.9-0.1,2.8,0.2c0.8,0.3,1.5,0.8,2,1.6l-2.3,1.3c-0.3-0.4-0.6-0.6-1-0.8
				c-0.4-0.1-0.8-0.2-1.2-0.1c-0.4,0.1-0.7,0.2-1,0.4c-0.3,0.2-0.4,0.4-0.4,0.7c0,0.2,0.2,0.4,0.5,0.5s0.6,0.2,1.1,0.2l1.7,0.2
				c1.1,0.1,2,0.4,2.6,0.9c0.6,0.5,1,1.1,1.1,1.9c0.1,0.5,0,0.9-0.1,1.4c-0.2,0.4-0.4,0.9-0.8,1.2s-0.8,0.7-1.3,1
				C444.8,700.5,444.2,700.7,443.5,700.8z"/>
			<path fill="#FFFF00" d="M449.6,691.3l-1.9,0.3l-0.3-2.4l1.9-0.3l-0.4-3.2l2.8-0.4l0.4,3.2l2.6-0.4l0.3,2.4l-2.6,0.4l0.6,4.2
				c0,0.3,0.1,0.5,0.2,0.7c0.1,0.2,0.2,0.4,0.4,0.5c0.2,0.2,0.5,0.3,0.9,0.2c0.2,0,0.4-0.1,0.6-0.2c0.1-0.1,0.3-0.2,0.4-0.3l1.1,2.4
				c-0.3,0.2-0.6,0.4-1,0.5c-0.4,0.1-0.8,0.2-1.2,0.3c-0.5,0.1-1,0.1-1.5-0.1c-0.4-0.1-0.8-0.3-1.2-0.5c-0.8-0.6-1.2-1.5-1.4-2.7
				L449.6,691.3z"/>
			<path fill="#FFFF00" d="M467.7,694.5c-0.4,0.9-0.9,1.7-1.7,2.4c-0.8,0.6-1.7,1-2.9,1.2c-0.8,0.1-1.6,0.1-2.3-0.1
				c-0.7-0.2-1.4-0.5-1.9-0.9c-0.6-0.4-1-1-1.4-1.6c-0.4-0.6-0.6-1.4-0.7-2.2c-0.1-0.8-0.1-1.5,0.1-2.2c0.2-0.7,0.5-1.4,0.9-1.9
				c0.4-0.6,0.9-1.1,1.6-1.5c0.6-0.4,1.3-0.6,2.1-0.8c0.8-0.1,1.6-0.1,2.3,0.1c0.7,0.2,1.3,0.5,1.8,0.9c0.5,0.4,0.9,1,1.3,1.6
				c0.3,0.6,0.5,1.4,0.6,2.1c0,0.1,0,0.2,0,0.3c0,0.1,0,0.2,0,0.2c0,0.1,0,0.2,0,0.2l-7.9,1.1c0.1,0.4,0.3,0.8,0.5,1.1
				s0.5,0.5,0.8,0.7c0.3,0.2,0.6,0.3,0.9,0.3c0.3,0.1,0.7,0.1,1,0c0.6-0.1,1.2-0.3,1.5-0.7c0.4-0.4,0.7-0.8,0.8-1.2L467.7,694.5z
				 M464.6,690.8c0-0.2-0.1-0.4-0.3-0.6c-0.1-0.2-0.3-0.4-0.6-0.6c-0.2-0.2-0.5-0.3-0.8-0.4c-0.3-0.1-0.7-0.1-1.1,0
				c-0.6,0.1-1.1,0.3-1.5,0.7c-0.4,0.4-0.7,0.9-0.8,1.6L464.6,690.8z"/>
			<path fill="#FFFF00" d="M474.7,684c-0.2,0-0.5,0-0.7,0c-0.2-0.1-0.4-0.2-0.6-0.3c-0.2-0.1-0.3-0.3-0.5-0.5
				c-0.1-0.2-0.2-0.4-0.2-0.7c0-0.3,0-0.5,0-0.7c0.1-0.2,0.2-0.4,0.3-0.6c0.1-0.2,0.3-0.3,0.5-0.5c0.2-0.1,0.4-0.2,0.7-0.2
				c0.5-0.1,1,0,1.4,0.4c0.4,0.3,0.6,0.7,0.7,1.2c0.1,0.5-0.1,1-0.4,1.4C475.6,683.7,475.2,683.9,474.7,684z M475,696.1l-1.4-10.5
				l2.8-0.4l1.4,10.5L475,696.1z"/>
			<path fill="#FFFF00" d="M483.5,679.1c0.4-0.1,0.8-0.1,1.1,0c0.4,0,0.7,0.1,1,0.2l-0.5,2.6c-0.2-0.1-0.3-0.1-0.5-0.1
				c-0.2,0-0.4,0-0.6,0c-0.4,0.1-0.7,0.2-0.9,0.5c-0.2,0.3-0.3,0.7-0.2,1.2l0.1,0.9l2.6-0.4l0.3,2.4l-2.6,0.4l1.1,8.1l-2.8,0.4
				l-1.1-8.1l-1.9,0.3l-0.3-2.4l1.9-0.3l-0.1-1c-0.1-0.6-0.1-1.2,0.1-1.8s0.3-1,0.7-1.4s0.7-0.7,1.2-0.9
				C482.3,679.3,482.9,679.2,483.5,679.1z"/>
			<path fill="#FFFF00" d="M491.1,683.2l3.2-0.4l3.5,6.4l0.2,0l1.7-7.1l3.2-0.4l-3.1,11.2l-2.8,0.4L491.1,683.2z"/>
			<path fill="#FFFF00" d="M509.7,691.7c-0.7,0.1-1.3,0.1-1.9,0c-0.6-0.1-1.1-0.3-1.5-0.5c-0.4-0.2-0.8-0.5-1.1-0.8
				c-0.3-0.3-0.6-0.7-0.8-1l2.4-1.4c0.3,0.5,0.7,0.9,1.1,1.1c0.4,0.2,0.9,0.3,1.4,0.2c0.5-0.1,0.9-0.2,1.2-0.4
				c0.3-0.2,0.4-0.5,0.4-0.7c0-0.3-0.2-0.5-0.5-0.6c-0.3-0.1-0.7-0.2-1.4-0.3l-1.5-0.1c-0.3,0-0.7-0.1-1.1-0.2
				c-0.4-0.1-0.7-0.3-1-0.5c-0.3-0.2-0.6-0.5-0.8-0.8c-0.2-0.3-0.4-0.7-0.4-1.2c-0.1-0.5,0-1,0.1-1.4c0.2-0.4,0.4-0.8,0.8-1.1
				c0.3-0.3,0.8-0.6,1.3-0.8c0.5-0.2,1.1-0.4,1.7-0.5c1-0.1,1.9-0.1,2.8,0.2c0.8,0.3,1.5,0.8,2,1.6l-2.3,1.3c-0.3-0.4-0.6-0.6-1-0.8
				c-0.4-0.1-0.8-0.2-1.2-0.1c-0.4,0.1-0.7,0.2-1,0.4c-0.3,0.2-0.4,0.4-0.4,0.7c0,0.2,0.2,0.4,0.5,0.5c0.3,0.1,0.6,0.2,1.1,0.2
				l1.7,0.2c1.1,0.1,2,0.4,2.6,0.9c0.6,0.5,1,1.1,1.1,1.9c0.1,0.5,0,0.9-0.1,1.4s-0.4,0.9-0.8,1.2s-0.8,0.7-1.3,1
				C510.9,691.5,510.3,691.6,509.7,691.7z"/>
			<path fill="#FFFF00" d="M525.6,686.6c-0.4,0.9-0.9,1.7-1.7,2.4c-0.8,0.6-1.7,1-2.9,1.2c-0.8,0.1-1.6,0.1-2.3-0.1
				c-0.7-0.2-1.4-0.5-1.9-0.9s-1-1-1.4-1.6c-0.4-0.6-0.6-1.4-0.7-2.2c-0.1-0.8-0.1-1.5,0.1-2.2c0.2-0.7,0.5-1.4,0.9-1.9
				c0.4-0.6,0.9-1.1,1.6-1.5c0.6-0.4,1.3-0.6,2.1-0.8c0.8-0.1,1.6-0.1,2.3,0.1c0.7,0.2,1.3,0.5,1.8,0.9c0.5,0.4,0.9,1,1.3,1.6
				c0.3,0.6,0.5,1.4,0.6,2.1c0,0.1,0,0.2,0,0.3c0,0.1,0,0.2,0,0.2c0,0.1,0,0.2,0,0.2l-7.9,1.1c0.1,0.4,0.3,0.8,0.5,1.1
				c0.2,0.3,0.5,0.5,0.8,0.7c0.3,0.2,0.6,0.3,0.9,0.3c0.3,0.1,0.7,0.1,1,0c0.6-0.1,1.2-0.3,1.5-0.7c0.4-0.4,0.7-0.8,0.8-1.2
				L525.6,686.6z M522.5,682.9c0-0.2-0.1-0.4-0.3-0.6c-0.1-0.2-0.3-0.4-0.6-0.6c-0.2-0.2-0.5-0.3-0.8-0.4c-0.3-0.1-0.7-0.1-1.1,0
				c-0.6,0.1-1.1,0.3-1.5,0.7c-0.4,0.4-0.7,0.9-0.8,1.6L522.5,682.9z"/>
			<path fill="#FFFF00" d="M537.7,684.9c-0.4,0.9-0.9,1.7-1.7,2.4c-0.8,0.6-1.7,1-2.9,1.2c-0.8,0.1-1.6,0.1-2.3-0.1
				c-0.7-0.2-1.4-0.5-1.9-0.9c-0.6-0.4-1-1-1.4-1.6c-0.4-0.6-0.6-1.4-0.7-2.2c-0.1-0.8-0.1-1.5,0.1-2.2c0.2-0.7,0.5-1.4,0.9-1.9
				c0.4-0.6,0.9-1.1,1.6-1.5c0.6-0.4,1.3-0.6,2.1-0.8c0.8-0.1,1.6-0.1,2.3,0.1c0.7,0.2,1.3,0.5,1.8,0.9s0.9,1,1.3,1.6
				c0.3,0.6,0.5,1.4,0.6,2.1c0,0.1,0,0.2,0,0.3c0,0.1,0,0.2,0,0.2c0,0.1,0,0.2,0,0.2l-7.9,1.1c0.1,0.4,0.3,0.8,0.5,1.1
				c0.2,0.3,0.5,0.5,0.8,0.7c0.3,0.2,0.6,0.3,0.9,0.3c0.3,0.1,0.7,0.1,1,0c0.6-0.1,1.2-0.3,1.5-0.7c0.4-0.4,0.7-0.8,0.8-1.2
				L537.7,684.9z M534.5,681.2c0-0.2-0.1-0.4-0.3-0.6c-0.1-0.2-0.3-0.4-0.6-0.6c-0.2-0.2-0.5-0.3-0.8-0.4c-0.3-0.1-0.7-0.1-1.1,0
				c-0.6,0.1-1.1,0.3-1.5,0.7c-0.4,0.4-0.7,0.9-0.8,1.6L534.5,681.2z"/>
			<path fill="#FFFF00" d="M547.8,684.9l-0.2,0c-0.2,0.5-0.5,0.9-1,1.3s-1.2,0.6-2,0.8c-0.7,0.1-1.3,0-2-0.2
				c-0.6-0.2-1.2-0.5-1.8-0.9c-0.5-0.4-1-1-1.4-1.6c-0.4-0.7-0.6-1.4-0.7-2.2c-0.1-0.8-0.1-1.6,0.1-2.3c0.2-0.7,0.5-1.4,0.9-1.9
				c0.4-0.6,0.9-1,1.5-1.4c0.6-0.4,1.2-0.6,1.9-0.7c0.8-0.1,1.5,0,2.1,0.2c0.6,0.2,1,0.6,1.4,1l0.2,0l-0.4-1.5l-0.6-4.6l2.8-0.4
				l2.1,15.4l-2.6,0.4L547.8,684.9z M544.8,684.3c0.4-0.1,0.7-0.2,1-0.4c0.3-0.2,0.6-0.4,0.8-0.7c0.2-0.3,0.4-0.6,0.5-1
				c0.1-0.4,0.1-0.8,0.1-1.3s-0.2-0.9-0.4-1.2c-0.2-0.4-0.5-0.6-0.8-0.9c-0.3-0.2-0.6-0.4-1-0.5c-0.4-0.1-0.7-0.1-1.1-0.1
				c-0.4,0.1-0.7,0.2-1,0.4c-0.3,0.2-0.6,0.4-0.8,0.7c-0.2,0.3-0.4,0.6-0.5,1c-0.1,0.4-0.1,0.8-0.1,1.3c0.1,0.5,0.2,0.9,0.4,1.2
				c0.2,0.4,0.5,0.6,0.8,0.9c0.3,0.2,0.6,0.4,1,0.5C544.1,684.3,544.5,684.3,544.8,684.3z"/>
			<path fill="#FFFF00" d="M557.7,672.6c-0.2,0-0.5,0-0.7,0c-0.2-0.1-0.4-0.2-0.6-0.3c-0.2-0.1-0.3-0.3-0.5-0.5
				c-0.1-0.2-0.2-0.4-0.2-0.7c0-0.3,0-0.5,0-0.7c0.1-0.2,0.2-0.4,0.3-0.6c0.1-0.2,0.3-0.3,0.5-0.5s0.4-0.2,0.7-0.2
				c0.5-0.1,1,0,1.4,0.4c0.4,0.3,0.6,0.7,0.7,1.2c0.1,0.5-0.1,1-0.4,1.4S558.2,672.5,557.7,672.6z M557.9,684.8l-1.4-10.5l2.8-0.4
				l1.4,10.5L557.9,684.8z"/>
			<path fill="#FFFF00" d="M567.6,683.8c-0.7,0.1-1.3,0.1-1.9,0c-0.6-0.1-1.1-0.3-1.5-0.5c-0.4-0.2-0.8-0.5-1.1-0.8
				c-0.3-0.3-0.6-0.7-0.8-1l2.4-1.4c0.3,0.5,0.7,0.9,1.1,1.1s0.9,0.3,1.4,0.2c0.5-0.1,0.9-0.2,1.2-0.4s0.4-0.5,0.4-0.7
				c0-0.3-0.2-0.5-0.5-0.6c-0.3-0.1-0.7-0.2-1.4-0.3l-1.5-0.1c-0.3,0-0.7-0.1-1.1-0.2c-0.4-0.1-0.7-0.3-1-0.5
				c-0.3-0.2-0.6-0.5-0.8-0.8c-0.2-0.3-0.4-0.7-0.4-1.2c-0.1-0.5,0-1,0.1-1.4c0.2-0.4,0.4-0.8,0.8-1.1c0.3-0.3,0.8-0.6,1.3-0.8
				c0.5-0.2,1.1-0.4,1.7-0.5c1-0.1,1.9-0.1,2.8,0.2c0.8,0.3,1.5,0.8,2,1.6l-2.3,1.3c-0.3-0.4-0.6-0.7-1-0.8
				c-0.4-0.1-0.8-0.2-1.2-0.1c-0.4,0.1-0.7,0.2-1,0.4c-0.3,0.2-0.4,0.4-0.4,0.7c0,0.2,0.2,0.4,0.5,0.5c0.3,0.1,0.6,0.2,1.1,0.2
				l1.7,0.2c1.1,0.1,2,0.4,2.6,0.9c0.6,0.5,1,1.1,1.1,1.9c0.1,0.5,0,0.9-0.1,1.4s-0.4,0.9-0.8,1.2c-0.4,0.4-0.8,0.7-1.3,1
				C568.8,683.5,568.2,683.7,567.6,683.8z"/>
			<path fill="#FFFF00" d="M588.1,677.9c-0.3,1-0.9,1.8-1.6,2.4c-0.7,0.7-1.7,1.1-3,1.3c-0.8,0.1-1.6,0.1-2.3-0.1s-1.4-0.5-1.9-0.9
				c-0.6-0.4-1-1-1.4-1.6s-0.6-1.4-0.7-2.2c-0.1-0.8-0.1-1.6,0.1-2.3c0.2-0.7,0.5-1.4,0.9-1.9c0.4-0.6,1-1,1.6-1.4
				c0.6-0.4,1.4-0.6,2.2-0.7c1.2-0.2,2.3,0,3.2,0.4c0.9,0.4,1.6,1.1,2.1,1.9l-2.4,1.4c-0.3-0.5-0.7-0.8-1.1-1
				c-0.4-0.2-0.9-0.3-1.5-0.2c-0.4,0.1-0.7,0.2-1,0.4c-0.3,0.2-0.6,0.4-0.8,0.7c-0.2,0.3-0.4,0.6-0.5,1c-0.1,0.4-0.1,0.8,0,1.3
				c0.1,0.5,0.2,0.9,0.4,1.2c0.2,0.4,0.4,0.6,0.7,0.9c0.3,0.2,0.6,0.4,1,0.5c0.3,0.1,0.7,0.1,1.1,0.1c0.6-0.1,1.1-0.3,1.4-0.6
				c0.4-0.3,0.6-0.8,0.8-1.3L588.1,677.9z"/>
			<path fill="#FFFF00" d="M593.6,668.8c0.8-0.1,1.6-0.1,2.3,0.1c0.7,0.2,1.4,0.5,1.9,0.9c0.6,0.4,1,1,1.4,1.6
				c0.4,0.6,0.6,1.4,0.7,2.2c0.1,0.8,0.1,1.6-0.1,2.3c-0.2,0.7-0.5,1.4-0.9,1.9c-0.4,0.6-1,1-1.6,1.4c-0.6,0.4-1.4,0.6-2.2,0.7
				c-0.8,0.1-1.6,0.1-2.3-0.1c-0.7-0.2-1.4-0.5-1.9-0.9c-0.6-0.4-1-1-1.4-1.6c-0.4-0.7-0.6-1.4-0.7-2.2c-0.1-0.8-0.1-1.6,0.1-2.3
				s0.5-1.4,0.9-1.9c0.4-0.6,1-1,1.6-1.4S592.8,668.9,593.6,668.8z M594.8,677.4c0.4,0,0.7-0.2,1-0.3c0.3-0.2,0.6-0.4,0.8-0.7
				c0.2-0.3,0.4-0.6,0.5-1c0.1-0.4,0.1-0.8,0.1-1.3c-0.1-0.5-0.2-0.9-0.4-1.2c-0.2-0.4-0.4-0.6-0.7-0.9s-0.6-0.4-1-0.5
				c-0.4-0.1-0.7-0.1-1.1-0.1c-0.4,0.1-0.7,0.2-1,0.3c-0.3,0.2-0.6,0.4-0.8,0.7c-0.2,0.3-0.4,0.6-0.5,1c-0.1,0.4-0.1,0.8-0.1,1.3
				c0.1,0.5,0.2,0.9,0.4,1.2c0.2,0.4,0.4,0.6,0.7,0.9c0.3,0.2,0.6,0.4,1,0.5C594,677.4,594.4,677.5,594.8,677.4z"/>
			<path fill="#FFFF00" d="M600.8,668.1l2.6-0.4l0.2,1.5l0.2,0c0.1-0.3,0.2-0.5,0.4-0.8c0.2-0.2,0.4-0.5,0.6-0.7
				c0.2-0.2,0.5-0.4,0.8-0.5c0.3-0.1,0.6-0.2,0.9-0.3c0.4-0.1,0.7-0.1,1,0c0.3,0,0.5,0.1,0.7,0.2l-0.4,2.6c-0.2-0.1-0.4-0.1-0.6-0.1
				c-0.2,0-0.5,0-0.8,0c-0.4,0.1-0.7,0.2-1,0.4c-0.3,0.2-0.5,0.4-0.7,0.7c-0.2,0.3-0.3,0.7-0.4,1c-0.1,0.4-0.1,0.8,0,1.2l0.7,5.2
				l-2.8,0.4L600.8,668.1z"/>
			<path fill="#FFFF00" d="M609.6,666.9l2.6-0.4l0.2,1.5l0.2,0c0.1-0.3,0.2-0.5,0.4-0.8s0.4-0.5,0.6-0.7c0.2-0.2,0.5-0.4,0.8-0.5
				c0.3-0.1,0.6-0.2,0.9-0.3c0.4-0.1,0.7-0.1,1,0c0.3,0,0.5,0.1,0.7,0.2l-0.4,2.6c-0.2-0.1-0.4-0.1-0.6-0.1c-0.2,0-0.5,0-0.8,0
				c-0.4,0.1-0.7,0.2-1,0.4c-0.3,0.2-0.5,0.4-0.7,0.7c-0.2,0.3-0.3,0.7-0.4,1c-0.1,0.4-0.1,0.8,0,1.2l0.7,5.2l-2.8,0.4L609.6,666.9z
				"/>
			<path fill="#FFFF00" d="M628.8,672.5c-0.4,0.9-0.9,1.7-1.7,2.4c-0.8,0.6-1.7,1-2.9,1.2c-0.8,0.1-1.6,0.1-2.3-0.1
				c-0.7-0.2-1.4-0.5-1.9-0.9c-0.6-0.4-1-1-1.4-1.6s-0.6-1.4-0.7-2.2c-0.1-0.8-0.1-1.5,0.1-2.2c0.2-0.7,0.5-1.4,0.9-1.9
				c0.4-0.6,0.9-1.1,1.6-1.5c0.6-0.4,1.3-0.6,2.1-0.8c0.8-0.1,1.6-0.1,2.3,0.1c0.7,0.2,1.3,0.5,1.8,0.9c0.5,0.4,0.9,1,1.3,1.6
				c0.3,0.6,0.5,1.4,0.6,2.1c0,0.1,0,0.2,0,0.3c0,0.1,0,0.2,0,0.2c0,0.1,0,0.2,0,0.2l-7.9,1.1c0.1,0.4,0.3,0.8,0.5,1.1
				s0.5,0.5,0.8,0.7s0.6,0.3,0.9,0.3c0.3,0,0.7,0.1,1,0c0.6-0.1,1.2-0.3,1.5-0.7c0.4-0.4,0.7-0.8,0.8-1.2L628.8,672.5z M625.7,668.7
				c0-0.2-0.1-0.4-0.3-0.6c-0.1-0.2-0.3-0.4-0.6-0.6c-0.2-0.2-0.5-0.3-0.8-0.4c-0.3-0.1-0.7-0.1-1.1,0c-0.6,0.1-1.1,0.3-1.5,0.7
				c-0.4,0.4-0.7,0.9-0.8,1.6L625.7,668.7z"/>
			<path fill="#FFFF00" d="M640.9,670.7c-0.3,1-0.9,1.8-1.6,2.4c-0.7,0.7-1.7,1.1-3,1.3c-0.8,0.1-1.6,0.1-2.3-0.1
				c-0.7-0.2-1.4-0.5-1.9-0.9c-0.6-0.4-1-1-1.4-1.6s-0.6-1.4-0.7-2.2c-0.1-0.8-0.1-1.6,0.1-2.3c0.2-0.7,0.5-1.4,0.9-1.9
				c0.4-0.6,1-1,1.6-1.4c0.6-0.4,1.4-0.6,2.2-0.7c1.2-0.2,2.3,0,3.2,0.4s1.6,1.1,2.1,1.9l-2.4,1.4c-0.3-0.5-0.7-0.8-1.1-1
				c-0.4-0.2-0.9-0.3-1.5-0.2c-0.4,0.1-0.7,0.2-1,0.4c-0.3,0.2-0.6,0.4-0.8,0.7c-0.2,0.3-0.4,0.6-0.5,1c-0.1,0.4-0.1,0.8,0,1.3
				c0.1,0.5,0.2,0.9,0.4,1.2c0.2,0.4,0.4,0.6,0.7,0.9c0.3,0.2,0.6,0.4,1,0.5c0.4,0.1,0.7,0.1,1.1,0.1c0.6-0.1,1.1-0.3,1.4-0.6
				c0.4-0.3,0.6-0.8,0.8-1.3L640.9,670.7z"/>
			<path fill="#FFFF00" d="M642.9,664.8l-1.9,0.3l-0.3-2.4l1.9-0.3l-0.4-3.2l2.8-0.4l0.4,3.2l2.6-0.4l0.3,2.4l-2.6,0.4l0.6,4.2
				c0,0.3,0.1,0.5,0.2,0.7c0.1,0.2,0.2,0.4,0.4,0.5c0.2,0.2,0.5,0.3,0.9,0.2c0.2,0,0.4-0.1,0.6-0.2c0.1-0.1,0.3-0.2,0.4-0.3l1.1,2.4
				c-0.3,0.2-0.6,0.4-1,0.5c-0.4,0.1-0.8,0.2-1.2,0.3c-0.5,0.1-1,0.1-1.5-0.1c-0.4-0.1-0.8-0.3-1.2-0.5c-0.8-0.6-1.2-1.5-1.4-2.7
				L642.9,664.8z"/>
		</g>
		<path fill="#FFFFFF" d="M228,778.1L228,778.1c-9.9,0-17.9-8-17.9-17.9V239.8c0-9.9,8-17.9,17.9-17.9h0c9.9,0,17.9,8,17.9,17.9
			v520.3C245.9,770.1,237.9,778.1,228,778.1z"/>
		<path fill="#FFFFFF" d="M772,778.1L772,778.1c-9.9,0-17.9-8-17.9-17.9V239.8c0-9.9,8-17.9,17.9-17.9h0c9.9,0,17.9,8,17.9,17.9
			v520.3C789.9,770.1,781.9,778.1,772,778.1z"/>
		
			<rect x="235.6" y="418" transform="matrix(0.9853 -0.1709 0.1709 0.9853 -64.5726 92.181)" fill="#FFFFFF" width="535" height="6.2"/>
		<g>
			<polygon fill="#FFFFFF" points="751.5,334.8 725,354.1 728.6,359.1 755.1,339.7 760.1,336.1 737.1,304.7 732.1,308.3 			"/>
			
				<rect x="238.1" y="292.1" transform="matrix(-0.9881 -0.1539 0.1539 -0.9881 943.1617 663.3451)" fill="#FFFFFF" width="518.3" height="6.2"/>
		</g>
		<g>
			<polygon fill="#FFFFFF" points="249.3,459.6 275.8,478.9 272.1,483.9 245.7,464.6 240.7,460.9 263.7,429.5 268.6,433.1 			"/>
			
				<rect x="244.4" y="416.9" transform="matrix(0.9881 -0.1539 0.1539 0.9881 -58.624 82.4693)" fill="#FFFFFF" width="518.3" height="6.2"/>
		</g>
		<g>
			<polygon fill="#FFFFFF" points="249.3,742.6 275.8,761.9 272.1,766.9 245.7,747.6 240.7,744 263.7,712.5 268.6,716.2 			"/>
			
				<rect x="244.4" y="699.9" transform="matrix(0.9881 -0.1539 0.1539 0.9881 -102.1684 85.8391)" fill="#FFFFFF" width="518.3" height="6.2"/>
		</g>
		<g>
			<polygon fill="#FFFFFF" points="751.5,606.7 725,626 728.6,631 755.1,611.6 760.1,608 737.1,576.6 732.1,580.2 			"/>
			
				<rect x="238.1" y="564" transform="matrix(-0.9881 -0.1539 0.1539 -0.9881 901.3287 1203.9154)" fill="#FFFFFF" width="518.3" height="6.2"/>
		</g>
	</g>
	<g>
		<path fill="#FFFFFF" d="M335.9,929h12.7v3.6h-8.9v4.9h8v3.6h-8v8h-3.8V929z"/>
		<path fill="#FFFFFF" d="M352.8,933.4c-0.3,0-0.6-0.1-0.9-0.2c-0.3-0.1-0.5-0.3-0.8-0.5s-0.4-0.5-0.5-0.7s-0.2-0.6-0.2-0.9
			s0.1-0.6,0.2-0.9c0.1-0.3,0.3-0.5,0.5-0.7s0.5-0.4,0.8-0.5s0.6-0.2,0.9-0.2c0.7,0,1.2,0.2,1.7,0.7c0.5,0.5,0.7,1,0.7,1.7
			s-0.2,1.2-0.7,1.7C354,933.2,353.5,933.4,352.8,933.4z M351,949v-13.7h3.7V949H351z"/>
		<path fill="#FFFFFF" d="M364.2,955.5c-1,0-1.8-0.1-2.6-0.4s-1.4-0.6-2-1c-0.6-0.4-1-0.8-1.4-1.3c-0.4-0.5-0.6-1-0.8-1.5l3.5-1.4
			c0.3,0.7,0.7,1.3,1.3,1.7c0.6,0.4,1.3,0.6,2,0.6c1.2,0,2.1-0.4,2.7-1.1s1-1.8,1-3.1v-1h-0.2c-0.4,0.6-1,1.1-1.7,1.4
			c-0.7,0.3-1.5,0.5-2.5,0.5c-0.8,0-1.6-0.2-2.4-0.5c-0.8-0.3-1.5-0.8-2.1-1.4s-1.1-1.4-1.5-2.2c-0.4-0.9-0.6-1.8-0.6-2.9
			c0-1.1,0.2-2,0.6-2.9s0.9-1.6,1.5-2.2s1.3-1.1,2.1-1.4c0.8-0.3,1.6-0.5,2.4-0.5c1,0,1.8,0.2,2.5,0.5c0.7,0.3,1.3,0.8,1.7,1.4h0.2
			v-1.5h3.5V948c0,1.2-0.2,2.2-0.5,3.1c-0.4,0.9-0.8,1.7-1.5,2.4c-0.6,0.6-1.4,1.1-2.3,1.5C366.3,955.3,365.3,955.5,364.2,955.5z
			 M364.3,945.7c0.4,0,0.9-0.1,1.3-0.2c0.4-0.2,0.8-0.4,1.2-0.7c0.3-0.3,0.6-0.7,0.8-1.2c0.2-0.5,0.3-1,0.3-1.6s-0.1-1.1-0.3-1.6
			s-0.5-0.9-0.8-1.2c-0.3-0.3-0.7-0.6-1.2-0.7c-0.4-0.2-0.9-0.2-1.3-0.2c-0.4,0-0.9,0.1-1.3,0.2s-0.8,0.4-1.1,0.7
			c-0.3,0.3-0.6,0.7-0.8,1.2c-0.2,0.5-0.3,1-0.3,1.6s0.1,1.1,0.3,1.6c0.2,0.5,0.5,0.9,0.8,1.2c0.3,0.3,0.7,0.6,1.1,0.7
			C363.5,945.6,363.9,945.7,364.3,945.7z"/>
		<path fill="#FFFFFF" d="M376.8,939.8c-0.7,0-1.2-0.2-1.7-0.7c-0.5-0.5-0.7-1-0.7-1.7c0-0.7,0.2-1.2,0.7-1.7
			c0.5-0.5,1.1-0.7,1.7-0.7s1.2,0.2,1.7,0.7c0.5,0.5,0.7,1,0.7,1.7c0,0.7-0.2,1.2-0.7,1.7C378,939.5,377.5,939.8,376.8,939.8z
			 M376.8,949c-0.7,0-1.2-0.2-1.7-0.7c-0.5-0.5-0.7-1-0.7-1.7c0-0.7,0.2-1.2,0.7-1.7c0.5-0.5,1.1-0.7,1.7-0.7s1.2,0.2,1.7,0.7
			c0.5,0.5,0.7,1,0.7,1.7c0,0.7-0.2,1.2-0.7,1.7C378,948.8,377.5,949,376.8,949z"/>
		<path fill="#FFFFFF" d="M388.7,929h7.3c1,0,1.9,0.2,2.7,0.5c0.8,0.3,1.5,0.8,2.1,1.3c0.6,0.6,1,1.2,1.4,2c0.3,0.8,0.5,1.6,0.5,2.5
			c0,0.7-0.1,1.3-0.3,1.9s-0.5,1.1-0.9,1.6c-0.4,0.5-0.8,0.9-1.4,1.3c-0.5,0.4-1.1,0.6-1.7,0.9l0,0.2l5.4,7.7v0.2h-4.3l-5.2-7.5
			h-1.8v7.5h-3.8V929z M396,938c0.9,0,1.6-0.3,2.1-0.8c0.5-0.5,0.8-1.2,0.8-2c0-0.4-0.1-0.7-0.2-1c-0.1-0.3-0.3-0.6-0.5-0.9
			c-0.2-0.3-0.5-0.5-0.9-0.6c-0.4-0.2-0.8-0.2-1.2-0.2h-3.6v5.6H396z"/>
		<path fill="#FFFFFF" d="M418.4,945.7c-0.6,1.1-1.5,2-2.6,2.7c-1.1,0.7-2.4,1-3.9,1c-1,0-2-0.2-2.9-0.5c-0.9-0.4-1.7-0.9-2.3-1.5
			c-0.7-0.7-1.2-1.4-1.5-2.3c-0.4-0.9-0.5-1.9-0.5-2.9c0-1,0.2-1.9,0.5-2.8c0.4-0.9,0.8-1.7,1.5-2.3c0.6-0.7,1.4-1.2,2.3-1.6
			c0.9-0.4,1.8-0.6,2.9-0.6c1.1,0,2.1,0.2,2.9,0.5s1.6,0.9,2.2,1.5c0.6,0.6,1,1.4,1.3,2.3c0.3,0.9,0.4,1.8,0.4,2.9
			c0,0.1,0,0.2,0,0.3c0,0.1,0,0.2,0,0.3c0,0.1,0,0.2,0,0.3h-10.3c0.1,0.6,0.2,1,0.5,1.4c0.2,0.4,0.5,0.7,0.9,1
			c0.3,0.3,0.7,0.5,1.1,0.6c0.4,0.1,0.8,0.2,1.3,0.2c0.8,0,1.5-0.2,2.1-0.6s1-0.9,1.3-1.4L418.4,945.7z M415,940.4
			c0-0.2-0.1-0.5-0.2-0.8c-0.1-0.3-0.3-0.6-0.6-0.8c-0.3-0.3-0.6-0.5-1-0.6c-0.4-0.2-0.9-0.3-1.4-0.3c-0.8,0-1.5,0.2-2.1,0.7
			s-1,1.1-1.3,1.9H415z"/>
		<path fill="#FFFFFF" d="M429.5,947.5h-0.2c-0.4,0.5-0.9,1-1.6,1.3c-0.6,0.4-1.4,0.6-2.3,0.6c-0.7,0-1.4-0.1-2-0.4
			c-0.6-0.2-1.2-0.6-1.6-1c-0.5-0.4-0.8-0.9-1.1-1.5c-0.3-0.6-0.4-1.2-0.4-1.9c0-0.7,0.1-1.3,0.4-1.9c0.3-0.6,0.7-1.1,1.2-1.5
			c0.5-0.4,1.1-0.7,1.8-0.9c0.7-0.2,1.4-0.3,2.2-0.3c0.9,0,1.6,0.1,2.2,0.2c0.6,0.1,1.1,0.3,1.4,0.4v-0.4c0-0.7-0.3-1.3-0.9-1.8
			c-0.6-0.5-1.3-0.7-2.2-0.7c-1.3,0-2.3,0.5-3.2,1.6l-2.7-1.8c1.5-1.8,3.4-2.7,6-2.7c2.1,0,3.8,0.5,4.9,1.5c1.1,1,1.7,2.5,1.7,4.4
			v8.2h-3.6V947.5z M429.5,943.4c-0.4-0.2-0.9-0.4-1.3-0.5c-0.5-0.1-1-0.2-1.5-0.2c-0.9,0-1.6,0.2-2,0.6c-0.5,0.4-0.7,0.9-0.7,1.4
			c0,0.6,0.2,1,0.7,1.3s1,0.5,1.6,0.5c0.5,0,0.9-0.1,1.3-0.3s0.8-0.4,1.1-0.7c0.3-0.3,0.5-0.6,0.7-1
			C429.4,944.2,429.5,943.8,429.5,943.4z"/>
		<path fill="#FFFFFF" d="M446.1,947.3h-0.2c-0.3,0.6-0.9,1.1-1.6,1.5s-1.6,0.6-2.6,0.6c-0.9,0-1.7-0.2-2.5-0.5
			c-0.8-0.4-1.5-0.9-2.1-1.5c-0.6-0.6-1.1-1.4-1.4-2.3c-0.4-0.9-0.5-1.9-0.5-2.9c0-1.1,0.2-2,0.5-2.9c0.4-0.9,0.8-1.7,1.4-2.3
			c0.6-0.6,1.3-1.1,2.1-1.5c0.8-0.4,1.6-0.5,2.5-0.5c1,0,1.9,0.2,2.6,0.6s1.2,0.9,1.6,1.5h0.2l-0.2-2v-6h3.7v20h-3.4V947.3z
			 M442.5,946.1c0.5,0,0.9-0.1,1.4-0.3c0.4-0.2,0.8-0.4,1.2-0.8s0.6-0.7,0.8-1.2s0.3-1,0.3-1.7c0-0.6-0.1-1.2-0.3-1.7
			s-0.5-0.9-0.8-1.2s-0.7-0.6-1.2-0.8c-0.4-0.2-0.9-0.3-1.4-0.3c-0.5,0-0.9,0.1-1.4,0.3s-0.8,0.4-1.2,0.8s-0.6,0.7-0.8,1.2
			c-0.2,0.5-0.3,1-0.3,1.6c0,0.6,0.1,1.1,0.3,1.6c0.2,0.5,0.5,0.9,0.8,1.2s0.7,0.6,1.2,0.8S442,946.1,442.5,946.1z"/>
		<path fill="#FFFFFF" d="M454.8,933.4c-0.3,0-0.6-0.1-0.9-0.2c-0.3-0.1-0.5-0.3-0.8-0.5s-0.4-0.5-0.5-0.7s-0.2-0.6-0.2-0.9
			s0.1-0.6,0.2-0.9c0.1-0.3,0.3-0.5,0.5-0.7s0.5-0.4,0.8-0.5s0.6-0.2,0.9-0.2c0.7,0,1.2,0.2,1.7,0.7c0.5,0.5,0.7,1,0.7,1.7
			s-0.2,1.2-0.7,1.7C456,933.2,455.4,933.4,454.8,933.4z M452.9,949v-13.7h3.7V949H452.9z"/>
		<path fill="#FFFFFF" d="M463.4,937.1h0.2c0.4-0.7,1-1.2,1.7-1.6c0.7-0.4,1.6-0.6,2.5-0.6c0.9,0,1.6,0.1,2.3,0.4
			c0.7,0.3,1.2,0.7,1.6,1.2s0.7,1.1,1,1.8s0.3,1.5,0.3,2.4v8.3h-3.7v-7.9c0-1-0.2-1.7-0.7-2.2c-0.4-0.5-1.1-0.7-1.9-0.7
			c-0.5,0-0.9,0.1-1.3,0.3s-0.7,0.5-1,0.9c-0.3,0.4-0.5,0.8-0.6,1.3c-0.1,0.5-0.2,1-0.2,1.6v6.7H460v-13.7h3.4V937.1z"/>
		<path fill="#FFFFFF" d="M482.2,955.5c-1,0-1.8-0.1-2.6-0.4s-1.4-0.6-2-1c-0.6-0.4-1-0.8-1.4-1.3s-0.6-1-0.8-1.5l3.5-1.4
			c0.3,0.7,0.7,1.3,1.3,1.7c0.6,0.4,1.3,0.6,2,0.6c1.2,0,2.1-0.4,2.7-1.1s1-1.8,1-3.1v-1h-0.2c-0.4,0.6-1,1.1-1.7,1.4
			c-0.7,0.3-1.5,0.5-2.5,0.5c-0.8,0-1.6-0.2-2.4-0.5c-0.8-0.3-1.5-0.8-2.1-1.4s-1.1-1.4-1.5-2.2c-0.4-0.9-0.6-1.8-0.6-2.9
			c0-1.1,0.2-2,0.6-2.9s0.9-1.6,1.5-2.2s1.3-1.1,2.1-1.4c0.8-0.3,1.6-0.5,2.4-0.5c1,0,1.8,0.2,2.5,0.5c0.7,0.3,1.3,0.8,1.7,1.4h0.2
			v-1.5h3.5V948c0,1.2-0.2,2.2-0.5,3.1c-0.4,0.9-0.8,1.7-1.5,2.4c-0.6,0.6-1.4,1.1-2.3,1.5C484.3,955.3,483.3,955.5,482.2,955.5z
			 M482.4,945.7c0.4,0,0.9-0.1,1.3-0.2c0.4-0.2,0.8-0.4,1.2-0.7c0.3-0.3,0.6-0.7,0.8-1.2c0.2-0.5,0.3-1,0.3-1.6s-0.1-1.1-0.3-1.6
			s-0.5-0.9-0.8-1.2c-0.3-0.3-0.7-0.6-1.2-0.7s-0.9-0.2-1.3-0.2c-0.4,0-0.9,0.1-1.3,0.2s-0.8,0.4-1.1,0.7c-0.3,0.3-0.6,0.7-0.8,1.2
			c-0.2,0.5-0.3,1-0.3,1.6s0.1,1.1,0.3,1.6c0.2,0.5,0.5,0.9,0.8,1.2c0.3,0.3,0.7,0.6,1.1,0.7C481.5,945.6,481.9,945.7,482.4,945.7z"
			/>
		<path fill="#FFFFFF" d="M499.2,949v-20h7.1c1,0,1.8,0.2,2.7,0.5c0.8,0.3,1.6,0.7,2.2,1.3c0.6,0.6,1.1,1.2,1.5,2
			c0.4,0.8,0.5,1.6,0.5,2.6c0,1-0.2,1.8-0.5,2.6c-0.4,0.8-0.8,1.4-1.5,2c-0.6,0.6-1.3,1-2.2,1.3c-0.8,0.3-1.7,0.5-2.7,0.5H503v7.4
			H499.2z M506.3,938.1c1,0,1.7-0.3,2.2-0.8c0.5-0.6,0.8-1.2,0.8-1.9c0-0.4-0.1-0.7-0.2-1s-0.3-0.6-0.6-0.9s-0.6-0.5-0.9-0.6
			s-0.8-0.2-1.3-0.2H503v5.5H506.3z"/>
		<path fill="#FFFFFF" d="M515.3,935.3h3.4v1.9h0.2c0.2-0.3,0.4-0.6,0.7-0.9c0.3-0.3,0.6-0.5,0.9-0.7s0.7-0.4,1.1-0.5
			c0.4-0.1,0.8-0.2,1.2-0.2c0.5,0,0.9,0.1,1.2,0.2c0.3,0.1,0.6,0.2,0.9,0.4l-1,3.3c-0.2-0.1-0.5-0.2-0.7-0.3c-0.3-0.1-0.6-0.1-1-0.1
			c-0.5,0-1,0.1-1.4,0.3c-0.4,0.2-0.8,0.5-1.1,0.8c-0.3,0.4-0.5,0.8-0.7,1.3s-0.2,1-0.2,1.6v6.8h-3.7V935.3z"/>
		<path fill="#FFFFFF" d="M528.8,933.4c-0.3,0-0.6-0.1-0.9-0.2c-0.3-0.1-0.5-0.3-0.8-0.5c-0.2-0.2-0.4-0.5-0.5-0.7
			c-0.1-0.3-0.2-0.6-0.2-0.9s0.1-0.6,0.2-0.9c0.1-0.3,0.3-0.5,0.5-0.7c0.2-0.2,0.5-0.4,0.8-0.5c0.3-0.1,0.6-0.2,0.9-0.2
			c0.7,0,1.2,0.2,1.7,0.7c0.5,0.5,0.7,1,0.7,1.7s-0.2,1.2-0.7,1.7C530,933.2,529.4,933.4,528.8,933.4z M527,949v-13.7h3.7V949H527z"
			/>
		<path fill="#FFFFFF" d="M532.5,935.3h4.2l3.4,8.7h0.2l3.4-8.7h4.1L542,949h-3.6L532.5,935.3z"/>
		<path fill="#FFFFFF" d="M557.8,947.5h-0.2c-0.4,0.5-0.9,1-1.6,1.3c-0.6,0.4-1.4,0.6-2.3,0.6c-0.7,0-1.4-0.1-2-0.4
			c-0.6-0.2-1.2-0.6-1.6-1c-0.5-0.4-0.8-0.9-1.1-1.5c-0.3-0.6-0.4-1.2-0.4-1.9c0-0.7,0.1-1.3,0.4-1.9c0.3-0.6,0.7-1.1,1.2-1.5
			c0.5-0.4,1.1-0.7,1.8-0.9c0.7-0.2,1.4-0.3,2.2-0.3c0.9,0,1.6,0.1,2.2,0.2c0.6,0.1,1.1,0.3,1.4,0.4v-0.4c0-0.7-0.3-1.3-0.9-1.8
			c-0.6-0.5-1.3-0.7-2.2-0.7c-1.3,0-2.3,0.5-3.2,1.6l-2.7-1.8c1.5-1.8,3.4-2.7,6-2.7c2.1,0,3.8,0.5,4.9,1.5c1.1,1,1.7,2.5,1.7,4.4
			v8.2h-3.6V947.5z M557.8,943.4c-0.4-0.2-0.9-0.4-1.3-0.5c-0.5-0.1-1-0.2-1.5-0.2c-0.9,0-1.6,0.2-2,0.6c-0.5,0.4-0.7,0.9-0.7,1.4
			c0,0.6,0.2,1,0.7,1.3s1,0.5,1.6,0.5c0.5,0,0.9-0.1,1.3-0.3c0.4-0.2,0.8-0.4,1-0.7c0.3-0.3,0.5-0.6,0.7-1S557.8,943.8,557.8,943.4z
			"/>
		<path fill="#FFFFFF" d="M565.5,938.4h-2.4v-3.1h2.4v-4.2h3.7v4.2h3.4v3.1h-3.4v5.5c0,0.3,0,0.6,0.1,0.9c0.1,0.3,0.2,0.5,0.4,0.7
			c0.3,0.3,0.6,0.5,1.1,0.5c0.3,0,0.6,0,0.8-0.1c0.2-0.1,0.4-0.2,0.5-0.3l1,3.2c-0.4,0.2-0.9,0.4-1.4,0.5c-0.5,0.1-1,0.2-1.6,0.2
			c-0.7,0-1.3-0.1-1.9-0.3c-0.6-0.2-1-0.5-1.4-0.9c-0.9-0.9-1.3-2.1-1.3-3.7V938.4z"/>
		<path fill="#FFFFFF" d="M588.1,945.7c-0.6,1.1-1.5,2-2.6,2.7c-1.1,0.7-2.4,1-3.9,1c-1,0-2-0.2-2.9-0.5c-0.9-0.4-1.7-0.9-2.3-1.5
			c-0.7-0.7-1.2-1.4-1.5-2.3c-0.4-0.9-0.5-1.9-0.5-2.9c0-1,0.2-1.9,0.5-2.8c0.4-0.9,0.8-1.7,1.5-2.3c0.6-0.7,1.4-1.2,2.3-1.6
			c0.9-0.4,1.8-0.6,2.9-0.6c1.1,0,2.1,0.2,2.9,0.5c0.9,0.4,1.6,0.9,2.2,1.5c0.6,0.6,1,1.4,1.3,2.3c0.3,0.9,0.4,1.8,0.4,2.9
			c0,0.1,0,0.2,0,0.3c0,0.1,0,0.2,0,0.3c0,0.1,0,0.2,0,0.3h-10.3c0.1,0.6,0.2,1,0.5,1.4c0.2,0.4,0.5,0.7,0.9,1
			c0.3,0.3,0.7,0.5,1.1,0.6c0.4,0.1,0.8,0.2,1.3,0.2c0.8,0,1.5-0.2,2.1-0.6s1-0.9,1.3-1.4L588.1,945.7z M584.8,940.4
			c0-0.2-0.1-0.5-0.2-0.8s-0.3-0.6-0.6-0.8c-0.3-0.3-0.6-0.5-1-0.6c-0.4-0.2-0.9-0.3-1.4-0.3c-0.8,0-1.5,0.2-2.1,0.7s-1,1.1-1.3,1.9
			H584.8z"/>
		<path fill="#FFFFFF" d="M597.3,949v-20h7.1c1,0,1.8,0.2,2.7,0.5c0.8,0.3,1.6,0.7,2.2,1.3c0.6,0.6,1.1,1.2,1.5,2
			c0.4,0.8,0.5,1.6,0.5,2.6c0,1-0.2,1.8-0.5,2.6c-0.4,0.8-0.8,1.4-1.5,2c-0.6,0.6-1.3,1-2.2,1.3c-0.8,0.3-1.7,0.5-2.7,0.5H601v7.4
			H597.3z M604.4,938.1c1,0,1.7-0.3,2.2-0.8c0.5-0.6,0.8-1.2,0.8-1.9c0-0.4-0.1-0.7-0.2-1s-0.3-0.6-0.6-0.9s-0.6-0.5-0.9-0.6
			s-0.8-0.2-1.3-0.2H601v5.5H604.4z"/>
		<path fill="#FFFFFF" d="M621.3,947.5h-0.2c-0.4,0.5-0.9,1-1.6,1.3c-0.6,0.4-1.4,0.6-2.3,0.6c-0.7,0-1.4-0.1-2-0.4
			c-0.6-0.2-1.2-0.6-1.6-1c-0.5-0.4-0.8-0.9-1.1-1.5c-0.3-0.6-0.4-1.2-0.4-1.9c0-0.7,0.1-1.3,0.4-1.9c0.3-0.6,0.7-1.1,1.2-1.5
			c0.5-0.4,1.1-0.7,1.8-0.9c0.7-0.2,1.4-0.3,2.2-0.3c0.9,0,1.6,0.1,2.2,0.2c0.6,0.1,1.1,0.3,1.4,0.4v-0.4c0-0.7-0.3-1.3-0.9-1.8
			c-0.6-0.5-1.3-0.7-2.2-0.7c-1.3,0-2.3,0.5-3.2,1.6l-2.7-1.8c1.5-1.8,3.4-2.7,6-2.7c2.1,0,3.8,0.5,4.9,1.5c1.1,1,1.7,2.5,1.7,4.4
			v8.2h-3.6V947.5z M621.3,943.4c-0.4-0.2-0.9-0.4-1.3-0.5c-0.5-0.1-1-0.2-1.5-0.2c-0.9,0-1.6,0.2-2,0.6c-0.5,0.4-0.7,0.9-0.7,1.4
			c0,0.6,0.2,1,0.7,1.3s1,0.5,1.6,0.5c0.5,0,0.9-0.1,1.3-0.3c0.4-0.2,0.8-0.4,1-0.7c0.3-0.3,0.5-0.6,0.7-1S621.3,943.8,621.3,943.4z
			"/>
		<path fill="#FFFFFF" d="M633.1,949.4c-0.9,0-1.7-0.1-2.4-0.3c-0.7-0.2-1.3-0.5-1.8-0.9c-0.5-0.4-0.9-0.8-1.3-1.3
			c-0.4-0.5-0.6-1-0.8-1.4l3.3-1.4c0.3,0.7,0.7,1.2,1.3,1.6c0.5,0.3,1.1,0.5,1.8,0.5c0.7,0,1.2-0.1,1.6-0.4c0.4-0.2,0.6-0.5,0.6-0.9
			c0-0.4-0.2-0.7-0.5-0.9c-0.3-0.2-0.9-0.4-1.7-0.6l-1.9-0.4c-0.4-0.1-0.9-0.2-1.3-0.4c-0.5-0.2-0.9-0.5-1.2-0.8
			c-0.4-0.3-0.7-0.7-0.9-1.1c-0.2-0.4-0.4-1-0.4-1.6c0-0.7,0.1-1.3,0.4-1.8s0.7-1,1.2-1.3s1.1-0.6,1.8-0.8c0.7-0.2,1.4-0.3,2.2-0.3
			c1.3,0,2.5,0.3,3.5,0.8c1,0.5,1.8,1.3,2.3,2.5l-3.2,1.3c-0.3-0.5-0.6-0.9-1.1-1.2c-0.5-0.2-1-0.4-1.5-0.4c-0.5,0-1,0.1-1.4,0.3
			c-0.4,0.2-0.6,0.5-0.6,0.8c0,0.3,0.2,0.6,0.5,0.8c0.3,0.2,0.8,0.4,1.3,0.5l2.1,0.5c1.4,0.3,2.4,0.9,3.1,1.6s1,1.6,1,2.6
			c0,0.6-0.1,1.2-0.4,1.7c-0.3,0.5-0.7,1-1.2,1.4s-1.1,0.8-1.8,1S634,949.4,633.1,949.4z"/>
		<path fill="#FFFFFF" d="M642.6,938.4h-2.4v-3.1h2.4v-4.2h3.7v4.2h3.4v3.1h-3.4v5.5c0,0.3,0,0.6,0.1,0.9c0.1,0.3,0.2,0.5,0.4,0.7
			c0.3,0.3,0.6,0.5,1.1,0.5c0.3,0,0.6,0,0.8-0.1c0.2-0.1,0.4-0.2,0.5-0.3l1,3.2c-0.4,0.2-0.9,0.4-1.4,0.5s-1,0.2-1.6,0.2
			c-0.7,0-1.3-0.1-1.9-0.3s-1-0.5-1.4-0.9c-0.9-0.9-1.3-2.1-1.3-3.7V938.4z"/>
		<path fill="#FFFFFF" d="M665.1,945.7c-0.6,1.1-1.5,2-2.6,2.7c-1.1,0.7-2.4,1-3.9,1c-1,0-2-0.2-2.9-0.5c-0.9-0.4-1.7-0.9-2.3-1.5
			c-0.7-0.7-1.2-1.4-1.5-2.3c-0.4-0.9-0.5-1.9-0.5-2.9c0-1,0.2-1.9,0.5-2.8c0.4-0.9,0.8-1.7,1.5-2.3c0.6-0.7,1.4-1.2,2.3-1.6
			c0.9-0.4,1.8-0.6,2.9-0.6c1.1,0,2.1,0.2,2.9,0.5s1.6,0.9,2.2,1.5c0.6,0.6,1,1.4,1.3,2.3c0.3,0.9,0.4,1.8,0.4,2.9
			c0,0.1,0,0.2,0,0.3c0,0.1,0,0.2,0,0.3c0,0.1,0,0.2,0,0.3H655c0.1,0.6,0.2,1,0.5,1.4c0.2,0.4,0.5,0.7,0.9,1
			c0.3,0.3,0.7,0.5,1.1,0.6c0.4,0.1,0.8,0.2,1.3,0.2c0.8,0,1.5-0.2,2.1-0.6s1-0.9,1.3-1.4L665.1,945.7z M661.8,940.4
			c0-0.2-0.1-0.5-0.2-0.8c-0.1-0.3-0.3-0.6-0.6-0.8c-0.3-0.3-0.6-0.5-1-0.6c-0.4-0.2-0.9-0.3-1.4-0.3c-0.8,0-1.5,0.2-2.1,0.7
			s-1,1.1-1.3,1.9H661.8z"/>
	</g>
</g>
<g id="Layer_3">
</g>
</svg>
