<svg width="89" height="89" viewBox="0 0 89 89" fill="none" xmlns="http://www.w3.org/2000/svg">
<g filter="url(#filter0_d)">
<path fill-rule="evenodd" clip-rule="evenodd" d="M44.0576 0.103705C54.6816 0.0347949 64.8704 4.18914 72.3826 11.6528C79.8949 19.1165 84.1153 29.2782 84.1153 39.9023C84.1153 50.5265 79.8949 60.7429 72.3827 68.3041C64.8704 75.8652 54.6816 80.1517 44.0576 80.2206C33.4337 80.2896 23.2449 76.1352 15.7326 68.6715C8.22035 61.2078 4 51.0462 4 40.422C4 29.7978 8.22034 19.5814 15.7326 12.0203C23.2449 4.45913 33.4337 0.172615 44.0576 0.103705ZM57.3067 41.8488C57.7768 42.3159 58.4144 42.5759 59.0792 42.5716C59.7441 42.5672 60.3817 42.299 60.8518 41.8258C61.3219 41.3527 61.586 40.7133 61.586 40.0485C61.586 39.3836 61.3219 38.7477 60.8518 38.2807L45.8302 23.3562C45.5976 23.1245 45.3213 22.9413 45.0172 22.8171C44.713 22.6928 44.3869 22.63 44.0576 22.6321C43.7283 22.6343 43.4022 22.7013 43.0981 22.8295C42.7939 22.9577 42.5176 23.1445 42.2851 23.3792L27.2635 38.4985C27.0307 38.7328 26.846 39.0104 26.7201 39.3153C26.5941 39.6203 26.5293 39.9467 26.5293 40.2759C26.5293 40.6051 26.5941 40.9306 26.7201 41.2339C26.846 41.5373 27.0307 41.8124 27.2635 42.0437C27.4962 42.275 27.7726 42.4578 28.0767 42.5818C28.3809 42.7058 28.7068 42.7686 29.036 42.7664C29.3652 42.7643 29.6912 42.6973 29.9953 42.5694C30.2995 42.4414 30.5758 42.255 30.8086 42.0207L41.554 31.2003L41.554 55.2003C41.554 55.8643 41.8178 56.4995 42.2873 56.9659C42.7568 57.4324 43.3936 57.6921 44.0576 57.6878C44.7216 57.6834 45.3584 57.4155 45.8279 56.943C46.2975 56.4704 46.5612 55.8319 46.5612 55.1679L46.5612 31.1678L57.3067 41.8488Z" fill="#105A80"/>
</g>
<defs>
<filter id="filter0_d" x="0" y="0.103027" width="88.1153" height="88.1186" filterUnits="userSpaceOnUse" color-interpolation-filters="sRGB">
<feFlood flood-opacity="0" result="BackgroundImageFix"/>
<feColorMatrix in="SourceAlpha" type="matrix" values="0 0 0 0 0 0 0 0 0 0 0 0 0 0 0 0 0 0 127 0" result="hardAlpha"/>
<feOffset dy="4"/>
<feGaussianBlur stdDeviation="2"/>
<feColorMatrix type="matrix" values="0 0 0 0 0 0 0 0 0 0 0 0 0 0 0 0 0 0 0.25 0"/>
<feBlend mode="normal" in2="BackgroundImageFix" result="effect1_dropShadow"/>
<feBlend mode="normal" in="SourceGraphic" in2="effect1_dropShadow" result="shape"/>
</filter>
</defs>
</svg>
