<svg width="53" height="44" viewBox="0 0 53 44" fill="none" xmlns="http://www.w3.org/2000/svg">
<path d="M49.5268 12.4331V9.35049H30.6447C30.179 8.04471 29.1518 7.01749 27.846 6.55182V0H24.7634V6.55182C23.4576 7.01749 22.4304 8.04471 21.9647 9.35049H3.08258V12.4331H6.93622L0 29.3873C0 33.6364 3.45732 37.0937 7.70645 37.0937H10.789C15.0382 37.0937 18.4955 33.6364 18.4955 29.3873L11.5279 12.4331H21.9648C22.4305 13.7389 23.4577 14.7661 24.7635 15.2317V37.2626C21.7513 37.8791 19.3685 40.2456 18.7543 43.2589H33.8553C33.2411 40.2456 30.8583 37.8791 27.8461 37.2626V15.2317C29.1519 14.7661 30.1791 13.7389 30.6448 12.4331H41.0502L34.1139 29.3873C34.1139 33.6364 37.5712 37.0937 41.8203 37.0937H44.9029C49.1521 37.0937 52.6094 33.6364 52.6094 29.3873L45.6418 12.4331H49.5268ZM14.6418 27.846H3.85364L9.24774 14.8985L14.6418 27.846ZM48.7557 27.846H37.9675L43.3616 14.8985L48.7557 27.846Z" fill="#ECF0F3"/>
</svg>
