<svg width="29" height="50" viewBox="0 0 29 50" fill="none" xmlns="http://www.w3.org/2000/svg">
<path d="M23.9231 16.779L28.5625 16.779C28.5625 9.8109 22.1717 6.63262 16.9639 5.90069L16.9639 0.813965L12.3245 0.813965L12.3245 5.90069C7.11676 6.63262 0.725952 9.8109 0.725952 16.779C0.725952 23.4254 6.91031 26.8813 12.3245 27.6599L12.3245 39.867C8.96557 39.2505 5.36538 37.3519 5.36538 33.9722L0.725951 33.9722C0.725951 40.3312 6.35125 44.0892 12.3245 44.8678L12.3245 49.9373L16.9639 49.9373L16.9639 44.853C22.1717 44.1211 28.5625 40.9404 28.5625 33.9722C28.5625 27.0041 22.1717 23.8258 16.9639 23.0939L16.9639 10.8842C20.0492 11.4713 23.9231 13.1955 23.9231 16.779ZM5.36538 16.779C5.36538 13.1955 9.2393 11.4713 12.3245 10.8842L12.3245 22.6714C9.14419 22.05 5.36538 20.2103 5.36538 16.779ZM23.9231 33.9722C23.9231 37.5558 20.0492 39.28 16.9639 39.867L16.9639 28.0774C20.0492 28.6644 23.9231 30.3887 23.9231 33.9722Z" fill="#ECF0F3"/>
</svg>
