<svg width="46" height="36" viewBox="0 0 46 36" fill="none" xmlns="http://www.w3.org/2000/svg">
<path d="M40.2018 35.5469H5.29713C4.50413 35.5469 3.82814 34.9771 3.69489 34.2L0.0224238 12.6152C-0.0783253 12.013 0.165423 11.4076 0.652919 11.045C1.14041 10.6824 1.79041 10.6176 2.3429 10.8928L12.8891 16.0729L21.326 0.77216C21.8947 -0.257387 23.6042 -0.257387 24.173 0.77216L32.6099 16.0729L43.156 10.8928C43.7053 10.6176 44.3585 10.6824 44.846 11.045C45.3335 11.4076 45.5805 12.0162 45.4765 12.6152L41.8041 34.2C41.6708 34.9771 40.9916 35.5469 40.2018 35.5469ZM6.67186 32.3093H38.8303L41.7423 15.1955L32.6554 19.6601C31.8721 20.0486 30.9296 19.7475 30.5136 18.99L22.7495 4.91301L14.9885 18.99C14.5725 19.7475 13.6333 20.0486 12.8468 19.6601L3.75989 15.1955L6.67186 32.3093Z" fill="#ECF0F3"/>
</svg>
