<svg width="483" height="330" viewBox="0 0 483 330" fill="none" xmlns="http://www.w3.org/2000/svg">
<g filter="url(#filter0_d)">
<path d="M466.861 287.792C510.476 210.617 426.822 171.092 416.055 252.587C415.509 242.07 414.932 231.384 411.439 221.449C406.136 200.839 377.317 185.904 363.552 206.767C356.275 219.694 365.925 237.828 357.557 250.078C352.278 219.248 307.532 226.481 312.243 257.414C315.781 272.275 331.476 280.923 344.005 287.646L466.861 287.792Z" fill="#ECF0F3"/>
<path d="M318.652 238.74C340.792 245.926 368.459 258.032 370.704 284.49C370.768 285.539 372.409 285.547 372.344 284.49C371.771 275.148 367.219 266.598 360.917 259.836C354.007 252.423 345.052 247.36 335.807 243.431C334.001 243.013 315.185 234.109 318.652 238.74Z" fill="white"/>
<path d="M374.587 200.04C389.908 225.634 397.199 255.238 395.514 285.023C395.453 286.078 397.094 286.074 397.155 285.023C398.461 261.613 394.293 238.22 384.982 216.703C383.937 214.777 375.501 194.497 374.587 200.04Z" fill="white"/>
<path d="M454.88 209.467C444.079 233.76 437.393 259.681 435.096 286.17C435.004 287.222 436.645 287.215 436.736 286.17C438.523 265.745 442.936 245.636 449.865 226.341C449.846 224.192 459.302 206.748 454.88 209.467V209.467Z" fill="white"/>
<path d="M264.853 286.465C277.338 264.373 253.391 253.058 250.309 276.387C250.153 273.377 249.987 270.318 248.988 267.474C247.47 261.574 239.22 257.299 235.28 263.271C233.197 266.971 235.959 272.162 233.563 275.669C232.052 266.844 219.243 268.914 220.592 277.769C221.605 282.023 226.098 284.499 229.684 286.423L264.853 286.465Z" fill="#F2F2F2"/>
<path d="M222.426 272.423C228.764 274.48 236.684 277.945 237.327 285.52C237.345 285.82 237.815 285.822 237.796 285.519C237.554 282.859 236.398 280.365 234.525 278.462C232.484 276.411 230.035 274.811 227.337 273.766C226.82 273.646 221.434 271.097 222.426 272.423Z" fill="white"/>
<path d="M238.438 261.345C242.824 268.671 244.911 277.146 244.429 285.672C244.411 285.974 244.881 285.973 244.898 285.672C245.272 278.971 244.079 272.274 241.414 266.115C241.115 265.564 238.7 259.758 238.438 261.345V261.345Z" fill="white"/>
<path d="M261.423 264.043C258.331 270.997 256.417 278.417 255.76 286C255.733 286.301 256.203 286.299 256.229 286C256.741 280.153 258.004 274.397 259.988 268.873C259.982 268.258 262.689 263.265 261.423 264.043Z" fill="white"/>
<path d="M184.826 12.752H3.93631C3.76678 12.752 3.6042 12.6846 3.48433 12.5647C3.36446 12.4448 3.29712 12.2822 3.29712 12.1126C3.29712 11.943 3.36446 11.7803 3.48433 11.6604C3.6042 11.5405 3.76678 11.4731 3.93631 11.4731H184.826C184.996 11.4731 185.158 11.5405 185.278 11.6604C185.398 11.7803 185.466 11.943 185.466 12.1126C185.466 12.2822 185.398 12.4448 185.278 12.5647C185.158 12.6846 184.996 12.752 184.826 12.752Z" fill="#3F3D56"/>
<path d="M147.625 22.3432C153.626 22.3432 158.491 17.4765 158.491 11.4731C158.491 5.46974 153.626 0.603027 147.625 0.603027C141.624 0.603027 136.759 5.46974 136.759 11.4731C136.759 17.4765 141.624 22.3432 147.625 22.3432Z" fill="#105A80"/>
<path d="M184.826 53.6749H3.93631C3.76678 53.6749 3.6042 53.6075 3.48433 53.4876C3.36446 53.3677 3.29712 53.205 3.29712 53.0354C3.29712 52.8658 3.36446 52.7032 3.48433 52.5833C3.6042 52.4634 3.76678 52.396 3.93631 52.396H184.826C184.996 52.396 185.158 52.4634 185.278 52.5833C185.398 52.7032 185.466 52.8658 185.466 53.0354C185.466 53.205 185.398 53.3677 185.278 53.4876C185.158 53.6075 184.996 53.6749 184.826 53.6749Z" fill="#3F3D56"/>
<path d="M46.6333 63.2656C52.6345 63.2656 57.4995 58.3989 57.4995 52.3955C57.4995 46.3921 52.6345 41.5254 46.6333 41.5254C40.6321 41.5254 35.7671 46.3921 35.7671 52.3955C35.7671 58.3989 40.6321 63.2656 46.6333 63.2656Z" fill="#105A80"/>
<path d="M184.826 94.5977H3.93631C3.76678 94.5977 3.6042 94.5303 3.48433 94.4104C3.36446 94.2905 3.29712 94.1279 3.29712 93.9583C3.29712 93.7887 3.36446 93.6261 3.48433 93.5061C3.6042 93.3862 3.76678 93.3188 3.93631 93.3188H184.826C184.996 93.3188 185.158 93.3862 185.278 93.5061C185.398 93.6261 185.466 93.7887 185.466 93.9583C185.466 94.1279 185.398 94.2905 185.278 94.4104C185.158 94.5303 184.996 94.5977 184.826 94.5977Z" fill="#3F3D56"/>
<path d="M89.459 104.189C95.4603 104.189 100.325 99.3222 100.325 93.3188C100.325 87.3154 95.4603 82.4487 89.459 82.4487C83.4578 82.4487 78.5928 87.3154 78.5928 93.3188C78.5928 99.3222 83.4578 104.189 89.459 104.189Z" fill="#105A80"/>
<path d="M267.642 101.098C267.867 101.403 268.067 101.725 268.241 102.061L301.93 105.85L306.83 99.2279L317.787 105.319L308.142 121.405L266.868 110.569C265.817 111.579 264.484 112.245 263.046 112.479C261.608 112.713 260.133 112.503 258.817 111.878C257.501 111.253 256.406 110.242 255.679 108.979C254.951 107.716 254.625 106.262 254.744 104.809C254.863 103.357 255.421 101.975 256.344 100.847C257.267 99.7195 258.512 98.8998 259.912 98.4969C261.312 98.0941 262.802 98.1272 264.183 98.5918C265.563 99.0565 266.77 99.9307 267.642 101.098Z" fill="#FFB8B8"/>
<path d="M315.393 111.08C315.121 110.96 314.869 110.803 314.642 110.611L301.102 99.201C300.777 98.9268 300.512 98.5879 300.324 98.206C300.136 97.824 300.029 97.4072 300.011 96.982C299.992 96.5567 300.062 96.1321 300.216 95.7352C300.37 95.3383 300.604 94.9777 300.904 94.6761L313.191 82.3341C313.707 81.8114 314.394 81.4918 315.126 81.4335C315.858 81.3752 316.586 81.5821 317.178 82.0164L326.47 88.7661C327.05 89.1877 327.464 89.7985 327.642 90.4933C327.82 91.188 327.75 91.923 327.443 92.5714L319.405 109.573C319.063 110.297 318.453 110.858 317.704 111.139C316.955 111.421 316.126 111.399 315.393 111.08H315.393Z" fill="#105A80"/>
<path d="M368.204 272.456L360.117 274.657L347.782 244.502L359.717 241.253L368.204 272.456Z" fill="#FFB8B8"/>
<path d="M353.075 274.09L369.308 269.671L371.98 279.494L346.565 286.412L346.391 285.774C345.729 283.338 346.061 280.738 347.314 278.547C348.567 276.356 350.64 274.753 353.075 274.09Z" fill="#2F2E41"/>
<path d="M299.072 278.629L290.691 278.628L286.704 246.291L299.074 246.292L299.072 278.629Z" fill="#FFB8B8"/>
<path d="M284.044 276.233H300.868V286.414H274.528V285.752C274.528 283.228 275.531 280.806 277.315 279.021C279.1 277.236 281.52 276.233 284.044 276.233Z" fill="#2F2E41"/>
<path d="M323.569 60.2012C330.126 53.642 330.126 43.0074 323.569 36.4482C317.012 29.889 306.381 29.889 299.824 36.4482C293.268 43.0074 293.268 53.642 299.824 60.2012C306.381 66.7604 317.012 66.7604 323.569 60.2012Z" fill="#FFB8B8"/>
<path d="M298.559 255.573H287.106C286.323 255.571 285.57 255.272 284.999 254.736C284.428 254.2 284.083 253.466 284.033 252.685C280.62 198.414 282.616 159.485 290.315 130.172C290.348 130.044 290.39 129.918 290.439 129.795L291.053 128.261C291.279 127.689 291.673 127.198 292.182 126.853C292.692 126.508 293.294 126.324 293.909 126.326H317.46C317.904 126.326 318.343 126.422 318.746 126.607C319.149 126.793 319.507 127.063 319.796 127.401L322.995 131.134C323.057 131.207 323.116 131.281 323.172 131.36C337.597 151.482 350.524 190.823 365.495 243.7C365.716 244.469 365.629 245.293 365.251 245.998C364.873 246.702 364.235 247.232 363.473 247.473L351.165 251.413C350.458 251.635 349.695 251.597 349.014 251.304C348.334 251.011 347.781 250.484 347.456 249.818L315.516 183.549C315.293 183.085 314.927 182.707 314.471 182.468C314.016 182.23 313.496 182.144 312.988 182.224C312.48 182.305 312.012 182.546 311.652 182.914C311.292 183.281 311.061 183.754 310.991 184.264L301.606 252.912C301.503 253.648 301.138 254.322 300.579 254.811C300.019 255.3 299.302 255.57 298.559 255.573Z" fill="#2F2E41"/>
<path d="M321.704 131.408C321.672 131.408 321.64 131.407 321.607 131.406L293 130.503C292.264 130.482 291.561 130.198 291.018 129.701C290.474 129.205 290.128 128.53 290.041 127.799C286.414 98.4335 296.36 90.5666 300.805 88.5478C301.176 88.3802 301.498 88.1194 301.739 87.7907C301.98 87.462 302.132 87.0767 302.18 86.6719L302.565 83.594C302.63 83.0504 302.84 82.5343 303.172 82.0994C310.141 73.0692 319.656 70.1775 324.707 69.2579C325.117 69.1843 325.538 69.1947 325.943 69.2886C326.349 69.3824 326.731 69.5578 327.067 69.804C327.402 70.0502 327.685 70.3621 327.896 70.7208C328.108 71.0795 328.244 71.4774 328.297 71.8905L328.873 76.3101C328.932 76.7316 329.1 77.1304 329.361 77.4667C343.893 96.4721 327.704 124.534 324.31 129.966C324.033 130.407 323.649 130.77 323.193 131.023C322.737 131.275 322.225 131.407 321.704 131.408Z" fill="#E86C71"/>
<path d="M319.036 173.146C319.914 172.53 320.648 171.728 321.183 170.797C321.719 169.866 322.044 168.829 322.136 167.759C322.227 166.689 322.083 165.612 321.714 164.604C321.344 163.595 320.758 162.68 319.997 161.923L325.311 97.7295L309.489 99.9068L309.188 162.276C308.001 163.64 307.356 165.392 307.374 167.2C307.392 169.008 308.072 170.747 309.286 172.087C310.499 173.427 312.162 174.274 313.959 174.47C315.756 174.665 317.562 174.194 319.035 173.146H319.036Z" fill="#FFB8B8"/>
<path d="M326.344 106.973C326.048 106.973 325.753 106.93 325.469 106.846L308.485 101.849C308.076 101.729 307.697 101.525 307.372 101.251C307.046 100.977 306.781 100.638 306.593 100.257C306.405 99.8747 306.298 99.4579 306.279 99.0327C306.261 98.6074 306.33 98.1828 306.484 97.7858L312.769 81.5419C313.032 80.8558 313.532 80.2869 314.178 79.939C314.825 79.5911 315.575 79.4873 316.292 79.6467L327.513 82.0869C328.213 82.2395 328.838 82.6319 329.28 83.1964C329.722 83.7608 329.954 84.462 329.934 85.1788L329.412 103.979C329.39 104.779 329.057 105.539 328.484 106.098C327.912 106.656 327.144 106.97 326.344 106.973V106.973Z" fill="#E86C71"/>
<path d="M330.17 37.8789C328.923 34.0972 328.002 30.2154 327.418 26.2764C327.235 23.9831 327.822 21.5155 329.491 19.9332C332.616 16.972 337.924 18.3824 341.192 21.1849C345.914 25.2351 348.269 31.4595 349.159 37.618C350.049 43.7764 349.657 50.0389 349.872 56.2577C350.086 62.4765 350.975 68.8708 354.144 74.2251C357.314 79.5793 363.195 83.6891 369.399 83.2334C371.903 83.098 374.28 82.0901 376.119 80.3844C377.021 79.5254 377.705 78.4625 378.112 77.2848C378.519 76.107 378.638 74.8488 378.459 73.6155C381.63 79.2951 380.023 86.9928 375.293 91.4576C370.564 95.9225 363.289 97.1847 357.072 95.2784C350.854 93.3721 345.737 88.5922 342.68 82.8503C339.624 77.1085 338.504 70.4755 338.666 63.9723C338.791 58.9784 339.639 53.9436 338.796 49.0198C337.952 44.0961 334.872 39.0968 330.014 37.9373L330.17 37.8789Z" fill="#2F2E41"/>
<path d="M308.357 44.3518C307.528 47.1192 304.361 48.8258 301.511 48.3577C298.661 47.8896 296.318 45.542 295.452 42.7861C294.669 39.9714 294.99 36.9639 296.348 34.3775C297.097 32.8272 298.144 31.4398 299.429 30.2946C300.714 29.1495 302.212 28.2691 303.838 27.7039C305.473 27.162 307.214 27.021 308.915 27.2928C310.615 27.5647 312.226 28.2414 313.61 29.266C313.758 28.6443 314.068 28.0731 314.51 27.6113C314.951 27.1495 315.508 26.8137 316.122 26.6385C317.359 26.3051 318.664 26.3243 319.891 26.6942C323.425 27.7017 326.488 29.9306 328.534 32.9843C330.555 36.0287 331.891 39.475 332.452 43.0858C333.416 48.5008 333.06 54.4179 330.02 59.0008C326.98 63.5838 320.76 66.2899 315.714 64.1049C315.4 62.4959 316.145 60.8757 317.008 59.4814C317.87 58.0872 318.892 56.7289 319.223 55.1232C319.554 53.5175 318.919 51.5534 317.367 51.0283C316.042 50.5803 314.63 51.3061 313.234 51.3938C312.442 51.4436 311.65 51.284 310.939 50.9311C310.228 50.5782 309.621 50.0444 309.181 49.3832C308.741 48.722 308.483 47.9566 308.432 47.164C308.381 46.3713 308.539 45.5791 308.891 44.867L308.357 44.3518Z" fill="#2F2E41"/>
<path d="M159.994 291.576L154.063 294.145C153.668 294.32 153.336 294.59 153.104 294.926C152.871 295.262 152.747 295.65 152.746 296.045C152.745 296.441 152.867 296.829 153.098 297.166C153.328 297.503 153.659 297.775 154.053 297.952L159.994 300.547L207.905 321.549L212.126 323.398C212.416 323.522 212.731 323.592 213.051 323.604C213.372 323.615 213.692 323.568 213.992 323.464C214.292 323.36 214.565 323.202 214.794 323.001C215.024 322.799 215.206 322.557 215.328 322.29C215.44 322.04 215.497 321.773 215.497 321.503L215.497 308.953C215.501 308.395 215.75 307.861 216.188 307.466C216.627 307.071 217.221 306.847 217.842 306.843L461.65 306.843C467.772 306.843 472.735 301.881 472.735 295.759C472.735 289.626 467.756 284.658 461.623 284.674L217.842 285.274C217.218 285.27 216.622 285.044 216.182 284.646C215.743 284.248 215.497 283.71 215.497 283.149L215.497 270.872C215.497 270.603 215.44 270.336 215.328 270.086C215.206 269.819 215.025 269.577 214.796 269.375C214.568 269.173 214.295 269.015 213.996 268.911C213.697 268.807 213.378 268.758 213.058 268.769C212.737 268.779 212.423 268.848 212.133 268.972L207.905 270.793L159.994 291.576Z" fill="#2F2E41"/>
</g>
<defs>
<filter id="filter0_d" x="0.45337" y="0.603027" width="481.754" height="328.69" filterUnits="userSpaceOnUse" color-interpolation-filters="sRGB">
<feFlood flood-opacity="0" result="BackgroundImageFix"/>
<feColorMatrix in="SourceAlpha" type="matrix" values="0 0 0 0 0 0 0 0 0 0 0 0 0 0 0 0 0 0 127 0" result="hardAlpha"/>
<feOffset dy="2.84375"/>
<feGaussianBlur stdDeviation="1.42187"/>
<feColorMatrix type="matrix" values="0 0 0 0 0 0 0 0 0 0 0 0 0 0 0 0 0 0 0.25 0"/>
<feBlend mode="normal" in2="BackgroundImageFix" result="effect1_dropShadow"/>
<feBlend mode="normal" in="SourceGraphic" in2="effect1_dropShadow" result="shape"/>
</filter>
</defs>
</svg>
