<svg width="55" height="45" viewBox="0 0 55 45" fill="none" xmlns="http://www.w3.org/2000/svg">
<path d="M54.0703 27.7066C54.0703 33.6336 52.184 39.2597 48.6153 43.9776C47.9112 44.9088 46.5872 45.0894 45.6588 44.3873C44.7293 43.6841 44.5458 42.3604 45.2487 41.4309C48.2583 37.4525 49.8491 32.7065 49.8491 27.7066C49.8491 15.1082 39.6461 4.92456 27.0547 4.92456C14.4546 4.92456 4.26025 15.116 4.26025 27.7066C4.26025 32.7065 5.85103 37.4525 8.86028 41.4309C9.56354 42.3604 9.3801 43.6841 8.45053 44.3873C7.52055 45.0906 6.1973 44.9072 5.49363 43.9776C1.92541 39.2597 0.0390625 33.6336 0.0390625 27.7066C0.0390625 12.7742 12.1305 0.703369 27.0547 0.703369C41.9872 0.703369 54.0703 12.7824 54.0703 27.7066ZM40.4277 14.9956C41.2517 15.8197 41.2517 17.1561 40.4277 17.9802L33.5481 24.8598C34.1145 25.904 34.4368 27.0994 34.4368 28.3682C34.4368 32.439 31.125 35.7504 27.0547 35.7504C22.984 35.7504 19.6726 32.439 19.6726 28.3682C19.6726 24.2979 22.984 20.9861 27.0547 20.9861C28.3239 20.9861 29.519 21.3085 30.5631 21.8749L37.4428 14.9952C38.2672 14.1712 39.6033 14.1712 40.4277 14.9956ZM30.2156 28.3687C30.2156 26.6258 28.7976 25.2077 27.0547 25.2077C25.3118 25.2077 23.8937 26.6258 23.8937 28.3687C23.8937 30.1116 25.3118 31.5296 27.0547 31.5296C28.7976 31.5296 30.2156 30.1116 30.2156 28.3687Z" fill="#ECF0F3"/>
</svg>
